<svg width="664" height="88" viewBox="0 0 664 88" fill="none" xmlns="http://www.w3.org/2000/svg">
<path d="M44.1256 55.7379C28.0464 55.9103 14.0347 60.3749 6.42744 66.8948C14.241 79.6887 28.3926 88.1686 44.4717 87.9962C60.5509 87.8238 74.5165 79.0439 82.0558 66.0857C74.3115 59.7302 60.2061 55.5655 44.1269 55.7379H44.1256Z" fill="#EF7730"/>
<path d="M43.8934 33.9903C60.4477 33.8125 74.811 29.0859 82.2486 22.2498C74.5938 8.81787 60.0839 -0.1752 43.5296 0.0026249C26.9754 0.179093 12.6609 9.4803 5.29532 23.0737C12.8781 29.7483 27.3392 34.1681 43.8934 33.9903Z" fill="#EF7730"/>
<path d="M50.1106 0.423433C47.9618 0.124795 45.7654 -0.0218091 43.5296 0.0026249C29.7717 0.149229 17.5586 6.5998 9.59712 16.5757C28.8812 16.0476 44.9468 9.34863 50.1106 0.423433Z" fill="#F9D85E"/>
<path d="M9.13694 17.1743C3.32021 24.723 -0.107387 34.2007 0.00256754 44.4711C0.124739 55.8248 4.53785 66.1278 11.6835 73.8571C23.4052 79.9181 34.288 80.8343 39.8428 75.1589C48.3418 66.4753 41.1527 45.6575 23.788 28.6596C19.0627 24.0348 14.0713 20.177 9.13694 17.1743Z" fill="#F9D85E"/>
<path d="M87.9974 43.5291C87.8753 32.1741 83.4621 21.8724 76.3178 14.1431C64.5961 8.08213 53.7133 7.16586 48.1572 12.8413C39.6582 21.5235 46.8459 42.3427 64.212 59.3406C68.9373 63.9654 73.9287 67.8233 78.8631 70.8259C84.6798 63.2758 88.1074 53.7981 87.9974 43.5291Z" fill="#F9D85E"/>
<path d="M37.2935 87.4831C39.6324 87.8415 42.0283 88.0234 44.4704 87.9976C58.2337 87.8496 70.4481 81.3963 78.4097 71.415C58.907 71.8073 42.5794 78.5063 37.2935 87.4831Z" fill="#F9D85E"/>
<path d="M142.536 69.864C139.896 69.864 137.472 69.552 135.264 68.928C133.104 68.304 131.184 67.44 129.504 66.336C127.872 65.232 126.504 64.008 125.4 62.664C124.344 61.272 123.6 59.832 123.168 58.344L131.376 55.824C132 57.6 133.224 59.16 135.048 60.504C136.872 61.848 139.128 62.544 141.816 62.592C144.936 62.592 147.408 61.944 149.232 60.648C151.056 59.352 151.968 57.648 151.968 55.536C151.968 53.616 151.2 52.056 149.664 50.856C148.128 49.608 146.064 48.648 143.472 47.976L137.28 46.392C134.928 45.768 132.792 44.856 130.872 43.656C129 42.456 127.512 40.944 126.408 39.12C125.352 37.296 124.824 35.136 124.824 32.64C124.824 27.936 126.36 24.288 129.432 21.696C132.504 19.056 136.896 17.736 142.608 17.736C145.824 17.736 148.632 18.24 151.032 19.248C153.48 20.208 155.496 21.552 157.08 23.28C158.664 24.96 159.84 26.88 160.608 29.04L152.544 31.632C151.824 29.712 150.576 28.128 148.8 26.88C147.024 25.632 144.816 25.008 142.176 25.008C139.44 25.008 137.28 25.656 135.696 26.952C134.16 28.248 133.392 30.048 133.392 32.352C133.392 34.224 133.992 35.688 135.192 36.744C136.44 37.752 138.12 38.52 140.232 39.048L146.424 40.56C150.936 41.664 154.44 43.56 156.936 46.248C159.432 48.936 160.68 51.912 160.68 55.176C160.68 58.056 159.984 60.6 158.592 62.808C157.2 65.016 155.136 66.744 152.4 67.992C149.712 69.24 146.424 69.864 142.536 69.864ZM182.737 69.864C178.945 69.864 176.041 68.928 174.025 67.056C172.057 65.136 171.073 62.4 171.073 58.848V39.912H165.097V33H171.073V21.768H179.065V33H188.785V39.912H179.065V57.336C179.065 59.016 179.449 60.288 180.217 61.152C181.033 62.016 182.209 62.448 183.745 62.448C184.225 62.448 184.753 62.352 185.329 62.16C185.905 61.968 186.553 61.608 187.273 61.08L190.225 67.2C188.977 68.064 187.729 68.712 186.481 69.144C185.233 69.624 183.985 69.864 182.737 69.864ZM207.775 69.864C203.455 69.864 200.095 68.904 197.695 66.984C195.343 65.064 194.167 62.352 194.167 58.848C194.167 55.104 195.415 52.248 197.911 50.28C200.455 48.312 203.983 47.328 208.495 47.328H217.639C217.351 44.688 216.607 42.672 215.407 41.28C214.207 39.888 212.431 39.192 210.079 39.192C208.351 39.192 206.839 39.552 205.543 40.272C204.247 40.992 203.143 42.12 202.231 43.656L195.175 41.064C195.943 39.48 196.951 38.016 198.199 36.672C199.495 35.28 201.103 34.176 203.023 33.36C204.991 32.544 207.343 32.136 210.079 32.136C213.583 32.136 216.511 32.832 218.863 34.224C221.215 35.568 222.943 37.512 224.047 40.056C225.199 42.6 225.775 45.672 225.775 49.272L225.559 69H218.143L217.927 64.608C216.967 66.288 215.623 67.584 213.895 68.496C212.215 69.408 210.175 69.864 207.775 69.864ZM208.783 63.096C210.559 63.096 212.119 62.712 213.463 61.944C214.855 61.128 215.911 60.048 216.631 58.704C217.399 57.36 217.783 55.872 217.783 54.24V53.52H211.087C207.871 53.52 205.615 53.976 204.319 54.888C203.023 55.752 202.375 57 202.375 58.632C202.375 60.024 202.927 61.128 204.031 61.944C205.183 62.712 206.767 63.096 208.783 63.096ZM233.941 69V18.6H242.005V47.544L255.469 33H265.189L251.653 47.904L266.413 69H256.837L246.469 53.664L242.005 58.56V69H233.941ZM271.64 69V33H279.632V69H271.64ZM275.672 26.16C274.376 26.16 273.248 25.704 272.288 24.792C271.376 23.832 270.92 22.704 270.92 21.408C270.92 20.112 271.376 19.008 272.288 18.096C273.248 17.184 274.376 16.728 275.672 16.728C276.968 16.728 278.072 17.184 278.984 18.096C279.944 19.008 280.424 20.112 280.424 21.408C280.424 22.704 279.944 23.832 278.984 24.792C278.072 25.704 276.968 26.16 275.672 26.16ZM289.136 69V33H296.696L297.056 38.112C298.208 36.192 299.696 34.728 301.52 33.72C303.392 32.664 305.528 32.136 307.928 32.136C310.808 32.136 313.256 32.712 315.272 33.864C317.336 35.016 318.896 36.816 319.952 39.264C321.056 41.664 321.608 44.808 321.608 48.696V69H313.544V50.568C313.544 47.688 313.208 45.48 312.536 43.944C311.912 42.36 311 41.256 309.8 40.632C308.648 40.008 307.28 39.696 305.696 39.696C303.008 39.648 300.92 40.536 299.432 42.36C297.944 44.184 297.2 46.8 297.2 50.208V69H289.136ZM345.257 84.336C342.713 84.336 340.409 84.12 338.345 83.688C336.329 83.256 334.625 82.752 333.233 82.176C331.841 81.6 330.761 81.048 329.993 80.52L333.089 74.04C333.761 74.376 334.649 74.784 335.753 75.264C336.905 75.792 338.249 76.248 339.785 76.632C341.321 77.016 343.049 77.208 344.969 77.208C347.033 77.208 348.881 76.776 350.513 75.912C352.145 75.096 353.417 73.824 354.329 72.096C355.241 70.368 355.697 68.16 355.697 65.472V61.872C354.449 63.888 352.817 65.472 350.801 66.624C348.833 67.728 346.577 68.28 344.033 68.28C340.769 68.28 337.913 67.536 335.465 66.048C333.065 64.56 331.169 62.496 329.777 59.856C328.433 57.168 327.761 54.072 327.761 50.568C327.761 46.824 328.433 43.584 329.777 40.848C331.169 38.112 333.065 35.976 335.465 34.44C337.913 32.904 340.769 32.136 344.033 32.136C346.577 32.136 348.833 32.712 350.801 33.864C352.817 35.016 354.449 36.672 355.697 38.832V33H363.761V65.256C363.761 69.336 362.993 72.792 361.457 75.624C359.921 78.504 357.761 80.664 354.977 82.104C352.193 83.592 348.953 84.336 345.257 84.336ZM346.265 61.44C348.089 61.44 349.673 60.96 351.017 60C352.409 59.04 353.489 57.744 354.257 56.112C355.025 54.432 355.409 52.512 355.409 50.352C355.409 48.144 355.025 46.224 354.257 44.592C353.489 42.912 352.409 41.616 351.017 40.704C349.625 39.744 348.017 39.264 346.193 39.264C344.273 39.264 342.569 39.744 341.081 40.704C339.641 41.616 338.489 42.912 337.625 44.592C336.809 46.224 336.401 48.144 336.401 50.352C336.401 52.512 336.809 54.432 337.625 56.112C338.489 57.744 339.665 59.04 341.153 60C342.641 60.96 344.345 61.44 346.265 61.44ZM391.546 69V18.6H409.33C412.786 18.6 415.834 19.296 418.474 20.688C421.114 22.08 423.178 24.024 424.666 26.52C426.154 28.968 426.898 31.824 426.898 35.088C426.898 38.256 426.202 41.088 424.81 43.584C423.418 46.08 421.474 48.048 418.978 49.488C416.53 50.88 413.674 51.576 410.41 51.576H399.898V69H391.546ZM399.898 43.872H410.266C412.666 43.872 414.634 43.056 416.17 41.424C417.706 39.792 418.474 37.68 418.474 35.088C418.474 32.448 417.61 30.312 415.882 28.68C414.154 27.048 411.922 26.232 409.186 26.232H399.898V43.872ZM432.573 69V33H440.637V39.552C442.077 37.296 443.949 35.616 446.253 34.512C448.557 33.408 450.933 32.856 453.381 32.856V40.56C451.173 40.56 449.085 40.872 447.117 41.496C445.197 42.072 443.637 43.032 442.437 44.376C441.237 45.72 440.637 47.496 440.637 49.704V69H432.573ZM475.29 69.864C471.69 69.864 468.474 69.072 465.642 67.488C462.858 65.856 460.674 63.624 459.09 60.792C457.506 57.96 456.714 54.696 456.714 51C456.714 47.304 457.482 44.04 459.018 41.208C460.602 38.376 462.786 36.168 465.57 34.584C468.354 32.952 471.546 32.136 475.146 32.136C478.746 32.136 481.938 32.952 484.722 34.584C487.506 36.168 489.666 38.376 491.202 41.208C492.786 44.04 493.578 47.304 493.578 51C493.578 54.696 492.81 57.96 491.274 60.792C489.738 63.624 487.578 65.856 484.794 67.488C482.01 69.072 478.842 69.864 475.29 69.864ZM475.29 62.448C477.258 62.448 479.01 61.968 480.546 61.008C482.082 60 483.282 58.656 484.146 56.976C485.01 55.248 485.442 53.256 485.442 51C485.442 48.744 484.986 46.776 484.074 45.096C483.21 43.368 482.01 42.024 480.474 41.064C478.938 40.056 477.162 39.552 475.146 39.552C473.13 39.552 471.354 40.032 469.818 40.992C468.282 41.952 467.082 43.296 466.218 45.024C465.354 46.752 464.922 48.744 464.922 51C464.922 53.256 465.354 55.248 466.218 56.976C467.13 58.656 468.354 60 469.89 61.008C471.474 61.968 473.274 62.448 475.29 62.448ZM514.894 69.864C511.102 69.864 508.198 68.928 506.182 67.056C504.214 65.136 503.23 62.4 503.23 58.848V39.912H497.254V33H503.23V21.768H511.222V33H520.942V39.912H511.222V57.336C511.222 59.016 511.606 60.288 512.374 61.152C513.19 62.016 514.366 62.448 515.902 62.448C516.382 62.448 516.91 62.352 517.486 62.16C518.062 61.968 518.71 61.608 519.43 61.08L522.382 67.2C521.134 68.064 519.886 68.712 518.638 69.144C517.39 69.624 516.142 69.864 514.894 69.864ZM544.899 69.864C541.299 69.864 538.083 69.072 535.251 67.488C532.467 65.856 530.283 63.624 528.699 60.792C527.115 57.96 526.323 54.696 526.323 51C526.323 47.304 527.091 44.04 528.627 41.208C530.211 38.376 532.395 36.168 535.179 34.584C537.963 32.952 541.155 32.136 544.755 32.136C548.355 32.136 551.547 32.952 554.331 34.584C557.115 36.168 559.275 38.376 560.811 41.208C562.395 44.04 563.187 47.304 563.187 51C563.187 54.696 562.419 57.96 560.883 60.792C559.347 63.624 557.187 65.856 554.403 67.488C551.619 69.072 548.451 69.864 544.899 69.864ZM544.899 62.448C546.867 62.448 548.619 61.968 550.155 61.008C551.691 60 552.891 58.656 553.755 56.976C554.619 55.248 555.051 53.256 555.051 51C555.051 48.744 554.595 46.776 553.683 45.096C552.819 43.368 551.619 42.024 550.083 41.064C548.547 40.056 546.771 39.552 544.755 39.552C542.739 39.552 540.963 40.032 539.427 40.992C537.891 41.952 536.691 43.296 535.827 45.024C534.963 46.752 534.531 48.744 534.531 51C534.531 53.256 534.963 55.248 535.827 56.976C536.739 58.656 537.963 60 539.499 61.008C541.083 61.968 542.883 62.448 544.899 62.448ZM587.023 69.864C583.327 69.864 580.063 69.072 577.231 67.488C574.399 65.856 572.167 63.624 570.535 60.792C568.951 57.96 568.159 54.696 568.159 51C568.159 47.304 568.951 44.04 570.535 41.208C572.167 38.376 574.375 36.168 577.159 34.584C579.991 32.952 583.231 32.136 586.879 32.136C590.431 32.136 593.647 33 596.527 34.728C599.407 36.408 601.543 38.832 602.935 42L595.447 44.88C594.679 43.296 593.503 42.024 591.919 41.064C590.335 40.104 588.535 39.624 586.519 39.624C584.551 39.624 582.799 40.128 581.263 41.136C579.727 42.096 578.527 43.44 577.663 45.168C576.799 46.848 576.367 48.792 576.367 51C576.367 53.208 576.799 55.176 577.663 56.904C578.575 58.584 579.799 59.928 581.335 60.936C582.919 61.896 584.695 62.376 586.663 62.376C588.679 62.376 590.479 61.872 592.063 60.864C593.647 59.808 594.823 58.392 595.591 56.616L603.079 59.496C601.687 62.76 599.551 65.304 596.671 67.128C593.839 68.952 590.623 69.864 587.023 69.864ZM625.899 69.864C622.299 69.864 619.083 69.072 616.251 67.488C613.467 65.856 611.283 63.624 609.699 60.792C608.115 57.96 607.323 54.696 607.323 51C607.323 47.304 608.091 44.04 609.627 41.208C611.211 38.376 613.395 36.168 616.179 34.584C618.963 32.952 622.155 32.136 625.755 32.136C629.355 32.136 632.547 32.952 635.331 34.584C638.115 36.168 640.275 38.376 641.811 41.208C643.395 44.04 644.187 47.304 644.187 51C644.187 54.696 643.419 57.96 641.883 60.792C640.347 63.624 638.187 65.856 635.403 67.488C632.619 69.072 629.451 69.864 625.899 69.864ZM625.899 62.448C627.867 62.448 629.619 61.968 631.155 61.008C632.691 60 633.891 58.656 634.755 56.976C635.619 55.248 636.051 53.256 636.051 51C636.051 48.744 635.595 46.776 634.683 45.096C633.819 43.368 632.619 42.024 631.083 41.064C629.547 40.056 627.771 39.552 625.755 39.552C623.739 39.552 621.963 40.032 620.427 40.992C618.891 41.952 617.691 43.296 616.827 45.024C615.963 46.752 615.531 48.744 615.531 51C615.531 53.256 615.963 55.248 616.827 56.976C617.739 58.656 618.963 60 620.499 61.008C622.083 61.968 623.883 62.448 625.899 62.448ZM651.175 69V18.6H659.239V69H651.175Z" fill="#101010"/>
</svg>
