<svg width="535" height="84" viewBox="0 0 535 84" fill="none" xmlns="http://www.w3.org/2000/svg">
<path d="M37.84 68.2639C40.2512 77.3174 48.9016 84.2295 53.2697 83.9403C53.4237 83.9303 69.8402 80.8242 78.8272 65.5832C85.821 53.7229 83.4395 42.2735 73.9278 42.0256C70.5057 42.2791 33.2453 51.0177 37.84 68.2639ZM73.0467 10.1123L73.0368 10.1034L73.05 10.0956C67.0588 4.92352 59.7499 1.57452 51.9654 0.434389C44.1809 -0.705743 36.2373 0.409376 29.0499 3.65128C28.1415 4.03555 27.2567 4.47473 26.4 4.96649C25.8148 5.28245 25.2285 5.5973 24.6598 5.94117L24.7984 5.98471C23.1177 7.14753 21.6321 8.57699 20.3984 10.2184C8.41393 26.2856 48.5749 37.9639 70.047 37.9985C79.925 45.1998 82.6981 17.7378 73.0467 10.1123Z" fill="#0E3CA5"/>
<path d="M31.4698 10.4383C25.9599 18.8543 7.57672 24.785 4.55392 23.8617L4.53412 23.8193C4.65732 23.5658 4.78382 23.3135 4.91142 23.0623C8.04547 16.9352 12.5298 11.6246 18.0157 7.54332C19.1465 6.7015 20.3173 5.91476 21.528 5.1831C23.3906 4.14076 25.4767 3.57799 27.6033 3.54411C35.7873 3.70265 31.5138 10.3714 31.4698 10.4383ZM26.9499 69.9196C27.3459 72.5646 26.94 83.0103 26.4065 83.8912C25.9478 83.9191 24.9919 83.9783 22.2265 82.4018C13.3835 77.2813 6.56057 69.2105 2.91746 59.5614C-0.725642 49.9123 -0.964031 39.2804 2.24282 29.4731C2.38949 29.0265 2.54349 28.5799 2.70482 28.1333C5.88052 32.4161 9.55122 36.2903 12.6719 40.6155C15.6419 44.7331 19.7306 51.4453 20.5622 52.8811C25.7322 61.7861 26.5506 67.2837 26.9422 69.9196M88 43.5887C88.0069 49.2039 86.9679 54.7697 84.9376 59.9931C79.7555 65.6458 44.8128 51.7312 44.4707 51.5771C39.6901 49.4558 25.1437 42.9802 23.8314 32.8203C21.9438 18.2068 51.1598 8.02117 63.9991 7.63041C65.5391 7.64939 70.224 7.7041 72.9553 9.95603C77.6864 14.1443 81.4774 19.3138 84.0728 25.1156C86.6681 30.9175 88.0073 37.2169 88 43.5887ZM64.3499 83.2001C60.5406 85.0043 56.3474 83.6902 57.4364 79.9255C59.5264 72.6952 77.7942 65.2829 81.8279 64.881C82.3251 64.8308 82.5363 65.1746 82.3163 65.5676C78.1126 73.0685 71.8772 79.188 64.3499 83.2001Z" fill="#5493F7"/>
<path d="M136.416 69V26.232H120.936V18.6H160.248V26.232H144.768V69H136.416ZM177.153 69.864C173.649 69.864 170.529 69.072 167.793 67.488C165.105 65.856 162.969 63.624 161.385 60.792C159.849 57.96 159.081 54.696 159.081 51C159.081 47.304 159.873 44.04 161.457 41.208C163.041 38.376 165.201 36.168 167.937 34.584C170.721 32.952 173.889 32.136 177.441 32.136C180.657 32.136 183.561 32.976 186.153 34.656C188.745 36.288 190.785 38.664 192.273 41.784C193.809 44.904 194.577 48.624 194.577 52.944H167.433C167.673 55.968 168.777 58.344 170.745 60.072C172.761 61.8 175.137 62.664 177.873 62.664C180.081 62.664 181.905 62.184 183.345 61.224C184.785 60.216 185.913 58.92 186.729 57.336L193.857 60.36C192.849 62.28 191.553 63.96 189.969 65.4C188.433 66.84 186.585 67.944 184.425 68.712C182.313 69.48 179.889 69.864 177.153 69.864ZM167.937 46.752H185.865C185.721 45.024 185.217 43.608 184.353 42.504C183.489 41.352 182.433 40.488 181.185 39.912C179.937 39.336 178.617 39.048 177.225 39.048C175.881 39.048 174.513 39.336 173.121 39.912C171.777 40.44 170.625 41.28 169.665 42.432C168.705 43.584 168.129 45.024 167.937 46.752ZM200.753 69V33H208.817V39.552C210.257 37.296 212.129 35.616 214.433 34.512C216.737 33.408 219.113 32.856 221.561 32.856V40.56C219.353 40.56 217.265 40.872 215.297 41.496C213.377 42.072 211.817 43.032 210.617 44.376C209.417 45.72 208.817 47.496 208.817 49.704V69H200.753ZM226.909 69V33H234.973V39.552C236.413 37.296 238.285 35.616 240.589 34.512C242.893 33.408 245.269 32.856 247.717 32.856V40.56C245.509 40.56 243.421 40.872 241.453 41.496C239.533 42.072 237.973 43.032 236.773 44.376C235.573 45.72 234.973 47.496 234.973 49.704V69H226.909ZM264.658 69.864C260.338 69.864 256.978 68.904 254.578 66.984C252.226 65.064 251.05 62.352 251.05 58.848C251.05 55.104 252.298 52.248 254.794 50.28C257.338 48.312 260.866 47.328 265.378 47.328H274.522C274.234 44.688 273.49 42.672 272.29 41.28C271.09 39.888 269.314 39.192 266.962 39.192C265.234 39.192 263.722 39.552 262.426 40.272C261.13 40.992 260.026 42.12 259.114 43.656L252.058 41.064C252.826 39.48 253.834 38.016 255.082 36.672C256.378 35.28 257.986 34.176 259.906 33.36C261.874 32.544 264.226 32.136 266.962 32.136C270.466 32.136 273.394 32.832 275.746 34.224C278.098 35.568 279.826 37.512 280.93 40.056C282.082 42.6 282.658 45.672 282.658 49.272L282.442 69H275.026L274.81 64.608C273.85 66.288 272.506 67.584 270.778 68.496C269.098 69.408 267.058 69.864 264.658 69.864ZM265.666 63.096C267.442 63.096 269.002 62.712 270.346 61.944C271.738 61.128 272.794 60.048 273.514 58.704C274.282 57.36 274.666 55.872 274.666 54.24V53.52H267.97C264.754 53.52 262.498 53.976 261.202 54.888C259.906 55.752 259.258 57 259.258 58.632C259.258 60.024 259.81 61.128 260.914 61.944C262.066 62.712 263.65 63.096 265.666 63.096ZM331.519 69.864C326.671 69.864 322.351 68.76 318.559 66.552C314.815 64.296 311.863 61.224 309.703 57.336C307.591 53.4 306.535 48.888 306.535 43.8C306.535 38.712 307.591 34.224 309.703 30.336C311.863 26.4 314.815 23.328 318.559 21.12C322.303 18.864 326.599 17.736 331.447 17.736C334.711 17.736 337.783 18.336 340.663 19.536C343.543 20.688 346.087 22.296 348.295 24.36C350.551 26.424 352.279 28.824 353.479 31.56L345.847 34.656C344.983 32.832 343.807 31.224 342.319 29.832C340.879 28.392 339.223 27.288 337.351 26.52C335.479 25.752 333.511 25.368 331.447 25.368C328.279 25.368 325.447 26.16 322.951 27.744C320.503 29.328 318.559 31.512 317.119 34.296C315.727 37.032 315.031 40.2 315.031 43.8C315.031 47.4 315.727 50.592 317.119 53.376C318.559 56.16 320.527 58.344 323.023 59.928C325.567 61.512 328.447 62.304 331.663 62.304C333.775 62.304 335.743 61.896 337.567 61.08C339.439 60.216 341.095 59.04 342.535 57.552C344.023 56.064 345.199 54.336 346.063 52.368L353.695 55.464C352.495 58.296 350.791 60.816 348.583 63.024C346.375 65.184 343.807 66.864 340.879 68.064C337.951 69.264 334.831 69.864 331.519 69.864ZM360.222 69V18.6H368.286V69H360.222ZM388.829 69.864C384.509 69.864 381.149 68.904 378.749 66.984C376.397 65.064 375.221 62.352 375.221 58.848C375.221 55.104 376.469 52.248 378.965 50.28C381.509 48.312 385.037 47.328 389.549 47.328H398.693C398.405 44.688 397.661 42.672 396.461 41.28C395.261 39.888 393.485 39.192 391.133 39.192C389.405 39.192 387.893 39.552 386.597 40.272C385.301 40.992 384.197 42.12 383.285 43.656L376.229 41.064C376.997 39.48 378.005 38.016 379.253 36.672C380.549 35.28 382.157 34.176 384.077 33.36C386.045 32.544 388.397 32.136 391.133 32.136C394.637 32.136 397.565 32.832 399.917 34.224C402.269 35.568 403.997 37.512 405.101 40.056C406.253 42.6 406.829 45.672 406.829 49.272L406.613 69H399.197L398.981 64.608C398.021 66.288 396.677 67.584 394.949 68.496C393.269 69.408 391.229 69.864 388.829 69.864ZM389.837 63.096C391.613 63.096 393.173 62.712 394.517 61.944C395.909 61.128 396.965 60.048 397.685 58.704C398.453 57.36 398.837 55.872 398.837 54.24V53.52H392.141C388.925 53.52 386.669 53.976 385.373 54.888C384.077 55.752 383.429 57 383.429 58.632C383.429 60.024 383.981 61.128 385.085 61.944C386.237 62.712 387.821 63.096 389.837 63.096ZM428.099 69.864C425.699 69.864 423.491 69.504 421.475 68.784C419.459 68.064 417.731 67.056 416.291 65.76C414.851 64.416 413.747 62.856 412.979 61.08L419.963 57.984C420.683 59.328 421.739 60.456 423.131 61.368C424.571 62.28 426.155 62.736 427.883 62.736C429.755 62.736 431.243 62.424 432.347 61.8C433.499 61.128 434.075 60.216 434.075 59.064C434.075 57.96 433.643 57.12 432.779 56.544C431.915 55.92 430.691 55.416 429.107 55.032L425.723 54.096C422.315 53.232 419.651 51.864 417.731 49.992C415.811 48.072 414.851 45.888 414.851 43.44C414.851 39.84 416.003 37.056 418.307 35.088C420.659 33.12 424.019 32.136 428.387 32.136C430.595 32.136 432.611 32.472 434.435 33.144C436.307 33.768 437.915 34.68 439.259 35.88C440.603 37.032 441.539 38.4 442.067 39.984L435.371 43.008C434.891 41.808 433.979 40.896 432.635 40.272C431.291 39.6 429.803 39.264 428.171 39.264C426.539 39.264 425.267 39.624 424.355 40.344C423.443 41.016 422.987 41.976 422.987 43.224C422.987 43.944 423.395 44.616 424.211 45.24C425.027 45.816 426.203 46.296 427.739 46.68L431.987 47.688C434.339 48.264 436.259 49.176 437.747 50.424C439.235 51.624 440.339 52.992 441.059 54.528C441.779 56.016 442.139 57.528 442.139 59.064C442.139 61.224 441.515 63.12 440.267 64.752C439.067 66.384 437.411 67.656 435.299 68.568C433.187 69.432 430.787 69.864 428.099 69.864ZM461.568 69.864C459.168 69.864 456.96 69.504 454.944 68.784C452.928 68.064 451.2 67.056 449.76 65.76C448.32 64.416 447.216 62.856 446.448 61.08L453.432 57.984C454.152 59.328 455.208 60.456 456.6 61.368C458.04 62.28 459.624 62.736 461.352 62.736C463.224 62.736 464.712 62.424 465.816 61.8C466.968 61.128 467.544 60.216 467.544 59.064C467.544 57.96 467.112 57.12 466.248 56.544C465.384 55.92 464.16 55.416 462.576 55.032L459.192 54.096C455.784 53.232 453.12 51.864 451.2 49.992C449.28 48.072 448.32 45.888 448.32 43.44C448.32 39.84 449.472 37.056 451.776 35.088C454.128 33.12 457.488 32.136 461.856 32.136C464.064 32.136 466.08 32.472 467.904 33.144C469.776 33.768 471.384 34.68 472.728 35.88C474.072 37.032 475.008 38.4 475.536 39.984L468.84 43.008C468.36 41.808 467.448 40.896 466.104 40.272C464.76 39.6 463.272 39.264 461.64 39.264C460.008 39.264 458.736 39.624 457.824 40.344C456.912 41.016 456.456 41.976 456.456 43.224C456.456 43.944 456.864 44.616 457.68 45.24C458.496 45.816 459.672 46.296 461.208 46.68L465.456 47.688C467.808 48.264 469.728 49.176 471.216 50.424C472.704 51.624 473.808 52.992 474.528 54.528C475.248 56.016 475.608 57.528 475.608 59.064C475.608 61.224 474.984 63.12 473.736 64.752C472.536 66.384 470.88 67.656 468.768 68.568C466.656 69.432 464.256 69.864 461.568 69.864ZM482.507 69V33H490.499V69H482.507ZM486.539 26.16C485.243 26.16 484.115 25.704 483.155 24.792C482.243 23.832 481.787 22.704 481.787 21.408C481.787 20.112 482.243 19.008 483.155 18.096C484.115 17.184 485.243 16.728 486.539 16.728C487.835 16.728 488.939 17.184 489.851 18.096C490.811 19.008 491.291 20.112 491.291 21.408C491.291 22.704 490.811 23.832 489.851 24.792C488.939 25.704 487.835 26.16 486.539 26.16ZM516.851 69.864C513.155 69.864 509.891 69.072 507.059 67.488C504.227 65.856 501.995 63.624 500.363 60.792C498.779 57.96 497.987 54.696 497.987 51C497.987 47.304 498.779 44.04 500.363 41.208C501.995 38.376 504.203 36.168 506.987 34.584C509.819 32.952 513.059 32.136 516.707 32.136C520.259 32.136 523.475 33 526.355 34.728C529.235 36.408 531.371 38.832 532.763 42L525.275 44.88C524.507 43.296 523.331 42.024 521.747 41.064C520.163 40.104 518.363 39.624 516.347 39.624C514.379 39.624 512.627 40.128 511.091 41.136C509.555 42.096 508.355 43.44 507.491 45.168C506.627 46.848 506.195 48.792 506.195 51C506.195 53.208 506.627 55.176 507.491 56.904C508.403 58.584 509.627 59.928 511.163 60.936C512.747 61.896 514.523 62.376 516.491 62.376C518.507 62.376 520.307 61.872 521.891 60.864C523.475 59.808 524.651 58.392 525.419 56.616L532.907 59.496C531.515 62.76 529.379 65.304 526.499 67.128C523.667 68.952 520.451 69.864 516.851 69.864Z" fill="#101010"/>
</svg>
