<svg preserveAspectRatio="none" width="100%" height="100%" overflow="visible" style="display: block;" viewBox="0 0 8.70539 8.70767" fill="none" xmlns="http://www.w3.org/2000/svg">
<g id="Group">
<path id="Vector" d="M8.63648 3.6335L8.28828 3.1822L6.29801 1.8973C6.30451 1.93545 6.31181 1.97279 6.31993 2.01012C6.33616 2.07993 6.35321 2.14892 6.37269 2.21792C6.38406 2.26013 6.39541 2.30071 6.40759 2.34048C6.41165 2.35266 6.4149 2.36483 6.41814 2.37701C6.81181 3.64081 7.59671 4.24146 8.65029 5.04665C8.71928 4.61727 8.72334 4.17977 8.66328 3.74876L8.6373 3.6335H8.63648Z" fill="var(--fill-0, #EF7730)"/>
<path id="Vector_2" d="M4.76772 5.44321C2.87405 4.59581 1.68979 2.87665 1.6208 1.14613C1.61917 1.09824 1.57859 1.0609 1.52989 1.06253C1.5096 1.06334 1.49092 1.07146 1.4755 1.08444C-0.328883 2.67535 -0.502586 5.42779 1.08832 7.23218C2.67923 9.03656 5.43167 9.21026 7.23606 7.61935C7.76528 7.15263 8.17356 6.56497 8.42518 5.90587C8.44304 5.86123 8.42031 5.81091 8.37567 5.79305C8.35944 5.78656 8.34077 5.78493 8.32372 5.7898C7.13297 6.07471 5.88054 5.95214 4.76772 5.4424V5.44321ZM8.6622 3.75246C8.55938 3.51491 7.13135 2.89884 4.3781 1.90425C2.29937 1.15344 1.91301 0.428598 3.41788 0.0998643C3.49093 0.0844422 3.56479 0.0698327 3.63947 0.0576573C6.0169 -0.33033 8.2596 1.28168 8.64758 3.65993C8.65245 3.69078 8.65733 3.72081 8.66139 3.75165" fill="var(--fill-0, #F9D85E)"/>
<path id="Vector_3" d="M4.6973 0.0152901L4.64697 0.0112314C4.71515 0.0161015 4.78252 0.0242192 4.84908 0.0323361C4.83691 0.0307127 4.82554 0.0290883 4.81336 0.0274649C4.77521 0.0225948 4.73707 0.0193486 4.69648 0.0152901H4.6973Z" fill="var(--fill-0, #EF7730)"/>
</g>
</svg>
