<svg preserveAspectRatio="none" width="100%" height="100%" overflow="visible" style="display: block;" viewBox="0 0 118.495 13.1624" fill="none" xmlns="http://www.w3.org/2000/svg">
<g id="Group">
<path id="Vector" d="M3.65422 12.9452L0 0.218751H3.43588L6.83523 12.9444H3.65341L3.65422 12.9452ZM4.1453 12.9452L7.36283 0.219563H10.3442L7.14449 12.9452H4.14448H4.1453ZM10.9261 12.9452L7.72647 0.219563H10.7078L14.1072 12.9452H10.9253H10.9261ZM11.2354 12.9452L14.6348 0.219563H18.0706L14.4164 12.9452H11.2346H11.2354Z" fill="var(--fill-0, #101010)"/>
<path id="Vector_2" d="M25.4697 13.1624C24.1361 13.1624 22.9575 12.8807 21.934 12.3174C20.9097 11.7541 20.1069 10.9781 19.5249 9.99032C18.9429 9.00249 18.6523 7.87262 18.6523 6.59989C18.6523 5.32717 18.9429 4.17944 19.5249 3.19161C20.1069 2.20379 20.9064 1.42781 21.9243 0.8645C22.9421 0.301188 24.1118 0.019532 25.4332 0.019532C26.7546 0.019532 27.9421 0.301188 28.96 0.8645C29.9778 1.42781 30.7782 2.20379 31.3593 3.19161C31.9413 4.17944 32.2319 5.3158 32.2319 6.59989C32.2319 7.88399 31.9437 9.00249 31.3683 9.99032C30.7928 10.9781 29.9957 11.7541 28.9778 12.3174C27.96 12.8807 26.7903 13.1624 25.4689 13.1624H25.4697ZM25.4697 10.0723C26.1239 10.0723 26.6994 9.92376 27.197 9.62668C27.6937 9.3296 28.0817 8.92051 28.3601 8.39941C28.6386 7.8783 28.7782 7.27847 28.7782 6.59989C28.7782 5.92132 28.6353 5.31824 28.3512 4.79064C28.0663 4.26304 27.6726 3.85151 27.1694 3.55444C26.6661 3.25736 26.0874 3.10882 25.4332 3.10882C24.779 3.10882 24.2181 3.25736 23.7148 3.55444C23.2116 3.85151 22.8179 4.26385 22.533 4.79064C22.2481 5.31824 22.1061 5.92132 22.1061 6.59989C22.1061 7.27847 22.2514 7.87912 22.5428 8.39941C22.8334 8.92051 23.2303 9.3296 23.7335 9.62668C24.236 9.92376 24.8155 10.0723 25.4697 10.0723Z" fill="var(--fill-0, #101010)"/>
<path id="Vector_3" d="M33.7773 12.9452V0.218751H39.0493C40.0062 0.218751 40.8553 0.403817 41.5947 0.773135C42.3342 1.14327 42.9129 1.65219 43.3309 2.29992C43.7489 2.94846 43.9584 3.69684 43.9584 4.54505C43.9584 5.39327 43.7489 6.14814 43.3309 6.80885C42.9129 7.46957 42.3342 7.98418 41.5947 8.35431C40.8553 8.72444 40.0071 8.90869 39.0493 8.90869H37.1402V12.9444H33.7773V12.9452ZM37.141 5.81859H38.8683C39.171 5.81859 39.4381 5.76421 39.6678 5.65463C39.8975 5.54587 40.0793 5.39408 40.2132 5.20009C40.3463 5.00609 40.4129 4.78856 40.4129 4.54586C40.4129 4.18223 40.27 3.88272 39.986 3.6457C39.701 3.4095 39.3285 3.29099 38.8683 3.29099H37.141V5.81778V5.81859ZM40.6134 12.9452L37.7773 7.94603L40.3041 6.05561L44.4673 12.946H40.6134V12.9452Z" fill="var(--fill-0, #101010)"/>
<path id="Vector_4" d="M45.8314 12.9452V0.218751H49.1942V12.9444H45.8314V12.9452ZM47.7218 10.7813V6.07265L53.0302 0.218751H57.4483L47.7218 10.7813ZM53.4304 12.9452L48.5035 6.47363L51.0302 4.51015L57.6114 12.9452H53.4304Z" fill="var(--fill-0, #101010)"/>
<path id="Vector_5" d="M63.3377 13.1623C62.7436 13.1623 62.1624 13.0804 61.5926 12.9172C61.0228 12.7533 60.5049 12.526 60.0382 12.2354C59.5715 11.9448 59.1868 11.6145 58.884 11.2443C58.5812 10.875 58.3994 10.4838 58.3385 10.0714L61.6835 9.14449C61.7923 9.44725 61.9806 9.70536 62.2468 9.91722C62.5131 10.1291 62.8588 10.2476 63.2834 10.2719C63.6226 10.2841 63.9222 10.1932 64.1835 9.9992C64.4441 9.8052 64.5748 9.55114 64.5748 9.2354C64.5748 9.02923 64.4993 8.8328 64.3475 8.64449C64.1957 8.45699 63.9562 8.32062 63.6291 8.2354L61.72 7.74432C61.0658 7.57468 60.5049 7.31413 60.0382 6.96267C59.5715 6.61121 59.2135 6.18101 58.966 5.67208C58.7176 5.16315 58.5934 4.59335 58.5934 3.96348C58.5934 2.7151 59.0082 1.7427 59.8385 1.04546C60.6689 0.349027 61.8353 7.76257e-07 63.3385 7.76257e-07C64.1389 7.76257e-07 64.8442 0.103085 65.4562 0.309254C66.0683 0.515423 66.595 0.839287 67.0382 1.28166C67.4806 1.72403 67.8475 2.30276 68.1381 3.01786L64.8109 3.98134C64.7501 3.73945 64.5959 3.49676 64.3475 3.25406C64.0991 3.01218 63.7623 2.89042 63.3385 2.89042C62.9148 2.89042 62.608 2.98133 62.384 3.16315C62.16 3.34497 62.048 3.61202 62.048 3.96348C62.048 4.18182 62.1389 4.37257 62.3207 4.53572C62.5025 4.69968 62.7631 4.82387 63.1023 4.90828L65.0293 5.39936C65.9985 5.64205 66.7566 6.1177 67.302 6.8263C67.8475 7.53491 68.1202 8.34416 68.1202 9.25325C68.1202 10.0893 67.9295 10.7987 67.5472 11.3799C67.1657 11.9619 66.617 12.4042 65.9019 12.707C65.1868 13.0098 64.3321 13.1615 63.3385 13.1615L63.3377 13.1623Z" fill="var(--fill-0, #101010)"/>
<path id="Vector_6" d="M69.7917 12.9448V0.200522H73.1545V12.9448H69.7917ZM72.1001 8.0179V4.92699H79.8087V8.0179H72.1001ZM77.8452 12.9448V0.218378H81.2081V12.944H77.8452V12.9448Z" fill="var(--fill-0, #101010)"/>
<path id="Vector_7" d="M89.5706 13.1624C88.237 13.1624 87.0585 12.8807 86.0349 12.3174C85.0106 11.7541 84.2078 10.9781 83.6258 9.99032C83.0438 9.00249 82.7533 7.87262 82.7533 6.59989C82.7533 5.32717 83.0438 4.17944 83.6258 3.19161C84.2078 2.20379 85.0073 1.42781 86.0252 0.8645C87.043 0.301188 88.2127 0.019532 89.5341 0.019532C90.8555 0.019532 92.043 0.301188 93.0609 0.8645C94.0788 1.42781 94.8791 2.20379 95.4602 3.19161C96.0422 4.17944 96.3328 5.3158 96.3328 6.59989C96.3328 7.88399 96.0447 9.00249 95.4692 9.99032C94.8937 10.9781 94.0966 11.7541 93.0787 12.3174C92.0609 12.8807 90.8912 13.1624 89.5698 13.1624H89.5706ZM89.5706 10.0723C90.2249 10.0723 90.8003 9.92376 91.2979 9.62668C91.7947 9.3296 92.1826 8.92051 92.4611 8.39941C92.7395 7.8783 92.8791 7.27847 92.8791 6.59989C92.8791 5.92132 92.7362 5.31824 92.4521 4.79064C92.1672 4.26304 91.7736 3.85151 91.2703 3.55444C90.7671 3.25736 90.1883 3.10882 89.5341 3.10882C88.8799 3.10882 88.319 3.25736 87.8158 3.55444C87.3125 3.85151 86.9188 4.26385 86.6339 4.79064C86.349 5.31824 86.207 5.92132 86.207 6.59989C86.207 7.27847 86.3523 7.87912 86.6437 8.39941C86.9343 8.92051 87.3312 9.3296 87.8344 9.62668C88.3369 9.92376 88.9164 10.0723 89.5706 10.0723Z" fill="var(--fill-0, #101010)"/>
<path id="Vector_8" d="M97.8789 12.9452V0.218751H103.151C104.108 0.218751 104.957 0.407063 105.696 0.782064C106.436 1.15788 107.014 1.67898 107.432 2.34538C107.851 3.01177 108.06 3.78125 108.06 4.65382C108.06 5.52639 107.851 6.29911 107.432 6.972C107.014 7.64489 106.436 8.17168 105.696 8.55399C104.957 8.93548 104.109 9.12704 103.151 9.12704H101.242V12.9444H97.8789V12.9452ZM101.242 6.03694H103.06C103.52 6.03694 103.893 5.9095 104.178 5.65544C104.463 5.40057 104.605 5.06778 104.605 4.65544C104.605 4.2431 104.462 3.92817 104.178 3.6733C103.893 3.41843 103.52 3.29181 103.06 3.29181H101.242V6.03694Z" fill="var(--fill-0, #101010)"/>
<path id="Vector_9" d="M113.695 13.1623C113.101 13.1623 112.52 13.0804 111.95 12.9172C111.38 12.7533 110.862 12.526 110.396 12.2354C109.929 11.9448 109.544 11.6145 109.241 11.2443C108.939 10.875 108.757 10.4838 108.696 10.0714L112.041 9.14449C112.15 9.44725 112.338 9.70536 112.604 9.91722C112.87 10.1291 113.216 10.2476 113.641 10.2719C113.98 10.2841 114.28 10.1932 114.541 9.9992C114.801 9.8052 114.932 9.55114 114.932 9.2354C114.932 9.02923 114.857 8.8328 114.705 8.64449C114.553 8.45699 114.314 8.32062 113.987 8.2354L112.077 7.74432C111.423 7.57468 110.862 7.31413 110.396 6.96267C109.929 6.61121 109.571 6.18101 109.323 5.67208C109.075 5.16315 108.951 4.59335 108.951 3.96348C108.951 2.7151 109.366 1.7427 110.196 1.04546C111.026 0.349027 112.193 7.76257e-07 113.696 7.76257e-07C114.496 7.76257e-07 115.202 0.103085 115.814 0.309254C116.426 0.515423 116.952 0.839287 117.396 1.28166C117.838 1.72403 118.205 2.30276 118.495 3.01786L115.168 3.98134C115.107 3.73945 114.953 3.49676 114.705 3.25406C114.457 3.01218 114.12 2.89042 113.696 2.89042C113.272 2.89042 112.965 2.98133 112.741 3.16315C112.517 3.34497 112.405 3.61202 112.405 3.96348C112.405 4.18182 112.496 4.37257 112.678 4.53572C112.86 4.69968 113.12 4.82387 113.46 4.90828L115.387 5.39936C116.356 5.64205 117.114 6.1177 117.659 6.8263C118.205 7.53491 118.478 8.34416 118.478 9.25325C118.478 10.0893 118.287 10.7987 117.905 11.3799C117.523 11.9619 116.974 12.4042 116.259 12.707C115.544 13.0098 114.689 13.1615 113.696 13.1615L113.695 13.1623Z" fill="var(--fill-0, #101010)"/>
</g>
</svg>
