<svg preserveAspectRatio="none" width="100%" height="100%" overflow="visible" style="display: block;" viewBox="0 0 117.955 4.61826" fill="none" xmlns="http://www.w3.org/2000/svg">
<g id="Group">
<g id="Group_2">
<path id="Vector" d="M0 3.59953V0.254562H2.07874V0.761055H0.554384V1.69774H1.85877V2.20424H0.554384V3.59953H0Z" fill="var(--fill-0, #101010)"/>
<path id="Vector_2" d="M2.42643 2.43351V1.21029H2.96134V2.43351H2.42643ZM2.96215 2.43351C2.96215 2.62182 2.98406 2.76792 3.02871 2.87344C3.07335 2.97896 3.13422 3.05201 3.21296 3.09341C3.29088 3.13481 3.38098 3.1551 3.48325 3.1551C3.66507 3.15835 3.80468 3.09909 3.90371 2.97815C4.00273 2.85721 4.05224 2.68351 4.05224 2.45705H4.25273C4.25273 2.70867 4.21539 2.92458 4.14072 3.10477C4.06604 3.28497 3.96052 3.42214 3.82497 3.51549C3.68942 3.60965 3.52627 3.65672 3.33471 3.65672C3.14315 3.65672 2.98487 3.61857 2.84932 3.54227C2.71377 3.46598 2.60987 3.34666 2.53601 3.18351C2.46296 3.02117 2.42643 2.81257 2.42643 2.55769V2.43351H2.96134H2.96215ZM4.07984 3.5999L4.05143 3.15997V1.21029H4.58228V3.5999H4.08065H4.07984Z" fill="var(--fill-0, #101010)"/>
<path id="Vector_3" d="M4.95508 1.66858V1.20998H6.52732V1.66858H4.95508ZM6.12553 3.65722C5.87391 3.65722 5.68154 3.59472 5.55005 3.4681C5.41774 3.34229 5.35199 3.16128 5.35199 2.92589V0.464848H5.88284V2.82524C5.88284 2.93725 5.90881 3.02086 5.96157 3.07849C6.01433 3.13612 6.09144 3.16453 6.19371 3.16453C6.22537 3.16453 6.26027 3.15803 6.29842 3.14504C6.33657 3.13206 6.37959 3.10852 6.42748 3.07362L6.6231 3.47946C6.54031 3.53709 6.45751 3.58092 6.37472 3.61096C6.29193 3.64099 6.20914 3.65641 6.12634 3.65641L6.12553 3.65722Z" fill="var(--fill-0, #101010)"/>
<path id="Vector_4" d="M7.00081 2.43351V1.21029H7.53571V2.43351H7.00081ZM7.53571 2.43351C7.53571 2.62182 7.55763 2.76792 7.60227 2.87344C7.64692 2.97896 7.70779 3.05201 7.78653 3.09341C7.86445 3.13481 7.95455 3.1551 8.05682 3.1551C8.23864 3.15835 8.37825 3.09909 8.47727 2.97815C8.5763 2.85721 8.62581 2.68351 8.62581 2.45705H8.8263C8.8263 2.70867 8.78896 2.92458 8.71429 3.10477C8.63961 3.28497 8.53409 3.42214 8.39854 3.51549C8.26299 3.60965 8.09984 3.65672 7.90828 3.65672C7.71672 3.65672 7.55844 3.61857 7.42289 3.54227C7.28734 3.46598 7.18344 3.34666 7.10958 3.18351C7.03653 3.02117 7 2.81257 7 2.55769V2.43351H7.5349H7.53571ZM8.65422 3.5999L8.62581 3.15997V1.21029H9.15666V3.5999H8.65503H8.65422Z" fill="var(--fill-0, #101010)"/>
<path id="Vector_5" d="M9.74805 3.59972V1.2101H10.283V3.59972H9.74805ZM10.1011 2.32861C10.1011 2.07049 10.1506 1.85864 10.2497 1.69306C10.3487 1.52748 10.4769 1.4041 10.6344 1.32293C10.7919 1.24176 10.9567 1.20118 11.1287 1.20118V1.71254C10.9818 1.71254 10.8446 1.73283 10.7156 1.77261C10.5865 1.81238 10.4818 1.87731 10.4023 1.96579C10.3227 2.05507 10.283 2.17277 10.283 2.31968L10.1011 2.32942V2.32861Z" fill="var(--fill-0, #101010)"/>
<path id="Vector_6" d="M12.5485 3.65722C12.3155 3.65722 12.1094 3.60365 11.93 3.49732C11.7498 3.39099 11.6085 3.24326 11.5046 3.05495C11.4007 2.86664 11.3496 2.65073 11.3496 2.40478C11.3496 2.15884 11.4024 1.94293 11.5071 1.75462C11.6126 1.56631 11.7563 1.41939 11.9397 1.31225C12.1231 1.20511 12.3326 1.15235 12.568 1.15235C12.7814 1.15235 12.9738 1.20754 13.1459 1.31712C13.318 1.4267 13.4543 1.58579 13.5542 1.79277C13.6548 1.99975 13.7043 2.2465 13.7043 2.53384H11.8261L11.8975 2.46729C11.8975 2.6142 11.9292 2.74082 11.9933 2.84715C12.0566 2.9543 12.141 3.03628 12.2465 3.0931C12.3512 3.15073 12.4681 3.17914 12.5956 3.17914C12.7417 3.17914 12.8634 3.14667 12.9584 3.08092C13.0542 3.01599 13.1288 2.93076 13.1832 2.82524L13.6564 3.02573C13.5891 3.15316 13.5038 3.26436 13.4007 3.36014C13.2969 3.45592 13.1743 3.52897 13.0331 3.58011C12.891 3.63125 12.7295 3.65641 12.5477 3.65641L12.5485 3.65722ZM11.9316 2.18969L11.8553 2.12313H13.2027L13.1313 2.18969C13.1313 2.059 13.1029 1.95186 13.0452 1.86745C12.9876 1.78303 12.9154 1.71891 12.8277 1.67589C12.74 1.63287 12.6483 1.61176 12.5525 1.61176C12.4568 1.61176 12.3618 1.63368 12.266 1.67589C12.1702 1.71891 12.0907 1.78303 12.0274 1.86745C11.9632 1.95186 11.9316 2.05982 11.9316 2.18969Z" fill="var(--fill-0, #101010)"/>
<path id="Vector_7" d="M16.1369 3.65755C15.9778 3.65755 15.8309 3.63401 15.6969 3.58612C15.563 3.53823 15.4486 3.47086 15.3528 3.3832C15.257 3.29554 15.1839 3.19326 15.1328 3.07476L15.5963 2.8694C15.6442 2.95869 15.7148 3.03336 15.809 3.09424C15.9031 3.15512 16.007 3.18515 16.1223 3.18515C16.2465 3.18515 16.3463 3.16404 16.421 3.12102C16.4956 3.078 16.533 3.01794 16.533 2.94164C16.533 2.86534 16.5046 2.81177 16.4469 2.772C16.3893 2.73223 16.3081 2.69976 16.2034 2.67378L15.9786 2.6121C15.7521 2.55447 15.5752 2.46356 15.4477 2.33693C15.3203 2.21112 15.2562 2.06664 15.2562 1.9043C15.2562 1.66567 15.3333 1.4806 15.4883 1.34992C15.6426 1.21924 15.865 1.1543 16.1547 1.1543C16.3008 1.1543 16.4356 1.17541 16.5589 1.21843C16.6815 1.26144 16.7878 1.32232 16.8771 1.40024C16.9664 1.47817 17.0281 1.56989 17.0638 1.67459L16.619 1.87508C16.5874 1.79554 16.5265 1.73385 16.4372 1.69083C16.3479 1.64781 16.2489 1.6267 16.1409 1.6267C16.033 1.6267 15.9477 1.65024 15.8877 1.6957C15.8268 1.74197 15.7968 1.80609 15.7968 1.88888C15.7968 1.93677 15.8236 1.9806 15.8779 2.02037C15.9323 2.06015 16.0102 2.09261 16.1117 2.11859L16.3934 2.18515C16.5492 2.2233 16.6766 2.28336 16.7757 2.36453C16.8747 2.4457 16.9477 2.53661 16.9956 2.63726C17.0435 2.73791 17.0671 2.83856 17.0671 2.94083C17.0671 3.0845 17.0265 3.21031 16.9453 3.31826C16.8641 3.42622 16.7529 3.51063 16.6133 3.56908C16.4729 3.62833 16.3138 3.65755 16.1352 3.65755H16.1369Z" fill="var(--fill-0, #101010)"/>
<path id="Vector_8" d="M18.593 3.65722C18.3543 3.65722 18.1417 3.60365 17.955 3.49732C17.7683 3.39099 17.623 3.24326 17.5175 3.05495C17.4128 2.86664 17.36 2.65073 17.36 2.40478C17.36 2.15884 17.412 1.94293 17.5151 1.75462C17.619 1.56631 17.7626 1.41939 17.9477 1.31225C18.1328 1.20511 18.3446 1.15235 18.5832 1.15235C18.8219 1.15235 19.0337 1.20592 19.2188 1.31225C19.4039 1.41939 19.5475 1.56631 19.6514 1.75462C19.7545 1.94293 19.8065 2.15965 19.8065 2.40478C19.8065 2.64991 19.7553 2.86664 19.6539 3.05495C19.5516 3.24326 19.4087 3.39018 19.2237 3.49732C19.0386 3.60365 18.8284 3.65722 18.593 3.65722ZM18.593 3.16453C18.7237 3.16453 18.8397 3.13206 18.942 3.06631C19.0443 3.00137 19.1238 2.91209 19.1806 2.79845C19.2383 2.68563 19.2667 2.55414 19.2667 2.40397C19.2667 2.25381 19.2375 2.12313 19.1782 2.00949C19.119 1.89667 19.0386 1.80738 18.9371 1.74164C18.8349 1.6767 18.7172 1.64342 18.5832 1.64342C18.4493 1.64342 18.3316 1.67508 18.2293 1.7392C18.1271 1.80332 18.0475 1.8918 17.9907 2.00706C17.9331 2.1215 17.9047 2.25381 17.9047 2.40397C17.9047 2.55414 17.9339 2.68482 17.9931 2.79845C18.0524 2.91128 18.1336 3.00056 18.2367 3.06631C18.3405 3.13124 18.4591 3.16453 18.593 3.16453Z" fill="var(--fill-0, #101010)"/>
<path id="Vector_9" d="M21.4225 3.59953V0.254562H21.9574V3.15554L21.929 3.60034H21.4225V3.59953ZM22.7123 3.65716C22.5118 3.65716 22.3389 3.60521 22.1936 3.50213C22.0483 3.39905 21.9379 3.25294 21.8616 3.06463C21.7854 2.87632 21.7472 2.65716 21.7472 2.40554C21.7472 2.15391 21.7854 1.92989 21.8616 1.74401C21.9379 1.55732 22.0491 1.41284 22.1936 1.30894C22.3389 1.20586 22.5118 1.15391 22.7123 1.15391C22.929 1.15391 23.1173 1.20586 23.2789 1.30894C23.4396 1.41284 23.5654 1.55732 23.6563 1.74401C23.7472 1.9307 23.7927 2.15067 23.7927 2.40554C23.7927 2.66041 23.7472 2.87713 23.6563 3.06463C23.5654 3.25294 23.4396 3.39823 23.2789 3.50213C23.1181 3.60603 22.929 3.65716 22.7123 3.65716ZM22.5784 3.16934C22.7058 3.16934 22.8186 3.13687 22.9177 3.07112C23.0167 3.00619 23.0954 2.91609 23.1539 2.80083C23.2131 2.68638 23.2423 2.55408 23.2423 2.40391C23.2423 2.25375 23.2147 2.12226 23.1587 2.007C23.1027 1.89174 23.0256 1.80326 22.9266 1.73914C22.8276 1.67583 22.7131 1.64336 22.5824 1.64336C22.4615 1.64336 22.3527 1.67502 22.2578 1.73914C22.162 1.80326 22.0881 1.89174 22.0354 2.007C21.9826 2.12226 21.9566 2.25375 21.9566 2.40391C21.9566 2.55408 21.9826 2.68557 22.0354 2.80083C22.0881 2.91609 22.1612 3.00538 22.2553 3.07112C22.3495 3.13606 22.4566 3.16934 22.5776 3.16934H22.5784Z" fill="var(--fill-0, #101010)"/>
<path id="Vector_10" d="M24.2513 3.59972V1.2101H24.7862V3.59972H24.2513ZM24.6052 2.32861C24.6052 2.07049 24.6547 1.85864 24.7537 1.69306C24.8528 1.52748 24.981 1.4041 25.1385 1.32293C25.2959 1.24176 25.4607 1.20118 25.6328 1.20118V1.71254C25.4859 1.71254 25.3487 1.73283 25.2196 1.77261C25.0906 1.81238 24.9859 1.87731 24.9063 1.96579C24.8268 2.05507 24.787 2.17277 24.787 2.31968L24.6052 2.32942V2.32861Z" fill="var(--fill-0, #101010)"/>
<path id="Vector_11" d="M26.2871 0.756186C26.2011 0.756186 26.1272 0.725342 26.0647 0.662842C26.0022 0.601154 25.9714 0.526479 25.9714 0.44044C25.9714 0.354401 26.0022 0.281347 26.0647 0.22047C26.1264 0.159594 26.2011 0.129562 26.2871 0.129562C26.3731 0.129562 26.447 0.159594 26.5095 0.22047C26.572 0.281347 26.6029 0.354401 26.6029 0.44044C26.6029 0.526479 26.572 0.600342 26.5095 0.662842C26.4478 0.725342 26.3731 0.756186 26.2871 0.756186ZM26.0192 3.59953V1.20992H26.5501V3.59953H26.0192Z" fill="var(--fill-0, #101010)"/>
<path id="Vector_12" d="M28.1272 3.5517C27.9105 3.5517 27.7214 3.50219 27.5607 3.40316C27.4 3.30414 27.2741 3.16696 27.1832 2.99001C27.0923 2.81306 27.0469 2.60852 27.0469 2.37556C27.0469 2.12719 27.0923 1.91209 27.1832 1.73027C27.2741 1.54845 27.4 1.40722 27.5607 1.30495C27.7214 1.20267 27.9105 1.15235 28.1272 1.15235C28.3212 1.15235 28.4909 1.20348 28.6362 1.30495C28.7815 1.40722 28.8935 1.54926 28.973 1.73271C29.0526 1.91615 29.0923 2.13206 29.0923 2.38043C29.0923 2.62881 29.0526 2.82199 28.973 2.99651C28.8935 3.17183 28.7806 3.30819 28.6362 3.40478C28.4909 3.50219 28.3212 3.55089 28.1272 3.55089V3.5517ZM28.2084 4.61745C28.0396 4.61745 27.887 4.60284 27.7522 4.57443C27.6167 4.54602 27.503 4.51193 27.4105 4.47378C27.318 4.43563 27.2466 4.3991 27.1954 4.3642L27.4008 3.934C27.4454 3.95592 27.5055 3.98433 27.5802 4.01761C27.6548 4.05089 27.7433 4.08011 27.8456 4.10608C27.9479 4.13125 28.0623 4.14423 28.1897 4.14423C28.3269 4.14423 28.4495 4.11663 28.5574 4.06063C28.6654 4.00462 28.7498 3.91939 28.8107 3.80495C28.8716 3.6905 28.9016 3.54358 28.9016 3.36501V1.20998H29.4365V3.35121C29.4365 3.62232 29.3854 3.85203 29.2839 4.04196C29.1816 4.23108 29.0388 4.37475 28.8537 4.47215C28.6686 4.56956 28.4535 4.61826 28.2084 4.61826V4.61745ZM28.275 3.09797C28.3959 3.09797 28.5022 3.06631 28.5931 3.00219C28.6841 2.93888 28.7547 2.85202 28.8058 2.74163C28.8569 2.63206 28.8821 2.50543 28.8821 2.36176C28.8821 2.21809 28.8569 2.0866 28.8058 1.97702C28.7547 1.86745 28.6832 1.78141 28.5907 1.71891C28.4982 1.65641 28.3918 1.62556 28.2701 1.62556C28.1427 1.62556 28.0306 1.65641 27.9332 1.71891C27.8358 1.78141 27.7595 1.86745 27.7035 1.97702C27.6475 2.0866 27.6199 2.21485 27.6199 2.36176C27.6199 2.50868 27.6475 2.63206 27.7035 2.74163C27.7595 2.85121 27.8366 2.93806 27.9357 3.00219C28.0347 3.06631 28.1475 3.09797 28.275 3.09797Z" fill="var(--fill-0, #101010)"/>
<path id="Vector_13" d="M30.0339 3.59953V0.254562H30.5688V3.59953H30.0339ZM31.6532 2.37631C31.6532 2.18557 31.6313 2.03784 31.5866 1.93395C31.542 1.83005 31.4811 1.75781 31.4024 1.71641C31.3244 1.67502 31.2343 1.65391 31.1321 1.65391C30.9503 1.65067 30.8115 1.70992 30.714 1.83086C30.6166 1.9518 30.5679 2.1255 30.5679 2.35197H30.3626C30.3626 2.10034 30.3999 1.88443 30.4746 1.70424C30.5493 1.52404 30.6556 1.38687 30.7928 1.29352C30.93 1.19937 31.0923 1.15229 31.2798 1.15229C31.4673 1.15229 31.6304 1.19044 31.7668 1.26674C31.904 1.34304 32.0079 1.46154 32.0801 1.62307C32.1515 1.78378 32.1881 1.9932 32.1881 2.25132V2.3755H31.6532V2.37631ZM31.6532 3.59953V2.37631H32.1881V3.59953H31.6532Z" fill="var(--fill-0, #101010)"/>
<path id="Vector_14" d="M32.5085 1.66858V1.20998H34.0807V1.66858H32.5085ZM33.6797 3.65722C33.4281 3.65722 33.2357 3.59472 33.1042 3.4681C32.9719 3.34229 32.9062 3.16128 32.9062 2.92589V0.464848H33.437V2.82524C33.437 2.93725 33.463 3.02086 33.5158 3.07849C33.5685 3.13612 33.6456 3.16453 33.7479 3.16453C33.7796 3.16453 33.8145 3.15803 33.8526 3.14504C33.8908 3.13206 33.9338 3.10852 33.9817 3.07362L34.1773 3.47946C34.0945 3.53709 34.0117 3.58092 33.9289 3.61096C33.8461 3.64099 33.7633 3.65641 33.6805 3.65641L33.6797 3.65722Z" fill="var(--fill-0, #101010)"/>
<path id="Vector_15" d="M34.4681 4.14953L34.7546 3.06511H35.3187L34.8886 4.14953H34.4681Z" fill="var(--fill-0, #101010)"/>
<path id="Vector_16" d="M37.2305 0.756186C37.1444 0.756186 37.0706 0.725342 37.0081 0.662842C36.9456 0.601154 36.9147 0.526479 36.9147 0.44044C36.9147 0.354401 36.9456 0.281347 37.0081 0.22047C37.0697 0.159594 37.1444 0.129562 37.2305 0.129562C37.3165 0.129562 37.3904 0.159594 37.4529 0.22047C37.5154 0.281347 37.5462 0.354401 37.5462 0.44044C37.5462 0.526479 37.5154 0.600342 37.4529 0.662842C37.3912 0.725342 37.3165 0.756186 37.2305 0.756186ZM36.9626 3.59953V1.20992H37.4934V3.59953H36.9626Z" fill="var(--fill-0, #101010)"/>
<path id="Vector_17" d="M37.9043 1.66858V1.20998H39.4765V1.66858H37.9043ZM39.0748 3.65722C38.8231 3.65722 38.6308 3.59472 38.4993 3.4681C38.367 3.34229 38.3012 3.16128 38.3012 2.92589V0.464848H38.8321V2.82524C38.8321 2.93725 38.858 3.02086 38.9108 3.07849C38.9636 3.13612 39.0407 3.16453 39.1429 3.16453C39.1746 3.16453 39.2095 3.15803 39.2476 3.14504C39.2858 3.13206 39.3288 3.10852 39.3767 3.07362L39.5723 3.47946C39.4895 3.53709 39.4067 3.58092 39.3239 3.61096C39.2412 3.64099 39.1584 3.65641 39.0756 3.65641L39.0748 3.65722Z" fill="var(--fill-0, #101010)"/>
<path id="Vector_18" d="M39.7728 1.33898L40.0593 0.254562H40.6234L40.1932 1.33898H39.7728Z" fill="var(--fill-0, #101010)"/>
<path id="Vector_19" d="M41.4787 3.65755C41.3196 3.65755 41.1727 3.63401 41.0387 3.58612C40.9048 3.53823 40.7904 3.47086 40.6946 3.3832C40.5988 3.29554 40.5257 3.19326 40.4746 3.07476L40.9381 2.8694C40.986 2.95869 41.0566 3.03336 41.1507 3.09424C41.2449 3.15512 41.3488 3.18515 41.4641 3.18515C41.5882 3.18515 41.6881 3.16404 41.7628 3.12102C41.8374 3.078 41.8748 3.01794 41.8748 2.94164C41.8748 2.86534 41.8464 2.81177 41.7887 2.772C41.7311 2.73223 41.6499 2.69976 41.5452 2.67378L41.3204 2.6121C41.0939 2.55447 40.917 2.46356 40.7895 2.33693C40.6621 2.21112 40.598 2.06664 40.598 1.9043C40.598 1.66567 40.6751 1.4806 40.8301 1.34992C40.9844 1.21924 41.2068 1.1543 41.4965 1.1543C41.6426 1.1543 41.7774 1.17541 41.9007 1.21843C42.0233 1.26144 42.1296 1.32232 42.2189 1.40024C42.3082 1.47817 42.3699 1.56989 42.4056 1.67459L41.9608 1.87508C41.9292 1.79554 41.8683 1.73385 41.779 1.69083C41.6897 1.64781 41.5907 1.6267 41.4827 1.6267C41.3748 1.6267 41.2895 1.65024 41.2295 1.6957C41.1686 1.74197 41.1386 1.80609 41.1386 1.88888C41.1386 1.93677 41.1654 1.9806 41.2197 2.02037C41.2741 2.06015 41.352 2.09261 41.4535 2.11859L41.7352 2.18515C41.891 2.2233 42.0184 2.28336 42.1175 2.36453C42.2165 2.4457 42.2895 2.53661 42.3374 2.63726C42.3853 2.73791 42.4089 2.83856 42.4089 2.94083C42.4089 3.0845 42.3683 3.21031 42.2871 3.31826C42.2059 3.42622 42.0947 3.51063 41.9551 3.56908C41.8147 3.62833 41.6556 3.65755 41.477 3.65755H41.4787Z" fill="var(--fill-0, #101010)"/>
<path id="Vector_20" d="M45.0865 3.65722C44.8478 3.65722 44.6352 3.60365 44.4485 3.49732C44.2618 3.39099 44.1165 3.24326 44.011 3.05495C43.9063 2.86664 43.8535 2.65073 43.8535 2.40478C43.8535 2.15884 43.9055 1.94293 44.0086 1.75462C44.1124 1.56631 44.2561 1.41939 44.4412 1.31225C44.6262 1.20511 44.8381 1.15235 45.0767 1.15235C45.3154 1.15235 45.5272 1.20592 45.7123 1.31225C45.8974 1.41939 46.041 1.56631 46.1449 1.75462C46.248 1.94293 46.2999 2.15965 46.2999 2.40478C46.2999 2.64991 46.2488 2.86664 46.1474 3.05495C46.0451 3.24326 45.9022 3.39018 45.7172 3.49732C45.5321 3.60365 45.3219 3.65722 45.0865 3.65722ZM45.0865 3.16453C45.2172 3.16453 45.3332 3.13206 45.4355 3.06631C45.5378 3.00137 45.6173 2.91209 45.6741 2.79845C45.7318 2.68563 45.7602 2.55414 45.7602 2.40397C45.7602 2.25381 45.731 2.12313 45.6717 2.00949C45.6124 1.89667 45.5321 1.80738 45.4306 1.74164C45.3284 1.6767 45.2107 1.64342 45.0767 1.64342C44.9428 1.64342 44.8251 1.67508 44.7228 1.7392C44.6206 1.80332 44.541 1.8918 44.4842 2.00706C44.4266 2.1215 44.3982 2.25381 44.3982 2.40397C44.3982 2.55414 44.4274 2.68482 44.4866 2.79845C44.5459 2.91128 44.6271 3.00056 44.7301 3.06631C44.834 3.13124 44.9525 3.16453 45.0865 3.16453Z" fill="var(--fill-0, #101010)"/>
<path id="Vector_21" d="M46.7109 2.43351V1.21029H47.2458V2.43351H46.7109ZM47.2467 2.43351C47.2467 2.62182 47.2686 2.76792 47.3132 2.87344C47.3579 2.97896 47.4187 3.05201 47.4975 3.09341C47.5754 3.13481 47.6655 3.1551 47.7678 3.1551C47.9496 3.15835 48.0892 3.09909 48.1882 2.97815C48.2872 2.85721 48.3368 2.68351 48.3368 2.45705H48.5372C48.5372 2.70867 48.4999 2.92458 48.4252 3.10477C48.3506 3.28497 48.245 3.42214 48.1095 3.51549C47.9739 3.60965 47.8108 3.65672 47.6192 3.65672C47.4277 3.65672 47.2694 3.61857 47.1338 3.54227C46.9983 3.46598 46.8944 3.34666 46.8205 3.18351C46.7475 3.02117 46.7109 2.81257 46.7109 2.55769V2.43351H47.2458H47.2467ZM48.3643 3.5999L48.3359 3.15997V1.21029H48.8668V3.5999H48.3652H48.3643Z" fill="var(--fill-0, #101010)"/>
<path id="Vector_22" d="M49.2389 1.66858V1.20998H50.8112V1.66858H49.2389ZM50.4094 3.65722C50.1578 3.65722 49.9654 3.59472 49.8339 3.4681C49.7016 3.34229 49.6358 3.16128 49.6358 2.92589V0.464848H50.1667V2.82524C50.1667 2.93725 50.1927 3.02086 50.2454 3.07849C50.2982 3.13612 50.3753 3.16453 50.4776 3.16453C50.5092 3.16453 50.5441 3.15803 50.5823 3.14504C50.6204 3.13206 50.6634 3.10852 50.7113 3.07362L50.907 3.47946C50.8242 3.53709 50.7414 3.58092 50.6586 3.61096C50.5758 3.64099 50.493 3.65641 50.4102 3.65641L50.4094 3.65722Z" fill="var(--fill-0, #101010)"/>
<path id="Vector_23" d="M53.5878 3.65722C53.3491 3.65722 53.1365 3.60365 52.9498 3.49732C52.7631 3.39099 52.6178 3.24326 52.5123 3.05495C52.4076 2.86664 52.3548 2.65073 52.3548 2.40478C52.3548 2.15884 52.4068 1.94293 52.5098 1.75462C52.6137 1.56631 52.7574 1.41939 52.9425 1.31225C53.1275 1.20511 53.3394 1.15235 53.578 1.15235C53.8167 1.15235 54.0285 1.20592 54.2136 1.31225C54.3986 1.41939 54.5423 1.56631 54.6462 1.75462C54.7493 1.94293 54.8012 2.15965 54.8012 2.40478C54.8012 2.64991 54.7501 2.86664 54.6486 3.05495C54.5464 3.24326 54.4035 3.39018 54.2185 3.49732C54.0334 3.60365 53.8232 3.65722 53.5878 3.65722ZM53.5878 3.16453C53.7185 3.16453 53.8345 3.13206 53.9368 3.06631C54.0391 3.00137 54.1186 2.91209 54.1754 2.79845C54.2331 2.68563 54.2615 2.55414 54.2615 2.40397C54.2615 2.25381 54.2323 2.12313 54.173 2.00949C54.1137 1.89667 54.0334 1.80738 53.9319 1.74164C53.8297 1.6767 53.712 1.64342 53.578 1.64342C53.4441 1.64342 53.3264 1.67508 53.2241 1.7392C53.1219 1.80332 53.0423 1.8918 52.9855 2.00706C52.9279 2.1215 52.8995 2.25381 52.8995 2.40397C52.8995 2.55414 52.9287 2.68482 52.9879 2.79845C53.0472 2.91128 53.1284 3.00056 53.2314 3.06631C53.3353 3.13124 53.4538 3.16453 53.5878 3.16453Z" fill="var(--fill-0, #101010)"/>
<path id="Vector_24" d="M55.0931 1.65029V1.21036H56.6653V1.65029H55.0931ZM55.5038 3.59997V0.957112C55.5038 0.705488 55.5663 0.512307 55.6929 0.376755C55.8188 0.241203 56.0087 0.173833 56.2644 0.173833C56.3472 0.173833 56.4356 0.187631 56.5298 0.214417C56.6239 0.241203 56.714 0.277728 56.8001 0.32237L56.6045 0.719287C56.5436 0.690878 56.4908 0.669775 56.4446 0.656788C56.3983 0.643801 56.3577 0.637306 56.3228 0.637306C56.227 0.637306 56.1564 0.66815 56.1101 0.73065C56.0639 0.79315 56.0412 0.893801 56.0412 1.03422V3.60078H55.5062L55.5038 3.59997Z" fill="var(--fill-0, #101010)"/>
<path id="Vector_25" d="M58.0326 1.66858V1.20998H59.6048V1.66858H58.0326ZM59.203 3.65722C58.9514 3.65722 58.759 3.59472 58.6275 3.4681C58.4952 3.34229 58.4295 3.16128 58.4295 2.92589V0.464848H58.9603V2.82524C58.9603 2.93725 58.9863 3.02086 59.039 3.07849C59.0918 3.13612 59.1689 3.16453 59.2712 3.16453C59.3028 3.16453 59.3378 3.15803 59.3759 3.14504C59.4141 3.13206 59.4571 3.10852 59.505 3.07362L59.7006 3.47946C59.6178 3.53709 59.535 3.58092 59.4522 3.61096C59.3694 3.64099 59.2866 3.65641 59.2038 3.65641L59.203 3.65722Z" fill="var(--fill-0, #101010)"/>
<path id="Vector_26" d="M60.1348 3.59953V0.254562H60.6697V3.59953H60.1348ZM61.7549 2.37631C61.7549 2.18557 61.733 2.03784 61.6883 1.93395C61.6437 1.83005 61.5828 1.75781 61.5041 1.71641C61.4262 1.67502 61.3361 1.65391 61.2338 1.65391C61.052 1.65067 60.9132 1.70992 60.8158 1.83086C60.7184 1.9518 60.6697 2.1255 60.6697 2.35197H60.4643C60.4643 2.10034 60.5017 1.88443 60.5763 1.70424C60.651 1.52404 60.7573 1.38687 60.8945 1.29352C61.0317 1.19937 61.194 1.15229 61.3815 1.15229C61.569 1.15229 61.7322 1.19044 61.8685 1.26674C62.0057 1.34304 62.1096 1.46154 62.1818 1.62307C62.2533 1.78378 62.2898 1.9932 62.2898 2.25132V2.3755H61.7549V2.37631ZM61.7549 3.59953V2.37631H62.2898V3.59953H61.7549Z" fill="var(--fill-0, #101010)"/>
<path id="Vector_27" d="M63.1302 0.756186C63.0442 0.756186 62.9703 0.725342 62.9078 0.662842C62.8453 0.601154 62.8145 0.526479 62.8145 0.44044C62.8145 0.354401 62.8453 0.281347 62.9078 0.22047C62.9695 0.159594 63.0442 0.129562 63.1302 0.129562C63.2162 0.129562 63.2901 0.159594 63.3526 0.22047C63.4151 0.281347 63.4459 0.354401 63.4459 0.44044C63.4459 0.526479 63.4151 0.600342 63.3526 0.662842C63.2909 0.725342 63.2162 0.756186 63.1302 0.756186ZM62.8623 3.59953V1.20992H63.3932V3.59953H62.8623Z" fill="var(--fill-0, #101010)"/>
<path id="Vector_28" d="M64.894 3.65755C64.7349 3.65755 64.588 3.63401 64.4541 3.58612C64.3202 3.53823 64.2057 3.47086 64.1099 3.3832C64.0142 3.29554 63.9411 3.19326 63.89 3.07476L64.3534 2.8694C64.4013 2.95869 64.472 3.03336 64.5661 3.09424C64.6603 3.15512 64.7642 3.18515 64.8794 3.18515C65.0036 3.18515 65.1034 3.16404 65.1781 3.12102C65.2528 3.078 65.2901 3.01794 65.2901 2.94164C65.2901 2.86534 65.2617 2.81177 65.2041 2.772C65.1465 2.73223 65.0653 2.69976 64.9606 2.67378L64.7358 2.6121C64.5093 2.55447 64.3323 2.46356 64.2049 2.33693C64.0775 2.21112 64.0133 2.06664 64.0133 1.9043C64.0133 1.66567 64.0905 1.4806 64.2455 1.34992C64.3997 1.21924 64.6221 1.1543 64.9119 1.1543C65.058 1.1543 65.1927 1.17541 65.3161 1.21843C65.4387 1.26144 65.545 1.32232 65.6343 1.40024C65.7236 1.47817 65.7853 1.56989 65.821 1.67459L65.3762 1.87508C65.3445 1.79554 65.2836 1.73385 65.1944 1.69083C65.1051 1.64781 65.006 1.6267 64.8981 1.6267C64.7901 1.6267 64.7049 1.65024 64.6448 1.6957C64.584 1.74197 64.5539 1.80609 64.5539 1.88888C64.5539 1.93677 64.5807 1.9806 64.6351 2.02037C64.6895 2.06015 64.7674 2.09261 64.8689 2.11859L65.1505 2.18515C65.3064 2.2233 65.4338 2.28336 65.5328 2.36453C65.6319 2.4457 65.7049 2.53661 65.7528 2.63726C65.8007 2.73791 65.8242 2.83856 65.8242 2.94083C65.8242 3.0845 65.7836 3.21031 65.7025 3.31826C65.6213 3.42622 65.5101 3.51063 65.3705 3.56908C65.2301 3.62833 65.071 3.65755 64.8924 3.65755H64.894Z" fill="var(--fill-0, #101010)"/>
<path id="Vector_29" d="M67.9668 3.5999L67.1543 1.21029H67.6941L68.4733 3.5999H67.9668ZM68.0147 3.5999L68.7939 1.21029H69.2671L68.4976 3.5999H68.0147ZM69.6113 3.5999L68.8467 1.21029H69.3199L70.0991 3.5999H69.6121H69.6113ZM69.6153 3.5999L70.4132 1.21029H70.953L70.1405 3.5999H69.6145H69.6153Z" fill="var(--fill-0, #101010)"/>
<path id="Vector_30" d="M72.3293 3.65722C72.0907 3.65722 71.878 3.60365 71.6913 3.49732C71.5046 3.39099 71.3593 3.24326 71.2538 3.05495C71.1491 2.86664 71.0964 2.65073 71.0964 2.40478C71.0964 2.15884 71.1483 1.94293 71.2514 1.75462C71.3553 1.56631 71.499 1.41939 71.684 1.31225C71.8691 1.20511 72.0809 1.15235 72.3196 1.15235C72.5582 1.15235 72.7701 1.20592 72.9551 1.31225C73.1402 1.41939 73.2839 1.56631 73.3878 1.75462C73.4908 1.94293 73.5428 2.15965 73.5428 2.40478C73.5428 2.64991 73.4916 2.86664 73.3902 3.05495C73.2879 3.24326 73.1451 3.39018 72.96 3.49732C72.7749 3.60365 72.5647 3.65722 72.3293 3.65722ZM72.3293 3.16453C72.46 3.16453 72.5761 3.13206 72.6783 3.06631C72.7806 3.00137 72.8602 2.91209 72.917 2.79845C72.9746 2.68563 73.003 2.55414 73.003 2.40397C73.003 2.25381 72.9738 2.12313 72.9145 2.00949C72.8553 1.89667 72.7749 1.80738 72.6735 1.74164C72.5712 1.6767 72.4535 1.64342 72.3196 1.64342C72.1856 1.64342 72.0679 1.67508 71.9657 1.7392C71.8634 1.80332 71.7839 1.8918 71.727 2.00706C71.6694 2.1215 71.641 2.25381 71.641 2.40397C71.641 2.55414 71.6702 2.68482 71.7295 2.79845C71.7887 2.91128 71.8699 3.00056 71.973 3.06631C72.0769 3.13124 72.1954 3.16453 72.3293 3.16453Z" fill="var(--fill-0, #101010)"/>
<path id="Vector_31" d="M74.0072 3.59972V1.2101H74.5421V3.59972H74.0072ZM74.3611 2.32861C74.3611 2.07049 74.4106 1.85864 74.5096 1.69306C74.6086 1.52748 74.7369 1.4041 74.8943 1.32293C75.0518 1.24176 75.2166 1.20118 75.3887 1.20118V1.71254C75.2417 1.71254 75.1046 1.73283 74.9755 1.77261C74.8464 1.81238 74.7417 1.87731 74.6622 1.96579C74.5826 2.05507 74.5429 2.17277 74.5429 2.31968L74.3611 2.32942V2.32861Z" fill="var(--fill-0, #101010)"/>
<path id="Vector_32" d="M75.7415 3.59953V0.254562H76.2764V3.59953H75.7415Z" fill="var(--fill-0, #101010)"/>
<path id="Vector_33" d="M77.8154 3.65732C77.5987 3.65732 77.4095 3.60538 77.2488 3.50229C77.0881 3.39921 76.9623 3.2531 76.8714 3.06479C76.7805 2.87648 76.735 2.65732 76.735 2.4057C76.735 2.15408 76.7805 1.93005 76.8714 1.74417C76.9623 1.55748 77.0881 1.413 77.2488 1.30911C77.4095 1.20602 77.5987 1.15407 77.8154 1.15407C78.0159 1.15407 78.1888 1.20602 78.334 1.30911C78.4793 1.413 78.5897 1.55748 78.666 1.74417C78.7423 1.93086 78.7805 2.15083 78.7805 2.4057C78.7805 2.66057 78.7423 2.87729 78.666 3.06479C78.5897 3.2531 78.4785 3.3984 78.334 3.50229C78.1888 3.60619 78.0159 3.65732 77.8154 3.65732ZM77.9493 3.1695C78.0703 3.1695 78.1782 3.13703 78.2716 3.07128C78.3657 3.00635 78.4388 2.91625 78.4915 2.80099C78.5443 2.68573 78.5703 2.55424 78.5703 2.40408C78.5703 2.25391 78.5443 2.12242 78.4915 2.00716C78.4388 1.8919 78.3657 1.80343 78.2716 1.7393C78.1774 1.67599 78.0686 1.64352 77.9444 1.64352C77.8203 1.64352 77.7042 1.67518 77.6052 1.7393C77.5061 1.80343 77.429 1.8919 77.373 2.00716C77.317 2.12161 77.2878 2.25391 77.2845 2.40408C77.2878 2.55424 77.317 2.68573 77.373 2.80099C77.429 2.91544 77.5069 3.00554 77.6068 3.07128C77.7074 3.13622 77.8211 3.1695 77.9485 3.1695H77.9493ZM78.5946 3.59969L78.5711 3.15489V0.253911H79.1019V3.59888H78.5954L78.5946 3.59969Z" fill="var(--fill-0, #101010)"/>
</g>
<path id="Vector_34" d="M82.2384 2.21429V1.75082H96.96V2.21429H82.2384Z" fill="var(--fill-0, #101010)"/>
<g id="Group_3">
<path id="Vector_35" d="M101.793 3.46105C101.462 3.46105 101.169 3.388 100.914 3.24108C100.659 3.09498 100.459 2.89043 100.314 2.62907C100.169 2.3677 100.096 2.06819 100.096 1.73053C100.096 1.47566 100.138 1.24351 100.221 1.03329C100.303 0.823059 100.42 0.64043 100.57 0.486209C100.719 0.331988 100.897 0.211857 101.102 0.127441C101.307 0.0430258 101.533 0.000818154 101.778 0.000818154C102.109 0.000818154 102.402 0.074681 102.655 0.22322C102.908 0.371759 103.105 0.575494 103.247 0.835234C103.389 1.09497 103.46 1.39368 103.46 1.73134C103.46 2.069 103.389 2.36852 103.247 2.62988C103.105 2.89124 102.91 3.09498 102.66 3.24189C102.41 3.38881 102.121 3.46186 101.792 3.46186L101.793 3.46105ZM101.793 2.95456C102.01 2.95456 102.2 2.9018 102.367 2.79709C102.532 2.69157 102.662 2.5479 102.756 2.36446C102.851 2.18101 102.898 1.96998 102.898 1.73134C102.898 1.4927 102.85 1.28166 102.754 1.09822C102.658 0.914779 102.527 0.771111 102.359 0.665592C102.192 0.560884 101.999 0.508124 101.779 0.508124C101.559 0.508124 101.371 0.560884 101.204 0.665592C101.036 0.771111 100.904 0.914779 100.807 1.09822C100.709 1.28166 100.661 1.4927 100.661 1.73134C100.661 1.96998 100.709 2.18101 100.807 2.36446C100.904 2.5479 101.037 2.69157 101.208 2.79709C101.379 2.9018 101.574 2.95456 101.794 2.95456H101.793ZM103.092 3.59985L101.874 2.36689L102.233 2.02274L103.441 3.25082L103.092 3.59985Z" fill="var(--fill-0, #101010)"/>
<path id="Vector_36" d="M103.91 1.03878V0.537161C103.983 0.540408 104.066 0.518491 104.16 0.473037C104.255 0.42677 104.348 0.365083 104.44 0.288784C104.532 0.212485 104.615 0.134563 104.688 0.0550174L105.032 0.413785C104.921 0.53148 104.804 0.640246 104.683 0.738461C104.562 0.836675 104.437 0.913784 104.308 0.968167C104.179 1.02255 104.046 1.04609 103.909 1.0396L103.91 1.03878ZM104.636 3.40486V0.356153L104.689 0.0598873H105.172V3.40486H104.637H104.636Z" fill="var(--fill-0, #101010)"/>
<path id="Vector_37" d="M107.073 3.40439V2.97907C107.073 2.88004 107.098 2.77777 107.149 2.67063C107.2 2.5643 107.272 2.45634 107.366 2.34839C107.461 2.24043 107.571 2.13816 107.698 2.04238L108.281 1.62192C108.354 1.57079 108.422 1.51235 108.484 1.44498C108.547 1.37842 108.596 1.30699 108.634 1.23231C108.672 1.15764 108.692 1.08377 108.692 1.00991C108.692 0.917377 108.668 0.832962 108.623 0.756663C108.577 0.680364 108.511 0.619488 108.427 0.574846C108.343 0.530203 108.24 0.508286 108.119 0.508286C108.011 0.508286 107.914 0.529391 107.83 0.572411C107.746 0.61543 107.677 0.672248 107.622 0.742053C107.568 0.811859 107.53 0.888968 107.508 0.97176L106.939 0.866242C106.97 0.713644 107.039 0.570788 107.142 0.438482C107.245 0.306177 107.379 0.200656 107.543 0.120299C107.707 0.0407538 107.895 0.000980915 108.105 0.000980915C108.341 0.000980915 108.545 0.0440001 108.719 0.130039C108.892 0.216078 109.026 0.334586 109.121 0.486372C109.215 0.637346 109.262 0.810234 109.262 1.00504C109.262 1.19985 109.208 1.38004 109.102 1.53751C108.995 1.69498 108.846 1.84595 108.655 1.98881L108.121 2.38572C108.016 2.46202 107.93 2.544 107.862 2.63166C107.796 2.71933 107.75 2.81267 107.724 2.91089H109.306V3.40277H107.074L107.073 3.40439Z" fill="var(--fill-0, #101010)"/>
<path id="Vector_38" d="M111.082 3.46137C110.821 3.46137 110.589 3.38751 110.384 3.23897C110.18 3.09043 110.02 2.8867 109.904 2.62696C109.788 2.36722 109.729 2.06851 109.729 1.73085C109.729 1.39319 109.788 1.09449 109.904 0.834746C110.02 0.575006 110.179 0.371273 110.382 0.222734C110.585 0.0741952 110.818 0.000329873 111.082 0.000329873C111.347 0.000329873 111.581 0.0741952 111.784 0.222734C111.988 0.371273 112.148 0.575006 112.265 0.834746C112.381 1.09449 112.439 1.39319 112.439 1.73085C112.439 2.06851 112.381 2.36722 112.265 2.62696C112.149 2.8867 111.989 3.09043 111.787 3.23897C111.585 3.38751 111.349 3.46137 111.082 3.46137ZM111.087 2.95975C111.243 2.95975 111.383 2.90699 111.505 2.80228C111.628 2.69676 111.723 2.55228 111.792 2.36722C111.86 2.18215 111.895 1.9703 111.895 1.73166C111.895 1.49303 111.861 1.28036 111.792 1.09367C111.723 0.906986 111.628 0.761695 111.505 0.656176C111.383 0.550656 111.241 0.498708 111.082 0.498708C110.923 0.498708 110.783 0.551468 110.662 0.656176C110.541 0.760884 110.446 0.906175 110.378 1.09124C110.309 1.27631 110.275 1.48978 110.275 1.73166C110.275 1.97355 110.309 2.18215 110.378 2.36722C110.446 2.55228 110.542 2.69676 110.664 2.80228C110.787 2.90699 110.928 2.95975 111.087 2.95975Z" fill="var(--fill-0, #101010)"/>
<path id="Vector_39" d="M112.884 3.40439V2.97907C112.884 2.88004 112.909 2.77777 112.96 2.67063C113.011 2.5643 113.084 2.45634 113.178 2.34839C113.272 2.24043 113.382 2.13816 113.51 2.04238L114.092 1.62192C114.166 1.57079 114.234 1.51235 114.295 1.44498C114.358 1.37842 114.407 1.30699 114.446 1.23231C114.484 1.15764 114.503 1.08377 114.503 1.00991C114.503 0.917377 114.48 0.832962 114.434 0.756663C114.388 0.680364 114.322 0.619488 114.239 0.574846C114.154 0.530203 114.051 0.508286 113.93 0.508286C113.822 0.508286 113.726 0.529391 113.641 0.572411C113.557 0.61543 113.488 0.672248 113.433 0.742053C113.379 0.811859 113.341 0.888968 113.319 0.97176L112.75 0.866242C112.782 0.713644 112.85 0.570788 112.953 0.438482C113.056 0.306177 113.19 0.200656 113.355 0.120299C113.519 0.0407538 113.706 0.000980915 113.916 0.000980915C114.152 0.000980915 114.356 0.0440001 114.53 0.130039C114.704 0.216078 114.838 0.334586 114.932 0.486372C115.026 0.637346 115.073 0.810234 115.073 1.00504C115.073 1.19985 115.019 1.38004 114.913 1.53751C114.806 1.69498 114.657 1.84595 114.467 1.98881L113.932 2.38572C113.827 2.46202 113.741 2.544 113.674 2.63166C113.607 2.71933 113.561 2.81267 113.535 2.91089H115.117V3.40277H112.885L112.884 3.40439Z" fill="var(--fill-0, #101010)"/>
<path id="Vector_40" d="M116.778 3.4617C116.551 3.4617 116.36 3.41949 116.202 3.33508C116.045 3.25066 115.918 3.13621 115.822 2.99092C115.727 2.84563 115.657 2.6768 115.612 2.48443C115.568 2.29124 115.545 2.08508 115.545 1.86592C115.545 1.59806 115.572 1.35131 115.628 1.12566C115.684 0.899199 115.768 0.70196 115.879 0.533128C115.99 0.364297 116.13 0.233614 116.297 0.141081C116.464 0.0485486 116.659 0.002283 116.883 0.002283C117.055 0.002283 117.224 0.0282571 117.391 0.0810169C117.559 0.133777 117.707 0.206016 117.838 0.298549L117.551 0.700336C117.452 0.630531 117.345 0.577771 117.229 0.542868C117.113 0.507965 117.005 0.490106 116.907 0.490106C116.63 0.490106 116.416 0.609426 116.264 0.848874C116.112 1.08751 116.043 1.45926 116.056 1.96251L115.942 1.87647C116.015 1.69465 116.131 1.54936 116.291 1.43897C116.45 1.32939 116.64 1.2742 116.86 1.2742C117.08 1.2742 117.262 1.3229 117.429 1.4203C117.594 1.51771 117.723 1.65001 117.816 1.81722C117.908 1.98443 117.955 2.17517 117.955 2.38865C117.955 2.60212 117.906 2.78069 117.809 2.94303C117.712 3.10537 117.575 3.23281 117.399 3.32534C117.222 3.41787 117.016 3.46414 116.78 3.46414L116.778 3.4617ZM116.783 2.98849C116.9 2.98849 117.007 2.9617 117.101 2.90732C117.195 2.85294 117.269 2.77907 117.323 2.68491C117.378 2.59076 117.404 2.48361 117.404 2.36267C117.404 2.24173 117.378 2.13297 117.323 2.038C117.269 1.94222 117.195 1.86836 117.101 1.8156C117.007 1.76284 116.901 1.73686 116.783 1.73686C116.664 1.73686 116.554 1.76284 116.46 1.8156C116.366 1.86836 116.292 1.94222 116.238 2.038C116.184 2.13378 116.157 2.24173 116.157 2.36267C116.157 2.48361 116.184 2.59157 116.238 2.68491C116.292 2.77907 116.366 2.85294 116.46 2.90732C116.555 2.9617 116.662 2.98849 116.783 2.98849Z" fill="var(--fill-0, #101010)"/>
</g>
</g>
</svg>
