<svg preserveAspectRatio="none" width="100%" height="100%" overflow="visible" style="display: block;" viewBox="0 0 8.7057 8.43885" fill="none" xmlns="http://www.w3.org/2000/svg">
<g id="Group">
<path id="Vector" d="M3.59774 5.59085C3.59774 6.63712 5.0742 7.5105 7.04173 7.7191C8.05472 6.92202 8.70569 5.68663 8.70569 4.29783C8.70569 4.004 8.67647 3.71747 8.62047 3.44069C8.40212 3.42364 8.1781 3.41471 7.95001 3.41471C5.5466 3.41471 3.59774 4.38874 3.59774 5.59085Z" fill="var(--fill-0, #0E3CA5)"/>
<path id="Vector_2" d="M6.37319 3.22728C7.13537 3.22728 7.85209 3.12906 8.47546 2.95698C7.89348 1.23783 6.26848 0 4.3529 0C3.53066 0 2.76118 0.228086 2.10533 0.625001C2.05014 0.762988 2.02091 0.905845 2.02091 1.05195C2.02091 2.25406 3.96978 3.22809 6.37319 3.22809V3.22728Z" fill="var(--fill-0, #0E3CA5)"/>
<path id="Vector_3" d="M2.51375 3.19437C2.51375 4.39648 4.46181 5.37051 6.86603 5.37051C7.49265 5.37051 8.08681 5.30395 8.62496 5.18463C8.6769 4.91515 8.70532 4.63674 8.70532 4.35265C8.70532 3.01661 8.10304 1.82261 7.1558 1.02391C7.06002 1.02066 6.96343 1.01823 6.86603 1.01823C4.46262 1.01823 2.51375 1.99226 2.51375 3.19437Z" fill="var(--fill-0, #5493F7)"/>
<path id="Vector_4" d="M0.368571 2.60275C2.00981 2.29106 3.17701 1.49804 3.17701 0.567844C3.17701 0.43635 3.15267 0.307292 3.10721 0.182292C1.87831 0.549175 0.878311 1.44366 0.368571 2.60275Z" fill="var(--fill-0, #5493F7)"/>
<path id="Vector_5" d="M5.78263 8.34538C5.78263 8.36648 5.78426 8.38758 5.78588 8.40869C6.80212 8.05479 7.64708 7.33482 8.16169 6.40625C6.75017 6.76583 5.78263 7.49878 5.78263 8.34538Z" fill="var(--fill-0, #5493F7)"/>
<path id="Vector_6" d="M2.85398 8.43869C3.35317 7.47115 2.64294 5.63917 1.10966 4.10589C0.794723 3.79096 0.466802 3.51092 0.136444 3.26823C0.0479703 3.61482 8.12458e-05 3.97765 8.12458e-05 4.35102C8.12458e-05 6.22765 1.18839 7.82667 2.85317 8.43788L2.85398 8.43869Z" fill="var(--fill-0, #5493F7)"/>
</g>
</svg>
