<svg preserveAspectRatio="none" width="100%" height="100%" overflow="visible" style="display: block;" viewBox="0 0 40.3775 5.17938" fill="none" xmlns="http://www.w3.org/2000/svg">
<g id="Group">
<path id="Vector" d="M1.45942 5.09492V1.09898H0V0.230469H3.86445V1.09898H2.41234V5.09492H1.46023H1.45942Z" fill="var(--fill-0, #101010)"/>
<path id="Vector_2" d="M5.46971 5.17835C5.12718 5.17835 4.8236 5.10042 4.55899 4.94539C4.29519 4.79036 4.0874 4.57607 3.93724 4.30253C3.78627 4.02899 3.71159 3.71406 3.71159 3.35773C3.71159 3.0014 3.78951 2.68565 3.94454 2.41292C4.09958 2.13938 4.31305 1.9251 4.58415 1.77006C4.85526 1.61503 5.16695 1.53711 5.51922 1.53711C5.82523 1.53711 6.10607 1.61665 6.36337 1.77656C6.62068 1.93646 6.82685 2.17023 6.98188 2.47867C7.13691 2.78711 7.21484 3.1613 7.21484 3.60123H4.58091L4.66451 3.51763C4.66451 3.6889 4.70753 3.83825 4.79276 3.96568C4.8788 4.09312 4.99 4.19052 5.12636 4.25789C5.26273 4.32526 5.41045 4.35854 5.56792 4.35854C5.75786 4.35854 5.91289 4.31796 6.03383 4.23679C6.15396 4.15562 6.2465 4.0501 6.31143 3.92023L7.13123 4.24003C7.03383 4.43484 6.90802 4.60286 6.75218 4.74409C6.59714 4.88533 6.41289 4.99328 6.19942 5.06714C5.98594 5.14101 5.74325 5.17835 5.46971 5.17835ZM4.71159 3.00302L4.62798 2.91942H6.3025L6.2262 3.00302C6.2262 2.83662 6.18643 2.70269 6.1077 2.60367C6.02896 2.50383 5.93237 2.43078 5.81955 2.38451C5.70591 2.33825 5.59633 2.31471 5.48919 2.31471C5.38205 2.31471 5.26922 2.33825 5.14828 2.38451C5.02815 2.43078 4.92506 2.50383 4.83903 2.60367C4.75299 2.70351 4.71078 2.83662 4.71078 3.00302H4.71159Z" fill="var(--fill-0, #101010)"/>
<path id="Vector_3" d="M7.7487 5.09476V1.61992H8.66591V5.09476H7.7487ZM8.3948 3.26684C8.3948 2.89184 8.46786 2.58096 8.61396 2.33583C8.76007 2.0907 8.94757 1.90726 9.17727 1.78713C9.40698 1.667 9.64643 1.60612 9.89643 1.60612V2.49573C9.68295 2.49573 9.48328 2.52089 9.29496 2.57203C9.10746 2.62317 8.95568 2.70677 8.83961 2.82203C8.72354 2.9381 8.66591 3.08583 8.66591 3.26684H8.3948Z" fill="var(--fill-0, #101010)"/>
<path id="Vector_4" d="M10.3828 5.09476V1.61992H11.3V5.09476H10.3828ZM11.0289 3.26684C11.0289 2.89184 11.102 2.58096 11.2481 2.33583C11.3942 2.0907 11.5817 1.90726 11.8114 1.78713C12.0411 1.667 12.2805 1.60612 12.5305 1.60612V2.49573C12.3171 2.49573 12.1174 2.52089 11.9291 2.57203C11.7416 2.62317 11.5898 2.70677 11.4737 2.82203C11.3577 2.9381 11.3 3.08583 11.3 3.26684H11.0289Z" fill="var(--fill-0, #101010)"/>
<path id="Vector_5" d="M14.1427 5.17835C13.7255 5.17835 13.4025 5.08581 13.1736 4.90075C12.9439 4.71568 12.8294 4.45351 12.8294 4.11503C12.8294 3.74409 12.9536 3.46487 13.2012 3.27737C13.4487 3.08987 13.7978 2.99571 14.2474 2.99571H15.1298V3.67672H14.5664C14.2653 3.67672 14.0567 3.71244 13.9406 3.78468C13.8246 3.85692 13.7669 3.95757 13.7669 4.08662C13.7669 4.1889 13.8132 4.26844 13.9057 4.32607C13.9983 4.3837 14.1281 4.41292 14.2945 4.41292C14.4471 4.41292 14.5827 4.37721 14.7012 4.30497C14.8197 4.23354 14.913 4.1402 14.9828 4.02737C15.0526 3.91373 15.0867 3.79685 15.0867 3.67672H15.3091C15.3091 4.14912 15.2199 4.51763 15.0413 4.78143C14.8627 5.04523 14.5632 5.17753 14.1411 5.17753L14.1427 5.17835ZM15.116 5.09474L15.0884 4.39263V3.33662C15.0884 3.12802 15.0664 2.94945 15.0226 2.80172C14.9788 2.65318 14.909 2.53873 14.814 2.45756C14.719 2.3764 14.5908 2.33581 14.4285 2.33581C14.2799 2.33581 14.146 2.36828 14.025 2.43321C13.9049 2.49815 13.8026 2.59799 13.719 2.73192L12.913 2.45432C12.978 2.30578 13.0729 2.1613 13.1979 2.02006C13.3229 1.87883 13.4861 1.76276 13.6882 1.67266C13.8895 1.58256 14.1362 1.53711 14.4285 1.53711C14.7807 1.53711 15.0737 1.60448 15.3075 1.73841C15.5413 1.87315 15.715 2.06146 15.8286 2.30497C15.9423 2.54847 15.9966 2.83662 15.9918 3.17023L15.9707 5.09555H15.116V5.09474Z" fill="var(--fill-0, #101010)"/>
<path id="Vector_6" d="M20.654 5.17863C20.1816 5.17863 19.7619 5.07068 19.3959 4.85558C19.0298 4.64048 18.7425 4.34341 18.5339 3.96597C18.3252 3.58854 18.2214 3.15428 18.2214 2.66321C18.2214 2.17214 18.3252 1.73789 18.5339 1.36045C18.7425 0.983014 19.0282 0.685936 19.3918 0.470839C19.7554 0.255741 20.1735 0.147786 20.6459 0.147786C20.9795 0.147786 21.2895 0.20704 21.5769 0.324735C21.8642 0.443241 22.1158 0.607202 22.3309 0.818242C22.546 1.02928 22.7116 1.27116 22.8277 1.5447L21.9454 1.871C21.8666 1.69974 21.7619 1.55039 21.6329 1.42295C21.503 1.29551 21.3553 1.19568 21.1881 1.12425C21.0217 1.05282 20.8407 1.01629 20.6459 1.01629C20.3634 1.01629 20.1118 1.08691 19.8918 1.22814C19.6718 1.36938 19.5006 1.56256 19.3772 1.8085C19.2546 2.05444 19.1929 2.33935 19.1929 2.66321C19.1929 2.98707 19.2554 3.2736 19.3804 3.52117C19.5054 3.76873 19.6791 3.96354 19.9016 4.10477C20.124 4.246 20.3788 4.31662 20.6662 4.31662C20.865 4.31662 21.0468 4.27847 21.2116 4.20217C21.3764 4.12587 21.5217 4.02035 21.6491 3.88561C21.7765 3.75169 21.8796 3.59584 21.9584 3.4197L22.8407 3.73951C22.7246 4.02198 22.559 4.27198 22.3439 4.49032C22.1288 4.70786 21.8772 4.8775 21.5899 4.99763C21.3025 5.11776 20.99 5.17863 20.6516 5.17863H20.654Z" fill="var(--fill-0, #101010)"/>
<path id="Vector_7" d="M23.4128 5.09492V0.230469H24.33V5.09492H23.4128Z" fill="var(--fill-0, #101010)"/>
<path id="Vector_8" d="M26.2489 5.17835C25.8317 5.17835 25.5086 5.08581 25.2797 4.90075C25.05 4.71568 24.9355 4.45351 24.9355 4.11503C24.9355 3.74409 25.0597 3.46487 25.3073 3.27737C25.5549 3.08987 25.9039 2.99571 26.3536 2.99571H27.2359V3.67672H26.6726C26.3714 3.67672 26.1628 3.71244 26.0467 3.78468C25.9307 3.85692 25.8731 3.95757 25.8731 4.08662C25.8731 4.1889 25.9193 4.26844 26.0118 4.32607C26.1044 4.3837 26.2343 4.41292 26.4006 4.41292C26.5532 4.41292 26.6888 4.37721 26.8073 4.30497C26.9258 4.23354 27.0192 4.1402 27.089 4.02737C27.1588 3.91373 27.1929 3.79685 27.1929 3.67672H27.4153C27.4153 4.14912 27.326 4.51763 27.1474 4.78143C26.9688 5.04523 26.6693 5.17753 26.2472 5.17753L26.2489 5.17835ZM27.2213 5.09474L27.1937 4.39263V3.33662C27.1937 3.12802 27.1718 2.94945 27.1279 2.80172C27.0841 2.65318 27.0143 2.53873 26.9193 2.45756C26.8243 2.3764 26.6961 2.33581 26.5338 2.33581C26.3852 2.33581 26.2513 2.36828 26.1304 2.43321C26.0102 2.49815 25.908 2.59799 25.8243 2.73192L25.0183 2.45432C25.0833 2.30578 25.1782 2.1613 25.3032 2.02006C25.4282 1.87883 25.5914 1.76276 25.7935 1.67266C25.9948 1.58256 26.2416 1.53711 26.5338 1.53711C26.886 1.53711 27.1791 1.60448 27.4128 1.73841C27.6466 1.87315 27.8203 2.06146 27.9339 2.30497C28.0476 2.54847 28.1019 2.83662 28.0971 3.17023L28.076 5.09555H27.2213V5.09474Z" fill="var(--fill-0, #101010)"/>
<path id="Vector_9" d="M30.1265 5.17851C29.9041 5.17851 29.6955 5.14523 29.5007 5.07786C29.3059 5.01049 29.1346 4.91308 28.9861 4.78565C28.8375 4.65821 28.7223 4.50156 28.6387 4.31649L29.4244 3.95529C29.4942 4.06649 29.5892 4.16308 29.7093 4.24344C29.8294 4.32461 29.969 4.36519 30.1265 4.36519C30.284 4.36519 30.3976 4.34328 30.4812 4.29945C30.5648 4.25562 30.6062 4.19149 30.6062 4.1087C30.6062 4.02591 30.5729 3.96422 30.5056 3.92445C30.4382 3.88549 30.3465 3.8514 30.2312 3.8238L29.9114 3.74019C29.5778 3.65253 29.3148 3.51211 29.1224 3.31974C28.9301 3.12737 28.8343 2.90659 28.8343 2.65578C28.8343 2.29945 28.9487 2.02347 29.1784 1.82867C29.4082 1.63386 29.7328 1.53646 30.1549 1.53646C30.3724 1.53646 30.5754 1.56893 30.7629 1.63386C30.9504 1.6988 31.1111 1.78889 31.2458 1.90497C31.3797 2.02104 31.4731 2.15497 31.5234 2.30837L30.7661 2.65578C30.7336 2.56324 30.6549 2.48776 30.5299 2.43013C30.4049 2.3725 30.2799 2.34328 30.1549 2.34328C30.0299 2.34328 29.9333 2.37006 29.8668 2.42282C29.7994 2.47639 29.7661 2.54945 29.7661 2.64198C29.7661 2.70204 29.7986 2.75237 29.8635 2.79133C29.9284 2.8311 30.021 2.86438 30.1411 2.89198L30.5932 3.00318C30.8205 3.05838 31.0023 3.14766 31.1387 3.27104C31.275 3.3936 31.3749 3.53078 31.4374 3.68094C31.4999 3.83191 31.5315 3.97883 31.5315 4.1225C31.5315 4.3311 31.4698 4.51536 31.3473 4.67526C31.2247 4.83516 31.0575 4.95935 30.8473 5.04701C30.6362 5.13468 30.3968 5.17932 30.1281 5.17932L30.1265 5.17851Z" fill="var(--fill-0, #101010)"/>
<path id="Vector_10" d="M33.3583 5.17851C33.1359 5.17851 32.9273 5.14523 32.7325 5.07786C32.5376 5.01049 32.3664 4.91308 32.2178 4.78565C32.0693 4.65821 31.954 4.50156 31.8704 4.31649L32.6562 3.95529C32.726 4.06649 32.8209 4.16308 32.9411 4.24344C33.0612 4.32461 33.2008 4.36519 33.3583 4.36519C33.5157 4.36519 33.6294 4.34328 33.713 4.29945C33.7966 4.25562 33.838 4.19149 33.838 4.1087C33.838 4.02591 33.8047 3.96422 33.7373 3.92445C33.67 3.88549 33.5782 3.8514 33.463 3.8238L33.1432 3.74019C32.8096 3.65253 32.5466 3.51211 32.3542 3.31974C32.1618 3.12737 32.0661 2.90659 32.0661 2.65578C32.0661 2.29945 32.1805 2.02347 32.4102 1.82867C32.6399 1.63386 32.9646 1.53646 33.3867 1.53646C33.6042 1.53646 33.8071 1.56893 33.9946 1.63386C34.1821 1.6988 34.3428 1.78889 34.4776 1.90497C34.6115 2.02104 34.7049 2.15497 34.7552 2.30837L33.9979 2.65578C33.9654 2.56324 33.8867 2.48776 33.7617 2.43013C33.6367 2.3725 33.5117 2.34328 33.3867 2.34328C33.2617 2.34328 33.1651 2.37006 33.0985 2.42282C33.0312 2.47639 32.9979 2.54945 32.9979 2.64198C32.9979 2.70204 33.0303 2.75237 33.0953 2.79133C33.1602 2.8311 33.2527 2.86438 33.3729 2.89198L33.825 3.00318C34.0523 3.05838 34.2341 3.14766 34.3704 3.27104C34.5068 3.3936 34.6066 3.53078 34.6691 3.68094C34.7316 3.83191 34.7633 3.97883 34.7633 4.1225C34.7633 4.3311 34.7016 4.51536 34.579 4.67526C34.4565 4.83516 34.2893 4.95935 34.079 5.04701C33.868 5.13468 33.6286 5.17932 33.3599 5.17932L33.3583 5.17851Z" fill="var(--fill-0, #101010)"/>
<path id="Vector_11" d="M35.8116 1.05682C35.6728 1.05682 35.5494 1.00487 35.4431 0.900163C35.3368 0.796267 35.2832 0.672078 35.2832 0.528409C35.2832 0.384741 35.3368 0.260552 35.4431 0.156656C35.5494 0.0527598 35.6728 0 35.8116 0C35.9504 0 36.0795 0.0519481 36.1834 0.156656C36.2873 0.260552 36.34 0.384741 36.34 0.528409C36.34 0.672078 36.2881 0.796267 36.1834 0.900163C36.0795 1.00406 35.9553 1.05682 35.8116 1.05682ZM35.353 5.09497V1.62013H36.2702V5.09497H35.353Z" fill="var(--fill-0, #101010)"/>
<path id="Vector_12" d="M38.793 5.17835C38.4318 5.17835 38.1096 5.10042 37.8271 4.94539C37.5446 4.79036 37.3247 4.57445 37.1672 4.29929C37.0097 4.02331 36.931 3.71 36.931 3.35773C36.931 3.00545 37.0097 2.68565 37.1672 2.41292C37.3247 2.13938 37.5422 1.9251 37.8206 1.77006C38.0982 1.61503 38.418 1.53711 38.78 1.53711C39.142 1.53711 39.4448 1.62315 39.7321 1.79441C40.0195 1.96568 40.2281 2.21406 40.3579 2.53792L39.4959 2.84393C39.431 2.71 39.3303 2.60205 39.194 2.52088C39.0576 2.43971 38.9058 2.39912 38.7386 2.39912C38.5714 2.39912 38.4164 2.43971 38.2865 2.52088C38.1566 2.60205 38.0552 2.71406 37.9805 2.85773C37.9066 3.0014 37.8693 3.16779 37.8693 3.35773C37.8693 3.54766 37.9066 3.71325 37.9805 3.85448C38.0544 3.99572 38.1591 4.10854 38.293 4.19133C38.4269 4.27494 38.5803 4.31633 38.7516 4.31633C38.9229 4.31633 39.0698 4.2725 39.207 4.18403C39.3433 4.09636 39.444 3.98029 39.5089 3.83662L40.3774 4.14263C40.2427 4.47136 40.0333 4.72624 39.7484 4.90724C39.4635 5.08825 39.1445 5.17835 38.793 5.17835Z" fill="var(--fill-0, #101010)"/>
</g>
</svg>
