<svg preserveAspectRatio="none" width="100%" height="100%" overflow="visible" style="display: block;" viewBox="0 0 41 31" fill="none" xmlns="http://www.w3.org/2000/svg">
<g id="Vector">
<path d="M17.7376 20.5408C17.7376 24.3852 23.1559 27.5916 30.3751 28.3573C34.0935 25.4274 36.4787 20.8918 36.4787 15.7871C36.4787 14.7077 36.3724 13.6549 36.1653 12.6393C35.3631 12.5755 34.5398 12.5436 33.7058 12.5436C24.8823 12.5436 17.7322 16.1221 17.7322 20.5355L17.7376 20.5408Z" fill="#0E3CA5"/>
<path d="M27.9262 11.8576C30.7257 11.8576 33.3552 11.4961 35.6394 10.8633C33.5039 4.54631 27.5384 0 20.5105 0C17.4932 0 14.6725 0.840137 12.2608 2.29708C12.0589 2.80223 11.9527 3.32864 11.9527 3.86569C11.9527 8.27907 19.1028 11.8576 27.9262 11.8576Z" fill="#0E3CA5"/>
<path d="M13.7588 11.7353C13.7588 16.1487 20.9089 19.7273 29.7323 19.7273C32.0324 19.7273 34.2157 19.4827 36.1865 19.0467C36.3777 18.0576 36.484 17.0367 36.484 15.9892C36.484 11.0813 34.2742 6.69451 30.7947 3.75935C30.4441 3.74871 30.0882 3.73808 29.7323 3.73808C20.9089 3.73808 13.7588 7.31664 13.7588 11.73V11.7353Z" fill="#5493F7"/>
<path d="M15.0071 31C16.8398 27.4427 14.2316 20.7163 8.60604 15.0852C7.448 13.9261 6.24746 12.8998 5.0363 12.0065C4.71226 13.2774 4.53696 14.612 4.53696 15.9839C4.53696 22.8804 8.8982 28.7508 15.0071 31Z" fill="#5493F7"/>
<path d="M5.88624 9.56055C11.9102 8.41732 16.1917 5.50343 16.1917 2.08439C16.1917 1.60051 16.1014 1.12727 15.9367 0.664666C11.4268 2.01527 7.7561 5.30137 5.88624 9.56055Z" fill="#5493F7"/>
<path d="M25.7535 30.6597C25.7535 30.7395 25.7588 30.8139 25.7642 30.8937C29.4933 29.5909 32.5955 26.9482 34.4813 23.5398C29.302 24.8638 25.7482 27.5544 25.7482 30.665L25.7535 30.6597Z" fill="#5493F7"/>
<path d="M20.5 23.179C31.8218 23.179 41 20.8845 41 18.054C41 15.2235 31.8218 12.9289 20.5 12.9289C9.17816 12.9289 0 15.2235 0 18.054C0 20.8845 9.17816 23.179 20.5 23.179Z" fill="url(#paint0_linear_0_35)"/>
<path d="M20.5 18.0633C31.8218 18.0633 41 15.7729 41 12.9475C41 10.1222 31.8218 7.83176 20.5 7.83176C9.17816 7.83176 0 10.1222 0 12.9475C0 15.7729 9.17816 18.0633 20.5 18.0633Z" fill="url(#paint1_linear_0_35)"/>
</g>
<defs>
<linearGradient id="paint0_linear_0_35" x1="20.5" y1="31" x2="20.5" y2="0" gradientUnits="userSpaceOnUse">
<stop stop-color="#F9D85E"/>
<stop offset="1" stop-color="#5493F7"/>
</linearGradient>
<linearGradient id="paint1_linear_0_35" x1="-14.4934" y1="18.0633" x2="-14.3284" y2="7.8301" gradientUnits="userSpaceOnUse">
<stop stop-color="#F9D85E"/>
<stop offset="1" stop-color="#5493F7"/>
</linearGradient>
</defs>
</svg>
