<svg preserveAspectRatio="none" width="100%" height="100%" overflow="visible" style="display: block;" viewBox="0 0 32 32" fill="none" xmlns="http://www.w3.org/2000/svg">
<g id="Vector">
<path d="M16.0457 20.2683C10.1987 20.331 5.10352 21.9545 2.33725 24.3254C5.17855 28.9777 10.3246 32.0613 16.1715 31.9986C22.0185 31.9359 27.0969 28.7432 29.8385 24.0312C27.0224 21.7201 21.8931 20.2056 16.0462 20.2683H16.0457Z" fill="#EF7730"/>
<path d="M15.9613 12.3601C21.981 12.2955 27.204 10.5767 29.9086 8.09083C27.125 3.2065 21.8487 -0.0637092 15.829 0.000954508C9.80923 0.0651246 4.60397 3.44738 1.92557 8.39045C4.68295 10.8176 9.94152 12.4248 15.9613 12.3601Z" fill="#EF7730"/>
<path d="M18.222 0.153975C17.4406 0.0453799 16.642 -0.00793058 15.829 0.000954508C10.8261 0.054265 6.38496 2.39993 3.48986 6.02751C10.5023 5.8355 16.3443 3.3995 18.222 0.153975Z" fill="#F9D85E"/>
<path d="M3.32252 6.2452C1.20735 8.9902 -0.0390498 12.4366 0.000933652 16.1713C0.0453597 20.2999 1.65013 24.0465 4.24856 26.8571C8.511 29.0611 12.4684 29.3943 14.4883 27.3305C17.5789 24.1728 14.9646 16.6027 8.6502 10.4217C6.9319 8.73993 5.11684 7.33708 3.32252 6.2452Z" fill="#F9D85E"/>
<path d="M31.9991 15.8288C31.9546 11.6997 30.3499 7.9536 27.7519 5.14295C23.4895 2.93896 19.5321 2.60577 17.5117 4.66958C14.4211 7.82674 17.0349 15.3973 23.3498 21.5784C25.0681 23.2601 26.8832 24.663 28.6775 25.7549C30.7927 23.0094 32.0391 19.563 31.9991 15.8288Z" fill="#F9D85E"/>
<path d="M13.5613 31.812C14.4118 31.9424 15.283 32.0085 16.171 31.9991C21.1759 31.9453 25.6175 29.5987 28.5126 25.9691C21.4207 26.1118 15.4834 28.5478 13.5613 31.812Z" fill="#F9D85E"/>
</g>
</svg>
