<svg preserveAspectRatio="none" width="100%" height="100%" overflow="visible" style="display: block;" viewBox="0 0 32 32" fill="none" xmlns="http://www.w3.org/2000/svg">
<g id="Vector">
<path d="M16.0006 32C24.6417 32 31.6466 24.8366 31.6466 16C31.6466 7.16344 24.6417 0 16.0006 0C7.3596 0 0.354656 7.16344 0.354656 16C0.354656 24.8366 7.3596 32 16.0006 32Z" fill="white"/>
<path d="M16.0006 0.0603289C7.16508 0.0603289 0 7.21508 0 16.0424C0 23.1047 4.58483 29.0952 10.9417 31.208C11.7409 31.3556 12.0352 30.8615 12.0352 30.4391C12.0352 30.0579 12.0198 28.7987 12.0133 27.4638C7.56214 28.4303 6.62282 25.5782 6.62282 25.5782C5.89551 23.7311 4.84568 23.2395 4.84568 23.2395C3.39365 22.2473 4.9549 22.2678 4.9549 22.2678C6.56114 22.3807 7.40794 23.9146 7.40794 23.9146C8.83556 26.3586 11.1511 25.6513 12.0634 25.2432C12.2074 24.2099 12.6211 23.5052 13.0799 23.106C9.5256 22.7016 5.79015 21.3308 5.79015 15.2067C5.79015 13.4623 6.41465 12.0363 7.43878 10.917C7.27302 10.5152 6.72561 8.89017 7.59427 6.68881C7.59427 6.68881 8.93836 6.2588 11.9953 8.32667C13.2713 7.9724 14.6398 7.79527 16.0006 7.78885C17.3602 7.79527 18.73 7.9724 20.0085 8.32667C23.0629 6.2588 24.4044 6.68881 24.4044 6.68881C25.2757 8.89017 24.727 10.5165 24.5612 10.9183C25.5866 12.0375 26.2073 13.4636 26.2073 15.208C26.2073 21.3462 22.4641 22.6991 18.9009 23.0944C19.4752 23.5899 19.9867 24.5629 19.9867 26.0544C19.9867 28.1929 19.9687 29.9142 19.9687 30.4404C19.9687 30.8653 20.2565 31.3646 21.0673 31.2067C27.4216 29.0914 32 23.1021 32 16.0424C32 7.21508 24.8362 0.0603289 16.0006 0.0603289Z" fill="var(--fill-0, #5C6BC0)"/>
</g>
</svg>
