<svg width="1288" height="1208" viewBox="0 0 1288 1208" fill="none" xmlns="http://www.w3.org/2000/svg">
<g opacity="0.05">
<path d="M365.566 1471.78L-84.9197 1144.47L-257 614.887L-84.9197 85.298L365.566 -242H922.41L1372.9 85.298L1544.98 614.887L1372.9 1144.47L922.41 1471.78H365.566Z" stroke="white" stroke-width="2" stroke-miterlimit="10" stroke-linecap="round" stroke-linejoin="round"/>
<path d="M421.802 1298.7L62.302 1037.51L-75.021 614.887L62.302 192.265L421.802 -68.9277H866.175L1225.67 192.265L1363 614.887L1225.67 1037.51L866.175 1298.7H421.802Z" stroke="white" stroke-width="2" stroke-miterlimit="10" stroke-linecap="round" stroke-linejoin="round"/>
<path d="M478.038 1125.63L209.525 930.546L106.958 614.886L209.525 299.229L478.038 104.143H809.94L1078.45 299.229L1181.02 614.886L1078.45 930.546L809.94 1125.63H478.038Z" stroke="white" stroke-width="2" stroke-miterlimit="10" stroke-linecap="round" stroke-linejoin="round"/>
<path d="M534.272 952.56L356.749 823.581L288.937 614.887L356.749 406.196L534.272 277.215H753.704L931.227 406.196L999.039 614.887L931.227 823.581L753.704 952.56H534.272Z" stroke="white" stroke-width="2" stroke-miterlimit="10" stroke-linecap="round" stroke-linejoin="round"/>
<path d="M697.471 450.285H590.505L503.97 513.158L470.916 614.887L503.97 716.617L590.505 779.488H697.471L784.006 716.617L817.06 614.887L784.006 513.158L697.471 450.285Z" stroke="white" stroke-width="2" stroke-miterlimit="10" stroke-linecap="round" stroke-linejoin="round"/>
<path d="M-84.9189 1144.48L1372.9 85.2988" stroke="white" stroke-width="2" stroke-miterlimit="10" stroke-linecap="round" stroke-linejoin="round"/>
<path d="M365.567 -242L922.411 1471.78" stroke="white" stroke-width="2" stroke-miterlimit="10" stroke-linecap="round" stroke-linejoin="round"/>
<path d="M922.411 -242L365.567 1471.78" stroke="white" stroke-width="2" stroke-miterlimit="10" stroke-linecap="round" stroke-linejoin="round"/>
<path d="M-257 614.887H1544.98" stroke="white" stroke-width="2" stroke-miterlimit="10" stroke-linecap="round" stroke-linejoin="round"/>
<path d="M-84.9189 85.2988L1372.9 1144.48" stroke="white" stroke-width="2" stroke-miterlimit="10" stroke-linecap="round" stroke-linejoin="round"/>
</g>
</svg>
