<svg preserveAspectRatio="none" width="100%" height="100%" overflow="visible" style="display: block;" viewBox="0 0 89 31" fill="none" xmlns="http://www.w3.org/2000/svg">
<g id="logos">
<g id="Vector">
<path d="M65.7376 20.5408C65.7376 24.3852 71.1559 27.5916 78.3751 28.3573C82.0935 25.4274 84.4787 20.8918 84.4787 15.7871C84.4787 14.7077 84.3724 13.6549 84.1653 12.6393C83.3631 12.5755 82.5398 12.5436 81.7058 12.5436C72.8823 12.5436 65.7322 16.1221 65.7322 20.5355L65.7376 20.5408Z" fill="#0E3CA5"/>
<path d="M75.9262 11.8576C78.7257 11.8576 81.3552 11.4961 83.6394 10.8633C81.5039 4.54631 75.5384 0 68.5105 0C65.4932 0 62.6725 0.840137 60.2608 2.29708C60.0589 2.80223 59.9527 3.32864 59.9527 3.86569C59.9527 8.27907 67.1028 11.8576 75.9262 11.8576Z" fill="#0E3CA5"/>
<path d="M61.7588 11.7353C61.7588 16.1487 68.9089 19.7273 77.7323 19.7273C80.0324 19.7273 82.2157 19.4827 84.1865 19.0467C84.3777 18.0576 84.484 17.0367 84.484 15.9892C84.484 11.0813 82.2742 6.69451 78.7947 3.75935C78.4441 3.74871 78.0882 3.73808 77.7323 3.73808C68.9089 3.73808 61.7588 7.31664 61.7588 11.73V11.7353Z" fill="#5493F7"/>
<path d="M63.0071 31C64.8398 27.4427 62.2316 20.7163 56.606 15.0852C55.448 13.9261 54.2475 12.8998 53.0363 12.0065C52.7123 13.2774 52.537 14.612 52.537 15.9839C52.537 22.8804 56.8982 28.7508 63.0071 31Z" fill="#5493F7"/>
<path d="M53.8862 9.56055C59.9102 8.41732 64.1917 5.50343 64.1917 2.08439C64.1917 1.60051 64.1014 1.12727 63.9367 0.664666C59.4268 2.01527 55.7561 5.30137 53.8862 9.56055Z" fill="#5493F7"/>
<path d="M73.7535 30.6597C73.7535 30.7395 73.7588 30.8139 73.7642 30.8937C77.4933 29.5909 80.5955 26.9482 82.4813 23.5398C77.302 24.8638 73.7482 27.5544 73.7482 30.665L73.7535 30.6597Z" fill="#5493F7"/>
<path d="M68.5 23.179C79.8218 23.179 89 20.8845 89 18.054C89 15.2235 79.8218 12.9289 68.5 12.9289C57.1782 12.9289 48 15.2235 48 18.054C48 20.8845 57.1782 23.179 68.5 23.179Z" fill="url(#paint0_linear_0_48)"/>
<path d="M68.5 18.0633C79.8218 18.0633 89 15.7729 89 12.9475C89 10.1222 79.8218 7.83176 68.5 7.83176C57.1782 7.83176 48 10.1222 48 12.9475C48 15.7729 57.1782 18.0633 68.5 18.0633Z" fill="url(#paint1_linear_0_48)"/>
</g>
<g id="Vector_2">
<path d="M17.3049 20.5408C17.3049 24.3852 22.5911 27.5916 29.6342 28.3573C33.262 25.4274 35.589 20.8918 35.589 15.7871C35.589 14.7077 35.4853 13.6549 35.2832 12.6393C34.5006 12.5755 33.6973 12.5436 32.8837 12.5436C24.2755 12.5436 17.2997 16.1221 17.2997 20.5355L17.3049 20.5408Z" fill="#0E3CA5"/>
<path d="M27.2451 11.8576C29.9763 11.8576 32.5416 11.4961 34.7701 10.8633C32.6867 4.54631 26.8667 0 20.0102 0C17.0665 0 14.3146 0.840137 11.9617 2.29708C11.7648 2.80223 11.6611 3.32864 11.6611 3.86569C11.6611 8.27907 18.6368 11.8576 27.2451 11.8576Z" fill="#0E3CA5"/>
<path d="M13.4232 11.7353C13.4232 16.1487 20.3989 19.7273 29.0071 19.7273C31.2512 19.7273 33.3812 19.4827 35.3039 19.0467C35.4905 18.0576 35.5941 17.0367 35.5941 15.9892C35.5941 11.0813 33.4382 6.69451 30.0436 3.75935C29.7016 3.74871 29.3544 3.73808 29.0071 3.73808C20.3989 3.73808 13.4232 7.31664 13.4232 11.73V11.7353Z" fill="#5493F7"/>
<path d="M14.6411 31C16.4291 27.4427 13.8845 20.7163 8.39613 15.0852C7.26634 13.9261 6.09508 12.8998 4.91346 12.0065C4.59733 13.2774 4.4263 14.612 4.4263 15.9839C4.4263 22.8804 8.68117 28.7508 14.6411 31Z" fill="#5493F7"/>
<path d="M5.74267 9.56055C11.6197 8.41732 15.7968 5.50343 15.7968 2.08439C15.7968 1.60051 15.7087 1.12727 15.548 0.664666C11.1481 2.01527 7.56693 5.30137 5.74267 9.56055Z" fill="#5493F7"/>
<path d="M25.1254 30.6597C25.1254 30.7395 25.1306 30.8139 25.1358 30.8937C28.7739 29.5909 31.8005 26.9482 33.6403 23.5398C28.5873 24.8638 25.1202 27.5544 25.1202 30.665L25.1254 30.6597Z" fill="#5493F7"/>
<path d="M20 23.179C31.0457 23.179 40 20.8845 40 18.054C40 15.2235 31.0457 12.9289 20 12.9289C8.95431 12.9289 0 15.2235 0 18.054C0 20.8845 8.95431 23.179 20 23.179Z" fill="url(#paint2_linear_0_48)"/>
</g>
</g>
<defs>
<linearGradient id="paint0_linear_0_48" x1="68.5" y1="31" x2="68.5" y2="0" gradientUnits="userSpaceOnUse">
<stop stop-color="#F9D85E"/>
<stop offset="1" stop-color="#5493F7"/>
</linearGradient>
<linearGradient id="paint1_linear_0_48" x1="33.5066" y1="18.0633" x2="33.6716" y2="7.8301" gradientUnits="userSpaceOnUse">
<stop stop-color="#F9D85E"/>
<stop offset="1" stop-color="#5493F7"/>
</linearGradient>
<linearGradient id="paint2_linear_0_48" x1="20" y1="23.179" x2="20" y2="12.9289" gradientUnits="userSpaceOnUse">
<stop stop-color="#F9D85E"/>
<stop offset="1" stop-color="#5493F7"/>
</linearGradient>
</defs>
</svg>
