<svg preserveAspectRatio="none" width="100%" height="100%" overflow="visible" style="display: block;" viewBox="0 0 20 20" fill="none" xmlns="http://www.w3.org/2000/svg">
<path id="Vector" d="M17.3912 11.9508C17.0368 12.1717 16.6198 12.1992 16.3035 12.0233C15.9008 11.7983 15.6792 11.275 15.6792 10.545V8.36333C15.6792 7.31 15.2563 6.56 14.5492 6.3575C13.3515 6.01333 12.4498 7.4575 12.1115 8.00083L9.99861 11.3758V7.25083C9.97493 6.30083 9.66197 5.73333 9.06819 5.56167C8.67403 5.44917 8.08618 5.49417 7.5144 6.35583L2.78026 13.845C2.1473 12.6593 1.81693 11.3397 1.8177 10C1.8177 5.48833 5.48778 1.81833 9.99861 1.81833C14.5086 1.81833 18.1778 5.48833 18.1778 10C18.1812 10.015 18.1795 10.0283 18.1804 10.0442C18.2227 10.9183 17.9351 11.6133 17.3912 11.9525V11.9508ZM19.9964 10.0008L19.9955 9.955C19.9702 4.46083 15.4957 0 9.99777 0C4.48546 0 0 4.48583 0 10C0 15.5133 4.48546 20 9.99777 20C12.5277 20 14.9425 19.0525 16.7957 17.3333C17.1637 16.9917 17.1848 16.4167 16.844 16.0492C16.7635 15.9617 16.6662 15.891 16.5577 15.8411C16.4492 15.7912 16.3317 15.7632 16.212 15.7586C16.0924 15.754 15.973 15.773 15.8609 15.8145C15.7488 15.8559 15.6462 15.919 15.5591 16C14.0571 17.4012 12.0671 18.1819 9.99861 18.1817C7.58291 18.1817 5.40996 17.1292 3.91114 15.4583L8.18091 8.70417V11.8183C8.18091 13.3133 8.76961 13.7967 9.26358 13.9383C9.75755 14.08 10.512 13.9833 11.3046 12.715C12.1487 11.37 13.0174 9.9675 13.8615 8.64833V10.545C13.8615 11.9433 14.4299 13.0617 15.4204 13.6117C16.3136 14.1092 17.4369 14.0642 18.3512 13.495C19.461 12.805 20.0581 11.5333 19.9955 10.0008H19.9964Z" fill="var(--fill-0, #2A6AFF)"/>
</svg>
