<svg preserveAspectRatio="none" width="100%" height="100%" overflow="visible" style="display: block;" viewBox="0 0 32 32" fill="none" xmlns="http://www.w3.org/2000/svg">
<g id="Vector">
<path d="M16.0524 25.2008C23.9014 25.157 30.2582 24.044 30.2508 22.715C30.2434 21.386 23.8745 20.3441 16.0255 20.388C8.17649 20.4318 1.81964 21.5447 1.82707 22.8738C1.83449 24.2028 8.20337 25.2446 16.0524 25.2008Z" fill="#0E3CA5"/>
<path d="M16.0144 18.405C24.8502 18.3557 32.007 17.2383 31.9996 15.9093C31.9922 14.5802 24.8233 13.5428 15.9875 13.5921C7.15172 13.6414 -0.00508653 14.7588 0.00234186 16.0879C0.00977026 17.4169 7.17862 18.4543 16.0144 18.405Z" fill="#0E3CA5"/>
<path d="M15.9766 11.6083C23.9457 11.5638 30.3999 10.4503 30.3924 9.12128C30.385 7.79225 23.9188 6.75093 15.9497 6.79544C7.98066 6.83995 1.52647 7.95342 1.53389 9.28246C1.54131 10.6115 8.00754 11.6528 15.9766 11.6083Z" fill="#0E3CA5"/>
<path d="M7.83728 2.23951C10.7454 3.73977 14.816 4.67393 19.3253 4.67393C21.8669 4.67393 24.2687 4.37652 26.4026 3.84926C23.6047 1.45133 19.9729 0 15.9994 0C13.0167 0 10.2267 0.818462 7.8365 2.23951H7.83728Z" fill="#0E3CA5"/>
<path d="M24.1617 29.7605C21.2536 28.2595 17.183 27.3253 12.6737 27.3253C10.1321 27.3253 7.73031 27.6227 5.5964 28.15C8.39424 30.5471 12.0261 31.9992 15.9996 31.9992C18.9822 31.9992 21.7723 31.1808 24.1617 29.7597V29.7605Z" fill="#0E3CA5"/>
<path d="M31.9658 16.9951C31.986 16.6659 32 16.3343 32 15.9996C31.9992 7.16348 24.8357 0 15.9996 0C15.6649 0 15.3341 0.0139775 15.0041 0.0341673C15.9033 3.28084 18.1925 7.05166 21.5704 10.4288C24.9475 13.8059 28.7192 16.0951 31.9651 16.9943L31.9658 16.9951Z" fill="#5493F7"/>
<path d="M15.9997 31.9992C16.3343 31.9992 16.6651 31.986 16.9952 31.9658C16.0959 28.7192 13.8067 24.9483 10.4288 21.5704C7.0509 18.1925 3.28084 15.9041 0.0341674 15.0049C0.0139776 15.3341 0 15.6657 0 16.0004C0 24.8365 7.1635 32 15.9997 32V31.9992Z" fill="#5493F7"/>
<path d="M22.3144 23.9415C23.2895 22.9509 20.868 18.9861 16.9059 15.0857C12.9437 11.1853 8.94132 8.82641 7.96622 9.81694C6.99113 10.8075 9.41261 14.7723 13.3747 18.6727C17.3369 22.5731 21.3393 24.932 22.3144 23.9415Z" fill="#EE7730"/>
<path d="M24.0558 22.1649C25.0309 21.1744 22.6094 17.2095 18.6473 13.3091C14.6851 9.40875 10.6827 7.04985 9.70763 8.04038C8.73253 9.03092 11.154 12.9958 15.1162 16.8962C19.0783 20.7966 23.0807 23.1555 24.0558 22.1649Z" fill="var(--fill-0, #F9D85E)"/>
</g>
</svg>
