<svg preserveAspectRatio="none" width="100%" height="100%" overflow="visible" style="display: block;" viewBox="0 0 40 40" fill="none" xmlns="http://www.w3.org/2000/svg">
<g id="Vector">
<path d="M15.9337 29.16C16.9488 33.0278 20.591 35.9783 22.4303 35.856C22.4948 35.8518 29.4065 34.5248 33.1903 28.0159C36.134 22.9496 35.1327 18.0584 31.1276 17.9518C29.6872 18.06 14.0005 21.7929 15.9347 29.1611M30.7541 4.31987L30.75 4.31621L30.7556 4.31256C28.2331 2.10308 25.1558 0.67245 21.8783 0.185486C18.6007 -0.301477 15.2562 0.175044 12.2302 1.56015C11.8474 1.7241 11.4745 1.91155 11.1136 2.1215C10.8669 2.25687 10.6202 2.3912 10.3807 2.53964L10.439 2.55846C9.73073 3.055 9.1044 3.66541 8.58396 4.36639C3.54302 11.2286 20.4514 16.2186 29.4928 16.2332C33.6501 19.3076 34.8175 7.57719 30.7541 4.31987Z" fill="#0E3CA5"/>
<path d="M13.2514 4.45841C10.9283 8.05442 3.19082 10.5878 1.9184 10.1932L1.90977 10.1765C1.96053 10.0683 2.01484 9.96009 2.06864 9.85294C3.38812 7.23572 5.27607 4.96721 7.58565 3.22385C8.06173 2.86425 8.55473 2.52817 9.06464 2.21561C9.84859 1.76986 10.7268 1.52901 11.6222 1.51418C15.0679 1.58212 13.2686 4.43071 13.2504 4.45945M11.345 29.8672C11.512 30.9967 11.341 35.4599 11.1166 35.8351C10.9233 35.8472 10.5208 35.8728 9.35496 35.1991C5.63228 33.0116 2.76021 29.5639 1.22709 25.4421C-0.306029 21.3204 -0.405555 16.779 0.945437 12.5902C1.00736 12.3985 1.07215 12.2081 1.13983 12.0189C2.47518 13.8483 4.02066 15.5031 5.33418 17.3502C6.58528 19.109 8.30637 21.9764 8.65658 22.5895C10.8309 26.393 11.1776 28.7398 11.3435 29.8678M37.0497 18.6198C37.0525 21.0182 36.6151 23.3956 35.7605 25.6268C33.5781 28.0415 18.8674 22.0971 18.7232 22.0318C16.7108 21.1239 10.5868 18.3616 10.0341 14.0234C9.24178 7.7774 21.5396 3.42665 26.945 3.262C27.5931 3.26984 29.5654 3.29336 30.7155 4.25509C32.7073 6.04385 34.3033 8.25171 35.396 10.7297C36.4887 13.2077 37.0526 15.8983 37.0497 18.6198ZM27.0911 35.5398C25.4878 36.3108 23.722 35.7489 24.1809 34.1412C25.0615 31.0527 32.7513 27.8863 34.4495 27.7122C34.6591 27.6908 34.748 27.8377 34.6551 28.0055C32.8858 31.2094 30.2612 33.8233 27.0927 35.5372" fill="#5493F7"/>
<path d="M8.19418 38.5654C8.17154 38.9141 8.2827 39.258 8.50376 39.5232C8.72482 39.7884 9.03811 39.9537 9.37626 39.9834C24.9579 40.0932 39.999 39.3562 39.999 36.9519C39.999 29.6742 8.19418 38.5654 8.19418 38.5654Z" fill="url(#paint0_linear_0_27)"/>
<path d="M8.19418 38.5654C8.1712 38.9151 8.28298 39.2601 8.5053 39.5255C8.72761 39.791 9.04255 39.9555 9.38184 39.9834C24.9594 40.1052 39.9802 39.6013 39.999 36.9519C39.999 29.6742 8.19418 38.5654 8.19418 38.5654ZM9.38235 39.8909C9.3408 39.8908 9.29929 39.8884 9.258 39.8836C9.02055 39.8493 8.79819 39.7437 8.61879 39.5798C8.43939 39.416 8.31093 39.2013 8.24951 38.9626C8.31614 39.2214 8.46238 39.4509 8.66634 39.6168C8.8703 39.7828 9.12098 39.8762 9.38083 39.8831C24.9478 39.7827 39.7549 34.8466 39.7549 37.0198C39.7549 39.2381 24.9488 40.0001 9.38235 39.8909Z" fill="url(#paint1_linear_0_27)"/>
<path d="M9.38333 17.9547C9.22712 17.9547 9.07244 17.9864 8.92813 18.048C8.78382 18.1096 8.6527 18.1998 8.54227 18.3136C8.43184 18.4274 8.34425 18.5625 8.28452 18.7111C8.22479 18.8597 8.19408 19.019 8.19415 19.1799L8.19418 38.5654C8.19378 38.8891 8.31789 39.1999 8.53943 39.4296C8.76096 39.6593 9.06185 39.7893 9.37622 39.7911C24.9569 39.6709 40.0178 34.36 39.999 36.953V15.1171C40.0178 12.5247 24.9619 17.8351 9.38333 17.9547Z" fill="url(#paint2_linear_0_27)"/>
<path d="M11.6805 31.3347C12.2352 31.3122 12.7788 31.2882 13.3128 31.2574C13.8467 31.2265 14.3695 31.1915 14.8836 31.1528C15.3978 31.1142 15.9017 31.0692 16.3991 31.0227C16.8965 30.9762 17.3868 30.9286 17.871 30.879C18.3552 30.8293 18.8328 30.7776 19.3048 30.7221C20.235 30.6133 21.1642 30.4953 22.0923 30.3683C22.5516 30.3051 23.0059 30.2408 23.4626 30.1723C23.9194 30.1038 24.3686 30.0306 24.8239 29.9585C25.2792 29.8864 25.7375 29.8137 26.1943 29.739C26.651 29.6643 27.1124 29.5885 27.5738 29.509C28.0351 29.4296 28.4995 29.3454 28.97 29.2623C29.4405 29.1792 29.9171 29.0956 30.3988 29.0093C30.8804 28.9231 31.3682 28.8369 31.8625 28.748C32.3569 28.6591 32.8578 28.5666 33.3684 28.4783C33.879 28.39 34.3987 28.3032 34.9281 28.2201C35.4575 28.137 35.9432 28.0633 36.603 27.9776C37.3223 27.8723 38.0492 27.8324 38.7753 27.8584C39.4579 27.906 39.9985 28.0847 39.9985 28.575V26.8941C39.9985 26.4101 39.4803 26.2365 38.8443 26.1827C38.1664 26.1472 37.4868 26.1766 36.8141 26.2705C36.1802 26.3453 35.7234 26.4169 35.2463 26.4895C34.7692 26.5622 34.3038 26.638 33.846 26.7153C33.3882 26.7927 32.9375 26.8721 32.4899 26.9521C32.0422 27.0321 31.5966 27.1141 31.1479 27.1951C30.6992 27.2761 30.247 27.3566 29.7877 27.4377L28.3833 27.6864C27.9052 27.7711 27.419 27.8563 26.9114 27.9415C26.4039 28.0267 25.874 28.1114 25.3243 28.1987C24.7747 28.286 24.2042 28.379 23.6083 28.4699V26.7901C24.2042 26.6996 24.7757 26.6061 25.3243 26.5188C25.873 26.4315 26.4029 26.3458 26.9114 26.2616C27.42 26.1775 27.9072 26.0912 28.3833 26.006C28.8594 25.9209 29.3289 25.8388 29.7882 25.7578L31.1479 25.5153L32.4899 25.2722C32.9375 25.1912 33.3877 25.1154 33.846 25.0354C34.3043 24.9555 34.7687 24.8828 35.2463 24.8096C35.7239 24.7365 36.1802 24.6649 36.8141 24.5906C37.4868 24.4973 38.1664 24.4677 38.8443 24.5023C39.4808 24.5546 39.999 24.7302 39.999 25.2137V23.5359C39.999 23.0529 39.4808 22.8784 38.8448 22.824C38.1669 22.7894 37.4873 22.819 36.8146 22.9123C36.1807 22.9876 35.7244 23.0582 35.2468 23.1313C34.7692 23.2045 34.3043 23.2798 33.8465 23.3571C33.3887 23.4345 32.938 23.5139 32.4904 23.5939C32.0427 23.6739 31.5971 23.757 31.1484 23.8375L29.7882 24.08C29.3289 24.1615 28.8624 24.2431 28.3838 24.3283C27.9052 24.4135 27.4195 24.4986 26.9119 24.5828C26.4044 24.667 25.8745 24.7532 25.3248 24.8405C24.7752 24.9278 24.2047 25.0208 23.6093 25.1112V23.4319C24.2042 23.3409 24.7767 23.2489 25.3253 23.1606C25.874 23.0723 26.4039 22.9876 26.9124 22.9034C27.421 22.8193 27.9072 22.7336 28.3843 22.6484L29.7892 22.4001C30.246 22.3186 30.7002 22.2386 31.1489 22.1576L32.4909 21.9145C33.4078 21.7484 34.3267 21.5942 35.2473 21.452C35.7249 21.3798 36.1812 21.3072 36.8152 21.2324C37.4879 21.1396 38.1674 21.1102 38.8453 21.1446C39.4813 21.1969 39.9995 21.373 39.9995 21.8565V20.1751C39.9995 19.6916 39.4813 19.5186 38.8453 19.4642C38.1674 19.4292 37.4878 19.4586 36.8152 19.552C36.1812 19.6268 35.7249 19.6984 35.2473 19.771C34.7697 19.8437 34.3048 19.92 33.847 19.9968C33.3892 20.0737 32.9385 20.1536 32.4909 20.2331L31.1489 20.4772L29.7887 20.7192C29.3294 20.8007 28.8629 20.8817 28.3843 20.9675C27.9057 21.0532 27.42 21.1378 26.9124 21.222C26.4049 21.3061 25.8745 21.3924 25.3243 21.4802C24.7741 21.568 24.2037 21.6605 23.6088 21.7515V20.0716C24.2037 19.9806 24.7731 19.8876 25.3238 19.7998C25.8745 19.712 26.4039 19.6273 26.9124 19.5421C27.421 19.4569 27.9057 19.3722 28.3843 19.2876L29.7892 19.0393C30.246 18.9578 30.7002 18.8783 31.1489 18.7968C31.5976 18.7152 32.0427 18.6342 32.4909 18.5537C32.939 18.4732 33.3887 18.3933 33.847 18.3164C34.3053 18.2396 34.7697 18.1638 35.2468 18.0912C35.7239 18.0185 36.1812 17.9469 36.8152 17.8722C37.4878 17.7788 38.1674 17.7492 38.8453 17.7838C39.4818 17.8361 40 18.0122 40 18.4952V16.8158C40 16.3324 39.4818 16.1583 38.8458 16.104C38.1679 16.0697 37.4884 16.0992 36.8157 16.1923C36.1817 16.267 35.7255 16.3381 35.2479 16.4113C34.7703 16.4845 34.3053 16.5597 33.8475 16.6371C33.3897 16.7144 32.939 16.7939 32.4914 16.8739C32.0437 16.9538 31.5981 17.0369 31.1494 17.1174C30.7008 17.1979 30.2485 17.2784 29.7897 17.3589L28.3848 17.6082C27.3664 17.7895 26.3462 17.9601 25.3243 18.1199C24.7736 18.2077 24.2037 18.3002 23.6088 18.3917V16.6883C18.9008 17.4473 14.148 17.8704 9.38333 17.9547C9.22712 17.9547 9.07244 17.9864 8.92813 18.048C8.78382 18.1096 8.6527 18.1998 8.54227 18.3136C8.43184 18.4274 8.34425 18.5625 8.28452 18.7111C8.22479 18.8597 8.19408 19.019 8.19415 19.1799L8.19365 31.4105C8.8027 31.4105 9.39552 31.4027 9.97615 31.3896C10.5568 31.3765 11.1252 31.3567 11.6805 31.3347Z" fill="url(#paint3_linear_0_27)"/>
<path d="M11.678 34.6945C12.2337 34.6725 12.7768 34.6474 13.3107 34.6171C13.8447 34.5868 14.368 34.5507 14.8841 34.5126C15.4003 34.4744 15.9018 34.43 16.3992 34.383C16.8966 34.3359 17.3868 34.2894 17.871 34.2387C18.3552 34.188 18.8354 34.1373 19.3049 34.0819C20.2346 33.9725 21.1635 33.8547 22.0913 33.7286C22.5501 33.6653 23.0049 33.6 23.4617 33.5321C23.9184 33.4641 24.3686 33.3904 24.8234 33.3178C25.2782 33.2451 25.737 33.1735 26.1938 33.0993C26.6506 33.0251 27.1124 32.9477 27.5743 32.8688C28.0362 32.7899 28.5006 32.7057 28.9711 32.6221L30.3993 32.3691C30.881 32.2834 31.3692 32.1971 31.8631 32.1078C32.3569 32.0184 32.8589 31.9269 33.3695 31.8381C33.88 31.7492 34.3998 31.663 34.9291 31.5799C35.4585 31.4968 35.9412 31.4231 36.604 31.3373C37.3233 31.2313 38.0502 31.1913 38.7763 31.2176C39.459 31.2657 39.9995 31.445 39.9995 31.9348V30.2533C39.9995 29.7636 39.459 29.5838 38.7768 29.5362C38.0506 29.5099 37.3235 29.5498 36.604 29.6554C35.9407 29.739 35.458 29.8158 34.9291 29.8984C34.4003 29.981 33.88 30.0672 33.3695 30.1561C32.8589 30.245 32.3579 30.3354 31.8636 30.4258C31.3692 30.5162 30.8815 30.6025 30.3993 30.6871C29.9171 30.7718 29.4416 30.856 28.9711 30.9401C28.5006 31.0243 28.0362 31.1074 27.5748 31.1868C27.1134 31.2663 26.6526 31.3436 26.1943 31.4168L24.8239 31.6368C24.3671 31.71 23.9164 31.7821 23.4622 31.8501C23.0079 31.918 22.5516 31.9844 22.0918 32.0466C21.632 32.1088 21.1711 32.17 20.7072 32.229C20.2433 32.2881 19.7774 32.3461 19.3054 32.3999C18.8333 32.4538 18.3557 32.5045 17.8716 32.5567C17.3874 32.609 16.8971 32.654 16.3997 32.7005C15.9023 32.747 15.3978 32.7914 14.8841 32.8306C14.3705 32.8698 13.8462 32.9054 13.3107 32.9352C12.7753 32.965 12.2332 32.9906 11.678 33.0125C11.1227 33.0345 10.5553 33.0528 9.97414 33.0648C9.393 33.0768 8.8007 33.0867 8.19266 33.0867V34.7661C9.35474 34.7625 10.5167 34.7386 11.678 34.6945Z" fill="url(#paint4_linear_0_27)"/>
<path d="M38.7758 32.8954C38.0497 32.8694 37.3228 32.9093 36.6035 33.0146C35.9402 33.0988 35.4575 33.1746 34.9286 33.2577C34.3998 33.3408 33.88 33.427 33.3694 33.5153C32.8588 33.6037 32.3543 33.6951 31.8625 33.785C31.3707 33.8749 30.8804 33.9622 30.3988 34.0464L28.97 34.2994C28.4995 34.3825 28.0351 34.4671 27.5733 34.5461C27.1114 34.625 26.6511 34.7029 26.1927 34.776C25.7344 34.8492 25.2792 34.9234 24.8224 34.995C24.3656 35.0666 23.9149 35.1398 23.4601 35.2088C23.0054 35.2778 22.5465 35.3437 22.0897 35.4059C21.1619 35.5317 20.2331 35.6495 19.3033 35.7592C18.8313 35.8135 18.3537 35.8637 17.8695 35.916C17.3853 35.9683 16.8955 36.0137 16.3976 36.0602C15.8997 36.1068 15.3957 36.1507 14.8821 36.1899C14.3685 36.2291 13.8442 36.2641 13.3087 36.2944C11.6042 36.3906 9.89763 36.4411 8.19061 36.446V38.129C8.79967 38.129 9.3935 38.122 9.9721 38.1081C10.5507 38.0941 11.1186 38.0767 11.6759 38.0558C12.2317 38.0339 12.7748 38.0088 13.3087 37.9785C13.8426 37.9482 14.3659 37.9121 14.8821 37.8739C15.3983 37.8358 15.9002 37.7903 16.3976 37.7443C16.895 37.6983 17.3848 37.6507 17.8695 37.6006C18.3542 37.5504 18.8338 37.4992 19.3033 37.4438C19.7728 37.3884 20.2418 37.3319 20.7057 37.2723C21.1696 37.2127 21.6304 37.1537 22.0892 37.0904C22.5481 37.0272 23.0028 36.9624 23.4596 36.8939C23.9164 36.8254 24.3666 36.7517 24.8219 36.6801C25.2771 36.6085 25.7354 36.5348 26.1922 36.4606C26.649 36.3864 27.1104 36.3101 27.5728 36.2301C28.0351 36.1501 28.5 36.067 28.9705 35.9834L30.3988 35.731L31.862 35.4696C32.3564 35.3802 32.8583 35.2883 33.3694 35.1999C33.8805 35.1116 34.3992 35.0248 34.9286 34.9417C35.458 34.8586 35.9437 34.7849 36.6035 34.6997C37.3228 34.5947 38.0497 34.5548 38.7758 34.5805C39.4585 34.6271 39.999 34.8063 39.999 35.2966V33.612C39.999 33.1218 39.4585 32.9441 38.7758 32.8954Z" fill="url(#paint5_linear_0_27)"/>
<path d="M11.5765 29.6596C12.0942 29.6397 12.5916 29.6172 13.0803 29.5906C13.5691 29.5639 14.0447 29.5341 14.5116 29.5002C14.9785 29.4662 15.4435 29.4286 15.9053 29.3878C16.8475 29.3034 17.7889 29.2099 18.7293 29.1071C19.2165 29.0538 19.7139 28.9958 20.2306 28.931C20.7473 28.8662 21.2853 28.7977 21.8467 28.7219C22.408 28.6461 22.9952 28.5651 23.6083 28.4699L23.6078 16.6889C18.9007 17.4477 14.1482 17.8707 9.38438 17.9548C9.22817 17.9548 9.07349 17.9865 8.92918 18.0481C8.78487 18.1096 8.65375 18.1999 8.54332 18.3137C8.43289 18.4274 8.34531 18.5625 8.28557 18.7111C8.22584 18.8598 8.19513 19.0191 8.1952 19.1799V29.7301C8.81187 29.7301 9.39808 29.7228 9.95994 29.7098C10.5218 29.6967 11.0583 29.6789 11.5765 29.6596Z" fill="url(#paint6_linear_0_27)"/>
<path d="M11.8638 18.4503C11.8054 18.638 11.777 18.7321 11.7191 18.9208L11.2501 18.9385L11.6293 19.2124L11.4841 19.6828C11.6364 19.5621 11.712 19.503 11.8638 19.3818C12.016 19.491 12.0901 19.5443 12.2429 19.6525C12.184 19.4696 12.1556 19.3781 12.0977 19.1946L12.4774 18.8899C12.2896 18.8993 12.1952 18.9019 12.0079 18.9108L11.8638 18.4503Z" fill="url(#paint7_linear_0_27)"/>
<path d="M13.2189 24.2457L13.0742 24.7187L12.6043 24.7428L12.9839 25.0109C12.926 25.1996 12.8971 25.2942 12.8387 25.4813C12.991 25.3595 13.0671 25.2979 13.2189 25.174C13.3712 25.2785 13.4473 25.3308 13.5995 25.4385L13.4539 24.9827L13.8345 24.6717C13.6462 24.6842 13.5523 24.69 13.3646 24.7004L13.2189 24.2457Z" fill="url(#paint8_linear_0_27)"/>
<path d="M13.3646 27.0461L13.2189 26.5898L13.0742 27.0634L12.6043 27.0869C12.7565 27.1946 12.8321 27.2489 12.9839 27.355C12.926 27.5442 12.8971 27.6383 12.8387 27.8254C12.991 27.7026 13.0671 27.6409 13.2189 27.5171C13.3712 27.6216 13.4473 27.677 13.5995 27.7826L13.4539 27.3268L13.8345 27.0158C13.6462 27.0299 13.5523 27.0378 13.3646 27.0461Z" fill="url(#paint9_linear_0_27)"/>
<path d="M11.8632 23.1389C11.8048 23.3275 11.7759 23.4206 11.7186 23.6093C11.5308 23.6171 11.4369 23.6213 11.2496 23.627C11.4018 23.7363 11.4765 23.7917 11.6282 23.8999L11.4841 24.3703C11.6363 24.2501 11.7114 24.1889 11.8632 24.0677C12.0155 24.1764 12.0901 24.2307 12.2428 24.3394C12.184 24.156 12.155 24.0645 12.0972 23.8805L12.4773 23.5763C12.2895 23.5852 12.1951 23.5899 12.0079 23.5972L11.8632 23.1389Z" fill="url(#paint10_linear_0_27)"/>
<path d="M11.8627 25.483L11.7186 25.9534C11.5308 25.9597 11.4364 25.9644 11.2491 25.9712L11.6282 26.244L11.4836 26.7144L11.8627 26.4107L12.2429 26.682C12.184 26.4985 12.1551 26.4076 12.0972 26.2236C12.2495 26.1029 12.3251 26.0407 12.4773 25.9189L12.0079 25.9398L11.8627 25.483Z" fill="url(#paint11_linear_0_27)"/>
<path d="M11.8637 20.7945L11.7186 21.2649L11.2496 21.2827L11.6287 21.556L11.4841 22.0264C11.6363 21.9062 11.712 21.8456 11.8637 21.7243C12.016 21.833 12.0901 21.8874 12.2428 21.9956C12.184 21.8126 12.155 21.7207 12.0972 21.5372L12.4773 21.2325C12.2895 21.2414 12.1956 21.2461 12.0079 21.2539C11.9505 21.0694 11.9211 20.9785 11.8637 20.7945Z" fill="url(#paint12_linear_0_27)"/>
<path d="M15.9322 26.3923L15.7876 26.869C15.5993 26.8857 15.5049 26.893 15.3171 26.9092C15.4693 27.0138 15.5455 27.066 15.6972 27.1648L15.5526 27.642L15.9322 27.3221L16.3119 27.5746C16.2632 27.4241 16.2149 27.2736 16.1667 27.123L16.5463 26.8C16.358 26.8183 16.2641 26.8261 16.0769 26.8434C16.019 26.6625 15.9921 26.5732 15.9322 26.3923Z" fill="url(#paint13_linear_0_27)"/>
<path d="M13.2189 21.9016L13.0742 22.3746C12.8859 22.3851 12.792 22.3892 12.6043 22.3987L12.9839 22.6663L12.8387 23.1393L13.2189 22.8314C13.3712 22.936 13.4473 22.9882 13.5995 23.0959C13.5417 22.914 13.5117 22.8225 13.4539 22.6396L13.8345 22.3297C13.6462 22.3412 13.5523 22.348 13.3646 22.3579L13.2189 21.9016Z" fill="url(#paint14_linear_0_27)"/>
<path d="M14.5765 25.3304L14.4309 25.806L13.9619 25.8358L14.3426 26.0971L14.1974 26.5712L14.5776 26.2576L14.9577 26.5158L14.8125 26.0621C14.9648 25.9362 15.0404 25.8724 15.1922 25.7454L14.7227 25.782C14.6729 25.6318 14.6242 25.4813 14.5765 25.3304Z" fill="url(#paint15_linear_0_27)"/>
<path d="M14.7233 28.1287L14.5781 27.675L14.4324 28.1501C14.2452 28.1637 14.1508 28.1695 13.9625 28.182L14.3431 28.4433L14.198 28.919C14.3502 28.7941 14.4258 28.7298 14.5781 28.6054C14.7304 28.7099 14.806 28.7622 14.9583 28.8641L14.8131 28.4104C14.9654 28.2839 15.041 28.2212 15.1927 28.0937L14.7233 28.1287Z" fill="url(#paint16_linear_0_27)"/>
<path d="M13.2189 19.5575L13.0742 20.0279C12.8859 20.0383 12.792 20.0425 12.6043 20.0524L12.9839 20.3206C12.926 20.5098 12.8971 20.6044 12.8387 20.791C12.991 20.6681 13.0671 20.607 13.2189 20.4831C13.3712 20.5877 13.4473 20.6399 13.5995 20.7481L13.4539 20.2918C13.6061 20.1685 13.6818 20.1052 13.8345 19.9808C13.6462 19.9928 13.5523 19.9991 13.3646 20.0096L13.2189 19.5575Z" fill="url(#paint17_linear_0_27)"/>
<path d="M14.5755 22.9868L14.4309 23.4619C14.2426 23.4744 14.1497 23.4817 13.9614 23.4932L14.3416 23.7546L14.1959 24.2297L14.5765 23.9161L14.9567 24.1743L14.8115 23.7201L15.1912 23.4065L14.7217 23.443L14.5755 22.9868Z" fill="url(#paint18_linear_0_27)"/>
<path d="M12.0079 28.2865L11.8627 27.8276L11.7181 28.298L11.2491 28.3163C11.4013 28.4245 11.4765 28.4804 11.6282 28.5892L11.4836 29.0596L11.8627 28.7569L12.2429 29.0287L12.0972 28.5703L12.4773 28.2656L12.0079 28.2865Z" fill="url(#paint19_linear_0_27)"/>
<path d="M9.14939 23.2152L9.00373 23.6819C8.81543 23.6819 8.72102 23.6819 8.53323 23.6851C8.6855 23.799 8.76163 23.8565 8.91389 23.9694L8.76823 24.4361L9.14888 24.144C9.30115 24.2574 9.37728 24.3128 9.52954 24.4257L9.38489 23.9636L9.76505 23.6694C9.57675 23.6725 9.48285 23.6756 9.29455 23.6777L9.14939 23.2152Z" fill="url(#paint20_linear_0_27)"/>
<path d="M9.14939 20.8703L9.00373 21.3365C8.81543 21.3365 8.72102 21.3391 8.53323 21.3396L8.91389 21.624L8.76873 22.0907L9.14939 21.7996L9.52954 22.0803L9.38489 21.6177C9.53716 21.5006 9.61278 21.4426 9.76505 21.324C9.57725 21.3276 9.48285 21.3292 9.29455 21.3318L9.14939 20.8703Z" fill="url(#paint21_linear_0_27)"/>
<path d="M9.29251 28.3665L9.14684 27.9039L9.00118 28.3696C8.81288 28.3723 8.71898 28.3728 8.53119 28.3738L8.91185 28.6576L8.76669 29.1249L9.14684 28.8333L9.5275 29.115C9.47888 28.9605 9.4305 28.806 9.38234 28.6514L9.76249 28.3576C9.57622 28.3623 9.48284 28.3628 9.29251 28.3665Z" fill="url(#paint22_linear_0_27)"/>
<path d="M14.1959 21.8853L14.5755 21.5717C14.7278 21.6762 14.8044 21.7285 14.9562 21.8304L14.8116 21.3762L15.1912 21.0589C15.0029 21.0746 14.9095 21.0819 14.7217 21.096L14.5761 20.6429L14.4309 21.1169C14.2436 21.1305 14.1492 21.1363 13.9609 21.1493L14.3416 21.4107L14.1959 21.8853Z" fill="url(#paint23_linear_0_27)"/>
<path d="M14.1959 19.5407C14.3482 19.4157 14.4243 19.353 14.5761 19.2271C14.7283 19.3316 14.8044 19.3839 14.9562 19.4853L14.8116 19.0316C14.9638 18.9056 15.0394 18.8418 15.1912 18.7148C15.0029 18.7305 14.9095 18.7373 14.7217 18.7514L14.5761 18.2972L14.4309 18.7723C14.2436 18.7864 14.1492 18.7927 13.9609 18.8047L14.3416 19.0661L14.1959 19.5407Z" fill="url(#paint24_linear_0_27)"/>
<path d="M9.14939 25.5593L9.00322 26.026H8.53323L8.91389 26.3119L8.76823 26.7777L9.14888 26.486L9.52954 26.7672L9.38489 26.3046L9.76454 26.0109C9.57675 26.0145 9.48285 26.0161 9.29455 26.0187L9.14939 25.5593Z" fill="url(#paint25_linear_0_27)"/>
<path d="M10.5076 19.6682L10.3624 20.136C10.1746 20.1407 10.0807 20.1439 9.89193 20.148L10.2726 20.4266L10.1274 20.897L10.5076 20.5991L10.8882 20.8751L10.7426 20.4146L11.1227 20.1146L10.6538 20.1297C10.5949 19.9458 10.566 19.8538 10.5076 19.6682Z" fill="url(#paint26_linear_0_27)"/>
<path d="M10.5076 22.0139L10.3624 22.4843L9.89193 22.4958C10.0442 22.6076 10.1203 22.6625 10.2726 22.7733C10.2142 22.9604 10.1853 23.0551 10.1274 23.2437C10.2797 23.1246 10.3553 23.066 10.5071 22.9463C10.6593 23.0571 10.736 23.1115 10.8882 23.2213L10.7426 22.7613L11.1227 22.4618L10.6527 22.477C10.5944 22.2899 10.566 22.1984 10.5076 22.0139Z" fill="url(#paint27_linear_0_27)"/>
<path d="M10.6522 27.1629L10.507 26.7024L10.3619 27.1728C10.1736 27.178 10.0792 27.1801 9.89088 27.1843L10.272 27.4624L10.1264 27.9328L10.5065 27.6354L10.8877 27.9113L10.742 27.4509L11.1222 27.1508L10.6522 27.1629Z" fill="url(#paint28_linear_0_27)"/>
<path d="M10.5071 24.3583L10.3619 24.8287C10.1741 24.8334 10.0797 24.8365 9.89193 24.8396L10.2721 25.1182C10.2137 25.3054 10.1848 25.4 10.1269 25.5886L10.5071 25.2907L10.8877 25.5667C10.8299 25.3827 10.8009 25.2907 10.7421 25.1067C10.8943 24.9876 10.971 24.9264 11.1227 24.8062C10.9344 24.8125 10.8405 24.8166 10.6527 24.8224L10.5071 24.3583Z" fill="url(#paint29_linear_0_27)"/>
<path d="M9.14939 18.5256L9.00423 18.9924C8.81593 18.9924 8.72102 18.9955 8.53323 18.9966C8.6855 19.1105 8.76214 19.168 8.91389 19.2804L8.76873 19.7461L9.14939 19.456C9.30166 19.5689 9.37779 19.6243 9.53005 19.7361L9.3854 19.2741L9.76606 18.9798C9.57776 18.984 9.48285 18.9861 9.29455 18.9887L9.14939 18.5256Z" fill="url(#paint30_linear_0_27)"/>
<path d="M15.9322 24.0487L15.7876 24.5254C15.5993 24.5421 15.5059 24.5494 15.3176 24.5651C15.4698 24.6696 15.5455 24.7188 15.6972 24.8202L15.5526 25.2979C15.7048 25.1704 15.7804 25.1055 15.9322 24.9775L16.3118 25.2299L16.1667 24.7789L16.5463 24.4559C16.358 24.4741 16.2641 24.482 16.0769 24.4992C16.019 24.32 15.9921 24.2295 15.9322 24.0487Z" fill="url(#paint31_linear_0_27)"/>
<path d="M21.3558 23.4497L21.2102 23.9332L20.7397 23.9943L21.1198 24.2327L20.9741 24.7162L21.3553 24.3795C21.5076 24.4736 21.5837 24.5217 21.736 24.6163L21.5903 24.171L21.9715 23.8323L21.501 23.8955L21.3558 23.4497Z" fill="url(#paint32_linear_0_27)"/>
<path d="M21.3558 21.1056C21.2975 21.2995 21.268 21.3951 21.2102 21.5891C21.0219 21.6136 20.9275 21.6262 20.7397 21.6492C20.8919 21.7459 20.9681 21.7929 21.1203 21.8885L20.9752 22.3715C21.1274 22.2366 21.2036 22.1703 21.3558 22.0349L21.7365 22.2717L21.5908 21.8269L21.972 21.4877C21.7842 21.5127 21.6893 21.5263 21.5015 21.5509L21.3558 21.1056Z" fill="url(#paint33_linear_0_27)"/>
<path d="M21.5005 26.2392L21.3553 25.7938L21.2097 26.2778C21.0219 26.3014 20.9275 26.3149 20.7397 26.3379L21.1198 26.5768L20.9741 27.0603L21.3548 26.7237C21.5071 26.8183 21.5837 26.8653 21.7355 26.9604L21.5903 26.5157L21.971 26.1764L21.5005 26.2392Z" fill="url(#paint34_linear_0_27)"/>
<path d="M20.0017 20.1051C19.9444 20.298 19.916 20.3947 19.8576 20.5881L19.3896 20.6435L19.7683 20.8855L19.6241 21.3679C19.7764 21.2352 19.8505 21.1683 20.0017 21.035L20.3809 21.2749L20.2357 20.8285L20.6164 20.4935L20.1464 20.5526C20.0961 20.4041 20.0479 20.255 20.0017 20.1051Z" fill="url(#paint35_linear_0_27)"/>
<path d="M21.3563 18.7607L21.2102 19.2442C21.0219 19.2687 20.928 19.2807 20.7397 19.3043L21.1208 19.5437L20.9752 20.0276C21.1274 19.8933 21.2036 19.8243 21.3558 19.69L21.737 19.9278C21.6887 19.7791 21.6402 19.6305 21.5913 19.482C21.7436 19.3476 21.8202 19.2781 21.9725 19.1428L21.5015 19.206L21.3563 18.7607Z" fill="url(#paint36_linear_0_27)"/>
<path d="M20.0017 17.7615C19.9444 17.9539 19.916 18.0511 19.8576 18.244L19.3896 18.2994C19.5419 18.3955 19.6175 18.4447 19.7683 18.5414L19.6241 19.0233C19.7764 18.8905 19.8505 18.8236 20.0017 18.6903L20.3814 18.9302L20.2362 18.4844C20.3885 18.3501 20.4636 18.2832 20.6164 18.1494L20.1464 18.2084C20.0963 18.0601 20.0481 17.9111 20.0017 17.7615Z" fill="url(#paint37_linear_0_27)"/>
<path d="M22.7141 22.0922L22.5684 22.5778C22.3806 22.6039 22.2867 22.6175 22.0989 22.6426L22.4791 22.8773L22.3334 23.3623L22.7136 23.0215L23.0932 23.2541C23.0348 23.077 23.0064 22.9881 22.9486 22.8104C23.1008 22.6734 23.1759 22.6055 23.3272 22.4675C23.1399 22.4957 23.0465 22.5083 22.8592 22.536L22.7141 22.0922Z" fill="url(#paint38_linear_0_27)"/>
<path d="M22.7151 19.7481L22.5694 20.2326C22.3816 20.2598 22.2877 20.2723 22.0994 20.2985C22.2517 20.3931 22.3273 20.4386 22.4791 20.5321L22.3339 21.0182L22.7146 20.6764L23.0937 20.91C23.0353 20.7323 23.0069 20.6434 22.949 20.4652C23.1013 20.3283 23.1764 20.2603 23.3277 20.1229L22.8597 20.1913L22.7151 19.7481Z" fill="url(#paint39_linear_0_27)"/>
<path d="M22.8572 27.225L22.7125 26.7813L22.5668 27.2663C22.3796 27.293 22.2852 27.306 22.0979 27.3316L22.4775 27.5663L22.3318 28.0524C22.4841 27.9165 22.5608 27.847 22.7125 27.71L23.0916 27.9437L22.9465 27.4994L23.3256 27.1565C23.1383 27.1848 23.047 27.1983 22.8572 27.225Z" fill="url(#paint40_linear_0_27)"/>
<path d="M22.7156 17.403L22.5699 17.8885C22.3821 17.9152 22.2877 17.9288 22.0994 17.9544L22.4806 18.1885L22.3344 18.6731L22.7156 18.3328C22.8678 18.4258 22.943 18.4729 23.0947 18.5649C23.0369 18.3877 23.0074 18.2988 22.9501 18.1211C23.1023 17.9842 23.1769 17.9162 23.3282 17.7782C23.1414 17.8065 23.048 17.8206 22.8607 17.8472L22.7156 17.403Z" fill="url(#paint41_linear_0_27)"/>
<path d="M22.7135 24.4371L22.5678 24.9222L22.0984 24.987L22.478 25.2222L22.3329 25.7067L22.713 25.3664L23.0921 25.5985L22.9475 25.1548C23.0998 25.0178 23.1749 24.9499 23.3261 24.8119C23.1393 24.8406 23.0454 24.8537 22.8577 24.8804L22.7135 24.4371Z" fill="url(#paint42_linear_0_27)"/>
<path d="M20.0017 22.4498C19.9443 22.6427 19.9159 22.7393 19.8575 22.9322L19.3891 22.9881C19.5413 23.0848 19.617 23.1345 19.7682 23.2307L19.6241 23.7126L20.0017 23.3791L20.3813 23.6195L20.2362 23.1732C20.3884 23.0394 20.4636 22.9719 20.6163 22.8381C20.428 22.8622 20.3331 22.8737 20.1463 22.8967L20.0017 22.4498Z" fill="url(#paint43_linear_0_27)"/>
<path d="M15.9322 19.3592L15.7876 19.8358C15.5993 19.8526 15.5049 19.8609 15.3171 19.8761L15.6972 20.1322L15.5526 20.6094C15.7048 20.4819 15.7805 20.4165 15.9322 20.2885C16.0845 20.393 16.1596 20.4406 16.3119 20.5415L16.1667 20.0904C16.319 19.9618 16.3946 19.8954 16.5463 19.7668L16.0769 19.8108C16.019 19.6294 15.9921 19.54 15.9322 19.3592Z" fill="url(#paint44_linear_0_27)"/>
<path d="M17.2884 25.092L17.1432 25.5713C16.9554 25.5896 16.861 25.599 16.6727 25.6162L17.0534 25.8666L16.9077 26.3459L17.2884 26.0213C17.4406 26.1217 17.5168 26.1708 17.669 26.2706L17.5234 25.8211C17.6756 25.6915 17.7513 25.6257 17.9035 25.495L17.4341 25.5431C17.3757 25.3654 17.3462 25.2728 17.2884 25.092Z" fill="url(#paint45_linear_0_27)"/>
<path d="M20.0017 24.7942L19.8575 25.2766C19.6703 25.2991 19.5769 25.3111 19.3891 25.3325C19.5413 25.4303 19.6165 25.4789 19.7682 25.575L19.6236 26.0564C19.7758 25.9237 19.8504 25.8573 20.0017 25.724L20.3808 25.9639L20.2362 25.5181C20.3884 25.3837 20.4636 25.3163 20.6163 25.1825C20.428 25.2066 20.3331 25.2175 20.1463 25.2411C20.0961 25.0928 20.0478 24.9438 20.0017 24.7942Z" fill="url(#paint46_linear_0_27)"/>
<path d="M17.2884 20.4035L17.1432 20.8823L16.6727 20.9277L17.0534 21.1781L16.9077 21.6574C17.06 21.5272 17.1366 21.463 17.2884 21.3328C17.4406 21.4326 17.5168 21.4818 17.669 21.5821C17.6107 21.4018 17.5812 21.3119 17.5239 21.1316C17.6761 21.0014 17.7518 20.9371 17.904 20.8059L17.4341 20.8535L17.2884 20.4035Z" fill="url(#paint47_linear_0_27)"/>
<path d="M17.2884 27.4366L17.1432 27.9154C16.9554 27.9342 16.861 27.9431 16.6727 27.9609L17.0534 28.2112L16.9077 28.6911L17.2884 28.366L17.669 28.6158L17.5234 28.1652C17.6756 28.0356 17.7513 27.9703 17.9035 27.8396L17.4341 27.8867L17.2884 27.4366Z" fill="url(#paint48_linear_0_27)"/>
<path d="M15.9322 21.7066L15.7876 22.1838C15.5993 22.2 15.5059 22.2084 15.3176 22.2235C15.4698 22.3281 15.5455 22.3803 15.6972 22.4791L15.5526 22.9563L15.9322 22.6359C16.0845 22.7373 16.1596 22.788 16.3118 22.8884L16.1667 22.4373L16.5463 22.1143C16.358 22.1326 16.2641 22.1404 16.0769 22.1582L15.9322 21.7066Z" fill="url(#paint49_linear_0_27)"/>
<path d="M17.2889 18.0588L17.1432 18.5381C16.9554 18.557 16.861 18.5653 16.6727 18.5831L17.0529 18.834L16.9077 19.3122L17.2889 18.9882C17.4412 19.087 17.5163 19.1382 17.669 19.2375L17.5239 18.7875C17.6761 18.6578 17.7518 18.592 17.9045 18.4613C17.7162 18.4806 17.6224 18.4911 17.4341 18.5094L17.2889 18.0588Z" fill="url(#paint50_linear_0_27)"/>
<path d="M17.2884 22.7479L17.1432 23.2266L16.6727 23.2747L17.0534 23.5256L16.9082 24.0049L17.2884 23.6798L17.669 23.9291L17.5239 23.4791L17.904 23.1529C17.7162 23.1728 17.6224 23.1822 17.4341 23.201C17.3762 23.0176 17.3468 22.9287 17.2884 22.7479Z" fill="url(#paint51_linear_0_27)"/>
<path d="M20.1438 27.5862C20.0859 27.408 20.0575 27.3176 19.9991 27.1388L19.855 27.6212C19.6677 27.6448 19.5743 27.6547 19.3865 27.6766L19.7652 27.9192L19.621 28.4016C19.7733 28.2688 19.8479 28.2009 19.9991 28.0676C20.1514 28.1643 20.227 28.2129 20.3788 28.3086L20.2336 27.8622L20.6138 27.5266L20.1438 27.5862Z" fill="url(#paint52_linear_0_27)"/>
<path d="M18.7907 26.5718L18.6455 26.1228L18.4999 26.6042L18.0304 26.6565L18.4105 26.9037L18.2654 27.384L18.646 27.0553L19.0257 27.3009L18.88 26.8525C19.0323 26.7207 19.1084 26.6538 19.2602 26.5211C19.0724 26.5404 18.9785 26.5514 18.7907 26.5718Z" fill="url(#paint53_linear_0_27)"/>
<path d="M18.6461 19.0902L18.5009 19.5705C18.3131 19.5914 18.2187 19.5998 18.0309 19.6228L18.4111 19.8705L18.2659 20.3509L18.6466 20.0221L19.0262 20.2672L18.8806 19.8193L19.2607 19.4884L18.7912 19.5407L18.6461 19.0902Z" fill="url(#paint54_linear_0_27)"/>
<path d="M18.6455 23.7789L18.5004 24.2593L18.0304 24.3115L18.411 24.5582L18.2659 25.0386L18.646 24.7109L19.0262 24.955L18.8805 24.5075L19.2607 24.1767C19.0729 24.1976 18.9785 24.2091 18.7912 24.229L18.6455 23.7789Z" fill="url(#paint55_linear_0_27)"/>
<path d="M18.646 21.4343C18.5882 21.6272 18.5587 21.7223 18.5004 21.9152C18.3131 21.9361 18.2182 21.9449 18.0304 21.9648L18.411 22.2115L18.2659 22.6918L18.646 22.3641L19.0262 22.6087L18.8805 22.1608C19.0328 22.0291 19.1089 21.9622 19.2607 21.83C19.0734 21.8519 18.979 21.8618 18.7912 21.8822L18.646 21.4343Z" fill="url(#paint56_linear_0_27)"/>
</g>
<defs>
<linearGradient id="paint0_linear_0_27" x1="0.00363244" y1="20.0006" x2="40" y2="20.0006" gradientUnits="userSpaceOnUse">
<stop stop-color="#600000"/>
<stop offset="0.327" stop-color="#630000"/>
<stop offset="0.59" stop-color="#6D0000"/>
<stop offset="0.83" stop-color="#7E0000"/>
<stop offset="1" stop-color="#8F0000"/>
</linearGradient>
<linearGradient id="paint1_linear_0_27" x1="20.0019" y1="0.00121336" x2="20.0019" y2="40.001" gradientUnits="userSpaceOnUse">
<stop offset="0.35" stop-color="#BF1010"/>
<stop offset="0.645" stop-color="#BD1010"/>
<stop offset="0.752" stop-color="#B60F0F"/>
<stop offset="0.828" stop-color="#AB0D0D"/>
<stop offset="0.889" stop-color="#9A0A0A"/>
<stop offset="0.941" stop-color="#840606"/>
<stop offset="0.987" stop-color="#690202"/>
<stop offset="1" stop-color="#600000"/>
</linearGradient>
<linearGradient id="paint2_linear_0_27" x1="1.27187e-06" y1="19.999" x2="40" y2="19.999" gradientUnits="userSpaceOnUse">
<stop stop-color="#BF1010"/>
<stop offset="0.021" stop-color="#C11212"/>
<stop offset="0.244" stop-color="#D22323"/>
<stop offset="0.487" stop-color="#DC2D2D"/>
<stop offset="0.791" stop-color="#DF3030"/>
<stop offset="0.841" stop-color="#DC2E2E"/>
<stop offset="0.882" stop-color="#D22626"/>
<stop offset="0.919" stop-color="#C11919"/>
<stop offset="0.954" stop-color="#A90808"/>
<stop offset="0.966" stop-color="#9F0000"/>
<stop offset="1" stop-color="#DF3030"/>
</linearGradient>
<linearGradient id="paint3_linear_0_27" x1="0.000638445" y1="19.9928" x2="39.9987" y2="19.9928" gradientUnits="userSpaceOnUse">
<stop stop-color="#DFDFDF"/>
<stop offset="0.021" stop-color="#E1E1E1"/>
<stop offset="0.244" stop-color="#F2F2F2"/>
<stop offset="0.487" stop-color="#FCFCFC"/>
<stop offset="0.791" stop-color="white"/>
<stop offset="0.841" stop-color="#FCFCFC"/>
<stop offset="0.882" stop-color="#F2F2F2"/>
<stop offset="0.919" stop-color="#E1E1E1"/>
<stop offset="0.954" stop-color="#C9C9C9"/>
<stop offset="0.966" stop-color="#BFBFBF"/>
<stop offset="1" stop-color="white"/>
</linearGradient>
<linearGradient id="paint4_linear_0_27" x1="0.00191487" y1="19.99" x2="39.9994" y2="19.99" gradientUnits="userSpaceOnUse">
<stop stop-color="#DFDFDF"/>
<stop offset="0.021" stop-color="#E1E1E1"/>
<stop offset="0.244" stop-color="#F2F2F2"/>
<stop offset="0.487" stop-color="#FCFCFC"/>
<stop offset="0.791" stop-color="white"/>
<stop offset="0.841" stop-color="#FCFCFC"/>
<stop offset="0.882" stop-color="#F2F2F2"/>
<stop offset="0.919" stop-color="#E1E1E1"/>
<stop offset="0.954" stop-color="#C9C9C9"/>
<stop offset="0.966" stop-color="#BFBFBF"/>
<stop offset="1" stop-color="white"/>
</linearGradient>
<linearGradient id="paint5_linear_0_27" x1="0.00446779" y1="19.9796" x2="40" y2="19.9796" gradientUnits="userSpaceOnUse">
<stop stop-color="#DFDFDF"/>
<stop offset="0.021" stop-color="#E1E1E1"/>
<stop offset="0.244" stop-color="#F2F2F2"/>
<stop offset="0.487" stop-color="#FCFCFC"/>
<stop offset="0.791" stop-color="white"/>
<stop offset="0.841" stop-color="#FCFCFC"/>
<stop offset="0.882" stop-color="#F2F2F2"/>
<stop offset="0.919" stop-color="#E1E1E1"/>
<stop offset="0.954" stop-color="#C9C9C9"/>
<stop offset="0.966" stop-color="#BFBFBF"/>
<stop offset="1" stop-color="white"/>
</linearGradient>
<linearGradient id="paint6_linear_0_27" x1="-0.00263414" y1="19.9992" x2="82.5396" y2="19.9992" gradientUnits="userSpaceOnUse">
<stop stop-color="#00209F"/>
<stop offset="0.021" stop-color="#0222A1"/>
<stop offset="0.244" stop-color="#1333B2"/>
<stop offset="0.487" stop-color="#1D3DBC"/>
<stop offset="0.791" stop-color="#2040BF"/>
<stop offset="0.841" stop-color="#1E3DBC"/>
<stop offset="0.882" stop-color="#1933B2"/>
<stop offset="0.919" stop-color="#1122A1"/>
<stop offset="0.954" stop-color="#050A89"/>
<stop offset="0.966" stop-color="#00007F"/>
<stop offset="1" stop-color="#2040BF"/>
</linearGradient>
<linearGradient id="paint7_linear_0_27" x1="-99.5864" y1="19.9661" x2="936.973" y2="19.9661" gradientUnits="userSpaceOnUse">
<stop stop-color="#DFDFDF"/>
<stop offset="0.021" stop-color="#E1E1E1"/>
<stop offset="0.244" stop-color="#F2F2F2"/>
<stop offset="0.487" stop-color="#FCFCFC"/>
<stop offset="0.791" stop-color="white"/>
<stop offset="0.841" stop-color="#FCFCFC"/>
<stop offset="0.882" stop-color="#F2F2F2"/>
<stop offset="0.919" stop-color="#E1E1E1"/>
<stop offset="0.954" stop-color="#C9C9C9"/>
<stop offset="0.966" stop-color="#BFBFBF"/>
<stop offset="1" stop-color="white"/>
</linearGradient>
<linearGradient id="paint8_linear_0_27" x1="-143.366" y1="20.0338" x2="890.578" y2="20.0338" gradientUnits="userSpaceOnUse">
<stop stop-color="#DFDFDF"/>
<stop offset="0.021" stop-color="#E1E1E1"/>
<stop offset="0.244" stop-color="#F2F2F2"/>
<stop offset="0.487" stop-color="#FCFCFC"/>
<stop offset="0.791" stop-color="white"/>
<stop offset="0.841" stop-color="#FCFCFC"/>
<stop offset="0.882" stop-color="#F2F2F2"/>
<stop offset="0.919" stop-color="#E1E1E1"/>
<stop offset="0.954" stop-color="#C9C9C9"/>
<stop offset="0.966" stop-color="#BFBFBF"/>
<stop offset="1" stop-color="white"/>
</linearGradient>
<linearGradient id="paint9_linear_0_27" x1="-143.366" y1="20.0338" x2="890.578" y2="20.0338" gradientUnits="userSpaceOnUse">
<stop stop-color="#DFDFDF"/>
<stop offset="0.021" stop-color="#E1E1E1"/>
<stop offset="0.244" stop-color="#F2F2F2"/>
<stop offset="0.487" stop-color="#FCFCFC"/>
<stop offset="0.791" stop-color="white"/>
<stop offset="0.841" stop-color="#FCFCFC"/>
<stop offset="0.882" stop-color="#F2F2F2"/>
<stop offset="0.919" stop-color="#E1E1E1"/>
<stop offset="0.954" stop-color="#C9C9C9"/>
<stop offset="0.966" stop-color="#BFBFBF"/>
<stop offset="1" stop-color="white"/>
</linearGradient>
<linearGradient id="paint10_linear_0_27" x1="-99.5287" y1="20.017" x2="936.602" y2="20.017" gradientUnits="userSpaceOnUse">
<stop stop-color="#DFDFDF"/>
<stop offset="0.021" stop-color="#E1E1E1"/>
<stop offset="0.244" stop-color="#F2F2F2"/>
<stop offset="0.487" stop-color="#FCFCFC"/>
<stop offset="0.791" stop-color="white"/>
<stop offset="0.841" stop-color="#FCFCFC"/>
<stop offset="0.882" stop-color="#F2F2F2"/>
<stop offset="0.919" stop-color="#E1E1E1"/>
<stop offset="0.954" stop-color="#C9C9C9"/>
<stop offset="0.966" stop-color="#BFBFBF"/>
<stop offset="1" stop-color="white"/>
</linearGradient>
<linearGradient id="paint11_linear_0_27" x1="-99.4711" y1="20" x2="936.231" y2="20" gradientUnits="userSpaceOnUse">
<stop stop-color="#DFDFDF"/>
<stop offset="0.021" stop-color="#E1E1E1"/>
<stop offset="0.244" stop-color="#F2F2F2"/>
<stop offset="0.487" stop-color="#FCFCFC"/>
<stop offset="0.791" stop-color="white"/>
<stop offset="0.841" stop-color="#FCFCFC"/>
<stop offset="0.882" stop-color="#F2F2F2"/>
<stop offset="0.919" stop-color="#E1E1E1"/>
<stop offset="0.954" stop-color="#C9C9C9"/>
<stop offset="0.966" stop-color="#BFBFBF"/>
<stop offset="1" stop-color="white"/>
</linearGradient>
<linearGradient id="paint12_linear_0_27" x1="-99.5287" y1="19.9915" x2="936.602" y2="19.9915" gradientUnits="userSpaceOnUse">
<stop stop-color="#DFDFDF"/>
<stop offset="0.021" stop-color="#E1E1E1"/>
<stop offset="0.244" stop-color="#F2F2F2"/>
<stop offset="0.487" stop-color="#FCFCFC"/>
<stop offset="0.791" stop-color="white"/>
<stop offset="0.841" stop-color="#FCFCFC"/>
<stop offset="0.882" stop-color="#F2F2F2"/>
<stop offset="0.919" stop-color="#E1E1E1"/>
<stop offset="0.954" stop-color="#C9C9C9"/>
<stop offset="0.966" stop-color="#BFBFBF"/>
<stop offset="1" stop-color="white"/>
</linearGradient>
<linearGradient id="paint13_linear_0_27" x1="-231.825" y1="20.0084" x2="803.287" y2="20.0084" gradientUnits="userSpaceOnUse">
<stop stop-color="#DFDFDF"/>
<stop offset="0.021" stop-color="#E1E1E1"/>
<stop offset="0.244" stop-color="#F2F2F2"/>
<stop offset="0.487" stop-color="#FCFCFC"/>
<stop offset="0.791" stop-color="white"/>
<stop offset="0.841" stop-color="#FCFCFC"/>
<stop offset="0.882" stop-color="#F2F2F2"/>
<stop offset="0.919" stop-color="#E1E1E1"/>
<stop offset="0.954" stop-color="#C9C9C9"/>
<stop offset="0.966" stop-color="#BFBFBF"/>
<stop offset="1" stop-color="white"/>
</linearGradient>
<linearGradient id="paint14_linear_0_27" x1="-143.366" y1="20" x2="890.578" y2="20" gradientUnits="userSpaceOnUse">
<stop stop-color="#DFDFDF"/>
<stop offset="0.021" stop-color="#E1E1E1"/>
<stop offset="0.244" stop-color="#F2F2F2"/>
<stop offset="0.487" stop-color="#FCFCFC"/>
<stop offset="0.791" stop-color="white"/>
<stop offset="0.841" stop-color="#FCFCFC"/>
<stop offset="0.882" stop-color="#F2F2F2"/>
<stop offset="0.919" stop-color="#E1E1E1"/>
<stop offset="0.954" stop-color="#C9C9C9"/>
<stop offset="0.966" stop-color="#BFBFBF"/>
<stop offset="1" stop-color="white"/>
</linearGradient>
<linearGradient id="paint15_linear_0_27" x1="-187.508" y1="20.0506" x2="846.436" y2="20.0506" gradientUnits="userSpaceOnUse">
<stop stop-color="#DFDFDF"/>
<stop offset="0.021" stop-color="#E1E1E1"/>
<stop offset="0.244" stop-color="#F2F2F2"/>
<stop offset="0.487" stop-color="#FCFCFC"/>
<stop offset="0.791" stop-color="white"/>
<stop offset="0.841" stop-color="#FCFCFC"/>
<stop offset="0.882" stop-color="#F2F2F2"/>
<stop offset="0.919" stop-color="#E1E1E1"/>
<stop offset="0.954" stop-color="#C9C9C9"/>
<stop offset="0.966" stop-color="#BFBFBF"/>
<stop offset="1" stop-color="white"/>
</linearGradient>
<linearGradient id="paint16_linear_0_27" x1="-187.525" y1="20" x2="846.419" y2="20" gradientUnits="userSpaceOnUse">
<stop stop-color="#DFDFDF"/>
<stop offset="0.021" stop-color="#E1E1E1"/>
<stop offset="0.244" stop-color="#F2F2F2"/>
<stop offset="0.487" stop-color="#FCFCFC"/>
<stop offset="0.791" stop-color="white"/>
<stop offset="0.841" stop-color="#FCFCFC"/>
<stop offset="0.882" stop-color="#F2F2F2"/>
<stop offset="0.919" stop-color="#E1E1E1"/>
<stop offset="0.954" stop-color="#C9C9C9"/>
<stop offset="0.966" stop-color="#BFBFBF"/>
<stop offset="1" stop-color="white"/>
</linearGradient>
<linearGradient id="paint17_linear_0_27" x1="-143.366" y1="20.0509" x2="890.578" y2="20.0509" gradientUnits="userSpaceOnUse">
<stop stop-color="#DFDFDF"/>
<stop offset="0.021" stop-color="#E1E1E1"/>
<stop offset="0.244" stop-color="#F2F2F2"/>
<stop offset="0.487" stop-color="#FCFCFC"/>
<stop offset="0.791" stop-color="white"/>
<stop offset="0.841" stop-color="#FCFCFC"/>
<stop offset="0.882" stop-color="#F2F2F2"/>
<stop offset="0.919" stop-color="#E1E1E1"/>
<stop offset="0.954" stop-color="#C9C9C9"/>
<stop offset="0.966" stop-color="#BFBFBF"/>
<stop offset="1" stop-color="white"/>
</linearGradient>
<linearGradient id="paint18_linear_0_27" x1="-187.569" y1="20" x2="846.835" y2="20" gradientUnits="userSpaceOnUse">
<stop stop-color="#DFDFDF"/>
<stop offset="0.021" stop-color="#E1E1E1"/>
<stop offset="0.244" stop-color="#F2F2F2"/>
<stop offset="0.487" stop-color="#FCFCFC"/>
<stop offset="0.791" stop-color="white"/>
<stop offset="0.841" stop-color="#FCFCFC"/>
<stop offset="0.882" stop-color="#F2F2F2"/>
<stop offset="0.919" stop-color="#E1E1E1"/>
<stop offset="0.954" stop-color="#C9C9C9"/>
<stop offset="0.966" stop-color="#BFBFBF"/>
<stop offset="1" stop-color="white"/>
</linearGradient>
<linearGradient id="paint19_linear_0_27" x1="-99.4711" y1="20.0085" x2="936.231" y2="20.0085" gradientUnits="userSpaceOnUse">
<stop stop-color="#DFDFDF"/>
<stop offset="0.021" stop-color="#E1E1E1"/>
<stop offset="0.244" stop-color="#F2F2F2"/>
<stop offset="0.487" stop-color="#FCFCFC"/>
<stop offset="0.791" stop-color="white"/>
<stop offset="0.841" stop-color="#FCFCFC"/>
<stop offset="0.882" stop-color="#F2F2F2"/>
<stop offset="0.919" stop-color="#E1E1E1"/>
<stop offset="0.954" stop-color="#C9C9C9"/>
<stop offset="0.966" stop-color="#BFBFBF"/>
<stop offset="1" stop-color="white"/>
</linearGradient>
<linearGradient id="paint20_linear_0_27" x1="-11.0095" y1="20" x2="1021.9" y2="20" gradientUnits="userSpaceOnUse">
<stop stop-color="#DFDFDF"/>
<stop offset="0.021" stop-color="#E1E1E1"/>
<stop offset="0.244" stop-color="#F2F2F2"/>
<stop offset="0.487" stop-color="#FCFCFC"/>
<stop offset="0.791" stop-color="white"/>
<stop offset="0.841" stop-color="#FCFCFC"/>
<stop offset="0.882" stop-color="#F2F2F2"/>
<stop offset="0.919" stop-color="#E1E1E1"/>
<stop offset="0.954" stop-color="#C9C9C9"/>
<stop offset="0.966" stop-color="#BFBFBF"/>
<stop offset="1" stop-color="white"/>
</linearGradient>
<linearGradient id="paint21_linear_0_27" x1="-11.0095" y1="20.0086" x2="1021.9" y2="20.0086" gradientUnits="userSpaceOnUse">
<stop stop-color="#DFDFDF"/>
<stop offset="0.021" stop-color="#E1E1E1"/>
<stop offset="0.244" stop-color="#F2F2F2"/>
<stop offset="0.487" stop-color="#FCFCFC"/>
<stop offset="0.791" stop-color="white"/>
<stop offset="0.841" stop-color="#FCFCFC"/>
<stop offset="0.882" stop-color="#F2F2F2"/>
<stop offset="0.919" stop-color="#E1E1E1"/>
<stop offset="0.954" stop-color="#C9C9C9"/>
<stop offset="0.966" stop-color="#BFBFBF"/>
<stop offset="1" stop-color="white"/>
</linearGradient>
<linearGradient id="paint22_linear_0_27" x1="-10.9481" y1="20" x2="1022.11" y2="20" gradientUnits="userSpaceOnUse">
<stop stop-color="#DFDFDF"/>
<stop offset="0.021" stop-color="#E1E1E1"/>
<stop offset="0.244" stop-color="#F2F2F2"/>
<stop offset="0.487" stop-color="#FCFCFC"/>
<stop offset="0.791" stop-color="white"/>
<stop offset="0.841" stop-color="#FCFCFC"/>
<stop offset="0.882" stop-color="#F2F2F2"/>
<stop offset="0.919" stop-color="#E1E1E1"/>
<stop offset="0.954" stop-color="#C9C9C9"/>
<stop offset="0.966" stop-color="#BFBFBF"/>
<stop offset="1" stop-color="white"/>
</linearGradient>
<linearGradient id="paint23_linear_0_27" x1="-187.475" y1="19.9916" x2="846.469" y2="19.9916" gradientUnits="userSpaceOnUse">
<stop stop-color="#DFDFDF"/>
<stop offset="0.021" stop-color="#E1E1E1"/>
<stop offset="0.244" stop-color="#F2F2F2"/>
<stop offset="0.487" stop-color="#FCFCFC"/>
<stop offset="0.791" stop-color="white"/>
<stop offset="0.841" stop-color="#FCFCFC"/>
<stop offset="0.882" stop-color="#F2F2F2"/>
<stop offset="0.919" stop-color="#E1E1E1"/>
<stop offset="0.954" stop-color="#C9C9C9"/>
<stop offset="0.966" stop-color="#BFBFBF"/>
<stop offset="1" stop-color="white"/>
</linearGradient>
<linearGradient id="paint24_linear_0_27" x1="-187.475" y1="19.9916" x2="846.469" y2="19.9916" gradientUnits="userSpaceOnUse">
<stop stop-color="#DFDFDF"/>
<stop offset="0.021" stop-color="#E1E1E1"/>
<stop offset="0.244" stop-color="#F2F2F2"/>
<stop offset="0.487" stop-color="#FCFCFC"/>
<stop offset="0.791" stop-color="white"/>
<stop offset="0.841" stop-color="#FCFCFC"/>
<stop offset="0.882" stop-color="#F2F2F2"/>
<stop offset="0.919" stop-color="#E1E1E1"/>
<stop offset="0.954" stop-color="#C9C9C9"/>
<stop offset="0.966" stop-color="#BFBFBF"/>
<stop offset="1" stop-color="white"/>
</linearGradient>
<linearGradient id="paint25_linear_0_27" x1="-11.014" y1="20.0429" x2="1022.04" y2="20.0429" gradientUnits="userSpaceOnUse">
<stop stop-color="#DFDFDF"/>
<stop offset="0.021" stop-color="#E1E1E1"/>
<stop offset="0.244" stop-color="#F2F2F2"/>
<stop offset="0.487" stop-color="#FCFCFC"/>
<stop offset="0.791" stop-color="white"/>
<stop offset="0.841" stop-color="#FCFCFC"/>
<stop offset="0.882" stop-color="#F2F2F2"/>
<stop offset="0.919" stop-color="#E1E1E1"/>
<stop offset="0.954" stop-color="#C9C9C9"/>
<stop offset="0.966" stop-color="#BFBFBF"/>
<stop offset="1" stop-color="white"/>
</linearGradient>
<linearGradient id="paint26_linear_0_27" x1="-55.1753" y1="20.0255" x2="978.342" y2="20.0255" gradientUnits="userSpaceOnUse">
<stop stop-color="#DFDFDF"/>
<stop offset="0.021" stop-color="#E1E1E1"/>
<stop offset="0.244" stop-color="#F2F2F2"/>
<stop offset="0.487" stop-color="#FCFCFC"/>
<stop offset="0.791" stop-color="white"/>
<stop offset="0.841" stop-color="#FCFCFC"/>
<stop offset="0.882" stop-color="#F2F2F2"/>
<stop offset="0.919" stop-color="#E1E1E1"/>
<stop offset="0.954" stop-color="#C9C9C9"/>
<stop offset="0.966" stop-color="#BFBFBF"/>
<stop offset="1" stop-color="white"/>
</linearGradient>
<linearGradient id="paint27_linear_0_27" x1="-55.1753" y1="19.9575" x2="978.342" y2="19.9575" gradientUnits="userSpaceOnUse">
<stop stop-color="#DFDFDF"/>
<stop offset="0.021" stop-color="#E1E1E1"/>
<stop offset="0.244" stop-color="#F2F2F2"/>
<stop offset="0.487" stop-color="#FCFCFC"/>
<stop offset="0.791" stop-color="white"/>
<stop offset="0.841" stop-color="#FCFCFC"/>
<stop offset="0.882" stop-color="#F2F2F2"/>
<stop offset="0.919" stop-color="#E1E1E1"/>
<stop offset="0.954" stop-color="#C9C9C9"/>
<stop offset="0.966" stop-color="#BFBFBF"/>
<stop offset="1" stop-color="white"/>
</linearGradient>
<linearGradient id="paint28_linear_0_27" x1="-55.1195" y1="19.949" x2="977.972" y2="19.949" gradientUnits="userSpaceOnUse">
<stop stop-color="#DFDFDF"/>
<stop offset="0.021" stop-color="#E1E1E1"/>
<stop offset="0.244" stop-color="#F2F2F2"/>
<stop offset="0.487" stop-color="#FCFCFC"/>
<stop offset="0.791" stop-color="white"/>
<stop offset="0.841" stop-color="#FCFCFC"/>
<stop offset="0.882" stop-color="#F2F2F2"/>
<stop offset="0.919" stop-color="#E1E1E1"/>
<stop offset="0.954" stop-color="#C9C9C9"/>
<stop offset="0.966" stop-color="#BFBFBF"/>
<stop offset="1" stop-color="white"/>
</linearGradient>
<linearGradient id="paint29_linear_0_27" x1="-55.1753" y1="19.949" x2="978.342" y2="19.949" gradientUnits="userSpaceOnUse">
<stop stop-color="#DFDFDF"/>
<stop offset="0.021" stop-color="#E1E1E1"/>
<stop offset="0.244" stop-color="#F2F2F2"/>
<stop offset="0.487" stop-color="#FCFCFC"/>
<stop offset="0.791" stop-color="white"/>
<stop offset="0.841" stop-color="#FCFCFC"/>
<stop offset="0.882" stop-color="#F2F2F2"/>
<stop offset="0.919" stop-color="#E1E1E1"/>
<stop offset="0.954" stop-color="#C9C9C9"/>
<stop offset="0.966" stop-color="#BFBFBF"/>
<stop offset="1" stop-color="white"/>
</linearGradient>
<linearGradient id="paint30_linear_0_27" x1="-11.0004" y1="20.0086" x2="1021.03" y2="20.0086" gradientUnits="userSpaceOnUse">
<stop stop-color="#DFDFDF"/>
<stop offset="0.021" stop-color="#E1E1E1"/>
<stop offset="0.244" stop-color="#F2F2F2"/>
<stop offset="0.487" stop-color="#FCFCFC"/>
<stop offset="0.791" stop-color="white"/>
<stop offset="0.841" stop-color="#FCFCFC"/>
<stop offset="0.882" stop-color="#F2F2F2"/>
<stop offset="0.919" stop-color="#E1E1E1"/>
<stop offset="0.954" stop-color="#C9C9C9"/>
<stop offset="0.966" stop-color="#BFBFBF"/>
<stop offset="1" stop-color="white"/>
</linearGradient>
<linearGradient id="paint31_linear_0_27" x1="-231.937" y1="20" x2="803.602" y2="20" gradientUnits="userSpaceOnUse">
<stop stop-color="#DFDFDF"/>
<stop offset="0.021" stop-color="#E1E1E1"/>
<stop offset="0.244" stop-color="#F2F2F2"/>
<stop offset="0.487" stop-color="#FCFCFC"/>
<stop offset="0.791" stop-color="white"/>
<stop offset="0.841" stop-color="#FCFCFC"/>
<stop offset="0.882" stop-color="#F2F2F2"/>
<stop offset="0.919" stop-color="#E1E1E1"/>
<stop offset="0.954" stop-color="#C9C9C9"/>
<stop offset="0.966" stop-color="#BFBFBF"/>
<stop offset="1" stop-color="white"/>
</linearGradient>
<linearGradient id="paint32_linear_0_27" x1="-407.334" y1="19.9917" x2="625.315" y2="19.9917" gradientUnits="userSpaceOnUse">
<stop stop-color="#DFDFDF"/>
<stop offset="0.021" stop-color="#E1E1E1"/>
<stop offset="0.244" stop-color="#F2F2F2"/>
<stop offset="0.487" stop-color="#FCFCFC"/>
<stop offset="0.791" stop-color="white"/>
<stop offset="0.841" stop-color="#FCFCFC"/>
<stop offset="0.882" stop-color="#F2F2F2"/>
<stop offset="0.919" stop-color="#E1E1E1"/>
<stop offset="0.954" stop-color="#C9C9C9"/>
<stop offset="0.966" stop-color="#BFBFBF"/>
<stop offset="1" stop-color="white"/>
</linearGradient>
<linearGradient id="paint33_linear_0_27" x1="-407.166" y1="20" x2="625.058" y2="20" gradientUnits="userSpaceOnUse">
<stop stop-color="#DFDFDF"/>
<stop offset="0.021" stop-color="#E1E1E1"/>
<stop offset="0.244" stop-color="#F2F2F2"/>
<stop offset="0.487" stop-color="#FCFCFC"/>
<stop offset="0.791" stop-color="white"/>
<stop offset="0.841" stop-color="#FCFCFC"/>
<stop offset="0.882" stop-color="#F2F2F2"/>
<stop offset="0.919" stop-color="#E1E1E1"/>
<stop offset="0.954" stop-color="#C9C9C9"/>
<stop offset="0.966" stop-color="#BFBFBF"/>
<stop offset="1" stop-color="white"/>
</linearGradient>
<linearGradient id="paint34_linear_0_27" x1="-407.502" y1="20.0082" x2="625.573" y2="20.0082" gradientUnits="userSpaceOnUse">
<stop stop-color="#DFDFDF"/>
<stop offset="0.021" stop-color="#E1E1E1"/>
<stop offset="0.244" stop-color="#F2F2F2"/>
<stop offset="0.487" stop-color="#FCFCFC"/>
<stop offset="0.791" stop-color="white"/>
<stop offset="0.841" stop-color="#FCFCFC"/>
<stop offset="0.882" stop-color="#F2F2F2"/>
<stop offset="0.919" stop-color="#E1E1E1"/>
<stop offset="0.954" stop-color="#C9C9C9"/>
<stop offset="0.966" stop-color="#BFBFBF"/>
<stop offset="1" stop-color="white"/>
</linearGradient>
<linearGradient id="paint35_linear_0_27" x1="-365.197" y1="20" x2="672.255" y2="20" gradientUnits="userSpaceOnUse">
<stop stop-color="#DFDFDF"/>
<stop offset="0.021" stop-color="#E1E1E1"/>
<stop offset="0.244" stop-color="#F2F2F2"/>
<stop offset="0.487" stop-color="#FCFCFC"/>
<stop offset="0.791" stop-color="white"/>
<stop offset="0.841" stop-color="#FCFCFC"/>
<stop offset="0.882" stop-color="#F2F2F2"/>
<stop offset="0.919" stop-color="#E1E1E1"/>
<stop offset="0.954" stop-color="#C9C9C9"/>
<stop offset="0.966" stop-color="#BFBFBF"/>
<stop offset="1" stop-color="white"/>
</linearGradient>
<linearGradient id="paint36_linear_0_27" x1="-406.982" y1="20" x2="624.784" y2="20" gradientUnits="userSpaceOnUse">
<stop stop-color="#DFDFDF"/>
<stop offset="0.021" stop-color="#E1E1E1"/>
<stop offset="0.244" stop-color="#F2F2F2"/>
<stop offset="0.487" stop-color="#FCFCFC"/>
<stop offset="0.791" stop-color="white"/>
<stop offset="0.841" stop-color="#FCFCFC"/>
<stop offset="0.882" stop-color="#F2F2F2"/>
<stop offset="0.919" stop-color="#E1E1E1"/>
<stop offset="0.954" stop-color="#C9C9C9"/>
<stop offset="0.966" stop-color="#BFBFBF"/>
<stop offset="1" stop-color="white"/>
</linearGradient>
<linearGradient id="paint37_linear_0_27" x1="-365.197" y1="20" x2="672.255" y2="20" gradientUnits="userSpaceOnUse">
<stop stop-color="#DFDFDF"/>
<stop offset="0.021" stop-color="#E1E1E1"/>
<stop offset="0.244" stop-color="#F2F2F2"/>
<stop offset="0.487" stop-color="#FCFCFC"/>
<stop offset="0.791" stop-color="white"/>
<stop offset="0.841" stop-color="#FCFCFC"/>
<stop offset="0.882" stop-color="#F2F2F2"/>
<stop offset="0.919" stop-color="#E1E1E1"/>
<stop offset="0.954" stop-color="#C9C9C9"/>
<stop offset="0.966" stop-color="#BFBFBF"/>
<stop offset="1" stop-color="white"/>
</linearGradient>
<linearGradient id="paint38_linear_0_27" x1="-452.793" y1="20" x2="582.909" y2="20" gradientUnits="userSpaceOnUse">
<stop stop-color="#DFDFDF"/>
<stop offset="0.021" stop-color="#E1E1E1"/>
<stop offset="0.244" stop-color="#F2F2F2"/>
<stop offset="0.487" stop-color="#FCFCFC"/>
<stop offset="0.791" stop-color="white"/>
<stop offset="0.841" stop-color="#FCFCFC"/>
<stop offset="0.882" stop-color="#F2F2F2"/>
<stop offset="0.919" stop-color="#E1E1E1"/>
<stop offset="0.954" stop-color="#C9C9C9"/>
<stop offset="0.966" stop-color="#BFBFBF"/>
<stop offset="1" stop-color="white"/>
</linearGradient>
<linearGradient id="paint39_linear_0_27" x1="-452.81" y1="20" x2="582.893" y2="20" gradientUnits="userSpaceOnUse">
<stop stop-color="#DFDFDF"/>
<stop offset="0.021" stop-color="#E1E1E1"/>
<stop offset="0.244" stop-color="#F2F2F2"/>
<stop offset="0.487" stop-color="#FCFCFC"/>
<stop offset="0.791" stop-color="white"/>
<stop offset="0.841" stop-color="#FCFCFC"/>
<stop offset="0.882" stop-color="#F2F2F2"/>
<stop offset="0.919" stop-color="#E1E1E1"/>
<stop offset="0.954" stop-color="#C9C9C9"/>
<stop offset="0.966" stop-color="#BFBFBF"/>
<stop offset="1" stop-color="white"/>
</linearGradient>
<linearGradient id="paint40_linear_0_27" x1="-452.931" y1="20" x2="583.167" y2="20" gradientUnits="userSpaceOnUse">
<stop stop-color="#DFDFDF"/>
<stop offset="0.021" stop-color="#E1E1E1"/>
<stop offset="0.244" stop-color="#F2F2F2"/>
<stop offset="0.487" stop-color="#FCFCFC"/>
<stop offset="0.791" stop-color="white"/>
<stop offset="0.841" stop-color="#FCFCFC"/>
<stop offset="0.882" stop-color="#F2F2F2"/>
<stop offset="0.919" stop-color="#E1E1E1"/>
<stop offset="0.954" stop-color="#C9C9C9"/>
<stop offset="0.966" stop-color="#BFBFBF"/>
<stop offset="1" stop-color="white"/>
</linearGradient>
<linearGradient id="paint41_linear_0_27" x1="-452.623" y1="20" x2="582.652" y2="20" gradientUnits="userSpaceOnUse">
<stop stop-color="#DFDFDF"/>
<stop offset="0.021" stop-color="#E1E1E1"/>
<stop offset="0.244" stop-color="#F2F2F2"/>
<stop offset="0.487" stop-color="#FCFCFC"/>
<stop offset="0.791" stop-color="white"/>
<stop offset="0.841" stop-color="#FCFCFC"/>
<stop offset="0.882" stop-color="#F2F2F2"/>
<stop offset="0.919" stop-color="#E1E1E1"/>
<stop offset="0.954" stop-color="#C9C9C9"/>
<stop offset="0.966" stop-color="#BFBFBF"/>
<stop offset="1" stop-color="white"/>
</linearGradient>
<linearGradient id="paint42_linear_0_27" x1="-452.964" y1="19.9918" x2="583.167" y2="19.9918" gradientUnits="userSpaceOnUse">
<stop stop-color="#DFDFDF"/>
<stop offset="0.021" stop-color="#E1E1E1"/>
<stop offset="0.244" stop-color="#F2F2F2"/>
<stop offset="0.487" stop-color="#FCFCFC"/>
<stop offset="0.791" stop-color="white"/>
<stop offset="0.841" stop-color="#FCFCFC"/>
<stop offset="0.882" stop-color="#F2F2F2"/>
<stop offset="0.919" stop-color="#E1E1E1"/>
<stop offset="0.954" stop-color="#C9C9C9"/>
<stop offset="0.966" stop-color="#BFBFBF"/>
<stop offset="1" stop-color="white"/>
</linearGradient>
<linearGradient id="paint43_linear_0_27" x1="-365.029" y1="20" x2="671.993" y2="20" gradientUnits="userSpaceOnUse">
<stop stop-color="#DFDFDF"/>
<stop offset="0.021" stop-color="#E1E1E1"/>
<stop offset="0.244" stop-color="#F2F2F2"/>
<stop offset="0.487" stop-color="#FCFCFC"/>
<stop offset="0.791" stop-color="white"/>
<stop offset="0.841" stop-color="#FCFCFC"/>
<stop offset="0.882" stop-color="#F2F2F2"/>
<stop offset="0.919" stop-color="#E1E1E1"/>
<stop offset="0.954" stop-color="#C9C9C9"/>
<stop offset="0.966" stop-color="#BFBFBF"/>
<stop offset="1" stop-color="white"/>
</linearGradient>
<linearGradient id="paint44_linear_0_27" x1="-231.825" y1="20" x2="803.287" y2="20" gradientUnits="userSpaceOnUse">
<stop stop-color="#DFDFDF"/>
<stop offset="0.021" stop-color="#E1E1E1"/>
<stop offset="0.244" stop-color="#F2F2F2"/>
<stop offset="0.487" stop-color="#FCFCFC"/>
<stop offset="0.791" stop-color="white"/>
<stop offset="0.841" stop-color="#FCFCFC"/>
<stop offset="0.882" stop-color="#F2F2F2"/>
<stop offset="0.919" stop-color="#E1E1E1"/>
<stop offset="0.954" stop-color="#C9C9C9"/>
<stop offset="0.966" stop-color="#BFBFBF"/>
<stop offset="1" stop-color="white"/>
</linearGradient>
<linearGradient id="paint45_linear_0_27" x1="-275.513" y1="19.9917" x2="758.004" y2="19.9917" gradientUnits="userSpaceOnUse">
<stop stop-color="#DFDFDF"/>
<stop offset="0.021" stop-color="#E1E1E1"/>
<stop offset="0.244" stop-color="#F2F2F2"/>
<stop offset="0.487" stop-color="#FCFCFC"/>
<stop offset="0.791" stop-color="white"/>
<stop offset="0.841" stop-color="#FCFCFC"/>
<stop offset="0.882" stop-color="#F2F2F2"/>
<stop offset="0.919" stop-color="#E1E1E1"/>
<stop offset="0.954" stop-color="#C9C9C9"/>
<stop offset="0.966" stop-color="#BFBFBF"/>
<stop offset="1" stop-color="white"/>
</linearGradient>
<linearGradient id="paint46_linear_0_27" x1="-365.029" y1="20.0083" x2="671.993" y2="20.0083" gradientUnits="userSpaceOnUse">
<stop stop-color="#DFDFDF"/>
<stop offset="0.021" stop-color="#E1E1E1"/>
<stop offset="0.244" stop-color="#F2F2F2"/>
<stop offset="0.487" stop-color="#FCFCFC"/>
<stop offset="0.791" stop-color="white"/>
<stop offset="0.841" stop-color="#FCFCFC"/>
<stop offset="0.882" stop-color="#F2F2F2"/>
<stop offset="0.919" stop-color="#E1E1E1"/>
<stop offset="0.954" stop-color="#C9C9C9"/>
<stop offset="0.966" stop-color="#BFBFBF"/>
<stop offset="1" stop-color="white"/>
</linearGradient>
<linearGradient id="paint47_linear_0_27" x1="-275.4" y1="19.9917" x2="757.692" y2="19.9917" gradientUnits="userSpaceOnUse">
<stop stop-color="#DFDFDF"/>
<stop offset="0.021" stop-color="#E1E1E1"/>
<stop offset="0.244" stop-color="#F2F2F2"/>
<stop offset="0.487" stop-color="#FCFCFC"/>
<stop offset="0.791" stop-color="white"/>
<stop offset="0.841" stop-color="#FCFCFC"/>
<stop offset="0.882" stop-color="#F2F2F2"/>
<stop offset="0.919" stop-color="#E1E1E1"/>
<stop offset="0.954" stop-color="#C9C9C9"/>
<stop offset="0.966" stop-color="#BFBFBF"/>
<stop offset="1" stop-color="white"/>
</linearGradient>
<linearGradient id="paint48_linear_0_27" x1="-275.513" y1="20" x2="758.004" y2="20" gradientUnits="userSpaceOnUse">
<stop stop-color="#DFDFDF"/>
<stop offset="0.021" stop-color="#E1E1E1"/>
<stop offset="0.244" stop-color="#F2F2F2"/>
<stop offset="0.487" stop-color="#FCFCFC"/>
<stop offset="0.791" stop-color="white"/>
<stop offset="0.841" stop-color="#FCFCFC"/>
<stop offset="0.882" stop-color="#F2F2F2"/>
<stop offset="0.919" stop-color="#E1E1E1"/>
<stop offset="0.954" stop-color="#C9C9C9"/>
<stop offset="0.966" stop-color="#BFBFBF"/>
<stop offset="1" stop-color="white"/>
</linearGradient>
<linearGradient id="paint49_linear_0_27" x1="-231.937" y1="19.908" x2="803.602" y2="19.908" gradientUnits="userSpaceOnUse">
<stop stop-color="#DFDFDF"/>
<stop offset="0.021" stop-color="#E1E1E1"/>
<stop offset="0.244" stop-color="#F2F2F2"/>
<stop offset="0.487" stop-color="#FCFCFC"/>
<stop offset="0.791" stop-color="white"/>
<stop offset="0.841" stop-color="#FCFCFC"/>
<stop offset="0.882" stop-color="#F2F2F2"/>
<stop offset="0.919" stop-color="#E1E1E1"/>
<stop offset="0.954" stop-color="#C9C9C9"/>
<stop offset="0.966" stop-color="#BFBFBF"/>
<stop offset="1" stop-color="white"/>
</linearGradient>
<linearGradient id="paint50_linear_0_27" x1="-275.352" y1="20" x2="757.561" y2="20" gradientUnits="userSpaceOnUse">
<stop stop-color="#DFDFDF"/>
<stop offset="0.021" stop-color="#E1E1E1"/>
<stop offset="0.244" stop-color="#F2F2F2"/>
<stop offset="0.487" stop-color="#FCFCFC"/>
<stop offset="0.791" stop-color="white"/>
<stop offset="0.841" stop-color="#FCFCFC"/>
<stop offset="0.882" stop-color="#F2F2F2"/>
<stop offset="0.919" stop-color="#E1E1E1"/>
<stop offset="0.954" stop-color="#C9C9C9"/>
<stop offset="0.966" stop-color="#BFBFBF"/>
<stop offset="1" stop-color="white"/>
</linearGradient>
<linearGradient id="paint51_linear_0_27" x1="-275.4" y1="19.9584" x2="757.692" y2="19.9584" gradientUnits="userSpaceOnUse">
<stop stop-color="#DFDFDF"/>
<stop offset="0.021" stop-color="#E1E1E1"/>
<stop offset="0.244" stop-color="#F2F2F2"/>
<stop offset="0.487" stop-color="#FCFCFC"/>
<stop offset="0.791" stop-color="white"/>
<stop offset="0.841" stop-color="#FCFCFC"/>
<stop offset="0.882" stop-color="#F2F2F2"/>
<stop offset="0.919" stop-color="#E1E1E1"/>
<stop offset="0.954" stop-color="#C9C9C9"/>
<stop offset="0.966" stop-color="#BFBFBF"/>
<stop offset="1" stop-color="white"/>
</linearGradient>
<linearGradient id="paint52_linear_0_27" x1="-364.946" y1="20" x2="672.076" y2="20" gradientUnits="userSpaceOnUse">
<stop stop-color="#DFDFDF"/>
<stop offset="0.021" stop-color="#E1E1E1"/>
<stop offset="0.244" stop-color="#F2F2F2"/>
<stop offset="0.487" stop-color="#FCFCFC"/>
<stop offset="0.791" stop-color="white"/>
<stop offset="0.841" stop-color="#FCFCFC"/>
<stop offset="0.882" stop-color="#F2F2F2"/>
<stop offset="0.919" stop-color="#E1E1E1"/>
<stop offset="0.954" stop-color="#C9C9C9"/>
<stop offset="0.966" stop-color="#BFBFBF"/>
<stop offset="1" stop-color="white"/>
</linearGradient>
<linearGradient id="paint53_linear_0_27" x1="-319.901" y1="19.9586" x2="714.486" y2="19.9586" gradientUnits="userSpaceOnUse">
<stop stop-color="#DFDFDF"/>
<stop offset="0.021" stop-color="#E1E1E1"/>
<stop offset="0.244" stop-color="#F2F2F2"/>
<stop offset="0.487" stop-color="#FCFCFC"/>
<stop offset="0.791" stop-color="white"/>
<stop offset="0.841" stop-color="#FCFCFC"/>
<stop offset="0.882" stop-color="#F2F2F2"/>
<stop offset="0.919" stop-color="#E1E1E1"/>
<stop offset="0.954" stop-color="#C9C9C9"/>
<stop offset="0.966" stop-color="#BFBFBF"/>
<stop offset="1" stop-color="white"/>
</linearGradient>
<linearGradient id="paint54_linear_0_27" x1="-319.917" y1="19.9668" x2="714.47" y2="19.9668" gradientUnits="userSpaceOnUse">
<stop stop-color="#DFDFDF"/>
<stop offset="0.021" stop-color="#E1E1E1"/>
<stop offset="0.244" stop-color="#F2F2F2"/>
<stop offset="0.487" stop-color="#FCFCFC"/>
<stop offset="0.791" stop-color="white"/>
<stop offset="0.841" stop-color="#FCFCFC"/>
<stop offset="0.882" stop-color="#F2F2F2"/>
<stop offset="0.919" stop-color="#E1E1E1"/>
<stop offset="0.954" stop-color="#C9C9C9"/>
<stop offset="0.966" stop-color="#BFBFBF"/>
<stop offset="1" stop-color="white"/>
</linearGradient>
<linearGradient id="paint55_linear_0_27" x1="-319.769" y1="19.9668" x2="714.191" y2="19.9668" gradientUnits="userSpaceOnUse">
<stop stop-color="#DFDFDF"/>
<stop offset="0.021" stop-color="#E1E1E1"/>
<stop offset="0.244" stop-color="#F2F2F2"/>
<stop offset="0.487" stop-color="#FCFCFC"/>
<stop offset="0.791" stop-color="white"/>
<stop offset="0.841" stop-color="#FCFCFC"/>
<stop offset="0.882" stop-color="#F2F2F2"/>
<stop offset="0.919" stop-color="#E1E1E1"/>
<stop offset="0.954" stop-color="#C9C9C9"/>
<stop offset="0.966" stop-color="#BFBFBF"/>
<stop offset="1" stop-color="white"/>
</linearGradient>
<linearGradient id="paint56_linear_0_27" x1="8.19516" y1="22.0631" x2="39.9969" y2="22.0631" gradientUnits="userSpaceOnUse">
<stop stop-color="#DFDFDF"/>
<stop offset="0.021" stop-color="#E1E1E1"/>
<stop offset="0.244" stop-color="#F2F2F2"/>
<stop offset="0.487" stop-color="#FCFCFC"/>
<stop offset="0.791" stop-color="white"/>
<stop offset="0.841" stop-color="#FCFCFC"/>
<stop offset="0.882" stop-color="#F2F2F2"/>
<stop offset="0.919" stop-color="#E1E1E1"/>
<stop offset="0.954" stop-color="#C9C9C9"/>
<stop offset="0.966" stop-color="#BFBFBF"/>
<stop offset="1" stop-color="white"/>
</linearGradient>
</defs>
</svg>
