<svg preserveAspectRatio="none" width="100%" height="100%" overflow="visible" style="display: block;" viewBox="0 0 20 20" fill="none" xmlns="http://www.w3.org/2000/svg">
<g id="Vector">
<path d="M19.9999 9.95265C20.0249 15.4743 15.5678 19.9704 10.0454 19.9953C4.52237 20.0203 0.0251063 15.5644 0.00010467 10.0428C-0.0248969 4.52116 4.4322 0.0250934 9.95528 9.84281e-05C15.4776 -0.0241392 19.9749 4.43103 19.9999 9.95265Z" fill="#FFE866"/>
<path d="M15.0716 6.42019C14.3458 6.21039 13.5942 5.91195 12.832 5.61123C12.7881 5.4204 12.6192 5.18254 12.2767 4.89096C11.7789 4.45921 10.844 4.47057 10.0364 4.66145C9.14466 4.45164 8.26357 4.37664 7.41805 4.57962C0.503956 6.48457 4.42391 11.1298 1.88511 15.8009C2.2465 16.5667 6.23232 20.2457 11.7736 19.8372C11.7736 19.8372 9.84699 15.2086 14.195 12.9863C17.7218 11.1844 20.2696 7.83809 15.0708 6.41941L15.0716 6.42019Z" fill="#4BCC00"/>
<path d="M10.5152 7.53389C10.5152 8.60187 9.64925 9.46686 8.58175 9.46686C7.51426 9.46686 6.64829 8.60187 6.64829 7.53389C6.64829 6.46592 7.51426 5.60171 8.58175 5.60171C9.64925 5.60171 10.5152 6.46666 10.5152 7.53389Z" fill="var(--fill-0, white)"/>
<path d="M17.4914 10.3157C15.9254 11.4193 14.1426 12.2562 11.616 12.2562C10.4333 12.2562 10.1932 10.9997 9.41129 11.6155C9.00747 11.9336 7.58468 12.6448 6.45505 12.591C5.31558 12.5365 3.49652 11.8745 2.98513 9.46514C2.78284 11.8745 2.6798 13.6499 1.77445 15.6843C3.99689 18.9265 7.87192 20.5396 11.7736 19.8381C11.3546 16.9122 13.9123 14.0468 15.3534 12.5804C15.8988 12.0252 16.9444 11.1186 17.4914 10.3157Z" fill="#4BCC00"/>
<path d="M9.39672 9.09734C10.0233 9.09734 10.5313 8.39143 10.5313 7.52065C10.5313 6.64987 10.0233 5.94396 9.39672 5.94396C8.77011 5.94396 8.26214 6.64987 8.26214 7.52065C8.26214 8.39143 8.77011 9.09734 9.39672 9.09734Z" fill="#0D1217"/>
<path d="M9.85055 4.65776C10.4695 4.90338 12.73 5.65073 13.7081 5.94408C12.7095 4.29937 11.1962 4.39428 9.85055 4.65776Z" fill="#35AF00"/>
<path d="M9.39672 7.52049L8.0352 6.61953V8.42146L9.39672 7.52049Z" fill="var(--fill-0, white)"/>
</g>
</svg>
