<svg preserveAspectRatio="none" width="100%" height="100%" overflow="visible" style="display: block;" viewBox="0 0 72 72" fill="none" xmlns="http://www.w3.org/2000/svg">
<g id="LUNC LOGO">
<path d="M71.4355 30.0358L68.5491 26.3105L52.0541 15.7066C52.1086 16.018 52.1666 16.3295 52.2349 16.6387C52.3668 17.213 52.5112 17.7839 52.6682 18.3513C52.7614 18.6968 52.8592 19.0343 52.9582 19.3651C52.99 19.4659 53.0196 19.5678 53.048 19.6697C56.3075 30.1015 62.8127 35.0569 71.5447 41.6988C72.1133 38.1536 72.1497 34.5438 71.6516 30.9873L71.4333 30.037L71.4355 30.0358Z" fill="#EE7730"/>
<path d="M39.4564 44.9886C23.7815 37.9817 13.9824 23.7601 13.411 9.44654C13.394 9.04919 13.0589 8.7404 12.6602 8.75743C12.4944 8.76424 12.3365 8.82782 12.2127 8.93794C-2.72284 22.0969 -4.15857 44.8648 9.00612 59.7937C22.1708 74.7214 44.9517 76.1564 59.8873 62.9986C64.2672 59.1409 67.6429 54.2774 69.7261 48.8269C69.8715 48.4568 69.6886 48.0391 69.3172 47.8937C69.1798 47.8404 69.0287 47.8302 68.8856 47.8642C59.0297 50.2199 48.6683 49.2073 39.4564 44.9897V44.9886Z" fill="var(--fill-0, #F9D85E)"/>
<path d="M71.6514 30.995C70.8017 29.0333 58.9833 23.9443 36.1961 15.7279C18.9921 9.52193 15.7957 3.53368 28.2517 0.823608C28.8583 0.693207 29.4705 0.577547 30.0873 0.476628C49.7653 -2.73124 68.3221 10.5923 71.5367 30.2364C71.5775 30.4893 71.6162 30.7421 71.6525 30.9961" fill="var(--fill-0, #F9D85E)"/>
</g>
</svg>
