<svg preserveAspectRatio="none" width="100%" height="100%" overflow="visible" style="display: block;" viewBox="0 0 88 88" fill="none" xmlns="http://www.w3.org/2000/svg">
<g id="Vector">
<path d="M44.144 69.3022C65.7287 69.1817 83.21 66.1211 83.1896 62.4663C83.1692 58.8114 65.6548 55.9463 44.0701 56.0669C22.4853 56.1874 5.00402 59.248 5.02443 62.9028C5.04485 66.5577 22.5593 69.4228 44.144 69.3022Z" fill="#0E3CA5"/>
<path d="M44.0396 50.6137C68.3381 50.4781 88.0193 47.4053 87.9989 43.7505C87.9784 40.0957 68.2641 37.2428 43.9657 37.3784C19.6672 37.514 -0.013988 40.5867 0.00644012 44.2416C0.0268682 47.8964 19.7412 50.7493 44.0396 50.6137Z" fill="#0E3CA5"/>
<path d="M43.9357 31.9228C65.8506 31.8004 83.5996 28.7384 83.5792 25.0835C83.5588 21.4287 65.7767 18.5651 43.8618 18.6875C21.9468 18.8099 4.19779 21.8719 4.2182 25.5268C4.23861 29.1816 22.0207 32.0452 43.9357 31.9228Z" fill="#0E3CA5"/>
<path d="M21.5525 6.15865C29.5498 10.2844 40.7439 12.8533 53.1445 12.8533C60.1339 12.8533 66.7389 12.0354 72.6071 10.5855C64.9131 3.99117 54.9255 0 43.9983 0C35.796 0 28.1233 2.25077 21.5504 6.15865H21.5525Z" fill="#0E3CA5"/>
<path d="M66.4447 81.8414C58.4474 77.7136 47.2533 75.1446 34.8527 75.1446C27.8633 75.1446 21.2583 75.9625 15.3901 77.4125C23.0842 84.0046 33.0717 87.9979 43.9989 87.9979C52.2012 87.9979 59.8739 85.7471 66.4447 81.8393V81.8414Z" fill="#0E3CA5"/>
<path d="M87.906 46.7366C87.9616 45.8312 88 44.9193 88 43.9989C87.9979 19.6996 68.2982 0 43.9988 0C43.0785 0 42.1687 0.0384382 41.2612 0.0939601C43.734 9.0223 50.0294 19.3921 59.3186 28.6792C68.6058 37.9663 78.9777 44.2616 87.9039 46.7345L87.906 46.7366Z" fill="#5493F7"/>
<path d="M43.999 87.9979C44.9194 87.9979 45.8291 87.9616 46.7367 87.906C44.2638 78.9777 37.9685 68.6079 28.6792 59.3187C19.39 50.0295 9.02232 43.7363 0.0939603 41.2634C0.0384383 42.1688 0 43.0807 0 44.0011C0 68.3004 19.6996 88 43.999 88V87.9979Z" fill="#5493F7"/>
<path d="M61.3646 65.839C64.0462 63.1151 57.3871 52.2117 46.4912 41.4856C35.5953 30.7596 24.5886 24.2726 21.9071 26.9966C19.2256 29.7206 25.8847 40.624 36.7806 51.35C47.6765 62.076 58.6831 68.563 61.3646 65.839Z" fill="#EE7730"/>
<path d="M66.1535 60.9535C68.835 58.2295 62.176 47.3262 51.2801 36.6001C40.3842 25.8741 29.3775 19.3871 26.696 22.1111C24.0145 24.835 30.6735 35.7384 41.5694 46.4645C52.4653 57.1905 63.472 63.6775 66.1535 60.9535Z" fill="var(--fill-0, #F9D85E)"/>
</g>
</svg>
