<svg preserveAspectRatio="none" width="100%" height="100%" overflow="visible" style="display: block;" viewBox="0 0 88 88" fill="none" xmlns="http://www.w3.org/2000/svg">
<g id="Vector">
<path d="M44.1256 55.7379C28.0464 55.9103 14.0347 60.3749 6.42744 66.8948C14.241 79.6887 28.3926 88.1686 44.4717 87.9962C60.5509 87.8238 74.5165 79.0439 82.0558 66.0857C74.3115 59.7302 60.2061 55.5655 44.1269 55.7379H44.1256Z" fill="#EF7730"/>
<path d="M43.8934 33.9903C60.4477 33.8125 74.811 29.0859 82.2486 22.2498C74.5938 8.81787 60.0839 -0.1752 43.5296 0.0026249C26.9754 0.179093 12.6609 9.4803 5.29532 23.0737C12.8781 29.7483 27.3392 34.1681 43.8934 33.9903Z" fill="#EF7730"/>
<path d="M50.1106 0.423433C47.9618 0.124795 45.7654 -0.0218091 43.5296 0.0026249C29.7717 0.149229 17.5586 6.5998 9.59712 16.5757C28.8812 16.0476 44.9468 9.34863 50.1106 0.423433Z" fill="#F9D85E"/>
<path d="M9.13694 17.1743C3.32021 24.723 -0.107387 34.2007 0.00256754 44.4711C0.124739 55.8248 4.53785 66.1278 11.6835 73.8571C23.4052 79.9181 34.288 80.8343 39.8428 75.1589C48.3418 66.4753 41.1527 45.6575 23.788 28.6596C19.0627 24.0348 14.0713 20.177 9.13694 17.1743Z" fill="#F9D85E"/>
<path d="M87.9974 43.5291C87.8753 32.1741 83.4621 21.8724 76.3178 14.1431C64.5961 8.08213 53.7133 7.16586 48.1572 12.8413C39.6582 21.5235 46.8459 42.3427 64.212 59.3406C68.9373 63.9654 73.9287 67.8233 78.8631 70.8259C84.6798 63.2758 88.1074 53.7981 87.9974 43.5291Z" fill="#F9D85E"/>
<path d="M37.2935 87.4831C39.6324 87.8415 42.0283 88.0234 44.4704 87.9976C58.2337 87.8496 70.4481 81.3963 78.4097 71.415C58.907 71.8073 42.5794 78.5063 37.2935 87.4831Z" fill="#F9D85E"/>
</g>
</svg>
