<svg preserveAspectRatio="none" width="100%" height="100%" overflow="visible" style="display: block;" viewBox="0 0 88 88" fill="none" xmlns="http://www.w3.org/2000/svg">
<g id="Vector">
<path d="M43.9989 87.9999C61.8363 87.9999 77.1838 77.3779 84.0899 62.1219C76.9682 54.7714 61.9047 49.6996 44.4708 49.6996C27.037 49.6996 11.0488 55.0918 4.21962 62.8159C11.273 77.7025 26.4305 87.9999 43.9967 87.9999H43.9989Z" fill="#0E3CA5"/>
<path d="M44.473 38.3003C61.9068 38.3003 76.9703 33.2306 84.0921 25.8781C77.1839 10.622 61.8363 0 43.9989 0C26.1614 0 11.2752 10.2974 4.22177 25.184C11.051 32.906 26.4988 38.3003 44.473 38.3003Z" fill="#0E3CA5"/>
<path d="M0 43.9999C0 48.162 0.589386 52.1832 1.66993 55.9994C13.5537 62.4315 24.6987 63.5804 30.4067 57.8722C39.0041 49.2768 32.0147 28.3979 14.7966 11.2413C14.7709 11.2156 14.7453 11.1921 14.7197 11.1665C5.69099 19.2238 0 30.9456 0 43.9999Z" fill="url(#paint0_linear_0_30)"/>
<path d="M57.5933 30.1278C48.9959 38.7232 55.9853 59.602 73.2034 76.7587C73.2291 76.7843 73.2547 76.8078 73.2803 76.8335C82.309 68.7762 88 57.0544 88 44C88 39.8379 87.4106 35.8168 86.3301 32.0006C74.4463 25.5685 63.3013 24.4196 57.5933 30.1278Z" fill="url(#paint1_linear_0_30)"/>
<path d="M31.6133 22.0192C39.38 29.7882 57.1769 24.8274 73.1949 11.094C65.4261 4.19627 55.2058 0 43.999 0C38.9294 0 34.0627 0.869151 29.5313 2.44729C26.9303 10.6669 27.4129 17.8187 31.6133 22.0192Z" fill="#5493F7"/>
<path d="M56.3867 65.9808C48.6201 58.2118 30.8232 63.1726 14.8051 76.906C22.5739 83.8037 32.7942 88 44.0011 88C49.0706 88 53.9373 87.1309 58.4688 85.5527C61.0698 77.331 60.5871 70.1813 56.3867 65.9787V65.9808Z" fill="#5493F7"/>
<path d="M0 43.9999C0 48.162 0.589386 52.1832 1.66993 55.9994C13.5537 62.4315 24.6987 63.5804 30.4067 57.8722C39.0041 49.2768 32.0147 28.3979 14.7966 11.2413C14.7709 11.2156 14.7453 11.1921 14.7197 11.1665C5.69099 19.2238 0 30.9456 0 43.9999Z" fill="url(#paint2_linear_0_30)"/>
<path d="M57.5933 30.1278C48.9959 38.7232 55.9853 59.602 73.2034 76.7587C73.2291 76.7843 73.2547 76.8078 73.2803 76.8335C82.309 68.7762 88 57.0544 88 44C88 39.8379 87.4106 35.8168 86.3301 32.0006C74.4463 25.5685 63.3013 24.4196 57.5933 30.1278Z" fill="url(#paint3_linear_0_30)"/>
<path d="M57.5933 30.1278C48.9959 38.7232 55.9853 59.602 73.2034 76.7587C73.2291 76.7843 73.2547 76.8078 73.2803 76.8335C82.309 68.7762 88 57.0544 88 44C88 39.8379 87.4106 35.8168 86.3301 32.0006C74.4463 25.5685 63.3013 24.4196 57.5933 30.1278Z" fill="url(#paint4_linear_0_30)"/>
<path d="M0 43.9999C0 48.162 0.589386 52.1832 1.66993 55.9994C13.5537 62.4315 24.6987 63.5804 30.4067 57.8722C39.0041 49.2768 32.0147 28.3979 14.7966 11.2413C14.7709 11.2156 14.7453 11.1921 14.7197 11.1665C5.69099 19.2238 0 30.9456 0 43.9999Z" fill="url(#paint5_linear_0_30)"/>
</g>
<defs>
<linearGradient id="paint0_linear_0_30" x1="34.084" y1="36.3634" x2="0" y2="36.3634" gradientUnits="userSpaceOnUse">
<stop stop-color="#F9D85E"/>
<stop offset="0.15" stop-color="#DECC76" stop-opacity="0.87"/>
<stop offset="0.57" stop-color="#94ADBB" stop-opacity="0.51"/>
<stop offset="0.86" stop-color="#669AE6" stop-opacity="0.29"/>
<stop offset="1" stop-color="#5493F7" stop-opacity="0.2"/>
</linearGradient>
<linearGradient id="paint1_linear_0_30" x1="53.9139" y1="51.6366" x2="87.9979" y2="51.6366" gradientUnits="userSpaceOnUse">
<stop stop-color="#F9D85E"/>
<stop offset="0.15" stop-color="#DECC76" stop-opacity="0.87"/>
<stop offset="0.57" stop-color="#94ADBB" stop-opacity="0.51"/>
<stop offset="0.86" stop-color="#669AE6" stop-opacity="0.29"/>
<stop offset="1" stop-color="#5493F7" stop-opacity="0.2"/>
</linearGradient>
<linearGradient id="paint2_linear_0_30" x1="34.084" y1="36.3634" x2="0" y2="36.3634" gradientUnits="userSpaceOnUse">
<stop stop-color="#F9D85E"/>
<stop offset="0.15" stop-color="#DECC76" stop-opacity="0.87"/>
<stop offset="0.57" stop-color="#94ADBB" stop-opacity="0.51"/>
<stop offset="0.86" stop-color="#669AE6" stop-opacity="0.29"/>
<stop offset="1" stop-color="#5493F7" stop-opacity="0.2"/>
</linearGradient>
<linearGradient id="paint3_linear_0_30" x1="53.9139" y1="51.6366" x2="87.9979" y2="51.6366" gradientUnits="userSpaceOnUse">
<stop stop-color="#F9D85E"/>
<stop offset="0.15" stop-color="#DECC76" stop-opacity="0.87"/>
<stop offset="0.57" stop-color="#94ADBB" stop-opacity="0.51"/>
<stop offset="0.86" stop-color="#669AE6" stop-opacity="0.29"/>
<stop offset="1" stop-color="#5493F7" stop-opacity="0.2"/>
</linearGradient>
<linearGradient id="paint4_linear_0_30" x1="53.9139" y1="51.6366" x2="87.9979" y2="51.6366" gradientUnits="userSpaceOnUse">
<stop stop-color="#F9D85E"/>
<stop offset="0.15" stop-color="#DECC76" stop-opacity="0.87"/>
<stop offset="0.57" stop-color="#94ADBB" stop-opacity="0.51"/>
<stop offset="0.86" stop-color="#669AE6" stop-opacity="0.29"/>
<stop offset="1" stop-color="#5493F7" stop-opacity="0.2"/>
</linearGradient>
<linearGradient id="paint5_linear_0_30" x1="34.084" y1="36.3634" x2="0" y2="36.3634" gradientUnits="userSpaceOnUse">
<stop stop-color="#F9D85E"/>
<stop offset="0.15" stop-color="#DECC76" stop-opacity="0.87"/>
<stop offset="0.57" stop-color="#94ADBB" stop-opacity="0.51"/>
<stop offset="0.86" stop-color="#669AE6" stop-opacity="0.29"/>
<stop offset="1" stop-color="#5493F7" stop-opacity="0.2"/>
</linearGradient>
</defs>
</svg>
