<svg preserveAspectRatio="none" width="100%" height="100%" overflow="visible" style="display: block;" viewBox="0 0 48 46" fill="none" xmlns="http://www.w3.org/2000/svg">
<g id="Vector">
<path d="M20.64 37.3826C21.9552 42.3405 26.6736 46.1257 29.0562 45.9673C29.1402 45.9618 38.0946 44.2609 42.9966 35.9146C46.8114 29.4197 45.5124 23.1498 40.3242 23.014C38.4576 23.1528 18.1338 27.9383 20.64 37.3826ZM39.8436 5.5377L39.8382 5.53281L39.8454 5.52853C36.5775 2.69621 32.5909 0.862238 28.3448 0.23788C24.0987 -0.386478 19.7658 0.224182 15.8454 1.99951C15.3499 2.20994 14.8673 2.45045 14.4 2.71974C14.0808 2.89277 13.761 3.06519 13.4508 3.2535L13.5264 3.27734C12.6097 3.91412 11.7993 4.69692 11.1264 5.59578C4.58942 14.3945 26.4954 20.7898 38.2074 20.8087C43.5954 24.7523 45.108 9.71358 39.8436 5.5377Z" fill="#0E3CA5"/>
<path d="M17.1654 5.71623C14.16 10.325 4.13276 13.5728 2.48396 13.0671L2.47316 13.0439C2.54036 12.9051 2.60936 12.7669 2.67896 12.6294C4.38844 9.27406 6.83446 6.36583 9.82676 4.13087C10.4436 3.66987 11.0822 3.23903 11.7426 2.83836C12.7585 2.26756 13.8964 1.95938 15.0564 1.94082C19.5204 2.02764 17.1894 5.67955 17.1654 5.71623ZM14.7 38.2893C14.916 39.7377 14.6946 45.458 14.4036 45.9404C14.1534 45.9557 13.632 45.9881 12.1236 45.1248C7.30011 42.3207 3.57849 37.901 1.59134 32.617C-0.395805 27.3329 -0.525835 21.5107 1.22336 16.14C1.30336 15.8955 1.38736 15.6509 1.47536 15.4064C3.20756 17.7517 5.20976 19.8733 6.91196 22.2418C8.53196 24.4967 10.7622 28.1724 11.2158 28.9587C14.0358 33.8353 14.4822 36.8458 14.6958 38.2893M48 23.87C48.0038 26.945 47.437 29.9929 46.3296 32.8533C43.503 35.9489 24.4434 28.329 24.2568 28.2446C21.6492 27.0829 13.7148 23.5368 12.999 17.973C11.9694 9.97038 27.9054 4.39255 34.9086 4.17856C35.7486 4.18895 38.304 4.21891 39.7938 5.45211C42.3744 7.7457 44.4422 10.5766 45.8579 13.7538C47.2735 16.931 48.004 20.3807 48 23.87ZM35.1 45.562C33.0222 46.55 30.735 45.8304 31.329 43.7687C32.469 39.8093 42.4332 35.7502 44.6334 35.5301C44.9046 35.5026 45.0198 35.6909 44.8998 35.9061C42.6069 40.0137 39.2058 43.3648 35.1 45.562Z" fill="var(--fill-0, #5493F7)"/>
</g>
</svg>
