<svg preserveAspectRatio="none" width="100%" height="100%" overflow="visible" style="display: block;" viewBox="0 0 221.245 46" fill="none" xmlns="http://www.w3.org/2000/svg">
<g id="Vector">
<path d="M71.6114 32.5277V17.2092H66V13.8791H80.8568V17.2092H75.2722V32.5277H71.6114Z" fill="#101010"/>
<path d="M87.0442 32.8474C85.726 32.8474 84.5591 32.5543 83.5437 31.9683C82.5284 31.3644 81.7267 30.5385 81.1389 29.4907C80.5688 28.4428 80.2838 27.2351 80.2838 25.8675C80.2838 24.4999 80.5777 23.2922 81.1656 22.2444C81.7713 21.1965 82.5907 20.3795 83.6239 19.7934C84.6749 19.1895 85.8774 18.8876 87.2312 18.8876C88.407 18.8876 89.4847 19.1984 90.4645 19.82C91.462 20.4239 92.2548 21.3208 92.8426 22.5108C93.4483 23.683 93.7511 25.1127 93.7511 26.7999H83.6239L83.9446 26.4802C83.9446 27.1374 84.1049 27.7146 84.4255 28.2119C84.764 28.6914 85.1915 29.0644 85.7081 29.3308C86.2426 29.5795 86.8126 29.7038 87.4183 29.7038C88.1487 29.7038 88.7454 29.5528 89.2086 29.2509C89.6717 28.9312 90.028 28.5227 90.2774 28.0254L93.4305 29.2509C93.0564 29.9968 92.5665 30.6451 91.9608 31.1957C91.373 31.7285 90.6693 32.137 89.8499 32.4211C89.0304 32.7053 88.0952 32.8474 87.0442 32.8474ZM84.1316 24.5088L83.811 24.1891H90.2507L89.9568 24.5088C89.9568 23.8694 89.8054 23.3633 89.5025 22.9903C89.1997 22.5996 88.8256 22.3154 88.3802 22.1378C87.9527 21.9602 87.5341 21.8714 87.1244 21.8714C86.7146 21.8714 86.2782 21.9602 85.815 22.1378C85.3519 22.3154 84.951 22.5996 84.6126 22.9903C84.2919 23.3633 84.1316 23.8694 84.1316 24.5088Z" fill="#101010"/>
<path d="M98.286 25.5212C98.286 24.0826 98.5621 22.8926 99.1143 21.9513C99.6844 21.01 100.406 20.3085 101.279 19.8467C102.169 19.3849 103.096 19.154 104.058 19.154V22.564C103.238 22.564 102.463 22.6617 101.733 22.8571C101.02 23.0525 100.441 23.3722 99.9961 23.8162C99.5508 24.2602 99.3281 24.8285 99.3281 25.5212H98.286ZM95.8009 32.5277V19.2073H99.3281V32.5277H95.8009Z" fill="#101010"/>
<path d="M108.411 25.5212C108.411 24.0826 108.687 22.8926 109.239 21.9513C109.809 21.01 110.531 20.3085 111.403 19.8467C112.294 19.3849 113.22 19.154 114.182 19.154V22.564C113.363 22.564 112.588 22.6617 111.858 22.8571C111.145 23.0525 110.566 23.3722 110.121 23.8162C109.675 24.2602 109.453 24.8285 109.453 25.5212H108.411ZM105.926 32.5277V19.2073H109.453V32.5277H105.926Z" fill="#101010"/>
<path d="M124.12 32.5277L124.013 29.837V25.7876C124.013 24.9884 123.924 24.3046 123.746 23.7362C123.586 23.1679 123.318 22.7328 122.944 22.4308C122.588 22.1112 122.098 21.9513 121.475 21.9513C120.905 21.9513 120.388 22.0756 119.925 22.3243C119.462 22.5729 119.07 22.9548 118.749 23.4698L115.65 22.4042C115.899 21.8359 116.264 21.2853 116.745 20.7525C117.226 20.2019 117.85 19.7579 118.616 19.4204C119.399 19.0652 120.352 18.8876 121.475 18.8876C122.829 18.8876 123.951 19.1451 124.842 19.6602C125.75 20.1753 126.418 20.9034 126.846 21.8447C127.291 22.7683 127.505 23.8694 127.487 25.1482L127.407 32.5277H124.12ZM120.379 32.8474C118.776 32.8474 117.529 32.4922 116.638 31.7818C115.765 31.0713 115.329 30.0679 115.329 28.7714C115.329 27.3505 115.801 26.2849 116.745 25.5745C117.707 24.8463 119.052 24.4822 120.78 24.4822H124.174V27.093H122.009C120.851 27.093 120.05 27.2351 119.604 27.5192C119.159 27.7856 118.936 28.1675 118.936 28.6648C118.936 29.0555 119.114 29.3663 119.471 29.5972C119.827 29.8103 120.326 29.9169 120.967 29.9169C121.555 29.9169 122.071 29.7837 122.517 29.5173C122.98 29.2331 123.345 28.8779 123.612 28.4517C123.88 28.0077 124.013 27.5548 124.013 27.093H124.868C124.868 28.9046 124.521 30.3165 123.826 31.3289C123.149 32.3412 122 32.8474 120.379 32.8474Z" fill="#101010"/>
<path d="M145.43 32.8474C143.613 32.8474 142 32.4389 140.593 31.6219C139.186 30.7872 138.081 29.6505 137.28 28.2119C136.478 26.7555 136.077 25.086 136.077 23.2034C136.077 21.3208 136.478 19.6602 137.28 18.2216C138.081 16.7652 139.177 15.6286 140.566 14.8116C141.974 13.9768 143.586 13.5595 145.403 13.5595C146.685 13.5595 147.879 13.7903 148.983 14.2521C150.088 14.6961 151.05 15.3266 151.869 16.1436C152.707 16.9428 153.348 17.8664 153.793 18.9143L150.4 20.1664C150.097 19.5092 149.696 18.9409 149.197 18.4614C148.698 17.9641 148.128 17.5822 147.487 17.3158C146.846 17.0316 146.151 16.8896 145.403 16.8896C144.316 16.8896 143.345 17.1648 142.49 17.7154C141.653 18.2482 140.994 18.9853 140.513 19.9266C140.05 20.8679 139.818 21.9602 139.818 23.2034C139.818 24.4467 140.059 25.5478 140.54 26.5069C141.021 27.4482 141.689 28.1941 142.544 28.7447C143.399 29.2775 144.379 29.5439 145.483 29.5439C146.249 29.5439 146.944 29.4019 147.567 29.1177C148.209 28.8158 148.77 28.4073 149.251 27.8922C149.749 27.3772 150.15 26.7822 150.453 26.1073L153.847 27.3328C153.401 28.4161 152.76 29.3752 151.923 30.21C151.103 31.0447 150.141 31.693 149.037 32.1547C147.932 32.6165 146.73 32.8474 145.43 32.8474Z" fill="#101010"/>
<path d="M156.027 32.5277V13.8791H159.555V32.5277H156.027Z" fill="#101010"/>
<path d="M170.673 32.5277L170.566 29.837V25.7876C170.566 24.9884 170.477 24.3046 170.299 23.7362C170.139 23.1679 169.871 22.7328 169.497 22.4308C169.141 22.1112 168.651 21.9513 168.028 21.9513C167.458 21.9513 166.941 22.0756 166.478 22.3243C166.015 22.5729 165.623 22.9548 165.302 23.4698L162.202 22.4042C162.452 21.8359 162.817 21.2853 163.298 20.7525C163.779 20.2019 164.402 19.7579 165.168 19.4204C165.952 19.0652 166.905 18.8876 168.028 18.8876C169.381 18.8876 170.504 19.1451 171.394 19.6602C172.303 20.1753 172.971 20.9034 173.398 21.8447C173.844 22.7683 174.058 23.8694 174.04 25.1482L173.96 32.5277H170.673ZM166.932 32.8474C165.329 32.8474 164.082 32.4922 163.191 31.7818C162.318 31.0713 161.882 30.0679 161.882 28.7714C161.882 27.3505 162.354 26.2849 163.298 25.5745C164.26 24.8463 165.605 24.4822 167.333 24.4822H170.726V27.093H168.562C167.404 27.093 166.602 27.2351 166.157 27.5192C165.712 27.7856 165.489 28.1675 165.489 28.6648C165.489 29.0555 165.667 29.3663 166.024 29.5972C166.38 29.8103 166.879 29.9169 167.52 29.9169C168.108 29.9169 168.624 29.7837 169.07 29.5173C169.533 29.2331 169.898 28.8779 170.165 28.4517C170.432 28.0077 170.566 27.5548 170.566 27.093H171.421C171.421 28.9046 171.074 30.3165 170.379 31.3289C169.702 32.3412 168.553 32.8474 166.932 32.8474Z" fill="#101010"/>
<path d="M181.848 32.8474C180.993 32.8474 180.191 32.7231 179.443 32.4744C178.695 32.208 178.036 31.835 177.466 31.3555C176.895 30.8582 176.45 30.2544 176.129 29.5439L179.149 28.1586C179.416 28.5849 179.781 28.9578 180.244 29.2775C180.708 29.5795 181.242 29.7304 181.848 29.7304C182.436 29.7304 182.89 29.6505 183.211 29.4907C183.531 29.3131 183.691 29.0644 183.691 28.7447C183.691 28.425 183.558 28.1941 183.291 28.0521C183.041 27.8922 182.694 27.759 182.249 27.6524L181.019 27.3328C179.737 26.9953 178.721 26.4625 177.973 25.7343C177.243 24.9884 176.878 24.1359 176.878 23.1768C176.878 21.8092 177.314 20.7525 178.187 20.0065C179.078 19.2606 180.334 18.8876 181.955 18.8876C182.792 18.8876 183.567 19.0119 184.279 19.2606C185.01 19.5092 185.633 19.8556 186.15 20.2996C186.666 20.7436 187.023 21.2586 187.219 21.8447L184.306 23.1768C184.181 22.8216 183.879 22.5374 183.398 22.3243C182.917 22.0934 182.436 21.9779 181.955 21.9779C181.474 21.9779 181.1 22.0845 180.832 22.2976C180.583 22.493 180.458 22.7683 180.458 23.1235C180.458 23.3544 180.583 23.5498 180.832 23.7096C181.082 23.8517 181.438 23.976 181.901 24.0826L183.638 24.5088C184.511 24.722 185.206 25.0683 185.722 25.5478C186.257 26.0096 186.64 26.5335 186.871 27.1196C187.121 27.688 187.245 28.2474 187.245 28.798C187.245 29.5972 187.005 30.3076 186.524 30.9293C186.061 31.5331 185.419 32.0038 184.6 32.3412C183.798 32.6787 182.881 32.8474 181.848 32.8474Z" fill="#101010"/>
<path d="M194.269 32.8474C193.414 32.8474 192.612 32.7231 191.864 32.4744C191.116 32.208 190.457 31.835 189.887 31.3555C189.317 30.8582 188.871 30.2544 188.551 29.5439L191.57 28.1586C191.837 28.5849 192.202 28.9578 192.666 29.2775C193.129 29.5795 193.663 29.7304 194.269 29.7304C194.857 29.7304 195.311 29.6505 195.632 29.4907C195.952 29.3131 196.113 29.0644 196.113 28.7447C196.113 28.425 195.979 28.1941 195.712 28.0521C195.462 27.8922 195.115 27.759 194.67 27.6524L193.44 27.3328C192.158 26.9953 191.142 26.4625 190.394 25.7343C189.664 24.9884 189.299 24.1359 189.299 23.1768C189.299 21.8092 189.735 20.7525 190.608 20.0065C191.499 19.2606 192.755 18.8876 194.376 18.8876C195.213 18.8876 195.988 19.0119 196.7 19.2606C197.431 19.5092 198.054 19.8556 198.571 20.2996C199.087 20.7436 199.444 21.2586 199.64 21.8447L196.727 23.1768C196.602 22.8216 196.3 22.5374 195.819 22.3243C195.338 22.0934 194.857 21.9779 194.376 21.9779C193.895 21.9779 193.521 22.0845 193.253 22.2976C193.004 22.493 192.879 22.7683 192.879 23.1235C192.879 23.3544 193.004 23.5498 193.253 23.7096C193.503 23.8517 193.859 23.976 194.322 24.0826L196.059 24.5088C196.932 24.722 197.627 25.0683 198.143 25.5478C198.678 26.0096 199.061 26.5335 199.292 27.1196C199.542 27.688 199.666 28.2474 199.666 28.798C199.666 29.5972 199.426 30.3076 198.945 30.9293C198.482 31.5331 197.84 32.0038 197.021 32.3412C196.219 32.6787 195.302 32.8474 194.269 32.8474Z" fill="#101010"/>
<path d="M201.933 32.5277V19.2073H205.46V32.5277H201.933ZM203.696 17.0494C203.162 17.0494 202.69 16.854 202.28 16.4633C201.871 16.0548 201.666 15.5753 201.666 15.0247C201.666 14.4741 201.871 14.0035 202.28 13.6127C202.69 13.2042 203.162 13 203.696 13C204.249 13 204.721 13.2042 205.113 13.6127C205.522 14.0035 205.727 14.4741 205.727 15.0247C205.727 15.5753 205.522 16.0548 205.113 16.4633C204.721 16.854 204.249 17.0494 203.696 17.0494Z" fill="#101010"/>
<path d="M215.152 32.8474C213.763 32.8474 212.525 32.5543 211.438 31.9683C210.351 31.3644 209.505 30.5385 208.9 29.4907C208.294 28.425 207.991 27.2173 207.991 25.8675C207.991 24.4999 208.294 23.2922 208.9 22.2444C209.505 21.1965 210.342 20.3795 211.411 19.7934C212.48 19.1895 213.709 18.8876 215.099 18.8876C216.435 18.8876 217.655 19.2162 218.76 19.8733C219.864 20.5305 220.666 21.4807 221.164 22.7239L217.851 23.8961C217.602 23.381 217.21 22.9725 216.675 22.6706C216.159 22.3509 215.58 22.1911 214.938 22.1911C214.279 22.1911 213.7 22.3509 213.202 22.6706C212.703 22.9725 212.311 23.3988 212.026 23.9494C211.741 24.4999 211.598 25.1393 211.598 25.8675C211.598 26.5957 211.741 27.2351 212.026 27.7856C212.311 28.3185 212.712 28.7447 213.228 29.0644C213.745 29.3841 214.333 29.5439 214.992 29.5439C215.633 29.5439 216.212 29.3752 216.729 29.0378C217.263 28.7003 217.655 28.2563 217.904 27.7057L221.245 28.8779C220.728 30.1389 219.917 31.1157 218.813 31.8084C217.726 32.5011 216.506 32.8474 215.152 32.8474Z" fill="#101010"/>
<path d="M20.64 37.3826C21.9552 42.3405 26.6736 46.1257 29.0562 45.9673C29.1402 45.9618 38.0946 44.2609 42.9966 35.9146C46.8114 29.4197 45.5124 23.1498 40.3242 23.014C38.4576 23.1528 18.1338 27.9383 20.64 37.3826ZM39.8436 5.5377L39.8382 5.53281L39.8454 5.52853C36.5775 2.69621 32.5909 0.862238 28.3448 0.23788C24.0987 -0.386478 19.7658 0.224182 15.8454 1.99951C15.3499 2.20994 14.8673 2.45045 14.4 2.71974C14.0808 2.89277 13.761 3.06519 13.4508 3.2535L13.5264 3.27734C12.6097 3.91412 11.7993 4.69692 11.1264 5.59578C4.58942 14.3945 26.4954 20.7898 38.2074 20.8087C43.5954 24.7523 45.108 9.71358 39.8436 5.5377Z" fill="#0E3CA5"/>
<path d="M17.1654 5.71623C14.16 10.325 4.13276 13.5728 2.48396 13.0671L2.47316 13.0439C2.54036 12.9051 2.60936 12.7669 2.67896 12.6294C4.38844 9.27406 6.83446 6.36583 9.82676 4.13087C10.4436 3.66987 11.0822 3.23903 11.7426 2.83836C12.7585 2.26756 13.8964 1.95938 15.0564 1.94082C19.5204 2.02764 17.1894 5.67955 17.1654 5.71623ZM14.7 38.2893C14.916 39.7377 14.6946 45.458 14.4036 45.9404C14.1534 45.9557 13.632 45.9881 12.1236 45.1248C7.30011 42.3207 3.57849 37.901 1.59134 32.617C-0.395805 27.3329 -0.525835 21.5107 1.22336 16.14C1.30336 15.8955 1.38736 15.6509 1.47536 15.4064C3.20756 17.7517 5.20976 19.8733 6.91196 22.2418C8.53196 24.4967 10.7622 28.1724 11.2158 28.9587C14.0358 33.8353 14.4822 36.8458 14.6958 38.2893M48 23.87C48.0038 26.945 47.437 29.9929 46.3296 32.8533C43.503 35.9489 24.4434 28.329 24.2568 28.2446C21.6492 27.0829 13.7148 23.5368 12.999 17.973C11.9694 9.97038 27.9054 4.39255 34.9086 4.17856C35.7486 4.18895 38.304 4.21891 39.7938 5.45211C42.3744 7.7457 44.4422 10.5766 45.8579 13.7538C47.2735 16.931 48.004 20.3807 48 23.87ZM35.1 45.562C33.0222 46.55 30.735 45.8304 31.329 43.7687C32.469 39.8093 42.4332 35.7502 44.6334 35.5301C44.9046 35.5026 45.0198 35.6909 44.8998 35.9061C42.6069 40.0137 39.2058 43.3648 35.1 45.562Z" fill="var(--fill-0, #5493F7)"/>
</g>
</svg>
