<svg preserveAspectRatio="none" width="100%" height="100%" overflow="visible" style="display: block;" viewBox="0 0 80 48" fill="none" xmlns="http://www.w3.org/2000/svg">
<g id="logo and collapse">
<g id="Vector">
<path d="M20.64 38.3826C21.9552 43.3405 26.6736 47.1257 29.0562 46.9673C29.1402 46.9618 38.0946 45.2609 42.9966 36.9146C46.8114 30.4197 45.5124 24.1498 40.3242 24.014C38.4576 24.1528 18.1338 28.9383 20.64 38.3826ZM39.8436 6.5377L39.8382 6.53281L39.8454 6.52853C36.5775 3.69621 32.5909 1.86224 28.3448 1.23788C24.0987 0.613522 19.7658 1.22418 15.8454 2.99951C15.3499 3.20994 14.8673 3.45045 14.4 3.71974C14.0808 3.89277 13.761 4.06519 13.4508 4.2535L13.5264 4.27734C12.6097 4.91412 11.7993 5.69692 11.1264 6.59578C4.58942 15.3945 26.4954 21.7898 38.2074 21.8087C43.5954 25.7523 45.108 10.7136 39.8436 6.5377Z" fill="#0E3CA5"/>
<path d="M17.1654 6.71623C14.16 11.325 4.13276 14.5728 2.48396 14.0671L2.47316 14.0439C2.54036 13.9051 2.60936 13.7669 2.67896 13.6294C4.38844 10.2741 6.83446 7.36583 9.82676 5.13087C10.4436 4.66987 11.0822 4.23903 11.7426 3.83836C12.7585 3.26756 13.8964 2.95938 15.0564 2.94082C19.5204 3.02764 17.1894 6.67955 17.1654 6.71623ZM14.7 39.2893C14.916 40.7377 14.6946 46.458 14.4036 46.9404C14.1534 46.9557 13.632 46.9881 12.1236 46.1248C7.30011 43.3207 3.57849 38.901 1.59134 33.617C-0.395805 28.3329 -0.525835 22.5107 1.22336 17.14C1.30336 16.8955 1.38736 16.6509 1.47536 16.4064C3.20756 18.7517 5.20976 20.8733 6.91196 23.2418C8.53196 25.4967 10.7622 29.1724 11.2158 29.9587C14.0358 34.8353 14.4822 37.8458 14.6958 39.2893M48 24.87C48.0038 27.945 47.437 30.9929 46.3296 33.8533C43.503 36.9489 24.4434 29.329 24.2568 29.2446C21.6492 28.0829 13.7148 24.5368 12.999 18.973C11.9694 10.9704 27.9054 5.39255 34.9086 5.17856C35.7486 5.18895 38.304 5.21891 39.7938 6.45211C42.3744 8.7457 44.4422 11.5766 45.8579 14.7538C47.2735 17.931 48.004 21.3807 48 24.87ZM35.1 46.562C33.0222 47.55 30.735 46.8304 31.329 44.7687C32.469 40.8093 42.4332 36.7502 44.6334 36.5301C44.9046 36.5026 45.0198 36.6909 44.8998 36.9061C42.6069 41.0137 39.2058 44.3648 35.1 46.562Z" fill="var(--fill-0, #5493F7)"/>
</g>
<g id="collaps left pannel">
<circle id="Ellipse 7" cx="76" cy="10" r="2" fill="var(--fill-0, #A9A9A9)"/>
<circle id="Ellipse 13" cx="76" cy="38" r="2" fill="var(--fill-0, #A9A9A9)"/>
<circle id="Ellipse 11" cx="76" cy="24" r="4" fill="var(--fill-0, #A9A9A9)"/>
</g>
</g>
</svg>
