<svg preserveAspectRatio="none" width="100%" height="100%" overflow="visible" style="display: block;" viewBox="0 0 103.57 21.0753" fill="none" xmlns="http://www.w3.org/2000/svg">
<path id="path161" d="M4.70412 10.5376L2.35104 12.9178L0 10.5376L2.35104 8.1575L4.70412 10.5376ZM10.4088 4.7582L14.4378 8.83901L16.7888 6.45888L10.4088 0L4.0289 6.45888L6.37994 8.83901L10.4088 4.7582ZM18.4687 8.1575L16.1176 10.5376L18.4687 12.9178L20.8177 10.5376L18.4687 8.1575ZM10.4088 16.3171L6.37994 12.2383L4.0289 14.6164L10.4088 21.0753L16.7888 14.6164L14.4378 12.2383L10.4088 16.3171ZM10.4088 12.9178L12.7599 10.5376L10.4088 8.1575L8.05781 10.5376L10.4088 12.9178ZM35.2209 13.1463V13.1134C35.2209 11.5609 34.4074 10.7847 33.0834 10.2741C33.8969 9.81083 34.5843 9.08402 34.5843 7.78072V7.74778C34.5843 5.93179 33.1485 4.7582 30.8157 4.7582H25.5198V16.3171H30.9499C33.5267 16.3171 35.2249 15.2608 35.2249 13.1463H35.2209ZM32.0889 8.20486C32.0889 9.06344 31.3872 9.42787 30.2788 9.42787H27.9664V6.98803H30.4456C31.5052 6.98803 32.0929 7.41629 32.0929 8.17603L32.0889 8.20486ZM32.7254 12.8292C32.7254 13.6878 32.0563 14.0831 30.9459 14.0831H27.9664V11.5445H30.8686C32.158 11.5445 32.7295 12.0242 32.7295 12.8004L32.7254 12.8292ZM40.4985 16.3171V4.7582H37.9787V16.3171H40.4985ZM54.0007 16.3171V4.7582H51.5134V11.8759L46.1646 4.7582H43.8481V16.3171H46.3273V8.96873L51.8551 16.3171H54.0007ZM67.9138 16.3171L63.0124 4.67584H60.6959L55.8047 16.3171H58.3652L59.4126 13.7249H64.2408L65.2841 16.3171H67.9138ZM63.3479 11.4786H60.3054L61.8226 7.7313L63.3479 11.4786ZM79.8866 16.3171V4.7582H77.3993V11.8759L72.0484 4.7582H69.734V16.3171H72.2111V8.96873L77.7409 16.3171H79.8866ZM92.8519 14.4517L91.2554 12.8169C90.3585 13.6404 89.5592 14.1696 88.2535 14.1696C86.297 14.1696 84.9425 12.5224 84.9425 10.5376V10.5047C84.9425 8.52399 86.3296 6.90567 88.2535 6.90567C89.3945 6.90567 90.2873 7.39982 91.174 8.20898L92.7665 6.34358C91.7069 5.28735 90.4195 4.56054 88.2657 4.56054C84.7595 4.56054 82.3129 7.25157 82.3129 10.5315V10.5644C82.3129 13.8834 84.8083 16.5085 88.1681 16.5085C90.3666 16.5147 91.6703 15.722 92.8437 14.4517H92.8519ZM103.57 16.3171V14.0522H97.3628V11.6206H102.746V9.3558H97.3628V7.02097H103.48V4.75614H94.8673V16.315L103.57 16.3171Z" fill="var(--fill-0, #222222)"/>
</svg>
