<svg width="128" height="128" viewBox="0 0 128 128" fill="none" xmlns="http://www.w3.org/2000/svg">
<path d="M52.8899 82.2693C52.8899 97.6669 74.5993 110.509 103.524 113.576C118.422 101.841 127.979 83.6749 127.979 63.23C127.979 58.9068 127.553 54.69 126.723 50.6224C123.509 50.3668 120.21 50.239 116.869 50.239C81.5165 50.239 52.8686 64.5717 52.8686 82.248L52.8899 82.2693Z" fill="#0E3CA5"/>
<path d="M93.712 47.4917C104.928 47.4917 115.464 46.0436 124.616 43.5092C116.06 18.2087 92.1583 0 64 0C51.9109 0 40.6092 3.36489 30.9465 9.20019C30.1377 11.2234 29.712 13.3318 29.712 15.4827C29.712 33.159 58.3598 47.4917 93.712 47.4917Z" fill="#0E3CA5"/>
<path d="M36.9485 47.0019C36.9485 64.6782 65.5963 79.0109 100.948 79.0109C110.164 79.0109 118.912 78.0313 126.808 76.2849C127.574 72.3237 128 68.2348 128 64.0393C128 44.3824 119.146 26.8126 105.205 15.0568C103.8 15.0142 102.374 14.9716 100.948 14.9716C65.5963 14.9716 36.9485 29.3043 36.9485 46.9806V47.0019Z" fill="#5493F7"/>
<path d="M41.9501 124.16C49.293 109.912 38.8427 82.9721 16.3033 60.4189C11.6635 55.7762 6.85334 51.6659 2.00067 48.088C0.702361 53.178 0 58.5234 0 64.018C0 91.6399 17.4739 115.151 41.9501 124.16Z" fill="#5493F7"/>
<path d="M5.40605 38.2915C29.5417 33.7127 46.6964 22.0421 46.6964 8.34832C46.6964 6.41032 46.3346 4.51491 45.6748 2.66209C27.6049 8.07146 12.8979 21.2328 5.40605 38.2915Z" fill="#5493F7"/>
<path d="M85.007 122.797C85.007 123.116 85.0283 123.415 85.0496 123.734C99.9907 118.516 112.42 107.932 119.976 94.2807C99.2245 99.5836 84.9857 110.36 84.9857 122.818L85.007 122.797Z" fill="#5493F7"/>
</svg>
