<svg width="128" height="125" viewBox="0 0 128 125" fill="none" xmlns="http://www.w3.org/2000/svg">
<g clip-path="url(#clip0_2027_1113)">
<path d="M48.999 76.5068C48.999 90.8186 69.1155 102.769 95.9231 105.628C109.72 94.7231 118.592 77.816 118.592 58.8164C118.592 54.7992 118.189 50.8802 117.435 47.0855C114.457 46.8543 111.403 46.7329 108.295 46.7329C75.5476 46.7329 48.999 60.0621 48.999 76.5068Z" fill="#0E3CA5"/>
<path d="M86.8234 44.1637C97.2126 44.1637 106.972 42.8198 115.461 40.4615C107.539 16.9389 85.396 0 59.2964 0C48.0899 0 37.6144 3.1242 28.6756 8.54893C27.9274 10.4391 27.5273 12.3899 27.5273 14.3898C27.5273 30.8345 54.0759 44.1637 86.8234 44.1637Z" fill="#0E3CA5"/>
<path d="M34.2324 43.7043C34.2324 60.149 60.781 73.4782 93.5285 73.4782C102.061 73.4782 110.166 72.5649 117.496 70.9378C118.206 67.25 118.592 63.4466 118.592 59.5479C118.592 41.2708 110.384 24.9273 97.4799 14.0027C96.1733 13.9593 94.8581 13.9304 93.5285 13.9304C60.781 13.9304 34.2324 27.2596 34.2324 43.7043Z" fill="#5493F7"/>
<path d="M5.00195 35.6089C27.3661 31.346 43.2693 20.4936 43.2693 7.76851C43.2693 5.96508 42.9326 4.205 42.3196 2.48828C25.5789 7.50551 11.9492 19.7422 5.00195 35.6089Z" fill="#5493F7"/>
<path d="M78.7646 114.188C78.7646 114.477 78.7905 114.763 78.8078 115.052C92.6562 110.206 104.162 100.359 111.178 87.6541C91.9454 92.5759 78.7646 102.607 78.7646 114.188Z" fill="#5493F7"/>
<path d="M38.8717 115.468C45.6779 102.226 35.9995 77.163 15.1089 56.1866C10.8151 51.8775 6.35151 48.0423 1.85336 44.7302C0.644648 49.47 0 54.4352 0 59.5507C0 85.2293 16.1853 107.11 38.8717 115.471V115.468Z" fill="#5493F7"/>
<path d="M25.9764 120.515C25.8238 122.783 27.5103 124.757 29.7694 124.951C79.7498 125.295 127.998 122.989 127.998 115.469C127.998 92.7033 25.9764 120.515 25.9764 120.515Z" fill="url(#paint0_linear_2027_1113)"/>
<path d="M25.9763 120.515C25.8238 122.792 27.5217 124.769 29.7866 124.951C79.7555 125.333 127.937 123.755 127.998 115.469C127.998 92.7033 25.9763 120.515 25.9763 120.515ZM29.7895 124.659C29.6571 124.659 29.5219 124.65 29.3895 124.636C27.8326 124.416 26.5577 123.281 26.1547 121.755C26.5951 123.416 28.0714 124.59 29.7838 124.633C79.7181 124.318 127.215 108.879 127.215 115.677C127.215 122.474 79.721 125 29.7895 124.656V124.659Z" fill="url(#paint1_linear_2027_1113)"/>
<path d="M29.7927 56.0422C27.6861 56.0422 25.9795 57.756 25.9795 59.8716V120.512C25.9795 122.622 27.6717 124.335 29.7726 124.347C79.75 123.971 128.061 107.359 128.001 115.469V47.1638C128.061 39.0541 79.7673 55.6665 29.7956 56.0393L29.7927 56.0422Z" fill="url(#paint2_linear_2027_1113)"/>
<path d="M37.1602 97.8966C38.9387 97.8272 40.6827 97.7521 42.395 97.6538C44.1074 97.5584 45.7852 97.4486 47.4342 97.3272C49.0833 97.2058 50.7006 97.0642 52.295 96.9197C53.8893 96.7752 55.4635 96.6249 57.0176 96.4689C58.5717 96.3128 60.1027 96.151 61.6165 95.9776C64.6009 95.6365 67.5795 95.2666 70.5581 94.8706C72.0316 94.6741 73.4878 94.4718 74.9526 94.2579C76.4175 94.0441 77.8593 93.8157 79.3184 93.5903C80.7775 93.3649 82.2481 93.1366 83.7129 92.9025C85.1778 92.6684 86.657 92.4314 88.1391 92.1828C89.6212 91.9343 91.1091 91.6713 92.6171 91.4112C94.1252 91.1511 95.6562 90.891 97.1987 90.6193C98.7413 90.3476 100.31 90.0788 101.895 89.8014C103.481 89.5239 105.087 89.2349 106.725 88.9575C108.362 88.68 110.028 88.4084 111.726 88.1511C113.424 87.891 114.981 87.6598 117.099 87.3939C119.407 87.0645 121.739 86.9402 124.067 87.0211C126.257 87.1685 127.989 87.7292 127.989 89.2638V84.0067C127.989 82.4923 126.326 81.949 124.288 81.7813C122.113 81.6715 119.934 81.7611 117.776 82.0559C115.741 82.29 114.276 82.5125 112.748 82.7409C111.22 82.9692 109.723 83.2062 108.256 83.4461C106.788 83.6859 105.34 83.9374 103.904 84.1859C102.468 84.4345 101.038 84.6917 99.5989 84.946C98.1599 85.2003 96.7095 85.4518 95.236 85.7032L90.7321 86.4807C89.1982 86.7466 87.6384 87.0124 86.0095 87.2783C84.3806 87.5442 82.6827 87.8101 80.9185 88.0818C79.1544 88.3534 77.324 88.6453 75.4131 88.9315V83.6773C77.324 83.394 79.1572 83.1021 80.9185 82.8276C82.6798 82.5559 84.3777 82.2871 86.0095 82.0241C87.6413 81.7611 89.2039 81.4923 90.7321 81.2236C92.2603 80.9577 93.7654 80.7004 95.2389 80.4461L99.6018 79.6889L103.907 78.9288C105.343 78.6745 106.788 78.4375 108.258 78.1889C109.729 77.9375 111.217 77.7121 112.751 77.4838C114.282 77.2554 115.747 77.03 117.779 76.7988C119.937 76.5069 122.116 76.4144 124.291 76.5213C126.332 76.6861 127.995 77.2352 127.995 78.7467V73.4983C127.995 71.9868 126.332 71.4405 124.294 71.2729C122.118 71.166 119.94 71.2585 117.781 71.5504C115.747 71.7845 114.285 72.007 112.754 72.2353C111.223 72.4636 109.729 72.7006 108.261 72.9405C106.794 73.1833 105.346 73.4318 103.91 73.6804C102.474 73.9289 101.044 74.1919 99.6047 74.4434L95.2418 75.2006C93.7683 75.4549 92.2718 75.7121 90.7379 75.978C89.204 76.2439 87.6441 76.5098 86.0152 76.7757C84.3864 77.0387 82.6884 77.3075 80.9243 77.582C79.1601 77.8537 77.3298 78.1456 75.4217 78.4288V73.1746C77.3298 72.8914 79.1659 72.6024 80.9271 72.3249C82.6884 72.0475 84.3864 71.7845 86.0181 71.5215C87.6499 71.2585 89.2097 70.9897 90.7407 70.7238L95.2475 69.9464C96.7124 69.692 98.1686 69.4406 99.6104 69.1892L103.916 68.4291C106.857 67.9088 109.804 67.4262 112.757 66.9811C114.288 66.7557 115.753 66.5274 117.784 66.2933C119.943 66.0014 122.121 65.9118 124.297 66.0187C126.337 66.1834 127.998 66.7326 127.998 68.2441V62.9841C127.998 61.4726 126.335 60.9292 124.297 60.7616C122.121 60.6518 119.943 60.7443 117.784 61.0362C115.75 61.2703 114.288 61.4928 112.757 61.7211C111.226 61.9494 109.732 62.1864 108.264 62.4263C106.797 62.6662 105.349 62.9176 103.913 63.1662L99.6075 63.9292L95.2447 64.6864C93.7712 64.9407 92.2747 65.195 90.7407 65.4638C89.2068 65.7326 87.647 65.9956 86.0181 66.2615C84.3892 66.5274 82.6884 66.7933 80.9243 67.0678C79.1601 67.3424 77.3298 67.6314 75.4217 67.9175V62.6633C77.3298 62.3801 79.1572 62.0882 80.9243 61.8136C82.6913 61.539 84.3892 61.2731 86.021 61.0073C87.6528 60.7414 89.2068 60.4755 90.7436 60.2096L95.2504 59.4322C96.7153 59.1778 98.1715 58.9293 99.6133 58.6749C101.052 58.4206 102.48 58.1663 103.919 57.9148C105.358 57.6634 106.799 57.412 108.27 57.1721C109.741 56.9322 111.228 56.6952 112.759 56.4669C114.291 56.2386 115.755 56.016 117.79 55.7819C119.948 55.49 122.127 55.3976 124.303 55.5045C126.343 55.6692 128.007 56.2184 128.007 57.7299V52.4757C128.007 50.9641 126.343 50.4179 124.306 50.2503C122.13 50.1433 119.951 50.2358 117.793 50.5277C115.758 50.7618 114.296 50.9844 112.765 51.2127C111.234 51.441 109.741 51.678 108.273 51.9179C106.805 52.1606 105.358 52.4092 103.921 52.6577C102.485 52.9063 101.055 53.1693 99.6162 53.4207C98.1772 53.6722 96.7268 53.9236 95.2533 54.175L90.7465 54.9554C87.4801 55.5218 84.2079 56.0565 80.93 56.5565C79.163 56.8311 77.3355 57.1201 75.4275 57.4062V52.0768C60.3243 54.4496 45.0772 55.7733 29.7956 56.0392C27.689 56.0392 25.9824 57.753 25.9824 59.8686V98.1278C27.9365 98.1278 29.8388 98.1047 31.7008 98.0613C33.5628 98.0209 35.3874 97.9573 37.1688 97.8908L37.1602 97.8966Z" fill="url(#paint3_linear_2027_1113)"/>
<path d="M37.1514 108.405C38.9328 108.336 40.6768 108.258 42.3892 108.162C44.1015 108.067 45.7793 107.954 47.437 107.836C49.0918 107.717 50.7005 107.578 52.2978 107.431C53.895 107.284 55.4663 107.139 57.0204 106.98C58.5744 106.821 60.1141 106.662 61.6193 106.489C64.6007 106.148 67.5822 105.778 70.558 105.385C72.0286 105.188 73.4877 104.983 74.9525 104.769C76.4174 104.555 77.8621 104.327 79.3212 104.099C80.7803 103.87 82.2509 103.648 83.7157 103.417C85.1806 103.186 86.6627 102.943 88.1448 102.697C89.6269 102.451 91.1148 102.188 92.6257 101.925L97.2073 101.134C98.7527 100.865 100.318 100.596 101.904 100.316C103.49 100.035 105.098 99.7492 106.736 99.4717C108.373 99.1943 110.04 98.9226 111.738 98.6654C113.436 98.4053 114.984 98.1741 117.111 97.9082C119.419 97.5758 121.75 97.4515 124.078 97.5325C126.268 97.6828 128.001 98.2434 128.001 99.7752V94.5152C128.001 92.9834 126.268 92.4199 124.078 92.2725C121.75 92.1915 119.416 92.3158 117.108 92.6453C114.981 92.9083 113.433 93.1482 111.735 93.4054C110.04 93.6626 108.371 93.9343 106.733 94.2117C105.096 94.4892 103.49 94.7724 101.904 95.0556C100.318 95.3389 98.7527 95.6077 97.2073 95.8735C95.6618 96.1394 94.1366 96.4024 92.6257 96.6654C91.1176 96.9284 89.6269 97.1885 88.1477 97.4371C86.6684 97.6856 85.1892 97.9284 83.7186 98.1567L79.324 98.8446C77.8592 99.0729 76.4145 99.2983 74.9554 99.5122C73.4992 99.7261 72.0343 99.9313 70.5609 100.128C69.0874 100.324 67.6081 100.515 66.1203 100.697C64.6324 100.882 63.1388 101.064 61.625 101.232C60.1112 101.399 58.5802 101.558 57.0261 101.723C55.4721 101.888 53.9007 102.027 52.3035 102.174C50.7063 102.321 49.0889 102.457 47.4428 102.581C45.7966 102.703 44.113 102.816 42.3949 102.908C40.6768 103.001 38.9386 103.081 37.1572 103.151C35.3758 103.22 33.5569 103.278 31.6921 103.316C29.8272 103.353 27.9278 103.385 25.9766 103.385V108.639C29.7034 108.628 33.4303 108.552 37.1572 108.414L37.1514 108.405Z" fill="url(#paint4_linear_2027_1113)"/>
<path d="M124.072 102.778C121.744 102.697 119.41 102.821 117.105 103.151C114.978 103.414 113.43 103.651 111.732 103.911C110.037 104.171 108.367 104.44 106.73 104.717C105.092 104.995 103.475 105.281 101.895 105.561C100.315 105.842 98.7438 106.116 97.1984 106.379L92.6168 107.171C91.1088 107.431 89.618 107.697 88.1359 107.943C86.6538 108.188 85.1774 108.434 83.7068 108.662C82.2362 108.891 80.7771 109.125 79.3123 109.347C77.8474 109.573 76.4027 109.801 74.9436 110.015C73.4845 110.229 72.0139 110.437 70.5491 110.631C67.5734 111.024 64.5947 111.393 61.6104 111.735C60.0966 111.905 58.5656 112.061 57.0115 112.226C55.4574 112.391 53.8861 112.532 52.2889 112.677C50.6916 112.821 49.0743 112.96 47.4281 113.081C45.782 113.203 44.0984 113.313 42.3803 113.408C36.9123 113.708 31.4385 113.867 25.9619 113.882V119.148C27.916 119.148 29.8212 119.125 31.6774 119.081C33.5336 119.038 35.3554 118.983 37.1425 118.916C38.9239 118.847 40.6679 118.769 42.3803 118.674C44.0926 118.578 45.7704 118.466 47.4281 118.347C49.0829 118.229 50.6945 118.084 52.2889 117.942C53.8832 117.801 55.4546 117.651 57.0115 117.492C58.5656 117.336 60.1052 117.174 61.6104 117C63.1155 116.827 64.6206 116.651 66.1085 116.463C67.5964 116.278 69.0756 116.093 70.5462 115.893C72.0168 115.697 73.4759 115.492 74.9408 115.278C76.4056 115.064 77.8503 114.833 79.3094 114.61C80.7685 114.388 82.2391 114.156 83.7039 113.922C85.1688 113.691 86.648 113.451 88.133 113.203C89.618 112.954 91.1088 112.694 92.6168 112.431L97.1984 111.642L101.892 110.824C103.478 110.544 105.087 110.258 106.727 109.98C108.367 109.703 110.031 109.431 111.729 109.174C113.427 108.914 114.984 108.683 117.102 108.417C119.41 108.087 121.741 107.963 124.069 108.044C126.259 108.188 127.992 108.749 127.992 110.284V105.015C127.992 103.48 126.259 102.925 124.069 102.772L124.072 102.778Z" fill="url(#paint5_linear_2027_1113)"/>
<path d="M36.8263 92.6569C38.4868 92.5962 40.0812 92.524 41.6496 92.4402C43.2181 92.3564 44.7433 92.2639 46.2398 92.1569C47.7364 92.05 49.23 91.9315 50.7092 91.8044C53.731 91.5414 56.7499 91.2466 59.7688 90.9258C61.3315 90.7581 62.9259 90.579 64.5835 90.3738C66.2412 90.1714 67.9679 89.9576 69.7666 89.7206C71.5682 89.4836 73.4503 89.2293 75.4159 88.9316V52.0798C60.3156 54.4526 45.0714 55.7763 29.7927 56.0393C27.6861 56.0393 25.9795 57.7531 25.9795 59.8687V92.8708C27.9566 92.8708 29.8387 92.8477 31.6403 92.8072C33.4419 92.7668 35.1628 92.7118 36.8263 92.6511V92.6569Z" fill="url(#paint6_linear_2027_1113)"/>
<path d="M37.7468 57.5913C37.5597 58.178 37.4676 58.4728 37.2835 59.0623L35.7783 59.1172L36.9957 59.9727L36.5295 61.4438C37.0187 61.0652 37.2604 60.8802 37.7468 60.5016C38.236 60.8426 38.472 61.0103 38.9641 61.3484C38.7742 60.7762 38.685 60.49 38.4979 59.9149L39.7153 58.9612C39.1138 58.9901 38.8087 58.9988 38.2101 59.0277L37.7468 57.5884V57.5913Z" fill="url(#paint7_linear_2027_1113)"/>
<path d="M42.0954 75.7209L41.632 77.2006L40.124 77.2758L41.3414 78.1139C41.1572 78.7035 41.0622 79.0012 40.8752 79.585C41.3644 79.2035 41.609 79.0099 42.0954 78.6226C42.5846 78.9492 42.8292 79.1139 43.3156 79.4491L42.8494 78.0243L44.0696 77.0504C43.4653 77.0908 43.1631 77.1082 42.5616 77.14L42.0954 75.718V75.7209Z" fill="url(#paint8_linear_2027_1113)"/>
<path d="M42.5616 84.4809L42.0954 83.0532L41.632 84.5358L40.124 84.6081C40.6133 84.9462 40.855 85.1139 41.3414 85.4462C41.1572 86.0387 41.0622 86.3335 40.8752 86.9173C41.3644 86.5329 41.609 86.3393 42.0954 85.952C42.5846 86.2786 42.8292 86.452 43.3156 86.7815L42.8494 85.3566L44.0696 84.3827C43.4653 84.426 43.1631 84.452 42.5616 84.478V84.4809Z" fill="url(#paint9_linear_2027_1113)"/>
<path d="M37.7468 72.2585C37.5597 72.8481 37.4676 73.14 37.2835 73.7296C36.682 73.7527 36.3798 73.7671 35.7783 73.7845C36.2676 74.1255 36.5064 74.2989 36.9928 74.6371L36.5295 76.1081C37.0187 75.7324 37.2576 75.5417 37.7468 75.1602C38.236 75.5012 38.4749 75.6717 38.9641 76.0099C38.7742 75.4347 38.6821 75.1486 38.4979 74.5735L39.7182 73.6226C39.1167 73.6515 38.8116 73.666 38.213 73.6891L37.7497 72.2556L37.7468 72.2585Z" fill="url(#paint10_linear_2027_1113)"/>
<path d="M37.7439 79.5908L37.2805 81.0619C36.679 81.0821 36.374 81.0966 35.7754 81.1168L36.9927 81.9694L36.5294 83.4404L37.7467 82.4896L38.967 83.3393C38.777 82.7641 38.6849 82.4809 38.5008 81.9058C38.99 81.5272 39.2317 81.3336 39.721 80.9521L38.2158 81.0185L37.7496 79.5908H37.7439Z" fill="url(#paint11_linear_2027_1113)"/>
<path d="M37.7467 64.9263L37.2805 66.3973L35.7754 66.4522L36.9927 67.3077L36.5294 68.7788C37.0186 68.4031 37.2604 68.2123 37.7467 67.8337C38.236 68.1748 38.472 68.3453 38.9641 68.6834C38.7742 68.1112 38.6821 67.8222 38.4979 67.2499L39.7181 66.2962C39.1166 66.3251 38.8144 66.3395 38.213 66.3627C38.0288 65.7846 37.9338 65.5014 37.7496 64.9263H37.7467Z" fill="url(#paint12_linear_2027_1113)"/>
<path d="M50.7985 82.4346L50.3352 83.9259C49.7308 83.9779 49.4286 84.001 48.8271 84.053C49.3164 84.3796 49.561 84.5443 50.0474 84.8536L49.584 86.3449L50.8014 85.3449L52.0187 86.1339C51.8633 85.6628 51.7079 85.1917 51.5525 84.7206L52.7699 83.7091C52.1655 83.7669 51.8633 83.79 51.2647 83.8449C51.0805 83.2785 50.9942 83.001 50.8014 82.4346H50.7985Z" fill="url(#paint13_linear_2027_1113)"/>
<path d="M42.0954 68.3887L41.632 69.8684C41.0277 69.9002 40.7255 69.9146 40.124 69.9435L41.3414 70.7817L40.8752 72.2614L42.0954 71.299C42.5846 71.6256 42.8292 71.7903 43.3156 72.1256C43.1314 71.5562 43.0336 71.2701 42.8494 70.6979L44.0696 69.7297C43.4653 69.7644 43.1631 69.7875 42.5616 69.8193L42.0954 68.3916V68.3887Z" fill="url(#paint14_linear_2027_1113)"/>
<path d="M46.4499 79.1138L45.9837 80.6022L44.4785 80.6947L45.6987 81.5126L45.2325 82.9952L46.4527 82.0154L47.673 82.8218L47.2068 81.4027C47.696 81.0097 47.9377 80.8103 48.4241 80.4114L46.919 80.527C46.7607 80.0559 46.6024 79.5877 46.4499 79.1138Z" fill="url(#paint15_linear_2027_1113)"/>
<path d="M46.919 87.868L46.4527 86.449L45.9865 87.9345C45.385 87.9778 45.0829 87.9952 44.4785 88.0356L45.6987 88.8535L45.2325 90.3419C45.7218 89.9518 45.9635 89.7495 46.4527 89.3622C46.942 89.6888 47.1837 89.8535 47.673 90.1714L47.2068 88.7524C47.696 88.3564 47.9377 88.1599 48.4241 87.7611L46.919 87.8709V87.868Z" fill="url(#paint16_linear_2027_1113)"/>
<path d="M42.0954 61.0564L41.632 62.5275C41.0277 62.5593 40.7255 62.5737 40.124 62.6055L41.3414 63.4436C41.1572 64.0361 41.0622 64.3309 40.8752 64.9147C41.3644 64.5303 41.609 64.3396 42.0954 63.9523C42.5846 64.2789 42.8292 64.4436 43.3156 64.7817L42.8494 63.354C43.3386 62.9668 43.5804 62.7702 44.0696 62.3801C43.4653 62.4176 43.1631 62.4379 42.5616 62.4697L42.0954 61.0564Z" fill="url(#paint17_linear_2027_1113)"/>
<path d="M46.447 71.7817L45.9837 73.2673C45.3793 73.3077 45.0829 73.3279 44.4785 73.3655L45.6987 74.1834L45.2325 75.6689L46.4527 74.6892L47.673 75.4955L47.2068 74.0736L48.4241 73.0938L46.919 73.2095L46.4499 71.7817H46.447Z" fill="url(#paint18_linear_2027_1113)"/>
<path d="M38.2101 88.3592L37.7439 86.9229L37.2805 88.3939L35.7754 88.4517C36.2646 88.7899 36.5035 88.9662 36.9927 89.3043L36.5294 90.7754L37.7467 89.8274L38.967 90.6771L38.5008 89.2436L39.721 88.2899L38.2158 88.3563L38.2101 88.3592Z" fill="url(#paint19_linear_2027_1113)"/>
<path d="M29.0416 72.4956L28.5754 73.9551C27.971 73.9551 27.6689 73.9551 27.0674 73.9638C27.5566 74.3193 27.8012 74.5013 28.2876 74.8539L27.8214 76.3134L29.0416 75.4002C29.5309 75.7557 29.7755 75.9291 30.2618 76.2816L29.7985 74.8366L31.0187 73.9175C30.4144 73.9262 30.1122 73.9378 29.5107 73.9436L29.0445 72.4956H29.0416Z" fill="url(#paint20_linear_2027_1113)"/>
<path d="M29.0416 65.1633L28.5754 66.6228C27.971 66.6228 27.6689 66.6315 27.0674 66.6315L28.2876 67.5216L27.8214 68.9811L29.0416 68.0707L30.2618 68.9493L29.7985 67.5014C30.2877 67.1343 30.5295 66.9523 31.0187 66.5823C30.4172 66.5939 30.1122 66.5997 29.5107 66.6055L29.0445 65.1604L29.0416 65.1633Z" fill="url(#paint21_linear_2027_1113)"/>
<path d="M29.499 88.6108L29.0328 87.1628L28.5666 88.6195C27.9623 88.6281 27.6601 88.6281 27.0586 88.6339L28.2788 89.5212L27.8126 90.9836L29.0328 90.0703L30.2531 90.9518C30.0976 90.4691 29.9422 89.9865 29.7868 89.5009L31.0071 88.5819C30.4085 88.5963 30.1092 88.5992 29.499 88.6108Z" fill="url(#paint22_linear_2027_1113)"/>
<path d="M45.2296 68.3367L46.4469 67.357C46.9362 67.6835 47.1808 67.8483 47.6672 68.1662L47.2038 66.7442L48.4212 65.7529C47.8168 65.8021 47.5175 65.8252 46.916 65.8685L46.4498 64.4524L45.9836 65.935C45.3821 65.9784 45.0799 65.9957 44.4756 66.0362L45.6958 66.8541L45.2296 68.3396V68.3367Z" fill="url(#paint23_linear_2027_1113)"/>
<path d="M45.2296 61.0017C45.7189 60.6115 45.9635 60.415 46.4499 60.0219C46.9391 60.3485 47.1837 60.5132 47.6701 60.8282L47.2068 59.4092C47.696 59.0162 47.9377 58.8167 48.4241 58.4179C47.8197 58.467 47.5204 58.4873 46.919 58.5335L46.4527 57.1116L45.9865 58.5971C45.385 58.6404 45.0829 58.6607 44.4785 58.6982L45.6987 59.5161L45.2325 61.0017H45.2296Z" fill="url(#paint24_linear_2027_1113)"/>
<path d="M29.0416 79.8307L28.5725 81.2902H27.0645L28.2847 82.1833L27.8185 83.6399L29.0387 82.7266L30.2589 83.6052L29.7956 82.1573L31.0129 81.2382C30.4114 81.2498 30.1093 81.2556 29.5049 81.2613L29.0387 79.825L29.0416 79.8307Z" fill="url(#paint25_linear_2027_1113)"/>
<path d="M33.3981 61.4033L32.9318 62.8657C32.3304 62.8802 32.0282 62.8888 31.4238 62.9033L32.6441 63.7761L32.1778 65.2472L33.3981 64.3165L34.6183 65.1807L34.1521 63.7414L35.3723 62.8021L33.8672 62.8484C33.6772 62.2732 33.5851 61.9842 33.3981 61.4033Z" fill="url(#paint26_linear_2027_1113)"/>
<path d="M33.3981 68.7385L32.9318 70.2095L31.4238 70.2442C31.9131 70.5939 32.1577 70.7645 32.6441 71.1113C32.457 71.698 32.3649 71.9927 32.1778 72.5823C32.6671 72.2095 32.9088 72.0274 33.3952 71.6517C33.8844 71.9985 34.129 72.169 34.6183 72.513L34.1521 71.0737L35.3723 70.1373L33.8643 70.1835C33.6772 69.5968 33.5851 69.3107 33.3981 68.7356V68.7385Z" fill="url(#paint27_linear_2027_1113)"/>
<path d="M33.8613 84.845L33.3951 83.4058L32.9289 84.8768C32.3245 84.8942 32.0223 84.8999 31.418 84.9115L32.6411 85.7814L32.1749 87.2525L33.3951 86.3219L34.6182 87.186L34.152 85.7467L35.3722 84.8075L33.8642 84.845H33.8613Z" fill="url(#paint28_linear_2027_1113)"/>
<path d="M33.3951 76.0735L32.9289 77.5445C32.3274 77.559 32.0224 77.5677 31.4209 77.5792L32.6411 78.452C32.4541 79.0387 32.362 79.3335 32.1749 79.9231L33.3951 78.9925L34.6154 79.8566C34.4312 79.2815 34.3362 78.9925 34.1491 78.4174C34.6384 78.0445 34.883 77.8538 35.3694 77.4781C34.765 77.4983 34.4628 77.5099 33.8614 77.5301L33.3951 76.0793V76.0735Z" fill="url(#paint29_linear_2027_1113)"/>
<path d="M29.0416 57.8284L28.5753 59.2879C27.971 59.2879 27.6659 59.2965 27.0645 59.3023C27.5537 59.6578 27.7983 59.8399 28.2847 60.1896L27.8185 61.6462L29.0387 60.7387C29.5279 61.0913 29.7725 61.2647 30.2589 61.6144L29.7956 60.1694L31.0158 59.2503C30.4114 59.2648 30.1064 59.2705 29.502 59.2792L29.0358 57.8313L29.0416 57.8284Z" fill="url(#paint30_linear_2027_1113)"/>
<path d="M50.7985 75.1054L50.3352 76.5967C49.7308 76.6487 49.4315 76.6719 48.8271 76.721C49.3164 77.0476 49.5581 77.2008 50.0445 77.5187L49.5812 79.0129C50.0704 78.614 50.3121 78.4117 50.7985 78.01L52.0159 78.799L51.5496 77.3886L52.767 76.3771C52.1626 76.4349 51.8604 76.458 51.2618 76.5129C51.0777 75.9522 50.9913 75.669 50.7985 75.1025V75.1054Z" fill="url(#paint31_linear_2027_1113)"/>
<path d="M68.1949 73.2297L67.7287 74.7412L66.2207 74.9319L67.4409 75.6776L66.9747 77.1891L68.1978 76.1371C68.6871 76.4319 68.9317 76.5822 69.418 76.877L68.9518 75.4839L70.1749 74.4233L68.6669 74.6198L68.2007 73.2239L68.1949 73.2297Z" fill="url(#paint32_linear_2027_1113)"/>
<path d="M68.1949 65.8975C68.0079 66.5044 67.9129 66.8021 67.7287 67.409C67.1244 67.487 66.8222 67.5246 66.2207 67.5968C66.7099 67.9003 66.9546 68.0477 67.4409 68.3454L66.9747 69.8569C67.464 69.435 67.7086 69.2269 68.1949 68.8049L69.4152 69.5448L68.9489 68.1546L70.172 67.094C69.5706 67.172 69.2655 67.2154 68.664 67.2905L68.1978 65.8975H68.1949Z" fill="url(#paint33_linear_2027_1113)"/>
<path d="M68.6582 81.9577L68.192 80.5647L67.7258 82.0791C67.1243 82.1514 66.8193 82.1947 66.2178 82.267L67.438 83.0155L66.9718 84.527L68.192 83.475C68.6812 83.7698 68.9259 83.9172 69.4122 84.2149L68.946 82.8248L70.1662 81.7641L68.6582 81.9606V81.9577Z" fill="url(#paint34_linear_2027_1113)"/>
<path d="M63.8523 62.7673C63.6681 63.3714 63.576 63.6719 63.389 64.2789L61.8867 64.4523L63.1012 65.2095L62.6378 66.7181C63.1271 66.3019 63.3631 66.0938 63.8494 65.6777L65.0668 66.4291L64.6006 65.0332L65.8208 63.9841L64.3128 64.169C64.1516 63.7037 63.9962 63.2384 63.8494 62.7702L63.8523 62.7673Z" fill="url(#paint35_linear_2027_1113)"/>
<path d="M68.1978 58.5625L67.7287 60.074C67.1244 60.152 66.8222 60.1896 66.2207 60.2618L67.4438 61.0104L66.9776 62.5248C67.4668 62.1057 67.7114 61.889 68.1978 61.4699L69.4209 62.2127C69.2655 61.7474 69.1101 61.282 68.9547 60.8167C69.4439 60.3977 69.6886 60.178 70.1778 59.7561L68.6669 59.9526L68.2007 58.5596L68.1978 58.5625Z" fill="url(#paint36_linear_2027_1113)"/>
<path d="M63.8523 55.4382C63.6681 56.0394 63.576 56.3428 63.389 56.9469L61.8867 57.1203C62.376 57.4208 62.6177 57.574 63.1012 57.8775L62.6378 59.3861C63.1271 58.9699 63.3631 58.7619 63.8494 58.3457L65.0668 59.0971L64.6006 57.7012C65.0898 57.2821 65.3287 57.0711 65.8208 56.6521L64.3128 56.837C64.1516 56.3717 63.9962 55.9064 63.8494 55.4382H63.8523Z" fill="url(#paint37_linear_2027_1113)"/>
<path d="M72.5524 68.9841L72.0862 70.5043C71.4847 70.5852 71.1825 70.6286 70.5811 70.7066L71.8013 71.4407L71.3351 72.958L72.5553 71.8916L73.7726 72.6199C73.5856 72.065 73.4935 71.7875 73.3093 71.2326C73.7985 70.8049 74.0374 70.591 74.5238 70.1604C73.9223 70.25 73.623 70.2876 73.0215 70.3743L72.5553 68.987L72.5524 68.9841Z" fill="url(#paint38_linear_2027_1113)"/>
<path d="M72.5553 61.6518L72.0891 63.1662C71.4876 63.25 71.1854 63.2905 70.5811 63.3714C71.0703 63.6662 71.312 63.8107 71.7984 64.1026L71.3322 65.6228L72.5524 64.5535L73.7698 65.2847C73.5827 64.7298 73.4906 64.4494 73.3064 63.8945C73.7957 63.4668 74.0345 63.2529 74.5209 62.8223L73.0186 63.0362L72.5553 61.6489V61.6518Z" fill="url(#paint39_linear_2027_1113)"/>
<path d="M73.0128 85.0415L72.5495 83.6543L72.0833 85.1716C71.4818 85.2554 71.1796 85.2959 70.5781 85.3768L71.7955 86.1109L71.3293 87.6311C71.8185 87.2062 72.0631 86.9895 72.5495 86.5589L73.7668 87.29L73.3006 85.8999L74.518 84.8277C73.9165 84.9173 73.6229 84.9577 73.0157 85.0415H73.0128Z" fill="url(#paint40_linear_2027_1113)"/>
<path d="M72.5582 54.3169L72.092 55.8371C71.4905 55.9209 71.1855 55.9643 70.584 56.0423L71.8071 56.7735L71.338 58.2879L72.5611 57.2243C73.0503 57.5162 73.2892 57.6636 73.7784 57.9498C73.5943 57.3949 73.4993 57.1174 73.3151 56.5625C73.8043 56.1348 74.0432 55.9209 74.5267 55.4903C73.9281 55.5799 73.6288 55.6232 73.0273 55.707L72.5611 54.3169H72.5582Z" fill="url(#paint41_linear_2027_1113)"/>
<path d="M72.5495 76.3191L72.0833 77.8364L70.5781 78.0387L71.7955 78.7757L71.3293 80.2901L72.5495 79.2265L73.7668 79.952L73.3035 78.5647C73.7927 78.137 74.0316 77.9231 74.518 77.4925C73.9194 77.5821 73.6172 77.6225 73.0157 77.7063L72.5524 76.3191H72.5495Z" fill="url(#paint42_linear_2027_1113)"/>
<path d="M63.8523 70.1025C63.6681 70.7065 63.576 71.0071 63.389 71.6111L61.8867 71.7874C62.376 72.0909 62.6177 72.2441 63.1041 72.5446L62.6407 74.0533L63.8523 73.0099L65.0697 73.7614L64.6034 72.3655C65.0927 71.9464 65.3316 71.7354 65.8237 71.3163C65.2193 71.3915 64.9143 71.4262 64.3157 71.4984L63.8523 70.0996V70.1025Z" fill="url(#paint43_linear_2027_1113)"/>
<path d="M50.7985 60.4351L50.3352 61.9264C49.7308 61.9784 49.4286 62.0044 48.8271 62.0535L50.0474 62.8541L49.584 64.3454C50.0733 63.9465 50.315 63.7413 50.8014 63.3425C51.2906 63.6691 51.5295 63.8194 52.0187 64.1344L51.5525 62.724C52.0418 62.3223 52.2835 62.1142 52.7699 61.7125L51.2647 61.8512C51.0805 61.2847 50.9942 61.0044 50.8014 60.4379L50.7985 60.4351Z" fill="url(#paint44_linear_2027_1113)"/>
<path d="M55.149 78.3682L54.6828 79.8681C54.0813 79.9259 53.7763 79.9548 53.1748 80.0097L54.395 80.793L53.9288 82.2929L55.149 81.2785C55.6383 81.5935 55.8829 81.7467 56.3693 82.0588L55.903 80.6513C56.3923 80.2467 56.634 80.0386 57.1233 79.6311L55.6181 79.7814C55.4311 79.2265 55.3361 78.9375 55.1519 78.3711L55.149 78.3682Z" fill="url(#paint45_linear_2027_1113)"/>
<path d="M63.8523 77.4348L63.389 78.9434C62.7875 79.0128 62.4882 79.0503 61.8867 79.1197C62.376 79.4261 62.6148 79.5763 63.1041 79.8769L62.6407 81.3827C63.13 80.9665 63.3688 80.7584 63.8523 80.3422L65.0697 81.0936L64.6063 79.6977C65.0956 79.2787 65.3344 79.0677 65.8266 78.6486C65.2222 78.7238 64.9171 78.7584 64.3185 78.8307C64.1574 78.3683 64.002 77.9001 63.8552 77.4319L63.8523 77.4348Z" fill="url(#paint46_linear_2027_1113)"/>
<path d="M55.149 63.7009L54.6828 65.198L53.1748 65.3396L54.395 66.1228L53.9288 67.6228C54.4181 67.2153 54.6627 67.0159 55.149 66.6084C55.6383 66.9205 55.8829 67.0737 56.3693 67.3887C56.1822 66.8251 56.0872 66.5448 55.903 65.9783C56.3923 65.5708 56.634 65.3714 57.1233 64.961L55.6153 65.1084L55.149 63.7009Z" fill="url(#paint47_linear_2027_1113)"/>
<path d="M55.149 85.7033L54.6828 87.2004C54.0813 87.2582 53.7763 87.2871 53.1748 87.342L54.395 88.1252L53.9288 89.6252L55.149 88.6079L56.3693 89.3882L55.903 87.9778C56.3923 87.5732 56.634 87.368 57.1233 86.9605L55.6181 87.1079L55.1519 85.7004L55.149 85.7033Z" fill="url(#paint48_linear_2027_1113)"/>
<path d="M50.7985 67.779L50.3352 69.2703C49.7308 69.3223 49.4315 69.3483 48.8271 69.3946C49.3164 69.7212 49.5581 69.8859 50.0445 70.1951L49.5812 71.6864L50.7985 70.6836C51.2877 71.0015 51.5266 71.1604 52.0159 71.4726L51.5496 70.0622L52.767 69.0507C52.1626 69.1085 51.8604 69.1316 51.2618 69.1894L50.7985 67.7761V67.779Z" fill="url(#paint49_linear_2027_1113)"/>
<path d="M55.149 56.3687L54.6828 57.8686C54.0813 57.9264 53.7763 57.9524 53.1748 58.0102L54.395 58.7963L53.9288 60.2934L55.1519 59.279C55.6412 59.5882 55.88 59.7472 56.3721 60.0593L55.9059 58.6518C56.3952 58.2472 56.6369 58.0391 57.1261 57.6316C56.5218 57.6923 56.2196 57.7241 55.6181 57.7819L55.1519 56.3715L55.149 56.3687Z" fill="url(#paint50_linear_2027_1113)"/>
<path d="M55.149 71.0361L54.6828 72.5332L53.1748 72.6835L54.395 73.4696L53.9288 74.9696L55.149 73.9523L56.3693 74.7326L55.903 73.3251L57.1233 72.3049C56.5218 72.3656 56.2196 72.3974 55.6153 72.4552C55.4311 71.88 55.3361 71.6026 55.149 71.039V71.0361Z" fill="url(#paint51_linear_2027_1113)"/>
<path d="M64.3069 86.1686C64.1227 85.6108 64.0306 85.3276 63.8435 84.7698L63.3802 86.2784C62.7787 86.3507 62.4794 86.3825 61.8779 86.4518L63.0924 87.209L62.6291 88.7177C63.1183 88.3015 63.3572 88.0905 63.8407 87.6743C64.3299 87.9778 64.5716 88.1281 65.058 88.4287L64.5918 87.0327L65.812 85.9836L64.304 86.1686H64.3069Z" fill="url(#paint52_linear_2027_1113)"/>
<path d="M59.9669 82.9954L59.5007 81.5908L59.0344 83.0966L57.5293 83.2613L58.7495 84.0358L58.2833 85.5387L59.5035 84.5098L60.7209 85.2786L60.2547 83.8769C60.7439 83.4636 60.9885 83.2555 61.4749 82.8393C60.8734 82.9 60.5712 82.9347 59.9698 82.9983L59.9669 82.9954Z" fill="url(#paint53_linear_2027_1113)"/>
<path d="M59.5035 59.594L59.0373 61.0968C58.4358 61.1633 58.1308 61.1893 57.5293 61.2616L58.7495 62.0361L58.2833 63.539L59.5035 62.5101L60.7209 63.276L60.2547 61.8743L61.4749 60.8396L59.9698 61.0044L59.5035 59.594Z" fill="url(#paint54_linear_2027_1113)"/>
<path d="M59.5006 74.2615L59.0344 75.7643L57.5264 75.9291L58.7466 76.7007L58.2804 78.2036L59.5006 77.1776L60.7208 77.9406L60.2546 76.5418L61.4748 75.5071C60.8734 75.5736 60.5683 75.6083 59.9697 75.6718L59.5035 74.2644L59.5006 74.2615Z" fill="url(#paint55_linear_2027_1113)"/>
<path d="M59.5035 66.9263C59.3193 67.5303 59.2244 67.828 59.0373 68.4291C58.4358 68.4956 58.1308 68.5216 57.5293 68.5852L58.7495 69.3568L58.2833 70.8597L59.5035 69.8337L60.7238 70.5996L60.2575 69.1979C60.7468 68.7846 60.9914 68.5765 61.4778 68.1632C60.8763 68.2326 60.5741 68.2644 59.9726 68.328L59.5064 66.9263H59.5035Z" fill="url(#paint56_linear_2027_1113)"/>
</g>
<defs>
<linearGradient id="paint0_linear_2027_1113" x1="25.9677" y1="115.745" x2="127.998" y2="115.745" gradientUnits="userSpaceOnUse">
<stop stop-color="#600000"/>
<stop offset="0.33" stop-color="#630000"/>
<stop offset="0.59" stop-color="#6D0000"/>
<stop offset="0.83" stop-color="#7E0000"/>
<stop offset="1" stop-color="#8F0000"/>
</linearGradient>
<linearGradient id="paint1_linear_2027_1113" x1="76.9812" y1="106.511" x2="76.9812" y2="125.002" gradientUnits="userSpaceOnUse">
<stop offset="0.35" stop-color="#BF1010"/>
<stop offset="0.65" stop-color="#BD1010"/>
<stop offset="0.75" stop-color="#B60F0F"/>
<stop offset="0.83" stop-color="#AB0D0D"/>
<stop offset="0.89" stop-color="#9A0A0A"/>
<stop offset="0.94" stop-color="#840606"/>
<stop offset="0.99" stop-color="#690202"/>
<stop offset="1" stop-color="#600000"/>
</linearGradient>
<linearGradient id="paint2_linear_2027_1113" x1="25.9766" y1="84.6444" x2="127.998" y2="84.6444" gradientUnits="userSpaceOnUse">
<stop stop-color="#BF1010"/>
<stop offset="0.02" stop-color="#C11212"/>
<stop offset="0.24" stop-color="#D22323"/>
<stop offset="0.49" stop-color="#DC2D2D"/>
<stop offset="0.79" stop-color="#DF3030"/>
<stop offset="0.84" stop-color="#DC2E2E"/>
<stop offset="0.88" stop-color="#D22626"/>
<stop offset="0.92" stop-color="#C11919"/>
<stop offset="0.95" stop-color="#A90808"/>
<stop offset="0.97" stop-color="#9F0000"/>
<stop offset="1" stop-color="#DF3030"/>
</linearGradient>
<linearGradient id="paint3_linear_2027_1113" x1="25.9767" y1="74.1706" x2="128.001" y2="74.1706" gradientUnits="userSpaceOnUse">
<stop stop-color="#DFDFDF"/>
<stop offset="0.02" stop-color="#E1E1E1"/>
<stop offset="0.24" stop-color="#F2F2F2"/>
<stop offset="0.49" stop-color="#FCFCFC"/>
<stop offset="0.79" stop-color="white"/>
<stop offset="0.84" stop-color="#FCFCFC"/>
<stop offset="0.88" stop-color="#F2F2F2"/>
<stop offset="0.92" stop-color="#E1E1E1"/>
<stop offset="0.95" stop-color="#C9C9C9"/>
<stop offset="0.97" stop-color="#BFBFBF"/>
<stop offset="1" stop-color="white"/>
</linearGradient>
<linearGradient id="paint4_linear_2027_1113" x1="25.9737" y1="100.436" x2="127.998" y2="100.436" gradientUnits="userSpaceOnUse">
<stop stop-color="#DFDFDF"/>
<stop offset="0.02" stop-color="#E1E1E1"/>
<stop offset="0.24" stop-color="#F2F2F2"/>
<stop offset="0.49" stop-color="#FCFCFC"/>
<stop offset="0.79" stop-color="white"/>
<stop offset="0.84" stop-color="#FCFCFC"/>
<stop offset="0.88" stop-color="#F2F2F2"/>
<stop offset="0.92" stop-color="#E1E1E1"/>
<stop offset="0.95" stop-color="#C9C9C9"/>
<stop offset="0.97" stop-color="#BFBFBF"/>
<stop offset="1" stop-color="white"/>
</linearGradient>
<linearGradient id="paint5_linear_2027_1113" x1="25.9648" y1="110.95" x2="127.998" y2="110.95" gradientUnits="userSpaceOnUse">
<stop stop-color="#DFDFDF"/>
<stop offset="0.02" stop-color="#E1E1E1"/>
<stop offset="0.24" stop-color="#F2F2F2"/>
<stop offset="0.49" stop-color="#FCFCFC"/>
<stop offset="0.79" stop-color="white"/>
<stop offset="0.84" stop-color="#FCFCFC"/>
<stop offset="0.88" stop-color="#F2F2F2"/>
<stop offset="0.92" stop-color="#E1E1E1"/>
<stop offset="0.95" stop-color="#C9C9C9"/>
<stop offset="0.97" stop-color="#BFBFBF"/>
<stop offset="1" stop-color="white"/>
</linearGradient>
<linearGradient id="paint6_linear_2027_1113" x1="25.9795" y1="72.48" x2="128.001" y2="72.48" gradientUnits="userSpaceOnUse">
<stop stop-color="#00209F"/>
<stop offset="0.02" stop-color="#0222A1"/>
<stop offset="0.24" stop-color="#1333B2"/>
<stop offset="0.49" stop-color="#1D3DBC"/>
<stop offset="0.79" stop-color="#2040BF"/>
<stop offset="0.84" stop-color="#1E3DBC"/>
<stop offset="0.88" stop-color="#1933B2"/>
<stop offset="0.92" stop-color="#1122A1"/>
<stop offset="0.95" stop-color="#050A89"/>
<stop offset="0.97" stop-color="#00007F"/>
<stop offset="1" stop-color="#2040BF"/>
</linearGradient>
<linearGradient id="paint7_linear_2027_1113" x1="25.9791" y1="59.5207" x2="127.992" y2="59.5207" gradientUnits="userSpaceOnUse">
<stop stop-color="#DFDFDF"/>
<stop offset="0.02" stop-color="#E1E1E1"/>
<stop offset="0.24" stop-color="#F2F2F2"/>
<stop offset="0.49" stop-color="#FCFCFC"/>
<stop offset="0.79" stop-color="white"/>
<stop offset="0.84" stop-color="#FCFCFC"/>
<stop offset="0.88" stop-color="#F2F2F2"/>
<stop offset="0.92" stop-color="#E1E1E1"/>
<stop offset="0.95" stop-color="#C9C9C9"/>
<stop offset="0.97" stop-color="#BFBFBF"/>
<stop offset="1" stop-color="white"/>
</linearGradient>
<linearGradient id="paint8_linear_2027_1113" x1="25.9792" y1="77.6533" x2="127.986" y2="77.6533" gradientUnits="userSpaceOnUse">
<stop stop-color="#DFDFDF"/>
<stop offset="0.02" stop-color="#E1E1E1"/>
<stop offset="0.24" stop-color="#F2F2F2"/>
<stop offset="0.49" stop-color="#FCFCFC"/>
<stop offset="0.79" stop-color="white"/>
<stop offset="0.84" stop-color="#FCFCFC"/>
<stop offset="0.88" stop-color="#F2F2F2"/>
<stop offset="0.92" stop-color="#E1E1E1"/>
<stop offset="0.95" stop-color="#C9C9C9"/>
<stop offset="0.97" stop-color="#BFBFBF"/>
<stop offset="1" stop-color="white"/>
</linearGradient>
<linearGradient id="paint9_linear_2027_1113" x1="25.9792" y1="84.9856" x2="127.986" y2="84.9856" gradientUnits="userSpaceOnUse">
<stop stop-color="#DFDFDF"/>
<stop offset="0.02" stop-color="#E1E1E1"/>
<stop offset="0.24" stop-color="#F2F2F2"/>
<stop offset="0.49" stop-color="#FCFCFC"/>
<stop offset="0.79" stop-color="white"/>
<stop offset="0.84" stop-color="#FCFCFC"/>
<stop offset="0.88" stop-color="#F2F2F2"/>
<stop offset="0.92" stop-color="#E1E1E1"/>
<stop offset="0.95" stop-color="#C9C9C9"/>
<stop offset="0.97" stop-color="#BFBFBF"/>
<stop offset="1" stop-color="white"/>
</linearGradient>
<linearGradient id="paint10_linear_2027_1113" x1="25.9791" y1="74.1851" x2="127.992" y2="74.1851" gradientUnits="userSpaceOnUse">
<stop stop-color="#DFDFDF"/>
<stop offset="0.02" stop-color="#E1E1E1"/>
<stop offset="0.24" stop-color="#F2F2F2"/>
<stop offset="0.49" stop-color="#FCFCFC"/>
<stop offset="0.79" stop-color="white"/>
<stop offset="0.84" stop-color="#FCFCFC"/>
<stop offset="0.88" stop-color="#F2F2F2"/>
<stop offset="0.92" stop-color="#E1E1E1"/>
<stop offset="0.95" stop-color="#C9C9C9"/>
<stop offset="0.97" stop-color="#BFBFBF"/>
<stop offset="1" stop-color="white"/>
</linearGradient>
<linearGradient id="paint11_linear_2027_1113" x1="25.979" y1="81.5174" x2="127.992" y2="81.5174" gradientUnits="userSpaceOnUse">
<stop stop-color="#DFDFDF"/>
<stop offset="0.02" stop-color="#E1E1E1"/>
<stop offset="0.24" stop-color="#F2F2F2"/>
<stop offset="0.49" stop-color="#FCFCFC"/>
<stop offset="0.79" stop-color="white"/>
<stop offset="0.84" stop-color="#FCFCFC"/>
<stop offset="0.88" stop-color="#F2F2F2"/>
<stop offset="0.92" stop-color="#E1E1E1"/>
<stop offset="0.95" stop-color="#C9C9C9"/>
<stop offset="0.97" stop-color="#BFBFBF"/>
<stop offset="1" stop-color="white"/>
</linearGradient>
<linearGradient id="paint12_linear_2027_1113" x1="25.979" y1="66.8528" x2="127.992" y2="66.8528" gradientUnits="userSpaceOnUse">
<stop stop-color="#DFDFDF"/>
<stop offset="0.02" stop-color="#E1E1E1"/>
<stop offset="0.24" stop-color="#F2F2F2"/>
<stop offset="0.49" stop-color="#FCFCFC"/>
<stop offset="0.79" stop-color="white"/>
<stop offset="0.84" stop-color="#FCFCFC"/>
<stop offset="0.88" stop-color="#F2F2F2"/>
<stop offset="0.92" stop-color="#E1E1E1"/>
<stop offset="0.95" stop-color="#C9C9C9"/>
<stop offset="0.97" stop-color="#BFBFBF"/>
<stop offset="1" stop-color="white"/>
</linearGradient>
<linearGradient id="paint13_linear_2027_1113" x1="25.9709" y1="84.39" x2="128.012" y2="84.39" gradientUnits="userSpaceOnUse">
<stop stop-color="#DFDFDF"/>
<stop offset="0.02" stop-color="#E1E1E1"/>
<stop offset="0.24" stop-color="#F2F2F2"/>
<stop offset="0.49" stop-color="#FCFCFC"/>
<stop offset="0.79" stop-color="white"/>
<stop offset="0.84" stop-color="#FCFCFC"/>
<stop offset="0.88" stop-color="#F2F2F2"/>
<stop offset="0.92" stop-color="#E1E1E1"/>
<stop offset="0.95" stop-color="#C9C9C9"/>
<stop offset="0.97" stop-color="#BFBFBF"/>
<stop offset="1" stop-color="white"/>
</linearGradient>
<linearGradient id="paint14_linear_2027_1113" x1="25.9792" y1="70.3239" x2="127.986" y2="70.3239" gradientUnits="userSpaceOnUse">
<stop stop-color="#DFDFDF"/>
<stop offset="0.02" stop-color="#E1E1E1"/>
<stop offset="0.24" stop-color="#F2F2F2"/>
<stop offset="0.49" stop-color="#FCFCFC"/>
<stop offset="0.79" stop-color="white"/>
<stop offset="0.84" stop-color="#FCFCFC"/>
<stop offset="0.88" stop-color="#F2F2F2"/>
<stop offset="0.92" stop-color="#E1E1E1"/>
<stop offset="0.95" stop-color="#C9C9C9"/>
<stop offset="0.97" stop-color="#BFBFBF"/>
<stop offset="1" stop-color="white"/>
</linearGradient>
<linearGradient id="paint15_linear_2027_1113" x1="25.9794" y1="81.0548" x2="127.986" y2="81.0548" gradientUnits="userSpaceOnUse">
<stop stop-color="#DFDFDF"/>
<stop offset="0.02" stop-color="#E1E1E1"/>
<stop offset="0.24" stop-color="#F2F2F2"/>
<stop offset="0.49" stop-color="#FCFCFC"/>
<stop offset="0.79" stop-color="white"/>
<stop offset="0.84" stop-color="#FCFCFC"/>
<stop offset="0.88" stop-color="#F2F2F2"/>
<stop offset="0.92" stop-color="#E1E1E1"/>
<stop offset="0.95" stop-color="#C9C9C9"/>
<stop offset="0.97" stop-color="#BFBFBF"/>
<stop offset="1" stop-color="white"/>
</linearGradient>
<linearGradient id="paint16_linear_2027_1113" x1="25.9794" y1="88.3929" x2="127.986" y2="88.3929" gradientUnits="userSpaceOnUse">
<stop stop-color="#DFDFDF"/>
<stop offset="0.02" stop-color="#E1E1E1"/>
<stop offset="0.24" stop-color="#F2F2F2"/>
<stop offset="0.49" stop-color="#FCFCFC"/>
<stop offset="0.79" stop-color="white"/>
<stop offset="0.84" stop-color="#FCFCFC"/>
<stop offset="0.88" stop-color="#F2F2F2"/>
<stop offset="0.92" stop-color="#E1E1E1"/>
<stop offset="0.95" stop-color="#C9C9C9"/>
<stop offset="0.97" stop-color="#BFBFBF"/>
<stop offset="1" stop-color="white"/>
</linearGradient>
<linearGradient id="paint17_linear_2027_1113" x1="25.9792" y1="62.9859" x2="127.986" y2="62.9859" gradientUnits="userSpaceOnUse">
<stop stop-color="#DFDFDF"/>
<stop offset="0.02" stop-color="#E1E1E1"/>
<stop offset="0.24" stop-color="#F2F2F2"/>
<stop offset="0.49" stop-color="#FCFCFC"/>
<stop offset="0.79" stop-color="white"/>
<stop offset="0.84" stop-color="#FCFCFC"/>
<stop offset="0.88" stop-color="#F2F2F2"/>
<stop offset="0.92" stop-color="#E1E1E1"/>
<stop offset="0.95" stop-color="#C9C9C9"/>
<stop offset="0.97" stop-color="#BFBFBF"/>
<stop offset="1" stop-color="white"/>
</linearGradient>
<linearGradient id="paint18_linear_2027_1113" x1="25.9794" y1="73.7257" x2="127.992" y2="73.7257" gradientUnits="userSpaceOnUse">
<stop stop-color="#DFDFDF"/>
<stop offset="0.02" stop-color="#E1E1E1"/>
<stop offset="0.24" stop-color="#F2F2F2"/>
<stop offset="0.49" stop-color="#FCFCFC"/>
<stop offset="0.79" stop-color="white"/>
<stop offset="0.84" stop-color="#FCFCFC"/>
<stop offset="0.88" stop-color="#F2F2F2"/>
<stop offset="0.92" stop-color="#E1E1E1"/>
<stop offset="0.95" stop-color="#C9C9C9"/>
<stop offset="0.97" stop-color="#BFBFBF"/>
<stop offset="1" stop-color="white"/>
</linearGradient>
<linearGradient id="paint19_linear_2027_1113" x1="25.979" y1="88.8523" x2="127.992" y2="88.8523" gradientUnits="userSpaceOnUse">
<stop stop-color="#DFDFDF"/>
<stop offset="0.02" stop-color="#E1E1E1"/>
<stop offset="0.24" stop-color="#F2F2F2"/>
<stop offset="0.49" stop-color="#FCFCFC"/>
<stop offset="0.79" stop-color="white"/>
<stop offset="0.84" stop-color="#FCFCFC"/>
<stop offset="0.88" stop-color="#F2F2F2"/>
<stop offset="0.92" stop-color="#E1E1E1"/>
<stop offset="0.95" stop-color="#C9C9C9"/>
<stop offset="0.97" stop-color="#BFBFBF"/>
<stop offset="1" stop-color="white"/>
</linearGradient>
<linearGradient id="paint20_linear_2027_1113" x1="25.9767" y1="74.4077" x2="128.009" y2="74.4077" gradientUnits="userSpaceOnUse">
<stop stop-color="#DFDFDF"/>
<stop offset="0.02" stop-color="#E1E1E1"/>
<stop offset="0.24" stop-color="#F2F2F2"/>
<stop offset="0.49" stop-color="#FCFCFC"/>
<stop offset="0.79" stop-color="white"/>
<stop offset="0.84" stop-color="#FCFCFC"/>
<stop offset="0.88" stop-color="#F2F2F2"/>
<stop offset="0.92" stop-color="#E1E1E1"/>
<stop offset="0.95" stop-color="#C9C9C9"/>
<stop offset="0.97" stop-color="#BFBFBF"/>
<stop offset="1" stop-color="white"/>
</linearGradient>
<linearGradient id="paint21_linear_2027_1113" x1="25.9767" y1="67.0696" x2="128.009" y2="67.0696" gradientUnits="userSpaceOnUse">
<stop stop-color="#DFDFDF"/>
<stop offset="0.02" stop-color="#E1E1E1"/>
<stop offset="0.24" stop-color="#F2F2F2"/>
<stop offset="0.49" stop-color="#FCFCFC"/>
<stop offset="0.79" stop-color="white"/>
<stop offset="0.84" stop-color="#FCFCFC"/>
<stop offset="0.88" stop-color="#F2F2F2"/>
<stop offset="0.92" stop-color="#E1E1E1"/>
<stop offset="0.95" stop-color="#C9C9C9"/>
<stop offset="0.97" stop-color="#BFBFBF"/>
<stop offset="1" stop-color="white"/>
</linearGradient>
<linearGradient id="paint22_linear_2027_1113" x1="25.9765" y1="89.075" x2="127.983" y2="89.075" gradientUnits="userSpaceOnUse">
<stop stop-color="#DFDFDF"/>
<stop offset="0.02" stop-color="#E1E1E1"/>
<stop offset="0.24" stop-color="#F2F2F2"/>
<stop offset="0.49" stop-color="#FCFCFC"/>
<stop offset="0.79" stop-color="white"/>
<stop offset="0.84" stop-color="#FCFCFC"/>
<stop offset="0.88" stop-color="#F2F2F2"/>
<stop offset="0.92" stop-color="#E1E1E1"/>
<stop offset="0.95" stop-color="#C9C9C9"/>
<stop offset="0.97" stop-color="#BFBFBF"/>
<stop offset="1" stop-color="white"/>
</linearGradient>
<linearGradient id="paint23_linear_2027_1113" x1="25.9794" y1="66.3934" x2="127.986" y2="66.3934" gradientUnits="userSpaceOnUse">
<stop stop-color="#DFDFDF"/>
<stop offset="0.02" stop-color="#E1E1E1"/>
<stop offset="0.24" stop-color="#F2F2F2"/>
<stop offset="0.49" stop-color="#FCFCFC"/>
<stop offset="0.79" stop-color="white"/>
<stop offset="0.84" stop-color="#FCFCFC"/>
<stop offset="0.88" stop-color="#F2F2F2"/>
<stop offset="0.92" stop-color="#E1E1E1"/>
<stop offset="0.95" stop-color="#C9C9C9"/>
<stop offset="0.97" stop-color="#BFBFBF"/>
<stop offset="1" stop-color="white"/>
</linearGradient>
<linearGradient id="paint24_linear_2027_1113" x1="25.9794" y1="59.0584" x2="127.986" y2="59.0584" gradientUnits="userSpaceOnUse">
<stop stop-color="#DFDFDF"/>
<stop offset="0.02" stop-color="#E1E1E1"/>
<stop offset="0.24" stop-color="#F2F2F2"/>
<stop offset="0.49" stop-color="#FCFCFC"/>
<stop offset="0.79" stop-color="white"/>
<stop offset="0.84" stop-color="#FCFCFC"/>
<stop offset="0.88" stop-color="#F2F2F2"/>
<stop offset="0.92" stop-color="#E1E1E1"/>
<stop offset="0.95" stop-color="#C9C9C9"/>
<stop offset="0.97" stop-color="#BFBFBF"/>
<stop offset="1" stop-color="white"/>
</linearGradient>
<linearGradient id="paint25_linear_2027_1113" x1="25.9766" y1="81.7342" x2="127.984" y2="81.7342" gradientUnits="userSpaceOnUse">
<stop stop-color="#DFDFDF"/>
<stop offset="0.02" stop-color="#E1E1E1"/>
<stop offset="0.24" stop-color="#F2F2F2"/>
<stop offset="0.49" stop-color="#FCFCFC"/>
<stop offset="0.79" stop-color="white"/>
<stop offset="0.84" stop-color="#FCFCFC"/>
<stop offset="0.88" stop-color="#F2F2F2"/>
<stop offset="0.92" stop-color="#E1E1E1"/>
<stop offset="0.95" stop-color="#C9C9C9"/>
<stop offset="0.97" stop-color="#BFBFBF"/>
<stop offset="1" stop-color="white"/>
</linearGradient>
<linearGradient id="paint26_linear_2027_1113" x1="25.976" y1="63.3241" x2="127.986" y2="63.3241" gradientUnits="userSpaceOnUse">
<stop stop-color="#DFDFDF"/>
<stop offset="0.02" stop-color="#E1E1E1"/>
<stop offset="0.24" stop-color="#F2F2F2"/>
<stop offset="0.49" stop-color="#FCFCFC"/>
<stop offset="0.79" stop-color="white"/>
<stop offset="0.84" stop-color="#FCFCFC"/>
<stop offset="0.88" stop-color="#F2F2F2"/>
<stop offset="0.92" stop-color="#E1E1E1"/>
<stop offset="0.95" stop-color="#C9C9C9"/>
<stop offset="0.97" stop-color="#BFBFBF"/>
<stop offset="1" stop-color="white"/>
</linearGradient>
<linearGradient id="paint27_linear_2027_1113" x1="25.976" y1="70.6622" x2="127.986" y2="70.6622" gradientUnits="userSpaceOnUse">
<stop stop-color="#DFDFDF"/>
<stop offset="0.02" stop-color="#E1E1E1"/>
<stop offset="0.24" stop-color="#F2F2F2"/>
<stop offset="0.49" stop-color="#FCFCFC"/>
<stop offset="0.79" stop-color="white"/>
<stop offset="0.84" stop-color="#FCFCFC"/>
<stop offset="0.88" stop-color="#F2F2F2"/>
<stop offset="0.92" stop-color="#E1E1E1"/>
<stop offset="0.95" stop-color="#C9C9C9"/>
<stop offset="0.97" stop-color="#BFBFBF"/>
<stop offset="1" stop-color="white"/>
</linearGradient>
<linearGradient id="paint28_linear_2027_1113" x1="25.9759" y1="85.3294" x2="127.986" y2="85.3294" gradientUnits="userSpaceOnUse">
<stop stop-color="#DFDFDF"/>
<stop offset="0.02" stop-color="#E1E1E1"/>
<stop offset="0.24" stop-color="#F2F2F2"/>
<stop offset="0.49" stop-color="#FCFCFC"/>
<stop offset="0.79" stop-color="white"/>
<stop offset="0.84" stop-color="#FCFCFC"/>
<stop offset="0.88" stop-color="#F2F2F2"/>
<stop offset="0.92" stop-color="#E1E1E1"/>
<stop offset="0.95" stop-color="#C9C9C9"/>
<stop offset="0.97" stop-color="#BFBFBF"/>
<stop offset="1" stop-color="white"/>
</linearGradient>
<linearGradient id="paint29_linear_2027_1113" x1="25.9759" y1="77.9972" x2="127.986" y2="77.9972" gradientUnits="userSpaceOnUse">
<stop stop-color="#DFDFDF"/>
<stop offset="0.02" stop-color="#E1E1E1"/>
<stop offset="0.24" stop-color="#F2F2F2"/>
<stop offset="0.49" stop-color="#FCFCFC"/>
<stop offset="0.79" stop-color="white"/>
<stop offset="0.84" stop-color="#FCFCFC"/>
<stop offset="0.88" stop-color="#F2F2F2"/>
<stop offset="0.92" stop-color="#E1E1E1"/>
<stop offset="0.95" stop-color="#C9C9C9"/>
<stop offset="0.97" stop-color="#BFBFBF"/>
<stop offset="1" stop-color="white"/>
</linearGradient>
<linearGradient id="paint30_linear_2027_1113" x1="25.9766" y1="59.7376" x2="128.006" y2="59.7376" gradientUnits="userSpaceOnUse">
<stop stop-color="#DFDFDF"/>
<stop offset="0.02" stop-color="#E1E1E1"/>
<stop offset="0.24" stop-color="#F2F2F2"/>
<stop offset="0.49" stop-color="#FCFCFC"/>
<stop offset="0.79" stop-color="white"/>
<stop offset="0.84" stop-color="#FCFCFC"/>
<stop offset="0.88" stop-color="#F2F2F2"/>
<stop offset="0.92" stop-color="#E1E1E1"/>
<stop offset="0.95" stop-color="#C9C9C9"/>
<stop offset="0.97" stop-color="#BFBFBF"/>
<stop offset="1" stop-color="white"/>
</linearGradient>
<linearGradient id="paint31_linear_2027_1113" x1="25.9709" y1="77.058" x2="128.012" y2="77.058" gradientUnits="userSpaceOnUse">
<stop stop-color="#DFDFDF"/>
<stop offset="0.02" stop-color="#E1E1E1"/>
<stop offset="0.24" stop-color="#F2F2F2"/>
<stop offset="0.49" stop-color="#FCFCFC"/>
<stop offset="0.79" stop-color="white"/>
<stop offset="0.84" stop-color="#FCFCFC"/>
<stop offset="0.88" stop-color="#F2F2F2"/>
<stop offset="0.92" stop-color="#E1E1E1"/>
<stop offset="0.95" stop-color="#C9C9C9"/>
<stop offset="0.97" stop-color="#BFBFBF"/>
<stop offset="1" stop-color="white"/>
</linearGradient>
<linearGradient id="paint32_linear_2027_1113" x1="25.982" y1="75.2111" x2="127.989" y2="75.2111" gradientUnits="userSpaceOnUse">
<stop stop-color="#DFDFDF"/>
<stop offset="0.02" stop-color="#E1E1E1"/>
<stop offset="0.24" stop-color="#F2F2F2"/>
<stop offset="0.49" stop-color="#FCFCFC"/>
<stop offset="0.79" stop-color="white"/>
<stop offset="0.84" stop-color="#FCFCFC"/>
<stop offset="0.88" stop-color="#F2F2F2"/>
<stop offset="0.92" stop-color="#E1E1E1"/>
<stop offset="0.95" stop-color="#C9C9C9"/>
<stop offset="0.97" stop-color="#BFBFBF"/>
<stop offset="1" stop-color="white"/>
</linearGradient>
<linearGradient id="paint33_linear_2027_1113" x1="25.982" y1="67.8789" x2="127.989" y2="67.8789" gradientUnits="userSpaceOnUse">
<stop stop-color="#DFDFDF"/>
<stop offset="0.02" stop-color="#E1E1E1"/>
<stop offset="0.24" stop-color="#F2F2F2"/>
<stop offset="0.49" stop-color="#FCFCFC"/>
<stop offset="0.79" stop-color="white"/>
<stop offset="0.84" stop-color="#FCFCFC"/>
<stop offset="0.88" stop-color="#F2F2F2"/>
<stop offset="0.92" stop-color="#E1E1E1"/>
<stop offset="0.95" stop-color="#C9C9C9"/>
<stop offset="0.97" stop-color="#BFBFBF"/>
<stop offset="1" stop-color="white"/>
</linearGradient>
<linearGradient id="paint34_linear_2027_1113" x1="25.982" y1="82.5433" x2="127.989" y2="82.5433" gradientUnits="userSpaceOnUse">
<stop stop-color="#DFDFDF"/>
<stop offset="0.02" stop-color="#E1E1E1"/>
<stop offset="0.24" stop-color="#F2F2F2"/>
<stop offset="0.49" stop-color="#FCFCFC"/>
<stop offset="0.79" stop-color="white"/>
<stop offset="0.84" stop-color="#FCFCFC"/>
<stop offset="0.88" stop-color="#F2F2F2"/>
<stop offset="0.92" stop-color="#E1E1E1"/>
<stop offset="0.95" stop-color="#C9C9C9"/>
<stop offset="0.97" stop-color="#BFBFBF"/>
<stop offset="1" stop-color="white"/>
</linearGradient>
<linearGradient id="paint35_linear_2027_1113" x1="25.962" y1="64.743" x2="128.021" y2="64.743" gradientUnits="userSpaceOnUse">
<stop stop-color="#DFDFDF"/>
<stop offset="0.02" stop-color="#E1E1E1"/>
<stop offset="0.24" stop-color="#F2F2F2"/>
<stop offset="0.49" stop-color="#FCFCFC"/>
<stop offset="0.79" stop-color="white"/>
<stop offset="0.84" stop-color="#FCFCFC"/>
<stop offset="0.88" stop-color="#F2F2F2"/>
<stop offset="0.92" stop-color="#E1E1E1"/>
<stop offset="0.95" stop-color="#C9C9C9"/>
<stop offset="0.97" stop-color="#BFBFBF"/>
<stop offset="1" stop-color="white"/>
</linearGradient>
<linearGradient id="paint36_linear_2027_1113" x1="25.982" y1="60.5439" x2="127.986" y2="60.5439" gradientUnits="userSpaceOnUse">
<stop stop-color="#DFDFDF"/>
<stop offset="0.02" stop-color="#E1E1E1"/>
<stop offset="0.24" stop-color="#F2F2F2"/>
<stop offset="0.49" stop-color="#FCFCFC"/>
<stop offset="0.79" stop-color="white"/>
<stop offset="0.84" stop-color="#FCFCFC"/>
<stop offset="0.88" stop-color="#F2F2F2"/>
<stop offset="0.92" stop-color="#E1E1E1"/>
<stop offset="0.95" stop-color="#C9C9C9"/>
<stop offset="0.97" stop-color="#BFBFBF"/>
<stop offset="1" stop-color="white"/>
</linearGradient>
<linearGradient id="paint37_linear_2027_1113" x1="25.962" y1="57.411" x2="128.021" y2="57.411" gradientUnits="userSpaceOnUse">
<stop stop-color="#DFDFDF"/>
<stop offset="0.02" stop-color="#E1E1E1"/>
<stop offset="0.24" stop-color="#F2F2F2"/>
<stop offset="0.49" stop-color="#FCFCFC"/>
<stop offset="0.79" stop-color="white"/>
<stop offset="0.84" stop-color="#FCFCFC"/>
<stop offset="0.88" stop-color="#F2F2F2"/>
<stop offset="0.92" stop-color="#E1E1E1"/>
<stop offset="0.95" stop-color="#C9C9C9"/>
<stop offset="0.97" stop-color="#BFBFBF"/>
<stop offset="1" stop-color="white"/>
</linearGradient>
<linearGradient id="paint38_linear_2027_1113" x1="25.9794" y1="70.9714" x2="127.995" y2="70.9714" gradientUnits="userSpaceOnUse">
<stop stop-color="#DFDFDF"/>
<stop offset="0.02" stop-color="#E1E1E1"/>
<stop offset="0.24" stop-color="#F2F2F2"/>
<stop offset="0.49" stop-color="#FCFCFC"/>
<stop offset="0.79" stop-color="white"/>
<stop offset="0.84" stop-color="#FCFCFC"/>
<stop offset="0.88" stop-color="#F2F2F2"/>
<stop offset="0.92" stop-color="#E1E1E1"/>
<stop offset="0.95" stop-color="#C9C9C9"/>
<stop offset="0.97" stop-color="#BFBFBF"/>
<stop offset="1" stop-color="white"/>
</linearGradient>
<linearGradient id="paint39_linear_2027_1113" x1="25.9795" y1="63.6391" x2="127.995" y2="63.6391" gradientUnits="userSpaceOnUse">
<stop stop-color="#DFDFDF"/>
<stop offset="0.02" stop-color="#E1E1E1"/>
<stop offset="0.24" stop-color="#F2F2F2"/>
<stop offset="0.49" stop-color="#FCFCFC"/>
<stop offset="0.79" stop-color="white"/>
<stop offset="0.84" stop-color="#FCFCFC"/>
<stop offset="0.88" stop-color="#F2F2F2"/>
<stop offset="0.92" stop-color="#E1E1E1"/>
<stop offset="0.95" stop-color="#C9C9C9"/>
<stop offset="0.97" stop-color="#BFBFBF"/>
<stop offset="1" stop-color="white"/>
</linearGradient>
<linearGradient id="paint40_linear_2027_1113" x1="25.9824" y1="85.6416" x2="127.992" y2="85.6416" gradientUnits="userSpaceOnUse">
<stop stop-color="#DFDFDF"/>
<stop offset="0.02" stop-color="#E1E1E1"/>
<stop offset="0.24" stop-color="#F2F2F2"/>
<stop offset="0.49" stop-color="#FCFCFC"/>
<stop offset="0.79" stop-color="white"/>
<stop offset="0.84" stop-color="#FCFCFC"/>
<stop offset="0.88" stop-color="#F2F2F2"/>
<stop offset="0.92" stop-color="#E1E1E1"/>
<stop offset="0.95" stop-color="#C9C9C9"/>
<stop offset="0.97" stop-color="#BFBFBF"/>
<stop offset="1" stop-color="white"/>
</linearGradient>
<linearGradient id="paint41_linear_2027_1113" x1="25.9795" y1="56.3013" x2="127.995" y2="56.3013" gradientUnits="userSpaceOnUse">
<stop stop-color="#DFDFDF"/>
<stop offset="0.02" stop-color="#E1E1E1"/>
<stop offset="0.24" stop-color="#F2F2F2"/>
<stop offset="0.49" stop-color="#FCFCFC"/>
<stop offset="0.79" stop-color="white"/>
<stop offset="0.84" stop-color="#FCFCFC"/>
<stop offset="0.88" stop-color="#F2F2F2"/>
<stop offset="0.92" stop-color="#E1E1E1"/>
<stop offset="0.95" stop-color="#C9C9C9"/>
<stop offset="0.97" stop-color="#BFBFBF"/>
<stop offset="1" stop-color="white"/>
</linearGradient>
<linearGradient id="paint42_linear_2027_1113" x1="25.9795" y1="78.3035" x2="127.995" y2="78.3035" gradientUnits="userSpaceOnUse">
<stop stop-color="#DFDFDF"/>
<stop offset="0.02" stop-color="#E1E1E1"/>
<stop offset="0.24" stop-color="#F2F2F2"/>
<stop offset="0.49" stop-color="#FCFCFC"/>
<stop offset="0.79" stop-color="white"/>
<stop offset="0.84" stop-color="#FCFCFC"/>
<stop offset="0.88" stop-color="#F2F2F2"/>
<stop offset="0.92" stop-color="#E1E1E1"/>
<stop offset="0.95" stop-color="#C9C9C9"/>
<stop offset="0.97" stop-color="#BFBFBF"/>
<stop offset="1" stop-color="white"/>
</linearGradient>
<linearGradient id="paint43_linear_2027_1113" x1="25.962" y1="72.0782" x2="128.021" y2="72.0782" gradientUnits="userSpaceOnUse">
<stop stop-color="#DFDFDF"/>
<stop offset="0.02" stop-color="#E1E1E1"/>
<stop offset="0.24" stop-color="#F2F2F2"/>
<stop offset="0.49" stop-color="#FCFCFC"/>
<stop offset="0.79" stop-color="white"/>
<stop offset="0.84" stop-color="#FCFCFC"/>
<stop offset="0.88" stop-color="#F2F2F2"/>
<stop offset="0.92" stop-color="#E1E1E1"/>
<stop offset="0.95" stop-color="#C9C9C9"/>
<stop offset="0.97" stop-color="#BFBFBF"/>
<stop offset="1" stop-color="white"/>
</linearGradient>
<linearGradient id="paint44_linear_2027_1113" x1="25.9709" y1="62.3905" x2="128.012" y2="62.3905" gradientUnits="userSpaceOnUse">
<stop stop-color="#DFDFDF"/>
<stop offset="0.02" stop-color="#E1E1E1"/>
<stop offset="0.24" stop-color="#F2F2F2"/>
<stop offset="0.49" stop-color="#FCFCFC"/>
<stop offset="0.79" stop-color="white"/>
<stop offset="0.84" stop-color="#FCFCFC"/>
<stop offset="0.88" stop-color="#F2F2F2"/>
<stop offset="0.92" stop-color="#E1E1E1"/>
<stop offset="0.95" stop-color="#C9C9C9"/>
<stop offset="0.97" stop-color="#BFBFBF"/>
<stop offset="1" stop-color="white"/>
</linearGradient>
<linearGradient id="paint45_linear_2027_1113" x1="25.9787" y1="80.3294" x2="127.988" y2="80.3294" gradientUnits="userSpaceOnUse">
<stop stop-color="#DFDFDF"/>
<stop offset="0.02" stop-color="#E1E1E1"/>
<stop offset="0.24" stop-color="#F2F2F2"/>
<stop offset="0.49" stop-color="#FCFCFC"/>
<stop offset="0.79" stop-color="white"/>
<stop offset="0.84" stop-color="#FCFCFC"/>
<stop offset="0.88" stop-color="#F2F2F2"/>
<stop offset="0.92" stop-color="#E1E1E1"/>
<stop offset="0.95" stop-color="#C9C9C9"/>
<stop offset="0.97" stop-color="#BFBFBF"/>
<stop offset="1" stop-color="white"/>
</linearGradient>
<linearGradient id="paint46_linear_2027_1113" x1="25.962" y1="79.4105" x2="128.021" y2="79.4105" gradientUnits="userSpaceOnUse">
<stop stop-color="#DFDFDF"/>
<stop offset="0.02" stop-color="#E1E1E1"/>
<stop offset="0.24" stop-color="#F2F2F2"/>
<stop offset="0.49" stop-color="#FCFCFC"/>
<stop offset="0.79" stop-color="white"/>
<stop offset="0.84" stop-color="#FCFCFC"/>
<stop offset="0.88" stop-color="#F2F2F2"/>
<stop offset="0.92" stop-color="#E1E1E1"/>
<stop offset="0.95" stop-color="#C9C9C9"/>
<stop offset="0.97" stop-color="#BFBFBF"/>
<stop offset="1" stop-color="white"/>
</linearGradient>
<linearGradient id="paint47_linear_2027_1113" x1="25.9787" y1="65.6622" x2="127.988" y2="65.6622" gradientUnits="userSpaceOnUse">
<stop stop-color="#DFDFDF"/>
<stop offset="0.02" stop-color="#E1E1E1"/>
<stop offset="0.24" stop-color="#F2F2F2"/>
<stop offset="0.49" stop-color="#FCFCFC"/>
<stop offset="0.79" stop-color="white"/>
<stop offset="0.84" stop-color="#FCFCFC"/>
<stop offset="0.88" stop-color="#F2F2F2"/>
<stop offset="0.92" stop-color="#E1E1E1"/>
<stop offset="0.95" stop-color="#C9C9C9"/>
<stop offset="0.97" stop-color="#BFBFBF"/>
<stop offset="1" stop-color="white"/>
</linearGradient>
<linearGradient id="paint48_linear_2027_1113" x1="25.9787" y1="87.6646" x2="127.988" y2="87.6646" gradientUnits="userSpaceOnUse">
<stop stop-color="#DFDFDF"/>
<stop offset="0.02" stop-color="#E1E1E1"/>
<stop offset="0.24" stop-color="#F2F2F2"/>
<stop offset="0.49" stop-color="#FCFCFC"/>
<stop offset="0.79" stop-color="white"/>
<stop offset="0.84" stop-color="#FCFCFC"/>
<stop offset="0.88" stop-color="#F2F2F2"/>
<stop offset="0.92" stop-color="#E1E1E1"/>
<stop offset="0.95" stop-color="#C9C9C9"/>
<stop offset="0.97" stop-color="#BFBFBF"/>
<stop offset="1" stop-color="white"/>
</linearGradient>
<linearGradient id="paint49_linear_2027_1113" x1="25.9709" y1="69.7316" x2="128.012" y2="69.7316" gradientUnits="userSpaceOnUse">
<stop stop-color="#DFDFDF"/>
<stop offset="0.02" stop-color="#E1E1E1"/>
<stop offset="0.24" stop-color="#F2F2F2"/>
<stop offset="0.49" stop-color="#FCFCFC"/>
<stop offset="0.79" stop-color="white"/>
<stop offset="0.84" stop-color="#FCFCFC"/>
<stop offset="0.88" stop-color="#F2F2F2"/>
<stop offset="0.92" stop-color="#E1E1E1"/>
<stop offset="0.95" stop-color="#C9C9C9"/>
<stop offset="0.97" stop-color="#BFBFBF"/>
<stop offset="1" stop-color="white"/>
</linearGradient>
<linearGradient id="paint50_linear_2027_1113" x1="25.973" y1="58.327" x2="128.006" y2="58.327" gradientUnits="userSpaceOnUse">
<stop stop-color="#DFDFDF"/>
<stop offset="0.02" stop-color="#E1E1E1"/>
<stop offset="0.24" stop-color="#F2F2F2"/>
<stop offset="0.49" stop-color="#FCFCFC"/>
<stop offset="0.79" stop-color="white"/>
<stop offset="0.84" stop-color="#FCFCFC"/>
<stop offset="0.88" stop-color="#F2F2F2"/>
<stop offset="0.92" stop-color="#E1E1E1"/>
<stop offset="0.95" stop-color="#C9C9C9"/>
<stop offset="0.97" stop-color="#BFBFBF"/>
<stop offset="1" stop-color="white"/>
</linearGradient>
<linearGradient id="paint51_linear_2027_1113" x1="25.9787" y1="73.0003" x2="127.988" y2="73.0003" gradientUnits="userSpaceOnUse">
<stop stop-color="#DFDFDF"/>
<stop offset="0.02" stop-color="#E1E1E1"/>
<stop offset="0.24" stop-color="#F2F2F2"/>
<stop offset="0.49" stop-color="#FCFCFC"/>
<stop offset="0.79" stop-color="white"/>
<stop offset="0.84" stop-color="#FCFCFC"/>
<stop offset="0.88" stop-color="#F2F2F2"/>
<stop offset="0.92" stop-color="#E1E1E1"/>
<stop offset="0.95" stop-color="#C9C9C9"/>
<stop offset="0.97" stop-color="#BFBFBF"/>
<stop offset="1" stop-color="white"/>
</linearGradient>
<linearGradient id="paint52_linear_2027_1113" x1="25.9618" y1="86.7455" x2="128.021" y2="86.7455" gradientUnits="userSpaceOnUse">
<stop stop-color="#DFDFDF"/>
<stop offset="0.02" stop-color="#E1E1E1"/>
<stop offset="0.24" stop-color="#F2F2F2"/>
<stop offset="0.49" stop-color="#FCFCFC"/>
<stop offset="0.79" stop-color="white"/>
<stop offset="0.84" stop-color="#FCFCFC"/>
<stop offset="0.88" stop-color="#F2F2F2"/>
<stop offset="0.92" stop-color="#E1E1E1"/>
<stop offset="0.95" stop-color="#C9C9C9"/>
<stop offset="0.97" stop-color="#BFBFBF"/>
<stop offset="1" stop-color="white"/>
</linearGradient>
<linearGradient id="paint53_linear_2027_1113" x1="25.979" y1="83.5636" x2="127.992" y2="83.5636" gradientUnits="userSpaceOnUse">
<stop stop-color="#DFDFDF"/>
<stop offset="0.02" stop-color="#E1E1E1"/>
<stop offset="0.24" stop-color="#F2F2F2"/>
<stop offset="0.49" stop-color="#FCFCFC"/>
<stop offset="0.79" stop-color="white"/>
<stop offset="0.84" stop-color="#FCFCFC"/>
<stop offset="0.88" stop-color="#F2F2F2"/>
<stop offset="0.92" stop-color="#E1E1E1"/>
<stop offset="0.95" stop-color="#C9C9C9"/>
<stop offset="0.97" stop-color="#BFBFBF"/>
<stop offset="1" stop-color="white"/>
</linearGradient>
<linearGradient id="paint54_linear_2027_1113" x1="25.979" y1="61.5639" x2="127.992" y2="61.5639" gradientUnits="userSpaceOnUse">
<stop stop-color="#DFDFDF"/>
<stop offset="0.02" stop-color="#E1E1E1"/>
<stop offset="0.24" stop-color="#F2F2F2"/>
<stop offset="0.49" stop-color="#FCFCFC"/>
<stop offset="0.79" stop-color="white"/>
<stop offset="0.84" stop-color="#FCFCFC"/>
<stop offset="0.88" stop-color="#F2F2F2"/>
<stop offset="0.92" stop-color="#E1E1E1"/>
<stop offset="0.95" stop-color="#C9C9C9"/>
<stop offset="0.97" stop-color="#BFBFBF"/>
<stop offset="1" stop-color="white"/>
</linearGradient>
<linearGradient id="paint55_linear_2027_1113" x1="25.9789" y1="76.2314" x2="127.992" y2="76.2314" gradientUnits="userSpaceOnUse">
<stop stop-color="#DFDFDF"/>
<stop offset="0.02" stop-color="#E1E1E1"/>
<stop offset="0.24" stop-color="#F2F2F2"/>
<stop offset="0.49" stop-color="#FCFCFC"/>
<stop offset="0.79" stop-color="white"/>
<stop offset="0.84" stop-color="#FCFCFC"/>
<stop offset="0.88" stop-color="#F2F2F2"/>
<stop offset="0.92" stop-color="#E1E1E1"/>
<stop offset="0.95" stop-color="#C9C9C9"/>
<stop offset="0.97" stop-color="#BFBFBF"/>
<stop offset="1" stop-color="white"/>
</linearGradient>
<linearGradient id="paint56_linear_2027_1113" x1="25.979" y1="68.8933" x2="127.992" y2="68.8933" gradientUnits="userSpaceOnUse">
<stop stop-color="#DFDFDF"/>
<stop offset="0.02" stop-color="#E1E1E1"/>
<stop offset="0.24" stop-color="#F2F2F2"/>
<stop offset="0.49" stop-color="#FCFCFC"/>
<stop offset="0.79" stop-color="white"/>
<stop offset="0.84" stop-color="#FCFCFC"/>
<stop offset="0.88" stop-color="#F2F2F2"/>
<stop offset="0.92" stop-color="#E1E1E1"/>
<stop offset="0.95" stop-color="#C9C9C9"/>
<stop offset="0.97" stop-color="#BFBFBF"/>
<stop offset="1" stop-color="white"/>
</linearGradient>
<clipPath id="clip0_2027_1113">
<rect width="128" height="125" fill="white"/>
</clipPath>
</defs>
</svg>
