<svg width="599" height="88" viewBox="0 0 599 88" fill="none" xmlns="http://www.w3.org/2000/svg">
<path d="M125.976 69V18.6H157.296V26.232H134.328V40.344H153.984V47.976H134.328V69H125.976ZM180.118 69.864C176.518 69.864 173.302 69.072 170.47 67.488C167.686 65.856 165.502 63.624 163.918 60.792C162.334 57.96 161.542 54.696 161.542 51C161.542 47.304 162.31 44.04 163.846 41.208C165.43 38.376 167.614 36.168 170.398 34.584C173.182 32.952 176.374 32.136 179.974 32.136C183.574 32.136 186.766 32.952 189.55 34.584C192.334 36.168 194.494 38.376 196.03 41.208C197.614 44.04 198.406 47.304 198.406 51C198.406 54.696 197.638 57.96 196.102 60.792C194.566 63.624 192.406 65.856 189.622 67.488C186.838 69.072 183.67 69.864 180.118 69.864ZM180.118 62.448C182.086 62.448 183.838 61.968 185.374 61.008C186.91 60 188.11 58.656 188.974 56.976C189.838 55.248 190.27 53.256 190.27 51C190.27 48.744 189.814 46.776 188.902 45.096C188.038 43.368 186.838 42.024 185.302 41.064C183.766 40.056 181.99 39.552 179.974 39.552C177.958 39.552 176.182 40.032 174.646 40.992C173.11 41.952 171.91 43.296 171.046 45.024C170.182 46.752 169.75 48.744 169.75 51C169.75 53.256 170.182 55.248 171.046 56.976C171.958 58.656 173.182 60 174.718 61.008C176.302 61.968 178.102 62.448 180.118 62.448ZM205.394 69V33H213.458V39.552C214.898 37.296 216.77 35.616 219.074 34.512C221.378 33.408 223.754 32.856 226.202 32.856V40.56C223.994 40.56 221.906 40.872 219.938 41.496C218.018 42.072 216.458 43.032 215.258 44.376C214.058 45.72 213.458 47.496 213.458 49.704V69H205.394ZM247.606 69.864C244.102 69.864 240.982 69.072 238.246 67.488C235.558 65.856 233.422 63.624 231.838 60.792C230.302 57.96 229.534 54.696 229.534 51C229.534 47.304 230.326 44.04 231.91 41.208C233.494 38.376 235.654 36.168 238.39 34.584C241.174 32.952 244.342 32.136 247.894 32.136C251.11 32.136 254.014 32.976 256.606 34.656C259.198 36.288 261.238 38.664 262.726 41.784C264.262 44.904 265.03 48.624 265.03 52.944H237.886C238.126 55.968 239.23 58.344 241.198 60.072C243.214 61.8 245.59 62.664 248.326 62.664C250.534 62.664 252.358 62.184 253.798 61.224C255.238 60.216 256.366 58.92 257.182 57.336L264.31 60.36C263.302 62.28 262.006 63.96 260.422 65.4C258.886 66.84 257.038 67.944 254.878 68.712C252.766 69.48 250.342 69.864 247.606 69.864ZM238.39 46.752H256.318C256.174 45.024 255.67 43.608 254.806 42.504C253.942 41.352 252.886 40.488 251.638 39.912C250.39 39.336 249.07 39.048 247.678 39.048C246.334 39.048 244.966 39.336 243.574 39.912C242.23 40.44 241.078 41.28 240.118 42.432C239.158 43.584 238.582 45.024 238.39 46.752ZM266.548 69L279.94 50.352L267.484 33H276.988L284.332 43.8L291.604 33H301.108L288.796 50.424L301.972 69H292.396L284.332 56.904L276.196 69H266.548ZM326.015 69V18.6H343.799C347.255 18.6 350.303 19.296 352.943 20.688C355.583 22.08 357.647 24.024 359.135 26.52C360.623 28.968 361.367 31.824 361.367 35.088C361.367 38.256 360.671 41.088 359.279 43.584C357.887 46.08 355.943 48.048 353.447 49.488C350.999 50.88 348.143 51.576 344.879 51.576H334.367V69H326.015ZM334.367 43.872H344.735C347.135 43.872 349.103 43.056 350.639 41.424C352.175 39.792 352.943 37.68 352.943 35.088C352.943 32.448 352.079 30.312 350.351 28.68C348.623 27.048 346.391 26.232 343.655 26.232H334.367V43.872ZM367.042 69V33H375.106V39.552C376.546 37.296 378.418 35.616 380.722 34.512C383.026 33.408 385.402 32.856 387.85 32.856V40.56C385.642 40.56 383.554 40.872 381.586 41.496C379.666 42.072 378.106 43.032 376.906 44.376C375.706 45.72 375.106 47.496 375.106 49.704V69H367.042ZM409.758 69.864C406.158 69.864 402.942 69.072 400.11 67.488C397.326 65.856 395.142 63.624 393.558 60.792C391.974 57.96 391.182 54.696 391.182 51C391.182 47.304 391.95 44.04 393.486 41.208C395.07 38.376 397.254 36.168 400.038 34.584C402.822 32.952 406.014 32.136 409.614 32.136C413.214 32.136 416.406 32.952 419.19 34.584C421.974 36.168 424.134 38.376 425.67 41.208C427.254 44.04 428.046 47.304 428.046 51C428.046 54.696 427.278 57.96 425.742 60.792C424.206 63.624 422.046 65.856 419.262 67.488C416.478 69.072 413.31 69.864 409.758 69.864ZM409.758 62.448C411.726 62.448 413.478 61.968 415.014 61.008C416.55 60 417.75 58.656 418.614 56.976C419.478 55.248 419.91 53.256 419.91 51C419.91 48.744 419.454 46.776 418.542 45.096C417.678 43.368 416.478 42.024 414.942 41.064C413.406 40.056 411.63 39.552 409.614 39.552C407.598 39.552 405.822 40.032 404.286 40.992C402.75 41.952 401.55 43.296 400.686 45.024C399.822 46.752 399.39 48.744 399.39 51C399.39 53.256 399.822 55.248 400.686 56.976C401.598 58.656 402.822 60 404.358 61.008C405.942 61.968 407.742 62.448 409.758 62.448ZM449.362 69.864C445.57 69.864 442.666 68.928 440.65 67.056C438.682 65.136 437.698 62.4 437.698 58.848V39.912H431.722V33H437.698V21.768H445.69V33H455.41V39.912H445.69V57.336C445.69 59.016 446.074 60.288 446.842 61.152C447.658 62.016 448.834 62.448 450.37 62.448C450.85 62.448 451.378 62.352 451.954 62.16C452.53 61.968 453.178 61.608 453.898 61.08L456.85 67.2C455.602 68.064 454.354 68.712 453.106 69.144C451.858 69.624 450.61 69.864 449.362 69.864ZM479.368 69.864C475.768 69.864 472.552 69.072 469.72 67.488C466.936 65.856 464.752 63.624 463.168 60.792C461.584 57.96 460.792 54.696 460.792 51C460.792 47.304 461.56 44.04 463.096 41.208C464.68 38.376 466.864 36.168 469.648 34.584C472.432 32.952 475.624 32.136 479.224 32.136C482.824 32.136 486.016 32.952 488.8 34.584C491.584 36.168 493.744 38.376 495.28 41.208C496.864 44.04 497.656 47.304 497.656 51C497.656 54.696 496.888 57.96 495.352 60.792C493.816 63.624 491.656 65.856 488.872 67.488C486.088 69.072 482.92 69.864 479.368 69.864ZM479.368 62.448C481.336 62.448 483.088 61.968 484.624 61.008C486.16 60 487.36 58.656 488.224 56.976C489.088 55.248 489.52 53.256 489.52 51C489.52 48.744 489.064 46.776 488.152 45.096C487.288 43.368 486.088 42.024 484.552 41.064C483.016 40.056 481.24 39.552 479.224 39.552C477.208 39.552 475.432 40.032 473.896 40.992C472.36 41.952 471.16 43.296 470.296 45.024C469.432 46.752 469 48.744 469 51C469 53.256 469.432 55.248 470.296 56.976C471.208 58.656 472.432 60 473.968 61.008C475.552 61.968 477.352 62.448 479.368 62.448ZM521.492 69.864C517.796 69.864 514.532 69.072 511.7 67.488C508.868 65.856 506.636 63.624 505.004 60.792C503.42 57.96 502.628 54.696 502.628 51C502.628 47.304 503.42 44.04 505.004 41.208C506.636 38.376 508.844 36.168 511.628 34.584C514.46 32.952 517.7 32.136 521.348 32.136C524.9 32.136 528.116 33 530.996 34.728C533.876 36.408 536.012 38.832 537.404 42L529.916 44.88C529.148 43.296 527.972 42.024 526.388 41.064C524.804 40.104 523.004 39.624 520.988 39.624C519.02 39.624 517.268 40.128 515.732 41.136C514.196 42.096 512.996 43.44 512.132 45.168C511.268 46.848 510.836 48.792 510.836 51C510.836 53.208 511.268 55.176 512.132 56.904C513.044 58.584 514.268 59.928 515.804 60.936C517.388 61.896 519.164 62.376 521.132 62.376C523.148 62.376 524.948 61.872 526.532 60.864C528.116 59.808 529.292 58.392 530.06 56.616L537.548 59.496C536.156 62.76 534.02 65.304 531.14 67.128C528.308 68.952 525.092 69.864 521.492 69.864ZM560.368 69.864C556.768 69.864 553.552 69.072 550.72 67.488C547.936 65.856 545.752 63.624 544.168 60.792C542.584 57.96 541.792 54.696 541.792 51C541.792 47.304 542.56 44.04 544.096 41.208C545.68 38.376 547.864 36.168 550.648 34.584C553.432 32.952 556.624 32.136 560.224 32.136C563.824 32.136 567.016 32.952 569.8 34.584C572.584 36.168 574.744 38.376 576.28 41.208C577.864 44.04 578.656 47.304 578.656 51C578.656 54.696 577.888 57.96 576.352 60.792C574.816 63.624 572.656 65.856 569.872 67.488C567.088 69.072 563.92 69.864 560.368 69.864ZM560.368 62.448C562.336 62.448 564.088 61.968 565.624 61.008C567.16 60 568.36 58.656 569.224 56.976C570.088 55.248 570.52 53.256 570.52 51C570.52 48.744 570.064 46.776 569.152 45.096C568.288 43.368 567.088 42.024 565.552 41.064C564.016 40.056 562.24 39.552 560.224 39.552C558.208 39.552 556.432 40.032 554.896 40.992C553.36 41.952 552.16 43.296 551.296 45.024C550.432 46.752 550 48.744 550 51C550 53.256 550.432 55.248 551.296 56.976C552.208 58.656 553.432 60 554.968 61.008C556.552 61.968 558.352 62.448 560.368 62.448ZM585.644 69V18.6H593.708V69H585.644Z" fill="#101010"/>
<path d="M44.1412 69.3022C65.7096 69.1817 83.1778 66.1211 83.1574 62.4663C83.137 58.8114 65.6357 55.9463 44.0673 56.0669C22.4988 56.1874 5.0307 59.248 5.05109 62.9028C5.07149 66.5577 22.5727 69.4228 44.1412 69.3022Z" fill="#0E3CA5"/>
<path d="M44.037 50.6138C68.3171 50.4782 87.9835 47.4055 87.963 43.7506C87.9426 40.0958 68.2432 37.2429 43.963 37.3785C19.6829 37.5141 0.0165477 40.5869 0.0369604 44.2417C0.0573731 47.8965 19.7568 50.7494 44.037 50.6138Z" fill="#0E3CA5"/>
<path d="M43.933 31.9229C65.8314 31.8005 83.567 28.7384 83.5466 25.0836C83.5262 21.4288 65.7575 18.5652 43.8591 18.6876C21.9607 18.81 4.22503 21.872 4.24543 25.5268C4.26583 29.1817 22.0345 32.0453 43.933 31.9229Z" fill="#0E3CA5"/>
<path d="M21.5666 6.15865C29.5579 10.2843 40.7435 12.8533 53.1348 12.8533C60.1189 12.8533 66.7189 12.0354 72.5827 10.5854C64.8944 3.99116 54.9144 0 43.9955 0C35.7994 0 28.1324 2.25077 21.5645 6.15865H21.5666Z" fill="#0E3CA5"/>
<path d="M66.4253 81.8413C58.434 77.7135 47.2484 75.1445 34.8571 75.1445C27.873 75.1445 21.273 75.9624 15.4092 77.4124C23.0974 84.0045 33.0775 87.9978 43.9964 87.9978C52.1925 87.9978 59.8594 85.7471 66.4253 81.8392V81.8413Z" fill="#0E3CA5"/>
<path d="M87.8704 46.7365C87.9259 45.8311 87.9643 44.9193 87.9643 43.9989C87.9622 19.6996 68.2774 0 43.9963 0C43.0766 0 42.1676 0.0384382 41.2607 0.09396C43.7317 9.02229 50.0223 19.3921 59.3046 28.6791C68.5847 37.9662 78.9488 44.2616 87.8683 46.7344L87.8704 46.7365Z" fill="#5493F7"/>
<path d="M43.9961 87.9981C44.9158 87.9981 45.8248 87.9618 46.7317 87.9063C44.2607 78.9779 37.9701 68.6082 28.6879 59.3189C19.4056 50.0297 9.04579 43.7365 0.124163 41.2637C0.0686828 42.1691 0.0302734 43.0809 0.0302734 44.0013C0.0302734 68.3007 19.715 88.0002 43.9961 88.0002V87.9981Z" fill="#5493F7"/>
<path d="M61.3488 65.839C64.0283 63.115 57.3742 52.2116 46.4865 41.4856C35.5989 30.7595 24.6005 24.2726 21.921 26.9965C19.2415 29.7205 25.8955 40.6239 36.7832 51.3499C47.6709 62.076 58.6693 68.5629 61.3488 65.839Z" fill="#EE7730"/>
<path d="M66.1339 60.9532C68.8134 58.2293 62.1594 47.3259 51.2717 36.5998C40.384 25.8738 29.3856 19.3868 26.7062 22.1108C24.0267 24.8348 30.6807 35.7381 41.5684 46.4642C52.4561 57.1902 63.4544 63.6772 66.1339 60.9532Z" fill="#F9D85E"/>
</svg>
