<svg width="317" height="88" viewBox="0 0 317 88" fill="none" xmlns="http://www.w3.org/2000/svg">
<path d="M125.976 69V18.6H134.328V61.368H157.152V69H125.976ZM183.38 70.008C179.396 70.008 175.892 69.216 172.868 67.632C169.892 66 167.564 63.72 165.884 60.792C164.252 57.864 163.436 54.456 163.436 50.568V18.6H171.788V50.568C171.788 52.92 172.268 54.984 173.228 56.76C174.236 58.488 175.628 59.856 177.404 60.864C179.18 61.824 181.22 62.304 183.524 62.304C185.876 62.304 187.94 61.824 189.716 60.864C191.54 59.856 192.932 58.488 193.892 56.76C194.852 54.984 195.332 52.92 195.332 50.568V18.6H203.684V50.568C203.684 54.456 202.844 57.864 201.164 60.792C199.532 63.72 197.18 66 194.108 67.632C191.084 69.216 187.508 70.008 183.38 70.008ZM214.921 69V18.6H223.561L250.345 55.032V18.6H258.697V69H250.345L223.273 32.136V69H214.921ZM292.495 69.864C287.647 69.864 283.327 68.76 279.535 66.552C275.791 64.296 272.839 61.224 270.679 57.336C268.567 53.4 267.511 48.888 267.511 43.8C267.511 38.712 268.567 34.224 270.679 30.336C272.839 26.4 275.791 23.328 279.535 21.12C283.279 18.864 287.575 17.736 292.423 17.736C295.687 17.736 298.759 18.336 301.639 19.536C304.519 20.688 307.063 22.296 309.271 24.36C311.527 26.424 313.255 28.824 314.455 31.56L306.823 34.656C305.959 32.832 304.783 31.224 303.295 29.832C301.855 28.392 300.199 27.288 298.327 26.52C296.455 25.752 294.487 25.368 292.423 25.368C289.255 25.368 286.423 26.16 283.927 27.744C281.479 29.328 279.535 31.512 278.095 34.296C276.703 37.032 276.007 40.2 276.007 43.8C276.007 47.4 276.703 50.592 278.095 53.376C279.535 56.16 281.503 58.344 283.999 59.928C286.543 61.512 289.423 62.304 292.639 62.304C294.751 62.304 296.719 61.896 298.543 61.08C300.415 60.216 302.071 59.04 303.511 57.552C304.999 56.064 306.175 54.336 307.039 52.368L314.671 55.464C313.471 58.296 311.767 60.816 309.559 63.024C307.351 65.184 304.783 66.864 301.855 68.064C298.927 69.264 295.807 69.864 292.495 69.864Z" fill="#101010"/>
<path d="M87.3101 36.7105L83.7823 32.1573L63.6216 19.1969C63.6883 19.5776 63.7592 19.9583 63.8426 20.3362C64.0039 21.0381 64.1804 21.7358 64.3722 22.4294C64.4862 22.8516 64.6057 23.2642 64.7267 23.6684C64.7656 23.7916 64.8017 23.9162 64.8365 24.0408C68.8202 36.7908 76.7711 42.8474 87.4435 50.9653C88.1385 46.6322 88.183 42.2202 87.5742 37.8733L87.3073 36.7119L87.3101 36.7105Z" fill="#EE7730"/>
<path d="M48.2245 54.986C29.0662 46.422 17.0895 29.0401 16.3912 11.5458C16.3704 11.0601 15.9609 10.6827 15.4736 10.7035C15.2709 10.7118 15.0779 10.7896 14.9266 10.9241C-3.32791 27.0073 -5.0827 54.8348 11.0075 73.0812C27.0977 91.3262 54.941 93.08 73.1955 76.9983C78.5487 72.2833 82.6747 66.339 85.2208 59.6774C85.3985 59.225 85.175 58.7144 84.721 58.5368C84.5531 58.4716 84.3684 58.4591 84.1935 58.5007C72.1474 61.3799 59.4835 60.1422 48.2245 54.9874V54.986Z" fill="#F9D85E"/>
<path d="M87.5739 37.8828C86.5355 35.4852 72.0907 29.2652 44.2396 19.223C23.2125 11.6379 19.3058 4.31894 34.5299 1.00663C35.2712 0.847253 36.0195 0.705891 36.7734 0.582545C60.8242 -3.33818 83.5048 12.9462 87.4337 36.9556C87.4837 37.2647 87.5309 37.5737 87.5753 37.8842" fill="#F9D85E"/>
</svg>
