<svg width="598" height="88" viewBox="0 0 598 88" fill="none" xmlns="http://www.w3.org/2000/svg">
<path d="M142.536 69.864C139.896 69.864 137.472 69.552 135.264 68.928C133.104 68.304 131.184 67.44 129.504 66.336C127.872 65.232 126.504 64.008 125.4 62.664C124.344 61.272 123.6 59.832 123.168 58.344L131.376 55.824C132 57.6 133.224 59.16 135.048 60.504C136.872 61.848 139.128 62.544 141.816 62.592C144.936 62.592 147.408 61.944 149.232 60.648C151.056 59.352 151.968 57.648 151.968 55.536C151.968 53.616 151.2 52.056 149.664 50.856C148.128 49.608 146.064 48.648 143.472 47.976L137.28 46.392C134.928 45.768 132.792 44.856 130.872 43.656C129 42.456 127.512 40.944 126.408 39.12C125.352 37.296 124.824 35.136 124.824 32.64C124.824 27.936 126.36 24.288 129.432 21.696C132.504 19.056 136.896 17.736 142.608 17.736C145.824 17.736 148.632 18.24 151.032 19.248C153.48 20.208 155.496 21.552 157.08 23.28C158.664 24.96 159.84 26.88 160.608 29.04L152.544 31.632C151.824 29.712 150.576 28.128 148.8 26.88C147.024 25.632 144.816 25.008 142.176 25.008C139.44 25.008 137.28 25.656 135.696 26.952C134.16 28.248 133.392 30.048 133.392 32.352C133.392 34.224 133.992 35.688 135.192 36.744C136.44 37.752 138.12 38.52 140.232 39.048L146.424 40.56C150.936 41.664 154.44 43.56 156.936 46.248C159.432 48.936 160.68 51.912 160.68 55.176C160.68 58.056 159.984 60.6 158.592 62.808C157.2 65.016 155.136 66.744 152.4 67.992C149.712 69.24 146.424 69.864 142.536 69.864ZM176.905 69L164.665 33H172.801L181.081 58.056L189.361 33H197.281L205.489 57.696L213.769 33H221.905L209.665 69H201.673L193.321 43.152L184.897 69H176.905ZM237.728 69.864C233.408 69.864 230.048 68.904 227.648 66.984C225.296 65.064 224.12 62.352 224.12 58.848C224.12 55.104 225.368 52.248 227.864 50.28C230.408 48.312 233.936 47.328 238.448 47.328H247.592C247.304 44.688 246.56 42.672 245.36 41.28C244.16 39.888 242.384 39.192 240.032 39.192C238.304 39.192 236.792 39.552 235.496 40.272C234.2 40.992 233.096 42.12 232.184 43.656L225.128 41.064C225.896 39.48 226.904 38.016 228.152 36.672C229.448 35.28 231.056 34.176 232.976 33.36C234.944 32.544 237.296 32.136 240.032 32.136C243.536 32.136 246.464 32.832 248.816 34.224C251.168 35.568 252.896 37.512 254 40.056C255.152 42.6 255.728 45.672 255.728 49.272L255.512 69H248.096L247.88 64.608C246.92 66.288 245.576 67.584 243.848 68.496C242.168 69.408 240.128 69.864 237.728 69.864ZM238.736 63.096C240.512 63.096 242.072 62.712 243.416 61.944C244.808 61.128 245.864 60.048 246.584 58.704C247.352 57.36 247.736 55.872 247.736 54.24V53.52H241.04C237.824 53.52 235.568 53.976 234.272 54.888C232.976 55.752 232.328 57 232.328 58.632C232.328 60.024 232.88 61.128 233.984 61.944C235.136 62.712 236.72 63.096 238.736 63.096ZM264.254 83.4V33H271.814L272.174 38.472C273.422 36.456 275.006 34.896 276.926 33.792C278.894 32.688 281.15 32.136 283.694 32.136C286.958 32.136 289.79 32.928 292.19 34.512C294.638 36.048 296.534 38.232 297.878 41.064C299.27 43.848 299.966 47.16 299.966 51C299.966 54.792 299.27 58.104 297.878 60.936C296.534 63.768 294.638 65.976 292.19 67.56C289.79 69.096 286.958 69.864 283.694 69.864C281.198 69.864 278.99 69.312 277.07 68.208C275.15 67.104 273.566 65.592 272.318 63.672V83.4H264.254ZM281.678 62.52C283.598 62.52 285.302 62.04 286.79 61.08C288.278 60.072 289.454 58.704 290.318 56.976C291.23 55.248 291.686 53.256 291.686 51C291.686 48.744 291.254 46.752 290.39 45.024C289.574 43.296 288.422 41.952 286.934 40.992C285.446 40.032 283.718 39.552 281.75 39.552C279.926 39.552 278.294 40.032 276.854 40.992C275.414 41.952 274.286 43.296 273.47 45.024C272.702 46.752 272.318 48.744 272.318 51C272.318 53.256 272.702 55.248 273.47 56.976C274.286 58.704 275.39 60.072 276.782 61.08C278.222 62.04 279.854 62.52 281.678 62.52ZM325.734 69V18.6H343.518C346.974 18.6 350.022 19.296 352.662 20.688C355.302 22.08 357.366 24.024 358.854 26.52C360.342 28.968 361.086 31.824 361.086 35.088C361.086 38.256 360.39 41.088 358.998 43.584C357.606 46.08 355.662 48.048 353.166 49.488C350.718 50.88 347.862 51.576 344.598 51.576H334.086V69H325.734ZM334.086 43.872H344.454C346.854 43.872 348.822 43.056 350.358 41.424C351.894 39.792 352.662 37.68 352.662 35.088C352.662 32.448 351.798 30.312 350.07 28.68C348.342 27.048 346.11 26.232 343.374 26.232H334.086V43.872ZM366.761 69V33H374.825V39.552C376.265 37.296 378.137 35.616 380.441 34.512C382.745 33.408 385.121 32.856 387.569 32.856V40.56C385.361 40.56 383.273 40.872 381.305 41.496C379.385 42.072 377.825 43.032 376.625 44.376C375.425 45.72 374.825 47.496 374.825 49.704V69H366.761ZM409.477 69.864C405.877 69.864 402.661 69.072 399.829 67.488C397.045 65.856 394.861 63.624 393.277 60.792C391.693 57.96 390.901 54.696 390.901 51C390.901 47.304 391.669 44.04 393.205 41.208C394.789 38.376 396.973 36.168 399.757 34.584C402.541 32.952 405.733 32.136 409.333 32.136C412.933 32.136 416.125 32.952 418.909 34.584C421.693 36.168 423.853 38.376 425.389 41.208C426.973 44.04 427.765 47.304 427.765 51C427.765 54.696 426.997 57.96 425.461 60.792C423.925 63.624 421.765 65.856 418.981 67.488C416.197 69.072 413.029 69.864 409.477 69.864ZM409.477 62.448C411.445 62.448 413.197 61.968 414.733 61.008C416.269 60 417.469 58.656 418.333 56.976C419.197 55.248 419.629 53.256 419.629 51C419.629 48.744 419.173 46.776 418.261 45.096C417.397 43.368 416.197 42.024 414.661 41.064C413.125 40.056 411.349 39.552 409.333 39.552C407.317 39.552 405.541 40.032 404.005 40.992C402.469 41.952 401.269 43.296 400.405 45.024C399.541 46.752 399.109 48.744 399.109 51C399.109 53.256 399.541 55.248 400.405 56.976C401.317 58.656 402.541 60 404.077 61.008C405.661 61.968 407.461 62.448 409.477 62.448ZM449.081 69.864C445.289 69.864 442.385 68.928 440.369 67.056C438.401 65.136 437.417 62.4 437.417 58.848V39.912H431.441V33H437.417V21.768H445.409V33H455.129V39.912H445.409V57.336C445.409 59.016 445.793 60.288 446.561 61.152C447.377 62.016 448.553 62.448 450.089 62.448C450.569 62.448 451.097 62.352 451.673 62.16C452.249 61.968 452.897 61.608 453.617 61.08L456.569 67.2C455.321 68.064 454.073 68.712 452.825 69.144C451.577 69.624 450.329 69.864 449.081 69.864ZM479.087 69.864C475.487 69.864 472.271 69.072 469.439 67.488C466.655 65.856 464.471 63.624 462.887 60.792C461.303 57.96 460.511 54.696 460.511 51C460.511 47.304 461.279 44.04 462.814 41.208C464.399 38.376 466.583 36.168 469.367 34.584C472.151 32.952 475.343 32.136 478.943 32.136C482.543 32.136 485.735 32.952 488.519 34.584C491.303 36.168 493.463 38.376 494.999 41.208C496.583 44.04 497.375 47.304 497.375 51C497.375 54.696 496.607 57.96 495.07 60.792C493.535 63.624 491.375 65.856 488.591 67.488C485.807 69.072 482.639 69.864 479.087 69.864ZM479.087 62.448C481.055 62.448 482.807 61.968 484.343 61.008C485.879 60 487.079 58.656 487.943 56.976C488.807 55.248 489.239 53.256 489.239 51C489.239 48.744 488.783 46.776 487.871 45.096C487.007 43.368 485.807 42.024 484.271 41.064C482.735 40.056 480.959 39.552 478.943 39.552C476.927 39.552 475.151 40.032 473.615 40.992C472.079 41.952 470.879 43.296 470.015 45.024C469.151 46.752 468.719 48.744 468.719 51C468.719 53.256 469.151 55.248 470.015 56.976C470.927 58.656 472.151 60 473.687 61.008C475.271 61.968 477.071 62.448 479.087 62.448ZM521.21 69.864C517.514 69.864 514.25 69.072 511.418 67.488C508.586 65.856 506.354 63.624 504.722 60.792C503.138 57.96 502.346 54.696 502.346 51C502.346 47.304 503.138 44.04 504.722 41.208C506.354 38.376 508.562 36.168 511.346 34.584C514.178 32.952 517.418 32.136 521.066 32.136C524.618 32.136 527.834 33 530.714 34.728C533.594 36.408 535.73 38.832 537.122 42L529.634 44.88C528.866 43.296 527.69 42.024 526.106 41.064C524.522 40.104 522.722 39.624 520.706 39.624C518.738 39.624 516.986 40.128 515.45 41.136C513.914 42.096 512.714 43.44 511.85 45.168C510.986 46.848 510.554 48.792 510.554 51C510.554 53.208 510.986 55.176 511.85 56.904C512.762 58.584 513.986 59.928 515.522 60.936C517.106 61.896 518.882 62.376 520.85 62.376C522.866 62.376 524.666 61.872 526.25 60.864C527.834 59.808 529.01 58.392 529.778 56.616L537.266 59.496C535.874 62.76 533.738 65.304 530.858 67.128C528.026 68.952 524.81 69.864 521.21 69.864ZM560.087 69.864C556.487 69.864 553.271 69.072 550.439 67.488C547.655 65.856 545.471 63.624 543.887 60.792C542.303 57.96 541.511 54.696 541.511 51C541.511 47.304 542.279 44.04 543.814 41.208C545.399 38.376 547.583 36.168 550.367 34.584C553.151 32.952 556.343 32.136 559.943 32.136C563.543 32.136 566.735 32.952 569.519 34.584C572.303 36.168 574.463 38.376 575.999 41.208C577.583 44.04 578.375 47.304 578.375 51C578.375 54.696 577.607 57.96 576.07 60.792C574.535 63.624 572.375 65.856 569.591 67.488C566.807 69.072 563.639 69.864 560.087 69.864ZM560.087 62.448C562.055 62.448 563.807 61.968 565.343 61.008C566.879 60 568.079 58.656 568.943 56.976C569.807 55.248 570.239 53.256 570.239 51C570.239 48.744 569.783 46.776 568.871 45.096C568.007 43.368 566.807 42.024 565.271 41.064C563.735 40.056 561.959 39.552 559.943 39.552C557.927 39.552 556.151 40.032 554.615 40.992C553.079 41.952 551.879 43.296 551.015 45.024C550.151 46.752 549.719 48.744 549.719 51C549.719 53.256 550.151 55.248 551.015 56.976C551.927 58.656 553.151 60 554.687 61.008C556.271 61.968 558.071 62.448 560.087 62.448ZM585.362 69V18.6H593.426V69H585.362Z" fill="#101010"/>
<path d="M43.9989 87.9999C61.8363 87.9999 77.1838 77.3779 84.0899 62.1219C76.9682 54.7714 61.9047 49.6996 44.4708 49.6996C27.037 49.6996 11.0488 55.0918 4.21962 62.8159C11.273 77.7025 26.4305 87.9999 43.9967 87.9999H43.9989Z" fill="#0E3CA5"/>
<path d="M44.473 38.3003C61.9068 38.3003 76.9703 33.2306 84.0921 25.8781C77.1839 10.622 61.8363 0 43.9989 0C26.1614 0 11.2752 10.2974 4.22177 25.184C11.051 32.906 26.4988 38.3003 44.473 38.3003Z" fill="#0E3CA5"/>
<path d="M0 43.9999C0 48.162 0.589386 52.1832 1.66993 55.9994C13.5537 62.4315 24.6987 63.5804 30.4067 57.8722C39.0041 49.2768 32.0147 28.3979 14.7966 11.2413C14.7709 11.2156 14.7453 11.1921 14.7197 11.1665C5.69099 19.2238 0 30.9456 0 43.9999Z" fill="url(#paint0_linear_2027_1246)"/>
<path d="M57.5933 30.1278C48.9959 38.7232 55.9853 59.602 73.2034 76.7587C73.2291 76.7843 73.2547 76.8078 73.2803 76.8335C82.309 68.7762 88 57.0544 88 44C88 39.8379 87.4106 35.8168 86.3301 32.0006C74.4463 25.5685 63.3013 24.4196 57.5933 30.1278Z" fill="url(#paint1_linear_2027_1246)"/>
<path d="M31.6133 22.0192C39.38 29.7882 57.1769 24.8274 73.1949 11.094C65.4261 4.19627 55.2058 0 43.999 0C38.9294 0 34.0627 0.869151 29.5313 2.44729C26.9303 10.6669 27.4129 17.8187 31.6133 22.0192Z" fill="#5493F7"/>
<path d="M56.3867 65.9808C48.6201 58.2118 30.8232 63.1726 14.8051 76.906C22.5739 83.8037 32.7942 88 44.0011 88C49.0706 88 53.9373 87.1309 58.4688 85.5527C61.0698 77.331 60.5871 70.1813 56.3867 65.9787V65.9808Z" fill="#5493F7"/>
<path d="M0 43.9999C0 48.162 0.589386 52.1832 1.66993 55.9994C13.5537 62.4315 24.6987 63.5804 30.4067 57.8722C39.0041 49.2768 32.0147 28.3979 14.7966 11.2413C14.7709 11.2156 14.7453 11.1921 14.7197 11.1665C5.69099 19.2238 0 30.9456 0 43.9999Z" fill="url(#paint2_linear_2027_1246)"/>
<path d="M57.5933 30.1278C48.9959 38.7232 55.9853 59.602 73.2034 76.7587C73.2291 76.7843 73.2547 76.8078 73.2803 76.8335C82.309 68.7762 88 57.0544 88 44C88 39.8379 87.4106 35.8168 86.3301 32.0006C74.4463 25.5685 63.3013 24.4196 57.5933 30.1278Z" fill="url(#paint3_linear_2027_1246)"/>
<path d="M57.5933 30.1278C48.9959 38.7232 55.9853 59.602 73.2034 76.7587C73.2291 76.7843 73.2547 76.8078 73.2803 76.8335C82.309 68.7762 88 57.0544 88 44C88 39.8379 87.4106 35.8168 86.3301 32.0006C74.4463 25.5685 63.3013 24.4196 57.5933 30.1278Z" fill="url(#paint4_linear_2027_1246)"/>
<path d="M0 43.9999C0 48.162 0.589386 52.1832 1.66993 55.9994C13.5537 62.4315 24.6987 63.5804 30.4067 57.8722C39.0041 49.2768 32.0147 28.3979 14.7966 11.2413C14.7709 11.2156 14.7453 11.1921 14.7197 11.1665C5.69099 19.2238 0 30.9456 0 43.9999Z" fill="url(#paint5_linear_2027_1246)"/>
<defs>
<linearGradient id="paint0_linear_2027_1246" x1="34.084" y1="36.3634" x2="0" y2="36.3634" gradientUnits="userSpaceOnUse">
<stop stop-color="#F9D85E"/>
<stop offset="0.15" stop-color="#DECC76" stop-opacity="0.87"/>
<stop offset="0.57" stop-color="#94ADBB" stop-opacity="0.51"/>
<stop offset="0.86" stop-color="#669AE6" stop-opacity="0.29"/>
<stop offset="1" stop-color="#5493F7" stop-opacity="0.2"/>
</linearGradient>
<linearGradient id="paint1_linear_2027_1246" x1="53.9139" y1="51.6366" x2="87.9979" y2="51.6366" gradientUnits="userSpaceOnUse">
<stop stop-color="#F9D85E"/>
<stop offset="0.15" stop-color="#DECC76" stop-opacity="0.87"/>
<stop offset="0.57" stop-color="#94ADBB" stop-opacity="0.51"/>
<stop offset="0.86" stop-color="#669AE6" stop-opacity="0.29"/>
<stop offset="1" stop-color="#5493F7" stop-opacity="0.2"/>
</linearGradient>
<linearGradient id="paint2_linear_2027_1246" x1="34.084" y1="36.3634" x2="0" y2="36.3634" gradientUnits="userSpaceOnUse">
<stop stop-color="#F9D85E"/>
<stop offset="0.15" stop-color="#DECC76" stop-opacity="0.87"/>
<stop offset="0.57" stop-color="#94ADBB" stop-opacity="0.51"/>
<stop offset="0.86" stop-color="#669AE6" stop-opacity="0.29"/>
<stop offset="1" stop-color="#5493F7" stop-opacity="0.2"/>
</linearGradient>
<linearGradient id="paint3_linear_2027_1246" x1="53.9139" y1="51.6366" x2="87.9979" y2="51.6366" gradientUnits="userSpaceOnUse">
<stop stop-color="#F9D85E"/>
<stop offset="0.15" stop-color="#DECC76" stop-opacity="0.87"/>
<stop offset="0.57" stop-color="#94ADBB" stop-opacity="0.51"/>
<stop offset="0.86" stop-color="#669AE6" stop-opacity="0.29"/>
<stop offset="1" stop-color="#5493F7" stop-opacity="0.2"/>
</linearGradient>
<linearGradient id="paint4_linear_2027_1246" x1="53.9139" y1="51.6366" x2="87.9979" y2="51.6366" gradientUnits="userSpaceOnUse">
<stop stop-color="#F9D85E"/>
<stop offset="0.15" stop-color="#DECC76" stop-opacity="0.87"/>
<stop offset="0.57" stop-color="#94ADBB" stop-opacity="0.51"/>
<stop offset="0.86" stop-color="#669AE6" stop-opacity="0.29"/>
<stop offset="1" stop-color="#5493F7" stop-opacity="0.2"/>
</linearGradient>
<linearGradient id="paint5_linear_2027_1246" x1="34.084" y1="36.3634" x2="0" y2="36.3634" gradientUnits="userSpaceOnUse">
<stop stop-color="#F9D85E"/>
<stop offset="0.15" stop-color="#DECC76" stop-opacity="0.87"/>
<stop offset="0.57" stop-color="#94ADBB" stop-opacity="0.51"/>
<stop offset="0.86" stop-color="#669AE6" stop-opacity="0.29"/>
<stop offset="1" stop-color="#5493F7" stop-opacity="0.2"/>
</linearGradient>
</defs>
</svg>
