<svg width="308" height="86" viewBox="0 0 308 86" fill="none" xmlns="http://www.w3.org/2000/svg">
<path d="M145.2 69.008C141.216 69.008 137.712 68.216 134.688 66.632C131.712 65 129.384 62.72 127.704 59.792C126.072 56.864 125.256 53.456 125.256 49.568V17.6H133.608V49.568C133.608 51.92 134.088 53.984 135.048 55.76C136.056 57.488 137.448 58.856 139.224 59.864C141 60.824 143.04 61.304 145.344 61.304C147.696 61.304 149.76 60.824 151.536 59.864C153.36 58.856 154.752 57.488 155.712 55.76C156.672 53.984 157.152 51.92 157.152 49.568V17.6H165.504V49.568C165.504 53.456 164.664 56.864 162.984 59.792C161.352 62.72 159 65 155.928 66.632C152.904 68.216 149.328 69.008 145.2 69.008ZM193.302 68.864C190.662 68.864 188.238 68.552 186.03 67.928C183.87 67.304 181.95 66.44 180.27 65.336C178.638 64.232 177.27 63.008 176.166 61.664C175.11 60.272 174.366 58.832 173.934 57.344L182.142 54.824C182.766 56.6 183.99 58.16 185.814 59.504C187.638 60.848 189.894 61.544 192.582 61.592C195.702 61.592 198.174 60.944 199.998 59.648C201.822 58.352 202.734 56.648 202.734 54.536C202.734 52.616 201.966 51.056 200.43 49.856C198.894 48.608 196.83 47.648 194.238 46.976L188.046 45.392C185.694 44.768 183.558 43.856 181.638 42.656C179.766 41.456 178.278 39.944 177.174 38.12C176.118 36.296 175.59 34.136 175.59 31.64C175.59 26.936 177.126 23.288 180.198 20.696C183.27 18.056 187.662 16.736 193.374 16.736C196.59 16.736 199.398 17.24 201.798 18.248C204.246 19.208 206.262 20.552 207.846 22.28C209.43 23.96 210.606 25.88 211.374 28.04L203.31 30.632C202.59 28.712 201.342 27.128 199.566 25.88C197.79 24.632 195.582 24.008 192.942 24.008C190.206 24.008 188.046 24.656 186.462 25.952C184.926 27.248 184.158 29.048 184.158 31.352C184.158 33.224 184.758 34.688 185.958 35.744C187.206 36.752 188.886 37.52 190.998 38.048L197.19 39.56C201.702 40.664 205.206 42.56 207.702 45.248C210.198 47.936 211.446 50.912 211.446 54.176C211.446 57.056 210.75 59.6 209.358 61.808C207.966 64.016 205.902 65.744 203.166 66.992C200.478 68.24 197.19 68.864 193.302 68.864ZM231.127 68V25.232H215.647V17.6H254.959V25.232H239.479V68H231.127ZM283.706 68.864C278.858 68.864 274.538 67.76 270.746 65.552C267.002 63.296 264.05 60.224 261.89 56.336C259.778 52.4 258.722 47.888 258.722 42.8C258.722 37.712 259.778 33.224 261.89 29.336C264.05 25.4 267.002 22.328 270.746 20.12C274.49 17.864 278.786 16.736 283.634 16.736C286.898 16.736 289.97 17.336 292.85 18.536C295.73 19.688 298.274 21.296 300.482 23.36C302.738 25.424 304.466 27.824 305.666 30.56L298.034 33.656C297.17 31.832 295.994 30.224 294.506 28.832C293.066 27.392 291.41 26.288 289.538 25.52C287.666 24.752 285.698 24.368 283.634 24.368C280.466 24.368 277.634 25.16 275.138 26.744C272.69 28.328 270.746 30.512 269.306 33.296C267.914 36.032 267.218 39.2 267.218 42.8C267.218 46.4 267.914 49.592 269.306 52.376C270.746 55.16 272.714 57.344 275.21 58.928C277.754 60.512 280.634 61.304 283.85 61.304C285.962 61.304 287.93 60.896 289.754 60.08C291.626 59.216 293.282 58.04 294.722 56.552C296.21 55.064 297.386 53.336 298.25 51.368L305.882 54.464C304.682 57.296 302.978 59.816 300.77 62.024C298.562 64.184 295.994 65.864 293.066 67.064C290.138 68.264 287.018 68.864 283.706 68.864Z" fill="#101010"/>
<path d="M33.6851 52.5955C33.6851 62.4344 47.5145 70.65 65.9438 72.615C75.4285 65.1186 81.528 53.4955 81.528 40.434C81.528 37.6723 81.2511 34.9781 80.7327 32.3693C78.685 32.2104 76.5859 32.127 74.4491 32.127C51.9363 32.127 33.6851 41.2903 33.6851 52.5955Z" fill="#0E3CA5"/>
<path d="M59.6879 30.3611C66.8301 30.3611 73.5391 29.4372 79.3755 27.8159C73.9288 11.6449 58.7066 0 40.764 0C33.0599 0 25.8583 2.14779 19.7132 5.87711C19.1988 7.17651 18.9238 8.51763 18.9238 9.89254C18.9238 21.1977 37.1751 30.3611 59.6879 30.3611Z" fill="#0E3CA5"/>
<path d="M23.5337 30.0447C23.5337 41.3499 41.7849 50.5133 64.2978 50.5133C70.1639 50.5133 75.7352 49.8854 80.7743 48.7668C81.263 46.2316 81.5281 43.6169 81.5281 40.9366C81.5281 28.3718 75.8856 17.1361 67.0142 9.62584C66.116 9.59604 65.2118 9.57617 64.2978 9.57617C41.7849 9.57617 23.5337 18.7395 23.5337 30.0447Z" fill="#5493F7"/>
<path d="M3.43848 24.4803C18.813 21.5497 29.746 14.089 29.746 5.34092C29.746 4.10112 29.5145 2.89113 29.0931 1.71094C17.5844 5.16011 8.21447 13.5724 3.43848 24.4803Z" fill="#5493F7"/>
<path d="M54.1484 78.5001C54.1484 78.6988 54.1662 78.8955 54.1781 79.0941C63.6984 75.7622 71.6083 68.993 76.4318 60.2588C63.2098 63.6424 54.1484 70.5388 54.1484 78.5001Z" fill="#5493F7"/>
<path d="M26.723 79.3802C31.402 70.2764 24.7485 53.0465 10.3869 38.6259C7.43503 35.6635 4.36645 33.0269 1.27412 30.75C0.443174 34.0084 0 37.4218 0 40.9386C0 58.5918 11.1268 73.6342 26.723 79.3822V79.3802Z" fill="#5493F7"/>
<path d="M17.8579 82.8494C17.753 84.4091 18.9124 85.7661 20.4655 85.8993C54.8253 86.1357 87.9941 84.5502 87.9941 79.3804C87.9941 63.73 17.8579 82.8494 17.8579 82.8494Z" fill="url(#paint0_linear_2027_1043)"/>
<path d="M17.8579 82.8494C17.753 84.4151 18.9203 85.7741 20.4773 85.8993C54.8293 86.1615 87.9525 85.0767 87.9941 79.3804C87.9941 63.73 17.8579 82.8494 17.8579 82.8494ZM20.4793 85.6986C20.3883 85.6986 20.2953 85.6926 20.2043 85.6827C19.134 85.5317 18.2575 84.7509 17.9805 83.7018C18.2832 84.8442 19.2982 85.6509 20.4754 85.6807C54.8035 85.4641 87.4559 74.8504 87.4559 79.5235C87.4559 84.1965 54.8055 85.933 20.4793 85.6966V85.6986Z" fill="url(#paint1_linear_2027_1043)"/>
<path d="M20.4813 38.5267C19.0331 38.5267 17.8599 39.7049 17.8599 41.1593V82.8474C17.8599 84.2978 19.0232 85.476 20.4675 85.484C54.8253 85.2257 88.0376 73.8052 87.9961 79.3803V32.4231C88.0376 26.848 54.8372 38.2684 20.4833 38.5247L20.4813 38.5267Z" fill="url(#paint2_linear_2027_1043)"/>
<path d="M25.5461 67.3004C26.7688 67.2528 27.9678 67.2011 29.1449 67.1335C30.3221 67.068 31.4756 66.9925 32.6092 66.909C33.7429 66.8256 34.8548 66.7282 35.9508 66.6289C37.0469 66.5295 38.1291 66.4262 39.1975 66.3189C40.2658 66.2116 41.3184 66.1004 42.359 65.9812C44.4107 65.7467 46.4584 65.4924 48.5061 65.2202C49.5191 65.0851 50.5202 64.946 51.5272 64.799C52.5342 64.652 53.5254 64.495 54.5285 64.34C55.5316 64.185 56.5426 64.0281 57.5496 63.8672C58.5567 63.7062 59.5736 63.5433 60.5925 63.3724C61.6114 63.2016 62.6342 63.0208 63.671 62.8419C64.7077 62.6631 65.7602 62.4843 66.8207 62.2975C67.8811 62.1108 68.9594 61.926 70.0495 61.7353C71.1396 61.5445 72.2436 61.3458 73.3693 61.1551C74.4951 60.9644 75.6406 60.7776 76.8079 60.6008C77.9752 60.422 79.0455 60.263 80.5017 60.0802C82.0884 59.8537 83.6909 59.7683 85.2915 59.8239C86.7971 59.9252 87.9881 60.3107 87.9881 61.3657V57.7516C87.9881 56.7105 86.8446 56.337 85.4439 56.2217C83.9481 56.1462 82.4504 56.2078 80.9666 56.4105C79.5678 56.5714 78.5608 56.7244 77.5102 56.8814C76.4597 57.0383 75.4309 57.2013 74.4219 57.3662C73.4129 57.5311 72.4177 57.7039 71.4305 57.8748C70.4432 58.0457 69.4599 58.2225 68.4707 58.3974C67.4815 58.5722 66.4843 58.7451 65.4714 58.9179L62.3751 59.4524C61.3206 59.6352 60.2482 59.8179 59.1284 60.0007C58.0086 60.1835 56.8413 60.3663 55.6285 60.5531C54.4157 60.7398 53.1575 60.9405 51.8438 61.1372V57.5251C53.1575 57.3304 54.4177 57.1297 55.6285 56.941C56.8394 56.7542 58.0066 56.5694 59.1284 56.3886C60.2502 56.2078 61.3245 56.0231 62.3751 55.8383C63.4256 55.6555 64.4604 55.4787 65.4733 55.3038L68.4727 54.7833L71.4324 54.2607C72.4197 54.0859 73.4129 53.923 74.4239 53.7521C75.4349 53.5792 76.4577 53.4243 77.5122 53.2673C78.5648 53.1103 79.5718 52.9554 80.9686 52.7964C82.4524 52.5957 83.9501 52.5322 85.4458 52.6057C86.8486 52.7189 87.9921 53.0964 87.9921 54.1356V50.5274C87.9921 49.4883 86.8486 49.1128 85.4478 48.9976C83.9521 48.924 82.4544 48.9876 80.9706 49.1883C79.5718 49.3492 78.5667 49.5022 77.5142 49.6592C76.4617 49.8161 75.4348 49.9791 74.4258 50.144C73.4168 50.3109 72.4217 50.4817 71.4344 50.6526C70.4472 50.8235 69.4639 51.0043 68.4746 51.1771L65.4753 51.6977C64.4623 51.8725 63.4335 52.0494 62.379 52.2322C61.3245 52.4149 60.2522 52.5977 59.1324 52.7805C58.0126 52.9613 56.8453 53.1461 55.6325 53.3349C54.4197 53.5216 53.1614 53.7223 51.8497 53.917V50.3049C53.1614 50.1102 54.4237 49.9115 55.6345 49.7208C56.8453 49.53 58.0126 49.3492 59.1344 49.1684C60.2561 48.9876 61.3285 48.8028 62.381 48.6201L65.4793 48.0856C66.4863 47.9107 67.4874 47.7379 68.4786 47.565L71.4384 47.0425C73.4603 46.6849 75.4863 46.3531 77.5162 46.0471C78.5687 45.8921 79.5758 45.7351 80.9725 45.5742C82.4564 45.3735 83.9541 45.3119 85.4498 45.3855C86.8525 45.4987 87.9941 45.8762 87.9941 46.9153V43.2993C87.9941 42.2601 86.8505 41.8866 85.4498 41.7714C83.9541 41.6959 82.4564 41.7595 80.9725 41.9601C79.5738 42.1211 78.5687 42.274 77.5162 42.431C76.4636 42.588 75.4368 42.7509 74.4278 42.9158C73.4188 43.0807 72.4236 43.2536 71.4364 43.4244L68.4766 43.949L65.4773 44.4695C64.4643 44.6444 63.4355 44.8192 62.381 45.004C61.3265 45.1888 60.2542 45.3696 59.1344 45.5524C58.0146 45.7351 56.8453 45.9179 55.6325 46.1067C54.4197 46.2954 53.1614 46.4941 51.8497 46.6908V43.0787C53.1614 42.884 54.4177 42.6833 55.6325 42.4946C56.8473 42.3058 58.0146 42.123 59.1363 41.9403C60.2581 41.7575 61.3265 41.5747 62.383 41.3919L65.4812 40.8574C66.4883 40.6826 67.4894 40.5117 68.4806 40.3369C69.4698 40.162 70.4511 39.9872 71.4403 39.8143C72.4296 39.6415 73.4208 39.4686 74.4318 39.3037C75.4428 39.1388 76.4656 38.9759 77.5182 38.8189C78.5707 38.6619 79.5777 38.509 80.9765 38.348C82.4603 38.1474 83.958 38.0838 85.4537 38.1573C86.8565 38.2705 88 38.648 88 39.6872V36.0751C88 35.0359 86.8565 34.6604 85.4557 34.5452C83.96 34.4717 82.4623 34.5353 80.9785 34.7359C79.5797 34.8969 78.5747 35.0499 77.5221 35.2068C76.4696 35.3638 75.4428 35.5267 74.4338 35.6916C73.4247 35.8585 72.4296 36.0294 71.4423 36.2002C70.4551 36.3711 69.4718 36.5519 68.4826 36.7248C67.4933 36.8976 66.4962 37.0705 65.4832 37.2433L62.385 37.7798C60.1394 38.1692 57.8899 38.5368 55.6365 38.8805C54.4217 39.0693 53.1654 39.2679 51.8536 39.4646V35.8009C41.4707 37.4321 30.9889 38.3421 20.4833 38.5249C19.035 38.5249 17.8618 39.7031 17.8618 41.1574V67.4594C19.2052 67.4594 20.5129 67.4435 21.793 67.4137C23.0731 67.3859 24.3274 67.3422 25.5521 67.2965L25.5461 67.3004Z" fill="url(#paint3_linear_2027_1043)"/>
<path d="M25.5402 74.5241C26.7649 74.4764 27.9639 74.4227 29.141 74.3572C30.3182 74.2916 31.4717 74.2141 32.6112 74.1326C33.7489 74.0512 34.8548 73.9558 35.9529 73.8545C37.0509 73.7532 38.1311 73.6538 39.1995 73.5445C40.2679 73.4353 41.3263 73.326 42.3611 73.2068C44.4107 72.9723 46.4604 72.718 48.5062 72.4478C49.5171 72.3127 50.5202 72.1716 51.5272 72.0246C52.5343 71.8776 53.5275 71.7206 54.5305 71.5636C55.5336 71.4067 56.5446 71.2537 57.5516 71.0947C58.5587 70.9358 59.5776 70.7689 60.5965 70.6C61.6154 70.4311 62.6383 70.2503 63.6769 70.0695L66.8266 69.5251C67.8891 69.3404 68.9653 69.1556 70.0555 68.9629C71.1456 68.7701 72.2516 68.5734 73.3773 68.3827C74.503 68.192 75.6486 68.0052 76.8159 67.8284C77.9831 67.6496 79.0476 67.4906 80.5096 67.3078C82.0963 67.0793 83.6989 66.9939 85.2995 67.0495C86.8051 67.1528 87.9961 67.5383 87.9961 68.5913V64.9752C87.9961 63.9222 86.8051 63.5348 85.2995 63.4334C83.6989 63.3778 82.0944 63.4633 80.5077 63.6898C79.0456 63.8706 77.9812 64.0355 76.8139 64.2123C75.6486 64.3891 74.5011 64.5759 73.3753 64.7666C72.2496 64.9574 71.1456 65.1521 70.0555 65.3468C68.9653 65.5415 67.8891 65.7263 66.8266 65.9091C65.7642 66.0919 64.7156 66.2727 63.6769 66.4535C62.6402 66.6343 61.6154 66.8131 60.5985 66.984C59.5815 67.1548 58.5646 67.3217 57.5536 67.4787L54.5325 67.9516C53.5255 68.1085 52.5323 68.2635 51.5292 68.4105C50.5281 68.5575 49.5211 68.6986 48.5081 68.8337C47.4952 68.9688 46.4782 69.1 45.4554 69.2251C44.4325 69.3523 43.4057 69.4774 42.365 69.5927C41.3244 69.7079 40.2718 69.8172 39.2035 69.9305C38.1351 70.0437 37.0549 70.1391 35.9568 70.2404C34.8588 70.3417 33.7469 70.4351 32.6152 70.5205C31.4835 70.604 30.3261 70.6815 29.145 70.7451C27.9639 70.8086 26.7689 70.8643 25.5442 70.912C24.3195 70.9596 23.0692 70.9994 21.7871 71.0252C20.5051 71.051 19.1993 71.0729 17.8579 71.0729V74.685C20.42 74.677 22.9821 74.6254 25.5442 74.53L25.5402 74.5241Z" fill="url(#paint4_linear_2027_1043)"/>
<path d="M85.2954 70.6561C83.6948 70.6005 82.0903 70.6859 80.5056 70.9124C79.0435 71.0932 77.9791 71.2561 76.8118 71.435C75.6465 71.6138 74.499 71.7985 73.3732 71.9893C72.2475 72.18 71.1356 72.3767 70.0494 72.5694C68.9633 72.7622 67.883 72.9509 66.8206 73.1317L63.6709 73.6761C62.6342 73.8549 61.6093 74.0377 60.5904 74.2066C59.5715 74.3755 58.5566 74.5444 57.5456 74.7013C56.5346 74.8583 55.5315 75.0192 54.5245 75.1722C53.5175 75.3272 52.5243 75.4842 51.5212 75.6312C50.5181 75.7782 49.5071 75.9213 48.5001 76.0544C46.4544 76.3246 44.4067 76.5789 42.355 76.8134C41.3144 76.9306 40.2618 77.0379 39.1935 77.1511C38.1251 77.2644 37.0448 77.3617 35.9468 77.4611C34.8488 77.5604 33.7369 77.6558 32.6052 77.7392C31.4735 77.8227 30.3161 77.8982 29.135 77.9637C25.3759 78.1704 21.6129 78.2797 17.8479 78.2896V81.9096C19.1913 81.9096 20.501 81.8937 21.7771 81.8639C23.0532 81.8341 24.3056 81.7964 25.5342 81.7507C26.7589 81.703 27.9578 81.6494 29.135 81.5838C30.3122 81.5182 31.4656 81.4407 32.6052 81.3593C33.7428 81.2778 34.8507 81.1785 35.9468 81.0811C37.0429 80.9838 38.1231 80.8804 39.1935 80.7712C40.2618 80.6639 41.3203 80.5526 42.355 80.4334C43.3898 80.3142 44.4245 80.193 45.4473 80.0638C46.4702 79.9367 47.4871 79.8095 48.4981 79.6724C49.5091 79.5373 50.5122 79.3963 51.5192 79.2492C52.5263 79.1022 53.5194 78.9433 54.5225 78.7903C55.5256 78.6373 56.5366 78.4783 57.5436 78.3174C58.5507 78.1585 59.5676 77.9935 60.5885 77.8227C61.6093 77.6518 62.6342 77.473 63.6709 77.2922L66.8206 76.7498L70.0475 76.1875C71.1376 75.9948 72.2435 75.7981 73.3713 75.6073C74.499 75.4166 75.6425 75.2298 76.8098 75.053C77.9771 74.8742 79.0474 74.7152 80.5036 74.5325C82.0903 74.306 83.6929 74.2205 85.2934 74.2761C86.799 74.3755 87.9901 74.7609 87.9901 75.816V72.1939C87.9901 71.1389 86.799 70.7574 85.2934 70.6521L85.2954 70.6561Z" fill="url(#paint5_linear_2027_1043)"/>
<path d="M25.3167 63.6981C26.4582 63.6564 27.5543 63.6067 28.6325 63.5491C29.7108 63.4915 30.7594 63.4279 31.7882 63.3544C32.817 63.2809 33.8438 63.1994 34.8607 63.112C36.9381 62.9312 39.0135 62.7286 41.0889 62.508C42.1632 62.3928 43.2593 62.2696 44.3989 62.1285C45.5384 61.9894 46.7255 61.8424 47.962 61.6795C49.2006 61.5166 50.4945 61.3417 51.8458 61.1371V35.8027C41.4648 37.4339 30.9849 38.3439 20.4813 38.5247C19.0331 38.5247 17.8599 39.7029 17.8599 41.1573V63.8452C19.2191 63.8452 20.513 63.8293 21.7515 63.8015C22.99 63.7736 24.1731 63.7359 25.3167 63.6942V63.6981Z" fill="url(#paint6_linear_2027_1043)"/>
<path d="M25.9497 39.5918C25.8211 39.9952 25.7578 40.1978 25.6312 40.6031L24.5964 40.6409L25.4333 41.229L25.1128 42.2403C25.4491 41.98 25.6153 41.8529 25.9497 41.5926C26.286 41.827 26.4483 41.9423 26.7866 42.1747C26.656 41.7813 26.5947 41.5846 26.4661 41.1893L27.303 40.5336C26.8895 40.5535 26.6797 40.5594 26.2682 40.5793L25.9497 39.5898V39.5918Z" fill="url(#paint7_linear_2027_1043)"/>
<path d="M28.9392 52.0547L28.6207 53.072L27.584 53.1237L28.4209 53.6998C28.2942 54.1052 28.229 54.3098 28.1004 54.7111C28.4367 54.4489 28.6049 54.3158 28.9392 54.0495C29.2756 54.274 29.4437 54.3873 29.7781 54.6178L29.4576 53.6382L30.2964 52.9687C29.881 52.9965 29.6732 53.0084 29.2597 53.0303L28.9392 52.0527V52.0547Z" fill="url(#paint8_linear_2027_1043)"/>
<path d="M29.2597 58.0772L28.9392 57.0957L28.6207 58.115L27.584 58.1646C27.9203 58.3971 28.0865 58.5123 28.4209 58.7408C28.2942 59.1481 28.229 59.3508 28.1004 59.7521C28.4367 59.4879 28.6049 59.3548 28.9392 59.0885C29.2756 59.313 29.4437 59.4322 29.7781 59.6587L29.4576 58.6792L30.2964 58.0097C29.881 58.0395 29.6732 58.0573 29.2597 58.0752V58.0772Z" fill="url(#paint9_linear_2027_1043)"/>
<path d="M25.9497 49.6748C25.8211 50.0802 25.7578 50.2808 25.6312 50.6861C25.2177 50.702 25.0099 50.712 24.5964 50.7239C24.9328 50.9583 25.097 51.0776 25.4313 51.31L25.1128 52.3213C25.4491 52.063 25.6134 51.9319 25.9497 51.6696C26.286 51.9041 26.4502 52.0213 26.7866 52.2538C26.656 51.8584 26.5927 51.6617 26.4661 51.2663L27.3049 50.6126C26.8914 50.6325 26.6817 50.6424 26.2702 50.6583L25.9517 49.6729L25.9497 49.6748Z" fill="url(#paint10_linear_2027_1043)"/>
<path d="M25.9477 54.7158L25.6292 55.7271C25.2157 55.741 25.006 55.751 24.5945 55.7649L25.4314 56.351L25.1128 57.3623L25.9497 56.7086L26.7886 57.2928C26.658 56.8974 26.5947 56.7027 26.4681 56.3073C26.8044 56.047 26.9706 55.9139 27.3069 55.6516L26.2722 55.6973L25.9517 54.7158H25.9477Z" fill="url(#paint11_linear_2027_1043)"/>
<path d="M25.9497 44.6338L25.6292 45.6451L24.5945 45.6828L25.4314 46.271L25.1128 47.2823C25.4492 47.024 25.6154 46.8928 25.9497 46.6326C26.2861 46.867 26.4483 46.9842 26.7866 47.2167C26.656 46.8233 26.5927 46.6246 26.4661 46.2312L27.305 45.5756C26.8915 45.5954 26.6837 45.6054 26.2702 45.6213C26.1436 45.2239 26.0783 45.0292 25.9517 44.6338H25.9497Z" fill="url(#paint12_linear_2027_1043)"/>
<path d="M34.9219 56.6709L34.6034 57.6961C34.1879 57.7319 33.9801 57.7478 33.5667 57.7835C33.903 58.008 34.0712 58.1213 34.4055 58.3339L34.087 59.3591L34.9239 58.6717L35.7608 59.2141C35.6539 58.8902 35.5471 58.5664 35.4402 58.2425L36.2771 57.5471C35.8617 57.5868 35.6539 57.6027 35.2424 57.6405C35.1158 57.2511 35.0564 57.0603 34.9239 56.6709H34.9219Z" fill="url(#paint13_linear_2027_1043)"/>
<path d="M28.9392 47.0146L28.6207 48.0319C28.2052 48.0538 27.9975 48.0637 27.584 48.0836L28.4209 48.6598L28.1004 49.677L28.9392 49.0154C29.2756 49.2399 29.4437 49.3532 29.7781 49.5836C29.6515 49.1922 29.5842 48.9955 29.4576 48.6021L30.2964 47.9365C29.881 47.9604 29.6732 47.9763 29.2597 47.9981L28.9392 47.0166V47.0146Z" fill="url(#paint14_linear_2027_1043)"/>
<path d="M31.9326 54.3877L31.6121 55.4109L30.5774 55.4745L31.4163 56.0368L31.0957 57.056L31.9346 56.3825L32.7735 56.9368L32.453 55.9613C32.7893 55.6911 32.9555 55.554 33.2899 55.2798L32.2551 55.3593C32.1463 55.0354 32.0375 54.7135 31.9326 54.3877Z" fill="url(#paint15_linear_2027_1043)"/>
<path d="M32.2551 60.4062L31.9346 59.4307L31.6141 60.4519C31.2006 60.4817 30.9929 60.4936 30.5774 60.5214L31.4163 61.0837L31.0957 62.107C31.4321 61.8387 31.5983 61.6997 31.9346 61.4334C32.2709 61.6579 32.4371 61.7712 32.7735 61.9897L32.453 61.0142C32.7893 60.742 32.9555 60.6069 33.2899 60.3327L32.2551 60.4082V60.4062Z" fill="url(#paint16_linear_2027_1043)"/>
<path d="M28.9392 41.9736L28.6207 42.9849C28.2052 43.0068 27.9975 43.0167 27.584 43.0386L28.4209 43.6148C28.2942 44.0221 28.229 44.2247 28.1004 44.6261C28.4367 44.3618 28.6049 44.2307 28.9392 43.9645C29.2756 44.189 29.4437 44.3022 29.7781 44.5347L29.4576 43.5532C29.7939 43.2869 29.9601 43.1518 30.2964 42.8836C29.881 42.9094 29.6732 42.9233 29.2597 42.9452L28.9392 41.9736Z" fill="url(#paint17_linear_2027_1043)"/>
<path d="M31.9307 49.3467L31.6121 50.3679C31.1966 50.3957 30.9929 50.4096 30.5774 50.4355L31.4163 50.9978L31.0957 52.019L31.9346 51.3455L32.7735 51.8998L32.453 50.9223L33.2899 50.2487L32.2551 50.3282L31.9326 49.3467H31.9307Z" fill="url(#paint18_linear_2027_1043)"/>
<path d="M26.2683 60.7433L25.9477 59.7559L25.6292 60.7672L24.5945 60.8069C24.9308 61.0394 25.095 61.1606 25.4314 61.393L25.1128 62.4043L25.9497 61.7526L26.7886 62.3368L26.4681 61.3513L27.3069 60.6956L26.2722 60.7413L26.2683 60.7433Z" fill="url(#paint19_linear_2027_1043)"/>
<path d="M19.9649 49.8379L19.6444 50.8413C19.2289 50.8413 19.0212 50.8413 18.6077 50.8472C18.944 51.0916 19.1122 51.2168 19.4465 51.4592L19.126 52.4625L19.9649 51.8347C20.3012 52.0791 20.4694 52.1983 20.8038 52.4407L20.4852 51.4472L21.3241 50.8154C20.9086 50.8214 20.7009 50.8293 20.2874 50.8333L19.9669 49.8379H19.9649Z" fill="url(#paint20_linear_2027_1043)"/>
<path d="M19.9649 44.7969L19.6444 45.8003C19.2289 45.8003 19.0212 45.8062 18.6077 45.8062L19.4465 46.4182L19.126 47.4215L19.9649 46.7957L20.8038 47.3997L20.4852 46.4043C20.8216 46.1519 20.9877 46.0268 21.3241 45.7725C20.9106 45.7804 20.7009 45.7844 20.2874 45.7883L19.9669 44.7949L19.9649 44.7969Z" fill="url(#paint21_linear_2027_1043)"/>
<path d="M20.2795 60.9163L19.959 59.9209L19.6385 60.9223C19.223 60.9282 19.0153 60.9282 18.6018 60.9322L19.4407 61.5422L19.1202 62.5475L19.959 61.9197L20.7979 62.5257C20.6911 62.1939 20.5842 61.8621 20.4774 61.5283L21.3162 60.8964C20.9047 60.9064 20.699 60.9084 20.2795 60.9163Z" fill="url(#paint22_linear_2027_1043)"/>
<path d="M31.0936 46.9789L31.9304 46.3054C32.2668 46.5299 32.4349 46.6431 32.7693 46.8617L32.4508 45.8842L33.2877 45.2027C32.8722 45.2365 32.6664 45.2524 32.2529 45.2822L31.9324 44.3086L31.6119 45.3278C31.1984 45.3577 30.9907 45.3696 30.5752 45.3974L31.4141 45.9597L31.0936 46.9809V46.9789Z" fill="url(#paint23_linear_2027_1043)"/>
<path d="M31.0938 41.936C31.4301 41.6678 31.5983 41.5327 31.9326 41.2625C32.269 41.487 32.4371 41.6002 32.7715 41.8168L32.453 40.8413C32.7893 40.5711 32.9555 40.434 33.2899 40.1598C32.8744 40.1936 32.6686 40.2075 32.2551 40.2392L31.9346 39.2617L31.6141 40.283C31.2006 40.3128 30.9929 40.3267 30.5774 40.3525L31.4163 40.9148L31.0957 41.936H31.0938Z" fill="url(#paint24_linear_2027_1043)"/>
<path d="M19.9649 54.8799L19.6424 55.8833H18.6057L19.4446 56.4972L19.1241 57.4986L19.9629 56.8708L20.8018 57.4748L20.4833 56.4794L21.3202 55.8475C20.9067 55.8555 20.6989 55.8595 20.2834 55.8634L19.9629 54.876L19.9649 54.8799Z" fill="url(#paint25_linear_2027_1043)"/>
<path d="M22.9602 42.2119L22.6397 43.2173C22.2262 43.2272 22.0185 43.2332 21.603 43.2431L22.4419 43.8431L22.1214 44.8544L22.9602 44.2147L23.7991 44.8087L23.4786 43.8193L24.3175 43.1735L23.2827 43.2053C23.1522 42.81 23.0888 42.6113 22.9602 42.2119Z" fill="url(#paint26_linear_2027_1043)"/>
<path d="M22.9602 47.2549L22.6397 48.2662L21.603 48.2901C21.9394 48.5305 22.1075 48.6477 22.4419 48.8861C22.3133 49.2895 22.25 49.4921 22.1214 49.8974C22.4577 49.6411 22.6239 49.516 22.9583 49.2577C23.2946 49.4961 23.4628 49.6133 23.7991 49.8497L23.4786 48.8603L24.3175 48.2166L23.2808 48.2483C23.1522 47.845 23.0888 47.6483 22.9602 47.2529V47.2549Z" fill="url(#paint27_linear_2027_1043)"/>
<path d="M23.2788 58.3273L22.9583 57.3379L22.6378 58.3492C22.2223 58.3611 22.0146 58.3651 21.5991 58.373L22.44 58.9711L22.1195 59.9824L22.9583 59.3426L23.7992 59.9367L23.4787 58.9472L24.3175 58.3015L23.2808 58.3273H23.2788Z" fill="url(#paint28_linear_2027_1043)"/>
<path d="M22.9583 52.2979L22.6378 53.3092C22.2243 53.3191 22.0146 53.3251 21.6011 53.333L22.4399 53.933C22.3113 54.3364 22.248 54.539 22.1194 54.9443L22.9583 54.3046L23.7972 54.8986C23.6705 54.5033 23.6052 54.3046 23.4766 53.9092C23.813 53.6529 23.9812 53.5217 24.3155 53.2635C23.9 53.2774 23.6923 53.2853 23.2788 53.2992L22.9583 52.3018V52.2979Z" fill="url(#paint29_linear_2027_1043)"/>
<path d="M19.9649 39.7549L19.6444 40.7582C19.2289 40.7582 19.0192 40.7642 18.6057 40.7682C18.9421 41.0126 19.1102 41.1377 19.4446 41.3781L19.1241 42.3795L19.9629 41.7556C20.2993 41.998 20.4674 42.1173 20.8018 42.3577L20.4833 41.3642L21.3221 40.7324C20.9067 40.7423 20.6969 40.7463 20.2815 40.7523L19.961 39.7569L19.9649 39.7549Z" fill="url(#paint30_linear_2027_1043)"/>
<path d="M34.9219 51.6319L34.6034 52.6571C34.1879 52.6929 33.9821 52.7087 33.5667 52.7425C33.903 52.967 34.0692 53.0723 34.4035 53.2909L34.085 54.3181C34.4213 54.0439 34.5875 53.9048 34.9219 53.6287L35.7588 54.1711L35.4383 53.2015L36.2752 52.5061C35.8597 52.5458 35.6519 52.5617 35.2404 52.5995C35.1138 52.214 35.0544 52.0193 34.9219 51.6299V51.6319Z" fill="url(#paint31_linear_2027_1043)"/>
<path d="M46.8816 50.3419L46.5611 51.381L45.5244 51.5121L46.3633 52.0247L46.0428 53.0638L46.8836 52.3406C47.2199 52.5433 47.3881 52.6466 47.7225 52.8493L47.402 51.8916L48.2428 51.1624L47.2061 51.2975L46.8856 50.3379L46.8816 50.3419Z" fill="url(#paint32_linear_2027_1043)"/>
<path d="M46.8816 45.3018C46.753 45.719 46.6877 45.9236 46.5611 46.3409C46.1456 46.3945 45.9379 46.4204 45.5244 46.47C45.8608 46.6786 46.0289 46.78 46.3633 46.9846L46.0428 48.0237C46.3791 47.7337 46.5473 47.5906 46.8816 47.3005L47.7205 47.8092L47.4 46.8535L48.2408 46.1243C47.8273 46.178 47.6176 46.2078 47.2041 46.2594L46.8836 45.3018H46.8816Z" fill="url(#paint33_linear_2027_1043)"/>
<path d="M47.2002 56.3424L46.8797 55.3848L46.5592 56.4259C46.1457 56.4755 45.936 56.5053 45.5225 56.555L46.3613 57.0696L46.0408 58.1087L46.8797 57.3855C47.216 57.5882 47.3842 57.6895 47.7185 57.8942L47.398 56.9385L48.2369 56.2093L47.2002 56.3444V56.3424Z" fill="url(#paint34_linear_2027_1043)"/>
<path d="M43.8962 43.1504C43.7696 43.5656 43.7063 43.7723 43.5777 44.1895L42.5449 44.3087L43.3798 44.8293L43.0613 45.8664C43.3976 45.5803 43.5599 45.4373 43.8942 45.1512L44.7311 45.6677L44.4106 44.7081L45.2495 43.9869L44.2128 44.114C44.102 43.7941 43.9951 43.4742 43.8942 43.1524L43.8962 43.1504Z" fill="url(#paint35_linear_2027_1043)"/>
<path d="M46.8836 40.2588L46.5611 41.2979C46.1456 41.3516 45.9379 41.3774 45.5244 41.4271L46.3653 41.9417L46.0447 42.9828C46.3811 42.6947 46.5493 42.5457 46.8836 42.2576L47.7245 42.7682C47.6176 42.4483 47.5108 42.1284 47.4039 41.8086C47.7403 41.5205 47.9085 41.3695 48.2448 41.0794L47.2061 41.2145L46.8856 40.2568L46.8836 40.2588Z" fill="url(#paint36_linear_2027_1043)"/>
<path d="M43.8962 38.1113C43.7696 38.5246 43.7063 38.7332 43.5777 39.1485L42.5449 39.2677C42.8813 39.4743 43.0474 39.5796 43.3798 39.7882L43.0613 40.8254C43.3976 40.5393 43.5599 40.3962 43.8942 40.1101L44.7311 40.6267L44.4106 39.667C44.7469 39.3789 44.9112 39.2339 45.2495 38.9458L44.2128 39.073C44.102 38.7531 43.9951 38.4332 43.8942 38.1113H43.8962Z" fill="url(#paint37_linear_2027_1043)"/>
<path d="M49.8772 47.4238L49.5567 48.4689C49.1432 48.5245 48.9355 48.5543 48.522 48.608L49.3608 49.1127L49.0403 50.1557L49.8792 49.4226L50.7161 49.9233C50.5875 49.5418 50.5242 49.3511 50.3975 48.9696C50.7339 48.6755 50.8981 48.5285 51.2325 48.2325C50.819 48.2941 50.6132 48.3199 50.1997 48.3795L49.8792 47.4258L49.8772 47.4238Z" fill="url(#paint38_linear_2027_1043)"/>
<path d="M49.8792 42.3828L49.5587 43.424C49.1452 43.4816 48.9374 43.5094 48.522 43.565C48.8583 43.7677 49.0245 43.867 49.3589 44.0677L49.0383 45.1128L49.8772 44.3776L50.7141 44.8803C50.5855 44.4988 50.5222 44.3061 50.3956 43.9246C50.7319 43.6306 50.8961 43.4836 51.2305 43.1875L50.1977 43.3345L49.8792 42.3809V42.3828Z" fill="url(#paint39_linear_2027_1043)"/>
<path d="M50.1935 58.4625L49.875 57.5088L49.5545 58.5519C49.141 58.6095 48.9333 58.6373 48.5198 58.693L49.3567 59.1976L49.0362 60.2427C49.3725 59.9506 49.5407 59.8016 49.875 59.5056L50.7119 60.0082L50.3914 59.0526L51.2283 58.3155C50.8148 58.377 50.613 58.4049 50.1955 58.4625H50.1935Z" fill="url(#paint40_linear_2027_1043)"/>
<path d="M49.8811 37.3408L49.5606 38.3859C49.1471 38.4435 48.9374 38.4733 48.5239 38.527L49.3648 39.0296L49.0423 40.0708L49.8831 39.3396C50.2195 39.5403 50.3837 39.6416 50.72 39.8383C50.5934 39.4568 50.5281 39.2661 50.4015 38.8846C50.7378 38.5906 50.902 38.4435 51.2344 38.1475C50.8229 38.2091 50.6171 38.2389 50.2036 38.2965L49.8831 37.3408H49.8811Z" fill="url(#paint41_linear_2027_1043)"/>
<path d="M49.875 52.4668L49.5545 53.5099L48.5198 53.649L49.3567 54.1556L49.0362 55.1967L49.875 54.4656L50.7119 54.9643L50.3934 54.0106C50.7297 53.7165 50.8939 53.5695 51.2283 53.2735C50.8168 53.3351 50.609 53.3629 50.1955 53.4205L49.877 52.4668H49.875Z" fill="url(#paint42_linear_2027_1043)"/>
<path d="M43.8962 48.1924C43.7696 48.6077 43.7063 48.8143 43.5777 49.2296L42.5449 49.3508C42.8813 49.5594 43.0475 49.6647 43.3818 49.8713L43.0633 50.9084L43.8962 50.1912L44.7331 50.7078L44.4126 49.7481C44.7489 49.46 44.9131 49.315 45.2514 49.0269C44.836 49.0786 44.6263 49.1024 44.2147 49.1521L43.8962 48.1904V48.1924Z" fill="url(#paint43_linear_2027_1043)"/>
<path d="M34.9219 41.5469L34.6034 42.5721C34.1879 42.6079 33.9801 42.6257 33.5667 42.6595L34.4055 43.2099L34.087 44.2351C34.4233 43.9609 34.5895 43.8198 34.9239 43.5456C35.2602 43.7702 35.4244 43.8735 35.7608 44.09L35.4402 43.1205C35.7766 42.8443 35.9428 42.7012 36.2771 42.4251L35.2424 42.5204C35.1158 42.131 35.0564 41.9383 34.9239 41.5489L34.9219 41.5469Z" fill="url(#paint44_linear_2027_1043)"/>
<path d="M37.9134 53.875L37.5929 54.9062C37.1794 54.9459 36.9696 54.9658 36.5562 55.0035L37.395 55.542L37.0745 56.5731L37.9134 55.8758C38.2497 56.0923 38.4179 56.1976 38.7522 56.4122L38.4317 55.4446C38.7681 55.1665 38.9343 55.0234 39.2706 54.7433L38.2359 54.8466C38.1073 54.4651 38.042 54.2664 37.9153 53.877L37.9134 53.875Z" fill="url(#paint45_linear_2027_1043)"/>
<path d="M43.8962 53.2334L43.5777 54.2706C43.1642 54.3182 42.9584 54.3441 42.5449 54.3918C42.8813 54.6024 43.0455 54.7057 43.3818 54.9123L43.0633 55.9475C43.3996 55.6614 43.5638 55.5183 43.8962 55.2322L44.7331 55.7488L44.4146 54.7891C44.7509 54.501 44.9151 54.356 45.2534 54.0679C44.838 54.1196 44.6282 54.1434 44.2167 54.1931C44.1059 53.8752 43.9991 53.5533 43.8982 53.2314L43.8962 53.2334Z" fill="url(#paint46_linear_2027_1043)"/>
<path d="M37.9134 43.792L37.5929 44.8212L36.5562 44.9185L37.395 45.457L37.0745 46.4881C37.4108 46.208 37.579 46.0709 37.9134 45.7908C38.2497 46.0053 38.4179 46.1106 38.7522 46.3272C38.6236 45.9398 38.5583 45.7471 38.4317 45.3576C38.7681 45.0775 38.9343 44.9404 39.2706 44.6583L38.2339 44.7596L37.9134 43.792Z" fill="url(#paint47_linear_2027_1043)"/>
<path d="M37.9134 58.918L37.5929 59.9472C37.1794 59.9869 36.9696 60.0068 36.5562 60.0445L37.395 60.583L37.0745 61.6142L37.9134 60.9148L38.7522 61.4512L38.4317 60.4817C38.7681 60.2035 38.9343 60.0624 39.2706 59.7823L38.2359 59.8836L37.9153 58.916L37.9134 58.918Z" fill="url(#paint48_linear_2027_1043)"/>
<path d="M34.9219 46.5948L34.6034 47.62C34.1879 47.6557 33.9821 47.6736 33.5667 47.7054C33.903 47.9299 34.0692 48.0432 34.4035 48.2558L34.085 49.281L34.9219 48.5915C35.2582 48.8101 35.4224 48.9194 35.7588 49.134L35.4383 48.1644L36.2752 47.469C35.8597 47.5087 35.6519 47.5246 35.2404 47.5643L34.9219 46.5928V46.5948Z" fill="url(#paint49_linear_2027_1043)"/>
<path d="M37.9134 38.751L37.5929 39.7822C37.1794 39.8219 36.9696 39.8398 36.5562 39.8795L37.395 40.4199L37.0745 41.4491L37.9153 40.7517C38.2517 40.9643 38.4159 41.0736 38.7542 41.2882L38.4337 40.3206C38.77 40.0424 38.9362 39.8994 39.2726 39.6192C38.8571 39.661 38.6494 39.6828 38.2359 39.7225L37.9153 38.753L37.9134 38.751Z" fill="url(#paint50_linear_2027_1043)"/>
<path d="M37.9134 48.835L37.5929 49.8642L36.5562 49.9675L37.395 50.5079L37.0745 51.5391L37.9134 50.8397L38.7522 51.3761L38.4317 50.4086L39.2706 49.7072C38.8571 49.7489 38.6494 49.7708 38.2339 49.8105C38.1073 49.4151 38.042 49.2244 37.9134 48.8369V48.835Z" fill="url(#paint51_linear_2027_1043)"/>
<path d="M44.2089 59.238C44.0823 58.8545 44.0189 58.6598 43.8903 58.2764L43.5718 59.3135C43.1583 59.3632 42.9526 59.385 42.5391 59.4327L43.374 59.9533L43.0554 60.9904C43.3918 60.7043 43.556 60.5593 43.8884 60.2732C44.2247 60.4818 44.3909 60.5851 44.7253 60.7917L44.4047 59.8321L45.2436 59.1108L44.2069 59.238H44.2089Z" fill="url(#paint52_linear_2027_1043)"/>
<path d="M41.2253 57.0564L40.9048 56.0908L40.5843 57.126L39.5496 57.2392L40.3884 57.7717L40.0679 58.8049L40.9068 58.0975L41.7437 58.626L41.4232 57.6624C41.7595 57.3783 41.9277 57.2352 42.262 56.9491C41.8485 56.9909 41.6408 57.0147 41.2273 57.0584L41.2253 57.0564Z" fill="url(#paint53_linear_2027_1043)"/>
<path d="M40.9068 40.9688L40.5863 42.0019C40.1728 42.0476 39.9631 42.0655 39.5496 42.1152L40.3884 42.6476L40.0679 43.6808L40.9068 42.9735L41.7437 43.5L41.4232 42.5364L42.262 41.8251L41.2273 41.9383L40.9068 40.9688Z" fill="url(#paint54_linear_2027_1043)"/>
<path d="M40.9048 51.0518L40.5843 52.0849L39.5476 52.1982L40.3865 52.7287L40.066 53.7618L40.9048 53.0565L41.7437 53.581L41.4232 52.6194L42.262 51.9081C41.8486 51.9538 41.6388 51.9776 41.2273 52.0213L40.9068 51.0537L40.9048 51.0518Z" fill="url(#paint55_linear_2027_1043)"/>
<path d="M40.9068 46.0088C40.7802 46.424 40.7149 46.6287 40.5863 47.042C40.1728 47.0876 39.9631 47.1055 39.5496 47.1492L40.3884 47.6797L40.0679 48.7129L40.9068 48.0076L41.7456 48.5341L41.4251 47.5705C41.7615 47.2863 41.9296 47.1433 42.264 46.8592C41.8505 46.9068 41.6428 46.9287 41.2293 46.9724L40.9088 46.0088H40.9068Z" fill="url(#paint56_linear_2027_1043)"/>
<defs>
<linearGradient id="paint0_linear_2027_1043" x1="17.852" y1="79.5704" x2="87.9941" y2="79.5704" gradientUnits="userSpaceOnUse">
<stop stop-color="#600000"/>
<stop offset="0.33" stop-color="#630000"/>
<stop offset="0.59" stop-color="#6D0000"/>
<stop offset="0.83" stop-color="#7E0000"/>
<stop offset="1" stop-color="#8F0000"/>
</linearGradient>
<linearGradient id="paint1_linear_2027_1043" x1="52.922" y1="73.2224" x2="52.922" y2="85.9343" gradientUnits="userSpaceOnUse">
<stop offset="0.35" stop-color="#BF1010"/>
<stop offset="0.65" stop-color="#BD1010"/>
<stop offset="0.75" stop-color="#B60F0F"/>
<stop offset="0.83" stop-color="#AB0D0D"/>
<stop offset="0.89" stop-color="#9A0A0A"/>
<stop offset="0.94" stop-color="#840606"/>
<stop offset="0.99" stop-color="#690202"/>
<stop offset="1" stop-color="#600000"/>
</linearGradient>
<linearGradient id="paint2_linear_2027_1043" x1="17.8579" y1="58.1898" x2="87.9941" y2="58.1898" gradientUnits="userSpaceOnUse">
<stop stop-color="#BF1010"/>
<stop offset="0.02" stop-color="#C11212"/>
<stop offset="0.24" stop-color="#D22323"/>
<stop offset="0.49" stop-color="#DC2D2D"/>
<stop offset="0.79" stop-color="#DF3030"/>
<stop offset="0.84" stop-color="#DC2E2E"/>
<stop offset="0.88" stop-color="#D22626"/>
<stop offset="0.92" stop-color="#C11919"/>
<stop offset="0.95" stop-color="#A90808"/>
<stop offset="0.97" stop-color="#9F0000"/>
<stop offset="1" stop-color="#DF3030"/>
</linearGradient>
<linearGradient id="paint3_linear_2027_1043" x1="17.8579" y1="50.9896" x2="87.9961" y2="50.9896" gradientUnits="userSpaceOnUse">
<stop stop-color="#DFDFDF"/>
<stop offset="0.02" stop-color="#E1E1E1"/>
<stop offset="0.24" stop-color="#F2F2F2"/>
<stop offset="0.49" stop-color="#FCFCFC"/>
<stop offset="0.79" stop-color="white"/>
<stop offset="0.84" stop-color="#FCFCFC"/>
<stop offset="0.88" stop-color="#F2F2F2"/>
<stop offset="0.92" stop-color="#E1E1E1"/>
<stop offset="0.95" stop-color="#C9C9C9"/>
<stop offset="0.97" stop-color="#BFBFBF"/>
<stop offset="1" stop-color="white"/>
</linearGradient>
<linearGradient id="paint4_linear_2027_1043" x1="17.8559" y1="69.0455" x2="87.9941" y2="69.0455" gradientUnits="userSpaceOnUse">
<stop stop-color="#DFDFDF"/>
<stop offset="0.02" stop-color="#E1E1E1"/>
<stop offset="0.24" stop-color="#F2F2F2"/>
<stop offset="0.49" stop-color="#FCFCFC"/>
<stop offset="0.79" stop-color="white"/>
<stop offset="0.84" stop-color="#FCFCFC"/>
<stop offset="0.88" stop-color="#F2F2F2"/>
<stop offset="0.92" stop-color="#E1E1E1"/>
<stop offset="0.95" stop-color="#C9C9C9"/>
<stop offset="0.97" stop-color="#BFBFBF"/>
<stop offset="1" stop-color="white"/>
</linearGradient>
<linearGradient id="paint5_linear_2027_1043" x1="17.8499" y1="76.2741" x2="87.994" y2="76.2741" gradientUnits="userSpaceOnUse">
<stop stop-color="#DFDFDF"/>
<stop offset="0.02" stop-color="#E1E1E1"/>
<stop offset="0.24" stop-color="#F2F2F2"/>
<stop offset="0.49" stop-color="#FCFCFC"/>
<stop offset="0.79" stop-color="white"/>
<stop offset="0.84" stop-color="#FCFCFC"/>
<stop offset="0.88" stop-color="#F2F2F2"/>
<stop offset="0.92" stop-color="#E1E1E1"/>
<stop offset="0.95" stop-color="#C9C9C9"/>
<stop offset="0.97" stop-color="#BFBFBF"/>
<stop offset="1" stop-color="white"/>
</linearGradient>
<linearGradient id="paint6_linear_2027_1043" x1="17.8599" y1="49.8271" x2="87.9961" y2="49.8271" gradientUnits="userSpaceOnUse">
<stop stop-color="#00209F"/>
<stop offset="0.02" stop-color="#0222A1"/>
<stop offset="0.24" stop-color="#1333B2"/>
<stop offset="0.49" stop-color="#1D3DBC"/>
<stop offset="0.79" stop-color="#2040BF"/>
<stop offset="0.84" stop-color="#1E3DBC"/>
<stop offset="0.88" stop-color="#1933B2"/>
<stop offset="0.92" stop-color="#1122A1"/>
<stop offset="0.95" stop-color="#050A89"/>
<stop offset="0.97" stop-color="#00007F"/>
<stop offset="1" stop-color="#2040BF"/>
</linearGradient>
<linearGradient id="paint7_linear_2027_1043" x1="17.8598" y1="40.9183" x2="87.9901" y2="40.9183" gradientUnits="userSpaceOnUse">
<stop stop-color="#DFDFDF"/>
<stop offset="0.02" stop-color="#E1E1E1"/>
<stop offset="0.24" stop-color="#F2F2F2"/>
<stop offset="0.49" stop-color="#FCFCFC"/>
<stop offset="0.79" stop-color="white"/>
<stop offset="0.84" stop-color="#FCFCFC"/>
<stop offset="0.88" stop-color="#F2F2F2"/>
<stop offset="0.92" stop-color="#E1E1E1"/>
<stop offset="0.95" stop-color="#C9C9C9"/>
<stop offset="0.97" stop-color="#BFBFBF"/>
<stop offset="1" stop-color="white"/>
</linearGradient>
<linearGradient id="paint8_linear_2027_1043" x1="17.8599" y1="53.3832" x2="87.9862" y2="53.3832" gradientUnits="userSpaceOnUse">
<stop stop-color="#DFDFDF"/>
<stop offset="0.02" stop-color="#E1E1E1"/>
<stop offset="0.24" stop-color="#F2F2F2"/>
<stop offset="0.49" stop-color="#FCFCFC"/>
<stop offset="0.79" stop-color="white"/>
<stop offset="0.84" stop-color="#FCFCFC"/>
<stop offset="0.88" stop-color="#F2F2F2"/>
<stop offset="0.92" stop-color="#E1E1E1"/>
<stop offset="0.95" stop-color="#C9C9C9"/>
<stop offset="0.97" stop-color="#BFBFBF"/>
<stop offset="1" stop-color="white"/>
</linearGradient>
<linearGradient id="paint9_linear_2027_1043" x1="17.8599" y1="58.4241" x2="87.9862" y2="58.4241" gradientUnits="userSpaceOnUse">
<stop stop-color="#DFDFDF"/>
<stop offset="0.02" stop-color="#E1E1E1"/>
<stop offset="0.24" stop-color="#F2F2F2"/>
<stop offset="0.49" stop-color="#FCFCFC"/>
<stop offset="0.79" stop-color="white"/>
<stop offset="0.84" stop-color="#FCFCFC"/>
<stop offset="0.88" stop-color="#F2F2F2"/>
<stop offset="0.92" stop-color="#E1E1E1"/>
<stop offset="0.95" stop-color="#C9C9C9"/>
<stop offset="0.97" stop-color="#BFBFBF"/>
<stop offset="1" stop-color="white"/>
</linearGradient>
<linearGradient id="paint10_linear_2027_1043" x1="17.8598" y1="50.9993" x2="87.9901" y2="50.9993" gradientUnits="userSpaceOnUse">
<stop stop-color="#DFDFDF"/>
<stop offset="0.02" stop-color="#E1E1E1"/>
<stop offset="0.24" stop-color="#F2F2F2"/>
<stop offset="0.49" stop-color="#FCFCFC"/>
<stop offset="0.79" stop-color="white"/>
<stop offset="0.84" stop-color="#FCFCFC"/>
<stop offset="0.88" stop-color="#F2F2F2"/>
<stop offset="0.92" stop-color="#E1E1E1"/>
<stop offset="0.95" stop-color="#C9C9C9"/>
<stop offset="0.97" stop-color="#BFBFBF"/>
<stop offset="1" stop-color="white"/>
</linearGradient>
<linearGradient id="paint11_linear_2027_1043" x1="17.8598" y1="56.0403" x2="87.9901" y2="56.0403" gradientUnits="userSpaceOnUse">
<stop stop-color="#DFDFDF"/>
<stop offset="0.02" stop-color="#E1E1E1"/>
<stop offset="0.24" stop-color="#F2F2F2"/>
<stop offset="0.49" stop-color="#FCFCFC"/>
<stop offset="0.79" stop-color="white"/>
<stop offset="0.84" stop-color="#FCFCFC"/>
<stop offset="0.88" stop-color="#F2F2F2"/>
<stop offset="0.92" stop-color="#E1E1E1"/>
<stop offset="0.95" stop-color="#C9C9C9"/>
<stop offset="0.97" stop-color="#BFBFBF"/>
<stop offset="1" stop-color="white"/>
</linearGradient>
<linearGradient id="paint12_linear_2027_1043" x1="17.8598" y1="45.9582" x2="87.9901" y2="45.9582" gradientUnits="userSpaceOnUse">
<stop stop-color="#DFDFDF"/>
<stop offset="0.02" stop-color="#E1E1E1"/>
<stop offset="0.24" stop-color="#F2F2F2"/>
<stop offset="0.49" stop-color="#FCFCFC"/>
<stop offset="0.79" stop-color="white"/>
<stop offset="0.84" stop-color="#FCFCFC"/>
<stop offset="0.88" stop-color="#F2F2F2"/>
<stop offset="0.92" stop-color="#E1E1E1"/>
<stop offset="0.95" stop-color="#C9C9C9"/>
<stop offset="0.97" stop-color="#BFBFBF"/>
<stop offset="1" stop-color="white"/>
</linearGradient>
<linearGradient id="paint13_linear_2027_1043" x1="17.8538" y1="58.0152" x2="88.0038" y2="58.0152" gradientUnits="userSpaceOnUse">
<stop stop-color="#DFDFDF"/>
<stop offset="0.02" stop-color="#E1E1E1"/>
<stop offset="0.24" stop-color="#F2F2F2"/>
<stop offset="0.49" stop-color="#FCFCFC"/>
<stop offset="0.79" stop-color="white"/>
<stop offset="0.84" stop-color="#FCFCFC"/>
<stop offset="0.88" stop-color="#F2F2F2"/>
<stop offset="0.92" stop-color="#E1E1E1"/>
<stop offset="0.95" stop-color="#C9C9C9"/>
<stop offset="0.97" stop-color="#BFBFBF"/>
<stop offset="1" stop-color="white"/>
</linearGradient>
<linearGradient id="paint14_linear_2027_1043" x1="17.8599" y1="48.3451" x2="87.9862" y2="48.3451" gradientUnits="userSpaceOnUse">
<stop stop-color="#DFDFDF"/>
<stop offset="0.02" stop-color="#E1E1E1"/>
<stop offset="0.24" stop-color="#F2F2F2"/>
<stop offset="0.49" stop-color="#FCFCFC"/>
<stop offset="0.79" stop-color="white"/>
<stop offset="0.84" stop-color="#FCFCFC"/>
<stop offset="0.88" stop-color="#F2F2F2"/>
<stop offset="0.92" stop-color="#E1E1E1"/>
<stop offset="0.95" stop-color="#C9C9C9"/>
<stop offset="0.97" stop-color="#BFBFBF"/>
<stop offset="1" stop-color="white"/>
</linearGradient>
<linearGradient id="paint15_linear_2027_1043" x1="17.8599" y1="55.7221" x2="87.9862" y2="55.7221" gradientUnits="userSpaceOnUse">
<stop stop-color="#DFDFDF"/>
<stop offset="0.02" stop-color="#E1E1E1"/>
<stop offset="0.24" stop-color="#F2F2F2"/>
<stop offset="0.49" stop-color="#FCFCFC"/>
<stop offset="0.79" stop-color="white"/>
<stop offset="0.84" stop-color="#FCFCFC"/>
<stop offset="0.88" stop-color="#F2F2F2"/>
<stop offset="0.92" stop-color="#E1E1E1"/>
<stop offset="0.95" stop-color="#C9C9C9"/>
<stop offset="0.97" stop-color="#BFBFBF"/>
<stop offset="1" stop-color="white"/>
</linearGradient>
<linearGradient id="paint16_linear_2027_1043" x1="17.8599" y1="60.767" x2="87.9862" y2="60.767" gradientUnits="userSpaceOnUse">
<stop stop-color="#DFDFDF"/>
<stop offset="0.02" stop-color="#E1E1E1"/>
<stop offset="0.24" stop-color="#F2F2F2"/>
<stop offset="0.49" stop-color="#FCFCFC"/>
<stop offset="0.79" stop-color="white"/>
<stop offset="0.84" stop-color="#FCFCFC"/>
<stop offset="0.88" stop-color="#F2F2F2"/>
<stop offset="0.92" stop-color="#E1E1E1"/>
<stop offset="0.95" stop-color="#C9C9C9"/>
<stop offset="0.97" stop-color="#BFBFBF"/>
<stop offset="1" stop-color="white"/>
</linearGradient>
<linearGradient id="paint17_linear_2027_1043" x1="17.8599" y1="43.3001" x2="87.9862" y2="43.3001" gradientUnits="userSpaceOnUse">
<stop stop-color="#DFDFDF"/>
<stop offset="0.02" stop-color="#E1E1E1"/>
<stop offset="0.24" stop-color="#F2F2F2"/>
<stop offset="0.49" stop-color="#FCFCFC"/>
<stop offset="0.79" stop-color="white"/>
<stop offset="0.84" stop-color="#FCFCFC"/>
<stop offset="0.88" stop-color="#F2F2F2"/>
<stop offset="0.92" stop-color="#E1E1E1"/>
<stop offset="0.95" stop-color="#C9C9C9"/>
<stop offset="0.97" stop-color="#BFBFBF"/>
<stop offset="1" stop-color="white"/>
</linearGradient>
<linearGradient id="paint18_linear_2027_1043" x1="17.8599" y1="50.6831" x2="87.9901" y2="50.6831" gradientUnits="userSpaceOnUse">
<stop stop-color="#DFDFDF"/>
<stop offset="0.02" stop-color="#E1E1E1"/>
<stop offset="0.24" stop-color="#F2F2F2"/>
<stop offset="0.49" stop-color="#FCFCFC"/>
<stop offset="0.79" stop-color="white"/>
<stop offset="0.84" stop-color="#FCFCFC"/>
<stop offset="0.88" stop-color="#F2F2F2"/>
<stop offset="0.92" stop-color="#E1E1E1"/>
<stop offset="0.95" stop-color="#C9C9C9"/>
<stop offset="0.97" stop-color="#BFBFBF"/>
<stop offset="1" stop-color="white"/>
</linearGradient>
<linearGradient id="paint19_linear_2027_1043" x1="17.8598" y1="61.0823" x2="87.9901" y2="61.0823" gradientUnits="userSpaceOnUse">
<stop stop-color="#DFDFDF"/>
<stop offset="0.02" stop-color="#E1E1E1"/>
<stop offset="0.24" stop-color="#F2F2F2"/>
<stop offset="0.49" stop-color="#FCFCFC"/>
<stop offset="0.79" stop-color="white"/>
<stop offset="0.84" stop-color="#FCFCFC"/>
<stop offset="0.88" stop-color="#F2F2F2"/>
<stop offset="0.92" stop-color="#E1E1E1"/>
<stop offset="0.95" stop-color="#C9C9C9"/>
<stop offset="0.97" stop-color="#BFBFBF"/>
<stop offset="1" stop-color="white"/>
</linearGradient>
<linearGradient id="paint20_linear_2027_1043" x1="17.8578" y1="51.1524" x2="88.0019" y2="51.1524" gradientUnits="userSpaceOnUse">
<stop stop-color="#DFDFDF"/>
<stop offset="0.02" stop-color="#E1E1E1"/>
<stop offset="0.24" stop-color="#F2F2F2"/>
<stop offset="0.49" stop-color="#FCFCFC"/>
<stop offset="0.79" stop-color="white"/>
<stop offset="0.84" stop-color="#FCFCFC"/>
<stop offset="0.88" stop-color="#F2F2F2"/>
<stop offset="0.92" stop-color="#E1E1E1"/>
<stop offset="0.95" stop-color="#C9C9C9"/>
<stop offset="0.97" stop-color="#BFBFBF"/>
<stop offset="1" stop-color="white"/>
</linearGradient>
<linearGradient id="paint21_linear_2027_1043" x1="17.8578" y1="46.1075" x2="88.0019" y2="46.1075" gradientUnits="userSpaceOnUse">
<stop stop-color="#DFDFDF"/>
<stop offset="0.02" stop-color="#E1E1E1"/>
<stop offset="0.24" stop-color="#F2F2F2"/>
<stop offset="0.49" stop-color="#FCFCFC"/>
<stop offset="0.79" stop-color="white"/>
<stop offset="0.84" stop-color="#FCFCFC"/>
<stop offset="0.88" stop-color="#F2F2F2"/>
<stop offset="0.92" stop-color="#E1E1E1"/>
<stop offset="0.95" stop-color="#C9C9C9"/>
<stop offset="0.97" stop-color="#BFBFBF"/>
<stop offset="1" stop-color="white"/>
</linearGradient>
<linearGradient id="paint22_linear_2027_1043" x1="17.8579" y1="61.2354" x2="87.9842" y2="61.2354" gradientUnits="userSpaceOnUse">
<stop stop-color="#DFDFDF"/>
<stop offset="0.02" stop-color="#E1E1E1"/>
<stop offset="0.24" stop-color="#F2F2F2"/>
<stop offset="0.49" stop-color="#FCFCFC"/>
<stop offset="0.79" stop-color="white"/>
<stop offset="0.84" stop-color="#FCFCFC"/>
<stop offset="0.88" stop-color="#F2F2F2"/>
<stop offset="0.92" stop-color="#E1E1E1"/>
<stop offset="0.95" stop-color="#C9C9C9"/>
<stop offset="0.97" stop-color="#BFBFBF"/>
<stop offset="1" stop-color="white"/>
</linearGradient>
<linearGradient id="paint23_linear_2027_1043" x1="17.8597" y1="45.643" x2="87.986" y2="45.643" gradientUnits="userSpaceOnUse">
<stop stop-color="#DFDFDF"/>
<stop offset="0.02" stop-color="#E1E1E1"/>
<stop offset="0.24" stop-color="#F2F2F2"/>
<stop offset="0.49" stop-color="#FCFCFC"/>
<stop offset="0.79" stop-color="white"/>
<stop offset="0.84" stop-color="#FCFCFC"/>
<stop offset="0.88" stop-color="#F2F2F2"/>
<stop offset="0.92" stop-color="#E1E1E1"/>
<stop offset="0.95" stop-color="#C9C9C9"/>
<stop offset="0.97" stop-color="#BFBFBF"/>
<stop offset="1" stop-color="white"/>
</linearGradient>
<linearGradient id="paint24_linear_2027_1043" x1="17.8599" y1="40.6001" x2="87.9862" y2="40.6001" gradientUnits="userSpaceOnUse">
<stop stop-color="#DFDFDF"/>
<stop offset="0.02" stop-color="#E1E1E1"/>
<stop offset="0.24" stop-color="#F2F2F2"/>
<stop offset="0.49" stop-color="#FCFCFC"/>
<stop offset="0.79" stop-color="white"/>
<stop offset="0.84" stop-color="#FCFCFC"/>
<stop offset="0.88" stop-color="#F2F2F2"/>
<stop offset="0.92" stop-color="#E1E1E1"/>
<stop offset="0.95" stop-color="#C9C9C9"/>
<stop offset="0.97" stop-color="#BFBFBF"/>
<stop offset="1" stop-color="white"/>
</linearGradient>
<linearGradient id="paint25_linear_2027_1043" x1="17.8579" y1="56.1885" x2="87.9842" y2="56.1885" gradientUnits="userSpaceOnUse">
<stop stop-color="#DFDFDF"/>
<stop offset="0.02" stop-color="#E1E1E1"/>
<stop offset="0.24" stop-color="#F2F2F2"/>
<stop offset="0.49" stop-color="#FCFCFC"/>
<stop offset="0.79" stop-color="white"/>
<stop offset="0.84" stop-color="#FCFCFC"/>
<stop offset="0.88" stop-color="#F2F2F2"/>
<stop offset="0.92" stop-color="#E1E1E1"/>
<stop offset="0.95" stop-color="#C9C9C9"/>
<stop offset="0.97" stop-color="#BFBFBF"/>
<stop offset="1" stop-color="white"/>
</linearGradient>
<linearGradient id="paint26_linear_2027_1043" x1="17.8578" y1="43.5324" x2="87.9861" y2="43.5324" gradientUnits="userSpaceOnUse">
<stop stop-color="#DFDFDF"/>
<stop offset="0.02" stop-color="#E1E1E1"/>
<stop offset="0.24" stop-color="#F2F2F2"/>
<stop offset="0.49" stop-color="#FCFCFC"/>
<stop offset="0.79" stop-color="white"/>
<stop offset="0.84" stop-color="#FCFCFC"/>
<stop offset="0.88" stop-color="#F2F2F2"/>
<stop offset="0.92" stop-color="#E1E1E1"/>
<stop offset="0.95" stop-color="#C9C9C9"/>
<stop offset="0.97" stop-color="#BFBFBF"/>
<stop offset="1" stop-color="white"/>
</linearGradient>
<linearGradient id="paint27_linear_2027_1043" x1="17.8578" y1="48.5774" x2="87.9861" y2="48.5774" gradientUnits="userSpaceOnUse">
<stop stop-color="#DFDFDF"/>
<stop offset="0.02" stop-color="#E1E1E1"/>
<stop offset="0.24" stop-color="#F2F2F2"/>
<stop offset="0.49" stop-color="#FCFCFC"/>
<stop offset="0.79" stop-color="white"/>
<stop offset="0.84" stop-color="#FCFCFC"/>
<stop offset="0.88" stop-color="#F2F2F2"/>
<stop offset="0.92" stop-color="#E1E1E1"/>
<stop offset="0.95" stop-color="#C9C9C9"/>
<stop offset="0.97" stop-color="#BFBFBF"/>
<stop offset="1" stop-color="white"/>
</linearGradient>
<linearGradient id="paint28_linear_2027_1043" x1="17.8579" y1="58.6604" x2="87.9862" y2="58.6604" gradientUnits="userSpaceOnUse">
<stop stop-color="#DFDFDF"/>
<stop offset="0.02" stop-color="#E1E1E1"/>
<stop offset="0.24" stop-color="#F2F2F2"/>
<stop offset="0.49" stop-color="#FCFCFC"/>
<stop offset="0.79" stop-color="white"/>
<stop offset="0.84" stop-color="#FCFCFC"/>
<stop offset="0.88" stop-color="#F2F2F2"/>
<stop offset="0.92" stop-color="#E1E1E1"/>
<stop offset="0.95" stop-color="#C9C9C9"/>
<stop offset="0.97" stop-color="#BFBFBF"/>
<stop offset="1" stop-color="white"/>
</linearGradient>
<linearGradient id="paint29_linear_2027_1043" x1="17.8578" y1="53.6203" x2="87.9862" y2="53.6203" gradientUnits="userSpaceOnUse">
<stop stop-color="#DFDFDF"/>
<stop offset="0.02" stop-color="#E1E1E1"/>
<stop offset="0.24" stop-color="#F2F2F2"/>
<stop offset="0.49" stop-color="#FCFCFC"/>
<stop offset="0.79" stop-color="white"/>
<stop offset="0.84" stop-color="#FCFCFC"/>
<stop offset="0.88" stop-color="#F2F2F2"/>
<stop offset="0.92" stop-color="#E1E1E1"/>
<stop offset="0.95" stop-color="#C9C9C9"/>
<stop offset="0.97" stop-color="#BFBFBF"/>
<stop offset="1" stop-color="white"/>
</linearGradient>
<linearGradient id="paint30_linear_2027_1043" x1="17.8579" y1="41.0674" x2="88" y2="41.0674" gradientUnits="userSpaceOnUse">
<stop stop-color="#DFDFDF"/>
<stop offset="0.02" stop-color="#E1E1E1"/>
<stop offset="0.24" stop-color="#F2F2F2"/>
<stop offset="0.49" stop-color="#FCFCFC"/>
<stop offset="0.79" stop-color="white"/>
<stop offset="0.84" stop-color="#FCFCFC"/>
<stop offset="0.88" stop-color="#F2F2F2"/>
<stop offset="0.92" stop-color="#E1E1E1"/>
<stop offset="0.95" stop-color="#C9C9C9"/>
<stop offset="0.97" stop-color="#BFBFBF"/>
<stop offset="1" stop-color="white"/>
</linearGradient>
<linearGradient id="paint31_linear_2027_1043" x1="17.8538" y1="52.9742" x2="88.0038" y2="52.9742" gradientUnits="userSpaceOnUse">
<stop stop-color="#DFDFDF"/>
<stop offset="0.02" stop-color="#E1E1E1"/>
<stop offset="0.24" stop-color="#F2F2F2"/>
<stop offset="0.49" stop-color="#FCFCFC"/>
<stop offset="0.79" stop-color="white"/>
<stop offset="0.84" stop-color="#FCFCFC"/>
<stop offset="0.88" stop-color="#F2F2F2"/>
<stop offset="0.92" stop-color="#E1E1E1"/>
<stop offset="0.95" stop-color="#C9C9C9"/>
<stop offset="0.97" stop-color="#BFBFBF"/>
<stop offset="1" stop-color="white"/>
</linearGradient>
<linearGradient id="paint32_linear_2027_1043" x1="17.8617" y1="51.7041" x2="87.988" y2="51.7041" gradientUnits="userSpaceOnUse">
<stop stop-color="#DFDFDF"/>
<stop offset="0.02" stop-color="#E1E1E1"/>
<stop offset="0.24" stop-color="#F2F2F2"/>
<stop offset="0.49" stop-color="#FCFCFC"/>
<stop offset="0.79" stop-color="white"/>
<stop offset="0.84" stop-color="#FCFCFC"/>
<stop offset="0.88" stop-color="#F2F2F2"/>
<stop offset="0.92" stop-color="#E1E1E1"/>
<stop offset="0.95" stop-color="#C9C9C9"/>
<stop offset="0.97" stop-color="#BFBFBF"/>
<stop offset="1" stop-color="white"/>
</linearGradient>
<linearGradient id="paint33_linear_2027_1043" x1="17.8617" y1="46.664" x2="87.988" y2="46.664" gradientUnits="userSpaceOnUse">
<stop stop-color="#DFDFDF"/>
<stop offset="0.02" stop-color="#E1E1E1"/>
<stop offset="0.24" stop-color="#F2F2F2"/>
<stop offset="0.49" stop-color="#FCFCFC"/>
<stop offset="0.79" stop-color="white"/>
<stop offset="0.84" stop-color="#FCFCFC"/>
<stop offset="0.88" stop-color="#F2F2F2"/>
<stop offset="0.92" stop-color="#E1E1E1"/>
<stop offset="0.95" stop-color="#C9C9C9"/>
<stop offset="0.97" stop-color="#BFBFBF"/>
<stop offset="1" stop-color="white"/>
</linearGradient>
<linearGradient id="paint34_linear_2027_1043" x1="17.8617" y1="56.745" x2="87.988" y2="56.745" gradientUnits="userSpaceOnUse">
<stop stop-color="#DFDFDF"/>
<stop offset="0.02" stop-color="#E1E1E1"/>
<stop offset="0.24" stop-color="#F2F2F2"/>
<stop offset="0.49" stop-color="#FCFCFC"/>
<stop offset="0.79" stop-color="white"/>
<stop offset="0.84" stop-color="#FCFCFC"/>
<stop offset="0.88" stop-color="#F2F2F2"/>
<stop offset="0.92" stop-color="#E1E1E1"/>
<stop offset="0.95" stop-color="#C9C9C9"/>
<stop offset="0.97" stop-color="#BFBFBF"/>
<stop offset="1" stop-color="white"/>
</linearGradient>
<linearGradient id="paint35_linear_2027_1043" x1="17.8478" y1="44.5086" x2="88.0099" y2="44.5086" gradientUnits="userSpaceOnUse">
<stop stop-color="#DFDFDF"/>
<stop offset="0.02" stop-color="#E1E1E1"/>
<stop offset="0.24" stop-color="#F2F2F2"/>
<stop offset="0.49" stop-color="#FCFCFC"/>
<stop offset="0.79" stop-color="white"/>
<stop offset="0.84" stop-color="#FCFCFC"/>
<stop offset="0.88" stop-color="#F2F2F2"/>
<stop offset="0.92" stop-color="#E1E1E1"/>
<stop offset="0.95" stop-color="#C9C9C9"/>
<stop offset="0.97" stop-color="#BFBFBF"/>
<stop offset="1" stop-color="white"/>
</linearGradient>
<linearGradient id="paint36_linear_2027_1043" x1="17.8617" y1="41.621" x2="87.986" y2="41.621" gradientUnits="userSpaceOnUse">
<stop stop-color="#DFDFDF"/>
<stop offset="0.02" stop-color="#E1E1E1"/>
<stop offset="0.24" stop-color="#F2F2F2"/>
<stop offset="0.49" stop-color="#FCFCFC"/>
<stop offset="0.79" stop-color="white"/>
<stop offset="0.84" stop-color="#FCFCFC"/>
<stop offset="0.88" stop-color="#F2F2F2"/>
<stop offset="0.92" stop-color="#E1E1E1"/>
<stop offset="0.95" stop-color="#C9C9C9"/>
<stop offset="0.97" stop-color="#BFBFBF"/>
<stop offset="1" stop-color="white"/>
</linearGradient>
<linearGradient id="paint37_linear_2027_1043" x1="17.8478" y1="39.4676" x2="88.0099" y2="39.4676" gradientUnits="userSpaceOnUse">
<stop stop-color="#DFDFDF"/>
<stop offset="0.02" stop-color="#E1E1E1"/>
<stop offset="0.24" stop-color="#F2F2F2"/>
<stop offset="0.49" stop-color="#FCFCFC"/>
<stop offset="0.79" stop-color="white"/>
<stop offset="0.84" stop-color="#FCFCFC"/>
<stop offset="0.88" stop-color="#F2F2F2"/>
<stop offset="0.92" stop-color="#E1E1E1"/>
<stop offset="0.95" stop-color="#C9C9C9"/>
<stop offset="0.97" stop-color="#BFBFBF"/>
<stop offset="1" stop-color="white"/>
</linearGradient>
<linearGradient id="paint38_linear_2027_1043" x1="17.8599" y1="48.79" x2="87.9922" y2="48.79" gradientUnits="userSpaceOnUse">
<stop stop-color="#DFDFDF"/>
<stop offset="0.02" stop-color="#E1E1E1"/>
<stop offset="0.24" stop-color="#F2F2F2"/>
<stop offset="0.49" stop-color="#FCFCFC"/>
<stop offset="0.79" stop-color="white"/>
<stop offset="0.84" stop-color="#FCFCFC"/>
<stop offset="0.88" stop-color="#F2F2F2"/>
<stop offset="0.92" stop-color="#E1E1E1"/>
<stop offset="0.95" stop-color="#C9C9C9"/>
<stop offset="0.97" stop-color="#BFBFBF"/>
<stop offset="1" stop-color="white"/>
</linearGradient>
<linearGradient id="paint39_linear_2027_1043" x1="17.8599" y1="43.749" x2="87.9922" y2="43.749" gradientUnits="userSpaceOnUse">
<stop stop-color="#DFDFDF"/>
<stop offset="0.02" stop-color="#E1E1E1"/>
<stop offset="0.24" stop-color="#F2F2F2"/>
<stop offset="0.49" stop-color="#FCFCFC"/>
<stop offset="0.79" stop-color="white"/>
<stop offset="0.84" stop-color="#FCFCFC"/>
<stop offset="0.88" stop-color="#F2F2F2"/>
<stop offset="0.92" stop-color="#E1E1E1"/>
<stop offset="0.95" stop-color="#C9C9C9"/>
<stop offset="0.97" stop-color="#BFBFBF"/>
<stop offset="1" stop-color="white"/>
</linearGradient>
<linearGradient id="paint40_linear_2027_1043" x1="17.8617" y1="58.875" x2="87.9899" y2="58.875" gradientUnits="userSpaceOnUse">
<stop stop-color="#DFDFDF"/>
<stop offset="0.02" stop-color="#E1E1E1"/>
<stop offset="0.24" stop-color="#F2F2F2"/>
<stop offset="0.49" stop-color="#FCFCFC"/>
<stop offset="0.79" stop-color="white"/>
<stop offset="0.84" stop-color="#FCFCFC"/>
<stop offset="0.88" stop-color="#F2F2F2"/>
<stop offset="0.92" stop-color="#E1E1E1"/>
<stop offset="0.95" stop-color="#C9C9C9"/>
<stop offset="0.97" stop-color="#BFBFBF"/>
<stop offset="1" stop-color="white"/>
</linearGradient>
<linearGradient id="paint41_linear_2027_1043" x1="17.8599" y1="38.705" x2="87.9921" y2="38.705" gradientUnits="userSpaceOnUse">
<stop stop-color="#DFDFDF"/>
<stop offset="0.02" stop-color="#E1E1E1"/>
<stop offset="0.24" stop-color="#F2F2F2"/>
<stop offset="0.49" stop-color="#FCFCFC"/>
<stop offset="0.79" stop-color="white"/>
<stop offset="0.84" stop-color="#FCFCFC"/>
<stop offset="0.88" stop-color="#F2F2F2"/>
<stop offset="0.92" stop-color="#E1E1E1"/>
<stop offset="0.95" stop-color="#C9C9C9"/>
<stop offset="0.97" stop-color="#BFBFBF"/>
<stop offset="1" stop-color="white"/>
</linearGradient>
<linearGradient id="paint42_linear_2027_1043" x1="17.8597" y1="53.831" x2="87.9919" y2="53.831" gradientUnits="userSpaceOnUse">
<stop stop-color="#DFDFDF"/>
<stop offset="0.02" stop-color="#E1E1E1"/>
<stop offset="0.24" stop-color="#F2F2F2"/>
<stop offset="0.49" stop-color="#FCFCFC"/>
<stop offset="0.79" stop-color="white"/>
<stop offset="0.84" stop-color="#FCFCFC"/>
<stop offset="0.88" stop-color="#F2F2F2"/>
<stop offset="0.92" stop-color="#E1E1E1"/>
<stop offset="0.95" stop-color="#C9C9C9"/>
<stop offset="0.97" stop-color="#BFBFBF"/>
<stop offset="1" stop-color="white"/>
</linearGradient>
<linearGradient id="paint43_linear_2027_1043" x1="17.8479" y1="49.5507" x2="88.0098" y2="49.5507" gradientUnits="userSpaceOnUse">
<stop stop-color="#DFDFDF"/>
<stop offset="0.02" stop-color="#E1E1E1"/>
<stop offset="0.24" stop-color="#F2F2F2"/>
<stop offset="0.49" stop-color="#FCFCFC"/>
<stop offset="0.79" stop-color="white"/>
<stop offset="0.84" stop-color="#FCFCFC"/>
<stop offset="0.88" stop-color="#F2F2F2"/>
<stop offset="0.92" stop-color="#E1E1E1"/>
<stop offset="0.95" stop-color="#C9C9C9"/>
<stop offset="0.97" stop-color="#BFBFBF"/>
<stop offset="1" stop-color="white"/>
</linearGradient>
<linearGradient id="paint44_linear_2027_1043" x1="17.8538" y1="42.8912" x2="88.0038" y2="42.8912" gradientUnits="userSpaceOnUse">
<stop stop-color="#DFDFDF"/>
<stop offset="0.02" stop-color="#E1E1E1"/>
<stop offset="0.24" stop-color="#F2F2F2"/>
<stop offset="0.49" stop-color="#FCFCFC"/>
<stop offset="0.79" stop-color="white"/>
<stop offset="0.84" stop-color="#FCFCFC"/>
<stop offset="0.88" stop-color="#F2F2F2"/>
<stop offset="0.92" stop-color="#E1E1E1"/>
<stop offset="0.95" stop-color="#C9C9C9"/>
<stop offset="0.97" stop-color="#BFBFBF"/>
<stop offset="1" stop-color="white"/>
</linearGradient>
<linearGradient id="paint45_linear_2027_1043" x1="17.8598" y1="55.2233" x2="87.9881" y2="55.2233" gradientUnits="userSpaceOnUse">
<stop stop-color="#DFDFDF"/>
<stop offset="0.02" stop-color="#E1E1E1"/>
<stop offset="0.24" stop-color="#F2F2F2"/>
<stop offset="0.49" stop-color="#FCFCFC"/>
<stop offset="0.79" stop-color="white"/>
<stop offset="0.84" stop-color="#FCFCFC"/>
<stop offset="0.88" stop-color="#F2F2F2"/>
<stop offset="0.92" stop-color="#E1E1E1"/>
<stop offset="0.95" stop-color="#C9C9C9"/>
<stop offset="0.97" stop-color="#BFBFBF"/>
<stop offset="1" stop-color="white"/>
</linearGradient>
<linearGradient id="paint46_linear_2027_1043" x1="17.8479" y1="54.5917" x2="88.0098" y2="54.5917" gradientUnits="userSpaceOnUse">
<stop stop-color="#DFDFDF"/>
<stop offset="0.02" stop-color="#E1E1E1"/>
<stop offset="0.24" stop-color="#F2F2F2"/>
<stop offset="0.49" stop-color="#FCFCFC"/>
<stop offset="0.79" stop-color="white"/>
<stop offset="0.84" stop-color="#FCFCFC"/>
<stop offset="0.88" stop-color="#F2F2F2"/>
<stop offset="0.92" stop-color="#E1E1E1"/>
<stop offset="0.95" stop-color="#C9C9C9"/>
<stop offset="0.97" stop-color="#BFBFBF"/>
<stop offset="1" stop-color="white"/>
</linearGradient>
<linearGradient id="paint47_linear_2027_1043" x1="17.8598" y1="45.1403" x2="87.9881" y2="45.1403" gradientUnits="userSpaceOnUse">
<stop stop-color="#DFDFDF"/>
<stop offset="0.02" stop-color="#E1E1E1"/>
<stop offset="0.24" stop-color="#F2F2F2"/>
<stop offset="0.49" stop-color="#FCFCFC"/>
<stop offset="0.79" stop-color="white"/>
<stop offset="0.84" stop-color="#FCFCFC"/>
<stop offset="0.88" stop-color="#F2F2F2"/>
<stop offset="0.92" stop-color="#E1E1E1"/>
<stop offset="0.95" stop-color="#C9C9C9"/>
<stop offset="0.97" stop-color="#BFBFBF"/>
<stop offset="1" stop-color="white"/>
</linearGradient>
<linearGradient id="paint48_linear_2027_1043" x1="17.8598" y1="60.2663" x2="87.9881" y2="60.2663" gradientUnits="userSpaceOnUse">
<stop stop-color="#DFDFDF"/>
<stop offset="0.02" stop-color="#E1E1E1"/>
<stop offset="0.24" stop-color="#F2F2F2"/>
<stop offset="0.49" stop-color="#FCFCFC"/>
<stop offset="0.79" stop-color="white"/>
<stop offset="0.84" stop-color="#FCFCFC"/>
<stop offset="0.88" stop-color="#F2F2F2"/>
<stop offset="0.92" stop-color="#E1E1E1"/>
<stop offset="0.95" stop-color="#C9C9C9"/>
<stop offset="0.97" stop-color="#BFBFBF"/>
<stop offset="1" stop-color="white"/>
</linearGradient>
<linearGradient id="paint49_linear_2027_1043" x1="17.8538" y1="47.9371" x2="88.0038" y2="47.9371" gradientUnits="userSpaceOnUse">
<stop stop-color="#DFDFDF"/>
<stop offset="0.02" stop-color="#E1E1E1"/>
<stop offset="0.24" stop-color="#F2F2F2"/>
<stop offset="0.49" stop-color="#FCFCFC"/>
<stop offset="0.79" stop-color="white"/>
<stop offset="0.84" stop-color="#FCFCFC"/>
<stop offset="0.88" stop-color="#F2F2F2"/>
<stop offset="0.92" stop-color="#E1E1E1"/>
<stop offset="0.95" stop-color="#C9C9C9"/>
<stop offset="0.97" stop-color="#BFBFBF"/>
<stop offset="1" stop-color="white"/>
</linearGradient>
<linearGradient id="paint50_linear_2027_1043" x1="17.8558" y1="40.0973" x2="87.9999" y2="40.0973" gradientUnits="userSpaceOnUse">
<stop stop-color="#DFDFDF"/>
<stop offset="0.02" stop-color="#E1E1E1"/>
<stop offset="0.24" stop-color="#F2F2F2"/>
<stop offset="0.49" stop-color="#FCFCFC"/>
<stop offset="0.79" stop-color="white"/>
<stop offset="0.84" stop-color="#FCFCFC"/>
<stop offset="0.88" stop-color="#F2F2F2"/>
<stop offset="0.92" stop-color="#E1E1E1"/>
<stop offset="0.95" stop-color="#C9C9C9"/>
<stop offset="0.97" stop-color="#BFBFBF"/>
<stop offset="1" stop-color="white"/>
</linearGradient>
<linearGradient id="paint51_linear_2027_1043" x1="17.8598" y1="50.1852" x2="87.9881" y2="50.1852" gradientUnits="userSpaceOnUse">
<stop stop-color="#DFDFDF"/>
<stop offset="0.02" stop-color="#E1E1E1"/>
<stop offset="0.24" stop-color="#F2F2F2"/>
<stop offset="0.49" stop-color="#FCFCFC"/>
<stop offset="0.79" stop-color="white"/>
<stop offset="0.84" stop-color="#FCFCFC"/>
<stop offset="0.88" stop-color="#F2F2F2"/>
<stop offset="0.92" stop-color="#E1E1E1"/>
<stop offset="0.95" stop-color="#C9C9C9"/>
<stop offset="0.97" stop-color="#BFBFBF"/>
<stop offset="1" stop-color="white"/>
</linearGradient>
<linearGradient id="paint52_linear_2027_1043" x1="17.8479" y1="59.6346" x2="88.0099" y2="59.6346" gradientUnits="userSpaceOnUse">
<stop stop-color="#DFDFDF"/>
<stop offset="0.02" stop-color="#E1E1E1"/>
<stop offset="0.24" stop-color="#F2F2F2"/>
<stop offset="0.49" stop-color="#FCFCFC"/>
<stop offset="0.79" stop-color="white"/>
<stop offset="0.84" stop-color="#FCFCFC"/>
<stop offset="0.88" stop-color="#F2F2F2"/>
<stop offset="0.92" stop-color="#E1E1E1"/>
<stop offset="0.95" stop-color="#C9C9C9"/>
<stop offset="0.97" stop-color="#BFBFBF"/>
<stop offset="1" stop-color="white"/>
</linearGradient>
<linearGradient id="paint53_linear_2027_1043" x1="17.8598" y1="57.4471" x2="87.9901" y2="57.4471" gradientUnits="userSpaceOnUse">
<stop stop-color="#DFDFDF"/>
<stop offset="0.02" stop-color="#E1E1E1"/>
<stop offset="0.24" stop-color="#F2F2F2"/>
<stop offset="0.49" stop-color="#FCFCFC"/>
<stop offset="0.79" stop-color="white"/>
<stop offset="0.84" stop-color="#FCFCFC"/>
<stop offset="0.88" stop-color="#F2F2F2"/>
<stop offset="0.92" stop-color="#E1E1E1"/>
<stop offset="0.95" stop-color="#C9C9C9"/>
<stop offset="0.97" stop-color="#BFBFBF"/>
<stop offset="1" stop-color="white"/>
</linearGradient>
<linearGradient id="paint54_linear_2027_1043" x1="17.8598" y1="42.323" x2="87.9901" y2="42.323" gradientUnits="userSpaceOnUse">
<stop stop-color="#DFDFDF"/>
<stop offset="0.02" stop-color="#E1E1E1"/>
<stop offset="0.24" stop-color="#F2F2F2"/>
<stop offset="0.49" stop-color="#FCFCFC"/>
<stop offset="0.79" stop-color="white"/>
<stop offset="0.84" stop-color="#FCFCFC"/>
<stop offset="0.88" stop-color="#F2F2F2"/>
<stop offset="0.92" stop-color="#E1E1E1"/>
<stop offset="0.95" stop-color="#C9C9C9"/>
<stop offset="0.97" stop-color="#BFBFBF"/>
<stop offset="1" stop-color="white"/>
</linearGradient>
<linearGradient id="paint55_linear_2027_1043" x1="17.8598" y1="52.406" x2="87.9901" y2="52.406" gradientUnits="userSpaceOnUse">
<stop stop-color="#DFDFDF"/>
<stop offset="0.02" stop-color="#E1E1E1"/>
<stop offset="0.24" stop-color="#F2F2F2"/>
<stop offset="0.49" stop-color="#FCFCFC"/>
<stop offset="0.79" stop-color="white"/>
<stop offset="0.84" stop-color="#FCFCFC"/>
<stop offset="0.88" stop-color="#F2F2F2"/>
<stop offset="0.92" stop-color="#E1E1E1"/>
<stop offset="0.95" stop-color="#C9C9C9"/>
<stop offset="0.97" stop-color="#BFBFBF"/>
<stop offset="1" stop-color="white"/>
</linearGradient>
<linearGradient id="paint56_linear_2027_1043" x1="17.8598" y1="47.3611" x2="87.9901" y2="47.3611" gradientUnits="userSpaceOnUse">
<stop stop-color="#DFDFDF"/>
<stop offset="0.02" stop-color="#E1E1E1"/>
<stop offset="0.24" stop-color="#F2F2F2"/>
<stop offset="0.49" stop-color="#FCFCFC"/>
<stop offset="0.79" stop-color="white"/>
<stop offset="0.84" stop-color="#FCFCFC"/>
<stop offset="0.88" stop-color="#F2F2F2"/>
<stop offset="0.92" stop-color="#E1E1E1"/>
<stop offset="0.95" stop-color="#C9C9C9"/>
<stop offset="0.97" stop-color="#BFBFBF"/>
<stop offset="1" stop-color="white"/>
</linearGradient>
</defs>
</svg>
