<svg width="128" height="128" viewBox="0 0 128 128" fill="none" xmlns="http://www.w3.org/2000/svg">
<g clip-path="url(#clip0_2027_1014)">
<path d="M64.2059 100.803C95.5782 100.628 120.986 96.176 120.957 90.8598C120.927 85.5437 95.4708 81.3763 64.0985 81.5516C32.7262 81.727 7.318 86.1787 7.34767 91.4948C7.37733 96.811 32.8337 100.978 64.2059 100.803Z" fill="#0E3CA5"/>
<path d="M64.0538 73.6198C99.3703 73.4226 127.976 68.9531 127.946 63.637C127.917 58.3209 99.2628 54.1712 63.9462 54.3684C28.6297 54.5657 0.0240694 59.0352 0.0537606 64.3513C0.0834518 69.6674 28.7372 73.8171 64.0538 73.6198Z" fill="#0E3CA5"/>
<path d="M63.9031 46.4332C95.7554 46.2552 121.553 41.8013 121.523 36.4851C121.493 31.169 95.6479 27.0038 63.7957 27.1818C31.9434 27.3598 6.14612 31.8137 6.17579 37.1298C6.20546 42.446 32.0509 46.6112 63.9031 46.4332Z" fill="#0E3CA5"/>
<path d="M31.3703 8.95804C42.994 14.9591 59.264 18.6957 77.2877 18.6957C87.4463 18.6957 97.0464 17.5061 105.576 15.397C94.3926 5.80533 79.8762 0 63.9942 0C52.0725 0 40.9206 3.27385 31.3672 8.95804H31.3703Z" fill="#0E3CA5"/>
<path d="M96.6183 119.042C84.9947 113.038 68.7246 109.301 50.701 109.301C40.5423 109.301 30.9423 110.491 22.4131 112.6C33.596 122.189 48.1124 127.997 63.9945 127.997C75.9161 127.997 87.068 124.723 96.6183 119.039V119.042Z" fill="#0E3CA5"/>
<path d="M127.812 67.9804C127.892 66.6634 127.948 65.3371 127.948 63.9984C127.945 28.6539 99.3126 0 63.9947 0C62.6569 0 61.3347 0.0559101 60.0156 0.136669C63.6098 13.1233 72.7598 28.2066 86.2612 41.7151C99.7596 55.2236 114.835 64.3805 127.808 67.9773L127.812 67.9804Z" fill="#5493F7"/>
<path d="M63.9943 127.997C65.332 127.997 66.6542 127.944 67.9733 127.863C64.3792 114.877 55.2292 99.7933 41.7278 86.2817C28.2263 72.7701 13.1574 63.6164 0.180512 60.0195C0.0998134 61.3365 0.0439453 62.6628 0.0439453 64.0016C0.0439453 99.3461 28.6763 128 63.9943 128V127.997Z" fill="#5493F7"/>
<path d="M89.2346 95.7659C93.132 91.8038 83.4534 75.9443 67.6168 60.3428C51.7802 44.7413 35.7825 35.3057 31.8851 39.2678C27.9876 43.23 37.6662 59.0894 53.5029 74.6909C69.3395 90.2924 85.3371 99.728 89.2346 95.7659Z" fill="#EE7730"/>
<path d="M96.1955 88.6597C100.093 84.6976 90.4144 68.8381 74.5777 53.2366C58.7411 37.6351 42.7435 28.1995 38.846 32.1616C34.9486 36.1238 44.6272 51.9832 60.4638 67.5847C76.3004 83.1862 92.2981 92.6218 96.1955 88.6597Z" fill="#F9D85E"/>
</g>
<defs>
<clipPath id="clip0_2027_1014">
<rect width="128" height="128" fill="white"/>
</clipPath>
</defs>
</svg>
