<svg width="128" height="128" viewBox="0 0 128 128" fill="none" xmlns="http://www.w3.org/2000/svg">
<g clip-path="url(#clip0_2027_1010)">
<path d="M126.996 53.3971L121.865 46.7743L92.5405 27.9228C92.6376 28.4765 92.7407 29.0303 92.862 29.58C93.0965 30.6009 93.3533 31.6158 93.6323 32.6246C93.7981 33.2387 93.972 33.8388 94.1479 34.4268C94.2045 34.606 94.2571 34.7872 94.3076 34.9684C100.102 53.5138 111.667 62.3234 127.191 74.1313C128.202 67.8287 128.266 61.4113 127.381 55.0885L126.992 53.3991L126.996 53.3971Z" fill="#EE7730"/>
<path d="M70.1448 79.9797C42.2782 67.523 24.8575 42.2401 23.8418 16.7938C23.8115 16.0875 23.2158 15.5385 22.507 15.5688C22.2122 15.5809 21.9315 15.6939 21.7114 15.8897C-4.8406 39.2834 -7.39301 79.7597 16.0109 106.3C39.4148 132.838 79.9142 135.389 106.466 111.997C114.253 105.139 120.254 96.4931 123.958 86.8034C124.216 86.1455 123.891 85.4028 123.231 85.1444C122.986 85.0496 122.718 85.0314 122.463 85.092C104.942 89.2799 86.5214 87.4796 70.1448 79.9817V79.9797Z" fill="#F9D85E"/>
<path d="M127.38 55.1022C125.87 51.6148 104.859 42.5676 64.3486 27.9607C33.7637 16.9279 28.0812 6.2821 50.2253 1.46419C51.3036 1.23237 52.3921 1.02675 53.4886 0.847338C88.4716 -4.85553 121.462 18.8308 127.176 53.7536C127.249 54.2032 127.318 54.6527 127.382 55.1042" fill="#F9D85E"/>
</g>
<defs>
<clipPath id="clip0_2027_1010">
<rect width="128" height="128" fill="white"/>
</clipPath>
</defs>
</svg>
