<svg width="128" height="128" viewBox="0 0 128 128" fill="none" xmlns="http://www.w3.org/2000/svg">
<g clip-path="url(#clip0_2027_1012)">
<path d="M64.1826 81.0733C40.7948 81.3241 20.4141 87.8181 9.34901 97.3015C20.7142 115.911 41.2983 128.245 64.6861 127.995C88.074 127.744 108.388 114.973 119.354 96.1247C108.089 86.8802 87.5725 80.8226 64.1846 81.0733H64.1826Z" fill="#EF7730"/>
<path d="M63.845 49.4405C87.9239 49.1818 108.816 42.3067 119.634 32.3633C108.5 12.826 87.3948 -0.254837 63.3158 0.00381803C39.2369 0.260498 18.4159 13.7895 7.70228 33.5618C18.7318 43.2703 39.7661 49.6991 63.845 49.4405Z" fill="#EF7730"/>
<path d="M72.8882 0.615902C69.7626 0.18152 66.5678 -0.0317223 63.3158 0.00381803C43.3044 0.21706 25.5398 9.59971 13.9594 24.1101C42.0091 23.342 65.3772 13.598 72.8882 0.615902Z" fill="#F9D85E"/>
<path d="M13.2901 24.9808C4.82939 35.9608 -0.156199 49.7465 0.00373461 64.6853C0.181439 81.1997 6.60052 96.1859 16.9942 107.429C34.044 116.244 49.8735 117.577 57.9531 109.322C70.3154 96.6914 59.8585 66.411 34.6008 41.6867C27.7276 34.9597 20.4674 29.3483 13.2901 24.9808Z" fill="#F9D85E"/>
<path d="M127.996 63.315C127.819 46.7986 121.399 31.8144 111.008 20.5718C93.958 11.7558 78.1285 10.4231 70.0469 18.6783C57.6846 31.307 68.1395 61.5893 93.3992 86.3136C100.272 93.0406 107.533 98.652 114.71 103.02C123.171 92.0375 128.156 78.2518 127.996 63.315Z" fill="#F9D85E"/>
<path d="M54.245 127.248C57.6471 127.769 61.1321 128.034 64.6842 127.996C84.7035 127.781 102.47 118.395 114.05 103.876C85.6829 104.447 61.9337 114.191 54.245 127.248Z" fill="#F9D85E"/>
</g>
<defs>
<clipPath id="clip0_2027_1012">
<rect width="128" height="128" fill="white"/>
</clipPath>
</defs>
</svg>
