<svg width="128" height="128" viewBox="0 0 128 128" fill="none" xmlns="http://www.w3.org/2000/svg">
<g clip-path="url(#clip0_2027_1027)">
<path d="M63.9984 128C89.9438 128 112.267 112.55 122.313 90.3591C111.954 79.6675 90.0432 72.2903 64.6848 72.2903C39.3265 72.2903 16.071 80.1335 6.13763 91.3686C16.3971 113.022 38.4443 128 63.9953 128H63.9984Z" fill="#0E3CA5"/>
<path d="M64.6879 55.7096C90.0463 55.7096 111.957 48.3355 122.316 37.6408C112.267 15.4502 89.9438 0 63.9984 0C38.053 0 16.4003 14.9781 6.14076 36.6313C16.0741 47.8633 38.5438 55.7096 64.6879 55.7096Z" fill="#0E3CA5"/>
<path d="M0 63.9999C0 70.0539 0.857288 75.9028 2.42898 81.4536C19.7145 90.8095 35.9253 92.4806 44.228 84.1777C56.7332 71.6753 46.5669 41.3061 21.5223 16.3509C21.485 16.3137 21.4477 16.2795 21.4105 16.2422C8.2778 27.9619 0 45.0118 0 63.9999Z" fill="url(#paint0_linear_2027_1027)"/>
<path d="M83.772 43.8222C71.2668 56.3246 81.4331 86.6939 106.478 111.649C106.515 111.686 106.552 111.72 106.59 111.758C119.722 100.038 128 82.9882 128 64C128 57.9461 127.143 52.0971 125.571 46.5464C108.285 37.1905 92.0747 35.5194 83.772 43.8222Z" fill="url(#paint1_linear_2027_1027)"/>
<path d="M45.983 32.0279C57.28 43.3283 83.1664 36.1126 106.465 16.1367C95.1653 6.10367 80.2994 0 63.9985 0C56.6246 0 49.5457 1.26422 42.9546 3.5597C39.1713 15.5154 39.8733 25.9181 45.983 32.0279Z" fill="#5493F7"/>
<path d="M82.017 95.9721C70.7201 84.6717 44.8337 91.8874 21.5347 111.863C32.8348 121.896 47.7007 128 64.0016 128C71.3755 128 78.4543 126.736 85.0455 124.44C88.8287 112.481 88.1268 102.082 82.017 95.969V95.9721Z" fill="#5493F7"/>
<path d="M0 63.9999C0 70.0539 0.857288 75.9028 2.42898 81.4536C19.7145 90.8095 35.9253 92.4806 44.228 84.1777C56.7332 71.6753 46.5669 41.3061 21.5223 16.3509C21.485 16.3137 21.4477 16.2795 21.4105 16.2422C8.2778 27.9619 0 45.0118 0 63.9999Z" fill="url(#paint2_linear_2027_1027)"/>
<path d="M83.772 43.8222C71.2668 56.3246 81.4331 86.6939 106.478 111.649C106.515 111.686 106.552 111.72 106.59 111.758C119.722 100.038 128 82.9882 128 64C128 57.9461 127.143 52.0971 125.571 46.5464C108.285 37.1905 92.0747 35.5194 83.772 43.8222Z" fill="url(#paint3_linear_2027_1027)"/>
<path d="M83.772 43.8222C71.2668 56.3246 81.4331 86.6939 106.478 111.649C106.515 111.686 106.552 111.72 106.59 111.758C119.722 100.038 128 82.9882 128 64C128 57.9461 127.143 52.0971 125.571 46.5464C108.285 37.1905 92.0747 35.5194 83.772 43.8222Z" fill="url(#paint4_linear_2027_1027)"/>
<path d="M0 63.9999C0 70.0539 0.857288 75.9028 2.42898 81.4536C19.7145 90.8095 35.9253 92.4806 44.228 84.1777C56.7332 71.6753 46.5669 41.3061 21.5223 16.3509C21.485 16.3137 21.4477 16.2795 21.4105 16.2422C8.2778 27.9619 0 45.0118 0 63.9999Z" fill="url(#paint5_linear_2027_1027)"/>
</g>
<defs>
<linearGradient id="paint0_linear_2027_1027" x1="49.5767" y1="52.8922" x2="0" y2="52.8922" gradientUnits="userSpaceOnUse">
<stop stop-color="#F9D85E"/>
<stop offset="0.15" stop-color="#DECC76" stop-opacity="0.87"/>
<stop offset="0.57" stop-color="#94ADBB" stop-opacity="0.51"/>
<stop offset="0.86" stop-color="#669AE6" stop-opacity="0.29"/>
<stop offset="1" stop-color="#5493F7" stop-opacity="0.2"/>
</linearGradient>
<linearGradient id="paint1_linear_2027_1027" x1="78.4202" y1="75.1078" x2="127.997" y2="75.1078" gradientUnits="userSpaceOnUse">
<stop stop-color="#F9D85E"/>
<stop offset="0.15" stop-color="#DECC76" stop-opacity="0.87"/>
<stop offset="0.57" stop-color="#94ADBB" stop-opacity="0.51"/>
<stop offset="0.86" stop-color="#669AE6" stop-opacity="0.29"/>
<stop offset="1" stop-color="#5493F7" stop-opacity="0.2"/>
</linearGradient>
<linearGradient id="paint2_linear_2027_1027" x1="49.5767" y1="52.8922" x2="0" y2="52.8922" gradientUnits="userSpaceOnUse">
<stop stop-color="#F9D85E"/>
<stop offset="0.15" stop-color="#DECC76" stop-opacity="0.87"/>
<stop offset="0.57" stop-color="#94ADBB" stop-opacity="0.51"/>
<stop offset="0.86" stop-color="#669AE6" stop-opacity="0.29"/>
<stop offset="1" stop-color="#5493F7" stop-opacity="0.2"/>
</linearGradient>
<linearGradient id="paint3_linear_2027_1027" x1="78.4202" y1="75.1078" x2="127.997" y2="75.1078" gradientUnits="userSpaceOnUse">
<stop stop-color="#F9D85E"/>
<stop offset="0.15" stop-color="#DECC76" stop-opacity="0.87"/>
<stop offset="0.57" stop-color="#94ADBB" stop-opacity="0.51"/>
<stop offset="0.86" stop-color="#669AE6" stop-opacity="0.29"/>
<stop offset="1" stop-color="#5493F7" stop-opacity="0.2"/>
</linearGradient>
<linearGradient id="paint4_linear_2027_1027" x1="78.4202" y1="75.1078" x2="127.997" y2="75.1078" gradientUnits="userSpaceOnUse">
<stop stop-color="#F9D85E"/>
<stop offset="0.15" stop-color="#DECC76" stop-opacity="0.87"/>
<stop offset="0.57" stop-color="#94ADBB" stop-opacity="0.51"/>
<stop offset="0.86" stop-color="#669AE6" stop-opacity="0.29"/>
<stop offset="1" stop-color="#5493F7" stop-opacity="0.2"/>
</linearGradient>
<linearGradient id="paint5_linear_2027_1027" x1="49.5767" y1="52.8922" x2="0" y2="52.8922" gradientUnits="userSpaceOnUse">
<stop stop-color="#F9D85E"/>
<stop offset="0.15" stop-color="#DECC76" stop-opacity="0.87"/>
<stop offset="0.57" stop-color="#94ADBB" stop-opacity="0.51"/>
<stop offset="0.86" stop-color="#669AE6" stop-opacity="0.29"/>
<stop offset="1" stop-color="#5493F7" stop-opacity="0.2"/>
</linearGradient>
<clipPath id="clip0_2027_1027">
<rect width="128" height="128" fill="white"/>
</clipPath>
</defs>
</svg>
